<svg xmlns="http://www.w3.org/2000/svg" width="76.642" height="90" viewBox="0 0 76.642 90">
  <g id="surface1" transform="translate(-0.5 0)">
    <path id="Path_9037" data-name="Path 9037" d="M73.094,60.1A45.406,45.406,0,0,1,62.218,77.043c-5.461,5.332-12.612,9.57-21.254,12.592A6.5,6.5,0,0,1,38.9,90h-.078a6.6,6.6,0,0,1-1.268-.125,6.866,6.866,0,0,1-.871-.237C28.03,86.62,20.871,82.384,15.4,77.052A45.32,45.32,0,0,1,4.531,60.114C.139,48.194.389,35.062.59,24.51l0-.162c.041-.871.067-1.787.081-2.8a9.539,9.539,0,0,1,8.982-9.345C20,11.629,28.009,8.254,34.849,1.587l.06-.055a5.765,5.765,0,0,1,7.827,0l.058.055C49.635,8.254,57.64,11.629,67.988,12.206a9.539,9.539,0,0,1,8.982,9.345c.014,1.018.041,1.931.081,2.8l0,.069C77.253,34.989,77.5,48.146,73.094,60.1Zm0,0" transform="translate(0 0)" fill="#00dd80"/>
    <path id="Path_9038" data-name="Path 9038" d="M253.143,60.1a45.406,45.406,0,0,1-10.875,16.942c-5.461,5.332-12.612,9.57-21.254,12.592a6.5,6.5,0,0,1-2.065.365V0a5.774,5.774,0,0,1,3.836,1.531l.058.055c6.841,6.667,14.846,10.041,25.194,10.619a9.539,9.539,0,0,1,8.982,9.345c.014,1.018.041,1.931.081,2.8l0,.069C257.3,34.992,257.552,48.149,253.143,60.1Zm0,0" transform="translate(-180.05 -0.003)" fill="#00aa63"/>
    <path id="Path_9039" data-name="Path 9039" d="M135.755,150.828A22.458,22.458,0,0,1,113.4,173.258h-.079a22.43,22.43,0,1,1,0-44.861h.079A22.458,22.458,0,0,1,135.755,150.828Zm0,0" transform="translate(-74.505 -105.828)" fill="#fff"/>
    <path id="Path_9040" data-name="Path 9040" d="M241.3,150.828a22.458,22.458,0,0,1-22.351,22.431V128.4A22.458,22.458,0,0,1,241.3,150.828Zm0,0" transform="translate(-180.05 -105.828)" fill="#e1ebf0"/>
    <path id="Path_9041" data-name="Path 9041" d="M175.665,216.488l-10.1,10.1-2.183,2.183a2.643,2.643,0,0,1-3.736,0l-4.693-4.7a2.64,2.64,0,1,1,3.734-3.734l2.828,2.828,10.419-10.418a2.64,2.64,0,1,1,3.734,3.734Zm0,0" transform="translate(-126.664 -174.718)" fill="#b4d2d7"/>
    <path id="Path_9042" data-name="Path 9042" d="M229.051,216.488l-10.1,10.1v-7.47l6.368-6.367a2.64,2.64,0,0,1,3.734,3.734Zm0,0" transform="translate(-180.05 -174.718)" fill="#6fa5aa"/>
  </g>
</svg>
