<svg xmlns="http://www.w3.org/2000/svg" width="28" height="32" viewBox="0 0 28 32">
  <g id="Group_6346" data-name="Group 6346" transform="translate(-1.008 2)">
    <path id="Polygon_13" data-name="Polygon 13" d="M21.679,0a4,4,0,0,1,3.473,2.015l5.714,10a4,4,0,0,1,0,3.969l-5.714,10A4,4,0,0,1,21.679,28H10.321a4,4,0,0,1-3.473-2.015l-5.714-10a4,4,0,0,1,0-3.969l5.714-10A4,4,0,0,1,10.321,0Z" transform="translate(29.008 -2) rotate(90)" fill="#8dc351"/>
    <g id="Group_1218" data-name="Group 1218" transform="translate(7.513 4.677)">
      <path id="Path_803" data-name="Path 803" d="M20.325,9.232a2.572,2.572,0,0,1-.6,3.081,2.83,2.83,0,0,1,3.24,2.648c.49,2.59-1.2,3.806-3.839,4.73l.76,2.651-1.6.459-.749-2.616c-.414.119-.84.238-1.281.355l.753,2.627-1.6.457-.763-2.655c-.374.1-.757.207-1.144.317l-2.079.6-.231-2s1.188-.32,1.162-.332a.587.587,0,0,0,.449-.7l-1.2-4.191.168-.049a1.328,1.328,0,0,0-.172.037l-.858-2.991a.859.859,0,0,0-1.12-.437c.014-.027-1.16.334-1.16.334l-.49-1.707,2.2-.631,0,.007c.331-.1.669-.2,1.013-.305l-.751-2.625,1.6-.458.737,2.573c.425-.131.852-.261,1.272-.383l-.734-2.556,1.6-.458.753,2.625c2.115-.411,3.931-.245,4.655,1.6Zm-.607,6.319c-.595-2.069-3.9-.784-4.985-.473L15.741,18.6c1.083-.312,4.545-1.06,3.976-3.045ZM17.551,10.8c-.541-1.883-3.293-.784-4.194-.525l.915,3.192C15.174,13.209,18.068,12.607,17.551,10.8Z" transform="translate(-7.977 -5.011)" fill="#111"/>
      <path id="Path_804" data-name="Path 804" d="M20.325,9.232a2.572,2.572,0,0,1-.6,3.081,2.83,2.83,0,0,1,3.24,2.648c.49,2.59-1.2,3.806-3.839,4.73l.76,2.651-1.6.459-.749-2.616c-.414.119-.84.238-1.281.355l.753,2.627-1.6.457-.763-2.655c-.374.1-.757.207-1.144.317l-2.079.6-.231-2s1.188-.32,1.162-.332a.587.587,0,0,0,.449-.7l-1.2-4.191.168-.049a1.328,1.328,0,0,0-.172.037l-.858-2.991a.859.859,0,0,0-1.12-.437c.014-.027-1.16.334-1.16.334l-.49-1.707,2.2-.631,0,.007c.331-.1.669-.2,1.013-.305l-.751-2.625,1.6-.458.737,2.573c.425-.131.852-.261,1.272-.383l-.734-2.556,1.6-.458.753,2.625c2.115-.411,3.931-.245,4.655,1.6Zm-.607,6.319c-.595-2.069-3.9-.784-4.985-.473L15.741,18.6c1.083-.312,4.545-1.06,3.976-3.045ZM17.551,10.8c-.541-1.883-3.293-.784-4.194-.525l.915,3.192C15.174,13.209,18.068,12.607,17.551,10.8Z" transform="translate(-7.977 -5.011)" fill="#fff"/>
    </g>
  </g>
</svg>
