<svg xmlns="http://www.w3.org/2000/svg" width="28" height="32" viewBox="0 0 28 32">
  <g id="Group_6343" data-name="Group 6343" transform="translate(-1518.996 -499)">
    <path id="Polygon_10" data-name="Polygon 10" d="M21.679,0a4,4,0,0,1,3.473,2.015l5.714,10a4,4,0,0,1,0,3.969l-5.714,10A4,4,0,0,1,21.679,28H10.321a4,4,0,0,1-3.473-2.015l-5.714-10a4,4,0,0,1,0-3.969l5.714-10A4,4,0,0,1,10.321,0Z" transform="translate(1546.996 499) rotate(90)" fill="#f3ba2f"/>
    <g id="bnb" transform="translate(1522.99 505)">
      <path id="Path_805" data-name="Path 805" d="M6.122,8.4,10.006,4.52l3.886,3.886,2.26-2.26L10.006,0,3.862,6.144,6.122,8.4M.006,10l2.26-2.26L4.526,10l-2.26,2.26Zm6.116,1.6,3.884,3.884,3.886-3.886,2.261,2.259h0L10.006,20,3.862,13.856l0,0L6.122,11.6M15.486,10l2.26-2.26L20.006,10l-2.26,2.26Z" fill="#fff"/>
      <path id="Path_806" data-name="Path 806" d="M775.527,773.039h0l-2.489-2.489-1.839,1.839h0l-.211.211-.436.436,0,0,0,0,2.486,2.486,2.489-2.489h0" transform="translate(-763.034 -763.04)" fill="#fff"/>
    </g>
  </g>
</svg>
