<svg xmlns="http://www.w3.org/2000/svg" width="28" height="32" viewBox="0 0 28 32">
  <g id="Group_6340" data-name="Group 6340" transform="translate(-1518.853 -498)">
    <path id="Polygon_7" data-name="Polygon 7" d="M21.679,0a4,4,0,0,1,3.473,2.015l5.714,10a4,4,0,0,1,0,3.969l-5.714,10A4,4,0,0,1,21.679,28H10.321a4,4,0,0,1-3.473-2.015l-5.714-10a4,4,0,0,1,0-3.969l5.714-10A4,4,0,0,1,10.321,0Z" transform="translate(1546.853 498) rotate(90)" fill="#f7931a"/>
    <g id="g39" transform="translate(1523.996 504)">
      <path id="use35" d="M26.063,13.356c.365-2.115-1.492-3.252-4.029-4.011l.823-2.866-2.009-.434-.8,2.79c-.528-.115-1.07-.222-1.61-.329L19.244,5.7l-2.009-.435-.823,2.865c-.437-.087-.867-.172-1.284-.262l0-.009-2.772-.6-.535,1.863s1.492.3,1.46.315c.814.177.96.644.936,1.015l-.937,3.264a1.992,1.992,0,0,1,.209.058l-.213-.045L11.966,18.3a.752.752,0,0,1-.922.414c.021.025-1.46-.316-1.46-.316l-1,2,2.616.566c.486.106.963.217,1.431.321l-.831,2.9,2.008.434.823-2.866c.549.128,1.081.247,1.6.36l-.821,2.853,2.009.434.831-2.892c3.428.563,6,.336,7.089-2.354.874-2.165-.043-3.415-1.846-4.23a2.959,2.959,0,0,0,2.566-2.561Zm-4.593,5.588c-.62,2.166-4.823.995-6.185.7l1.1-3.839C17.752,16.1,22.121,16.685,21.471,18.944Zm.622-5.619c-.566,1.971-4.064.969-5.2.723l1-3.481C19.029,10.812,22.683,11.269,22.093,13.324Z" transform="translate(-8.586 -5.264)" fill="#111"/>
      <path id="use37" d="M26.063,13.356c.365-2.115-1.492-3.252-4.029-4.011l.823-2.866-2.009-.434-.8,2.79c-.528-.115-1.07-.222-1.61-.329L19.244,5.7l-2.009-.435-.823,2.865c-.437-.087-.867-.172-1.284-.262l0-.009-2.772-.6-.535,1.863s1.492.3,1.46.315c.814.177.96.644.936,1.015l-.937,3.264a1.992,1.992,0,0,1,.209.058l-.213-.045L11.966,18.3a.752.752,0,0,1-.922.414c.021.025-1.46-.316-1.46-.316l-1,2,2.616.566c.486.106.963.217,1.431.321l-.831,2.9,2.008.434.823-2.866c.549.128,1.081.247,1.6.36l-.821,2.853,2.009.434.831-2.892c3.428.563,6,.336,7.089-2.354.874-2.165-.043-3.415-1.846-4.23a2.959,2.959,0,0,0,2.566-2.561Zm-4.593,5.588c-.62,2.166-4.823.995-6.185.7l1.1-3.839C17.752,16.1,22.121,16.685,21.471,18.944Zm.622-5.619c-.566,1.971-4.064.969-5.2.723l1-3.481C19.029,10.812,22.683,11.269,22.093,13.324Z" transform="translate(-8.586 -5.264)" fill="#fff"/>
    </g>
  </g>
</svg>
