<svg xmlns="http://www.w3.org/2000/svg" xmlns:xlink="http://www.w3.org/1999/xlink" width="28" height="32" viewBox="0 0 28 32">
  <defs>
    <linearGradient id="linear-gradient" x1="0.026" y1="0.5" x2="0.969" y2="0.49" gradientUnits="objectBoundingBox">
      <stop offset="0" stop-color="#a9b7ed"/>
      <stop offset="1" stop-color="#3b497f"/>
    </linearGradient>
  </defs>
  <g id="Group_6341" data-name="Group 6341" transform="translate(-1519.462 -497.989)">
    <path id="Polygon_8" data-name="Polygon 8" d="M21.679,0a4,4,0,0,1,3.473,2.015l5.714,10a4,4,0,0,1,0,3.969l-5.714,10A4,4,0,0,1,21.679,28H10.321a4,4,0,0,1-3.473-2.015l-5.714-10a4,4,0,0,1,0-3.969l5.714-10A4,4,0,0,1,10.321,0Z" transform="translate(1547.462 497.989) rotate(90)" fill="url(#linear-gradient)"/>
    <g id="g55" transform="translate(1526.447 502.804)">
      <path id="path43" d="M17.452,3.171v8.29l7.012,3.131Z" transform="translate(-10.439 -3.171)" fill="rgba(255,255,255,0.6)"/>
      <path id="path45" d="M16.534,3.171,9.521,14.591l7.013-3.131Z" transform="translate(-9.521 -3.171)" fill="#fff"/>
      <path id="path47" d="M17.452,21.63v5.633l7.017-9.7Z" transform="translate(-10.439 -4.897)" fill="rgba(255,255,255,0.6)"/>
      <path id="path49" d="M16.534,27.263V21.629L9.521,17.563Z" transform="translate(-9.521 -4.897)" fill="#fff"/>
      <path id="path51" d="M17.452,19.746l7.012-4.068-7.012-3.129Z" transform="translate(-10.439 -4.289)" fill="rgba(255,255,255,0.2)"/>
      <path id="path53" d="M9.521,15.677l7.013,4.068v-7.2Z" transform="translate(-9.521 -4.289)" fill="rgba(255,255,255,0.6)"/>
    </g>
  </g>
</svg>
