<svg xmlns="http://www.w3.org/2000/svg" xmlns:xlink="http://www.w3.org/1999/xlink" width="28" height="32" viewBox="0 0 28 32">
  <defs>
    <linearGradient id="linear-gradient" x1="0.974" y1="0.519" x2="0.025" y2="0.5" gradientUnits="objectBoundingBox">
      <stop offset="0" stop-color="#787676"/>
      <stop offset="1" stop-color="#fff"/>
    </linearGradient>
  </defs>
  <g id="Group_6344" data-name="Group 6344" transform="translate(-1518.996 -500)">
    <path id="Polygon_11" data-name="Polygon 11" d="M21.679,0a4,4,0,0,1,3.473,2.015l5.714,10a4,4,0,0,1,0,3.969l-5.714,10A4,4,0,0,1,21.679,28H10.321a4,4,0,0,1-3.473-2.015l-5.714-10a4,4,0,0,1,0-3.969l5.714-10A4,4,0,0,1,10.321,0Z" transform="translate(1546.996 500) rotate(90)" fill="url(#linear-gradient)"/>
    <g id="g39" transform="translate(1517.888 502.064)">
      <path id="use35" d="M10.815,17.213,9.4,17.7l.682-2.436,1.431-.512,2.062-7.443h5.082l-1.505,5.471,1.4-.5-.674,2.428-1.414.5-.84,3.075h7.652l-.865,3.153H9.65Z" transform="translate(-1.292 -0.375)" fill="#111"/>
      <path id="use37" d="M10.815,17.213,9.4,17.7l.682-2.436,1.431-.512,2.062-7.443h5.082l-1.505,5.471,1.4-.5-.674,2.428-1.414.5-.84,3.075h7.652l-.865,3.153H9.65Z" transform="translate(-1.292 -0.375)" fill="#fff"/>
    </g>
  </g>
</svg>
