<svg xmlns="http://www.w3.org/2000/svg" xmlns:xlink="http://www.w3.org/1999/xlink" width="28" height="32" viewBox="0 0 28 32">
  <defs>
    <clipPath id="clip-path">
      <path id="Polygon_15" data-name="Polygon 15" d="M21.679,0a4,4,0,0,1,3.473,2.015l5.714,10a4,4,0,0,1,0,3.969l-5.714,10A4,4,0,0,1,21.679,28H10.321a4,4,0,0,1-3.473-2.015l-5.714-10a4,4,0,0,1,0-3.969l5.714-10A4,4,0,0,1,10.321,0Z" transform="translate(336 223) rotate(90)" fill="#f7931a"/>
    </clipPath>
  </defs>
  <g id="Mask_Group_14" data-name="Mask Group 14" transform="translate(-308 -223)" clip-path="url(#clip-path)">
    <g id="iran_1_" data-name="iran (1)" transform="translate(306 223)">
      <rect id="Rectangle_990" data-name="Rectangle 990" width="32" height="10.674" transform="translate(0 10.663)" fill="#f5f5f5"/>
      <path id="Path_1923" data-name="Path 1923" d="M25,0H7A7,7,0,0,0,0,7v3.674H32V7A7,7,0,0,0,25,0Z" fill="#73af00"/>
      <path id="Path_1924" data-name="Path 1924" d="M0,344.892a7,7,0,0,0,7,7H25a7,7,0,0,0,7-7v-3.674H0Z" transform="translate(0 -319.892)" fill="#ff4b55"/>
      <g id="Group_1630" data-name="Group 1630" transform="translate(0 8.707)">
        <path id="Path_1925" data-name="Path 1925" d="M.573,139.459v-.015a.133.133,0,0,0-.133-.133H0v.28H.441A.133.133,0,0,0,.573,139.459Z" transform="translate(0 -139.312)" fill="#f5f5f5"/>
        <path id="Path_1926" data-name="Path 1926" d="M.573,140.57v-.008a.133.133,0,0,0-.133-.133H.161a.133.133,0,0,1-.133-.133v-.014a.133.133,0,0,1,.133-.133H.71a.133.133,0,0,1,.133.133v.287a.133.133,0,0,0,.133.133H2.08a.133.133,0,0,0,.133-.133v-1.126a.133.133,0,0,0-.133-.133H2.073a.133.133,0,0,0-.133.133v.853a.133.133,0,0,1-.133.133H1.8a.133.133,0,0,1-.133-.133v-.853a.133.133,0,0,0-.133-.133h0a.133.133,0,0,0-.133.133v.853a.133.133,0,0,1-.133.133H1.251a.133.133,0,0,1-.133-.133v-.853a.133.133,0,0,0-.133-.133H.975a.133.133,0,0,0-.133.133v.294a.133.133,0,0,1-.133.133H0v.832H.441A.133.133,0,0,0,.573,140.57Z" transform="translate(0 -139.311)" fill="#f5f5f5"/>
        <path id="Path_1927" data-name="Path 1927" d="M85.768,139.311H85.76a.133.133,0,0,0-.133.133v.853a.133.133,0,0,1-.133.133h0a.133.133,0,0,1-.133-.133v-.853a.133.133,0,0,0-.133-.133h-.011a.133.133,0,0,0-.133.133v.853a.133.133,0,0,1-.133.133h-.011a.133.133,0,0,1-.133-.133v-.853a.133.133,0,0,0-.133-.133h-.008a.133.133,0,0,0-.133.133v.294a.133.133,0,0,1-.133.133h-.825a.133.133,0,0,0-.133.133v.567a.133.133,0,0,0,.133.133h.556a.133.133,0,0,0,.133-.133v-.008a.133.133,0,0,0-.133-.133h-.284a.133.133,0,0,1-.133-.133v-.014a.133.133,0,0,1,.133-.133H84.4a.133.133,0,0,1,.133.133v.287a.133.133,0,0,0,.133.133h1.1a.133.133,0,0,0,.133-.133v-1.126A.132.132,0,0,0,85.768,139.311Z" transform="translate(-78.228 -139.311)" fill="#f5f5f5"/>
        <path id="Path_1928" data-name="Path 1928" d="M48.63,157.48a.133.133,0,0,0,.133-.133v-.008a.133.133,0,0,0-.133-.133h-.007a.133.133,0,0,0-.133.133v.008a.133.133,0,0,0,.133.133Z" transform="translate(-45.459 -156.088)" fill="#f5f5f5"/>
        <path id="Path_1929" data-name="Path 1929" d="M39.9,139.592h3.286a.133.133,0,0,0,.133-.133v-.015a.133.133,0,0,0-.133-.133H39.9a.133.133,0,0,0-.133.133v.015A.133.133,0,0,0,39.9,139.592Z" transform="translate(-37.281 -139.312)" fill="#f5f5f5"/>
        <path id="Path_1930" data-name="Path 1930" d="M42.091,148.258h-.553a.133.133,0,0,0-.133.133v.015a.133.133,0,0,0,.133.133h.28a.133.133,0,0,1,.133.133v.014a.133.133,0,0,1-.133.133h-.556a.133.133,0,0,1-.133-.133v-.294a.133.133,0,0,0-.133-.133H39.9a.133.133,0,0,0-.133.133v.567a.133.133,0,0,0,.133.133h.007a.133.133,0,0,0,.133-.133v-.287a.133.133,0,0,1,.133-.133h.553a.133.133,0,0,1,.133.133v.287a.133.133,0,0,0,.133.133h1.1a.133.133,0,0,0,.133-.133v-.567A.133.133,0,0,0,42.091,148.258Z" transform="translate(-37.281 -147.699)" fill="#f5f5f5"/>
        <path id="Path_1931" data-name="Path 1931" d="M135.986,157.48a.133.133,0,0,0,.133-.133v-.008a.133.133,0,0,0-.133-.133h-.007a.133.133,0,0,0-.133.133v.008a.133.133,0,0,0,.133.133Z" transform="translate(-127.356 -156.088)" fill="#f5f5f5"/>
        <path id="Path_1932" data-name="Path 1932" d="M127.254,139.592h3.283a.133.133,0,0,0,.133-.133v-.015a.133.133,0,0,0-.133-.133h-3.283a.133.133,0,0,0-.133.133v.015A.133.133,0,0,0,127.254,139.592Z" transform="translate(-119.176 -139.312)" fill="#f5f5f5"/>
        <path id="Path_1933" data-name="Path 1933" d="M173.07,139.311h-.007a.133.133,0,0,0-.133.133v.853a.133.133,0,0,1-.133.133h-.008a.133.133,0,0,1-.133-.133v-.853a.133.133,0,0,0-.133-.133h-.011a.133.133,0,0,0-.133.133v.853a.133.133,0,0,1-.133.133h0a.133.133,0,0,1-.133-.133v-.853a.133.133,0,0,0-.133-.133h-.007a.133.133,0,0,0-.133.133v.294a.133.133,0,0,1-.133.133h-.832a.133.133,0,0,0-.133.133v.567a.133.133,0,0,0,.133.133h.556a.133.133,0,0,0,.133-.133v-.008a.133.133,0,0,0-.133-.133h-.28a.133.133,0,0,1-.133-.133v-.014a.133.133,0,0,1,.133-.133h.556a.133.133,0,0,1,.133.133v.287a.133.133,0,0,0,.133.133h1.1a.133.133,0,0,0,.133-.133v-1.126A.133.133,0,0,0,173.07,139.311Z" transform="translate(-160.071 -139.311)" fill="#f5f5f5"/>
        <path id="Path_1934" data-name="Path 1934" d="M129.447,148.258h-.556a.133.133,0,0,0-.133.133v.015a.133.133,0,0,0,.133.133h.28a.133.133,0,0,1,.133.133v.014a.133.133,0,0,1-.133.133h-.553a.133.133,0,0,1-.133-.133v-.294a.133.133,0,0,0-.133-.133h-1.1a.133.133,0,0,0-.133.133v.567a.133.133,0,0,0,.133.133h.007a.133.133,0,0,0,.133-.133v-.287a.133.133,0,0,1,.133-.133h.553a.133.133,0,0,1,.133.133v.287a.133.133,0,0,0,.133.133h1.1a.133.133,0,0,0,.133-.133v-.567A.133.133,0,0,0,129.447,148.258Z" transform="translate(-119.177 -147.699)" fill="#f5f5f5"/>
        <path id="Path_1935" data-name="Path 1935" d="M260.477,139.311h-.008a.133.133,0,0,0-.133.133v.853a.133.133,0,0,1-.133.133H260.2a.133.133,0,0,1-.133-.133v-.853a.133.133,0,0,0-.133-.133h-.007a.133.133,0,0,0-.133.133v.853a.133.133,0,0,1-.133.133h-.008a.133.133,0,0,1-.133-.133v-.853a.133.133,0,0,0-.133-.133h-.007a.133.133,0,0,0-.133.133v.294a.133.133,0,0,1-.133.133h-.829a.133.133,0,0,0-.133.133v.567a.133.133,0,0,0,.133.133h.556a.133.133,0,0,0,.133-.133v-.008a.133.133,0,0,0-.133-.133h-.284a.133.133,0,0,1-.133-.133v-.014a.133.133,0,0,1,.133-.133h.556a.133.133,0,0,1,.133.133v.287a.133.133,0,0,0,.133.133h1.1a.133.133,0,0,0,.133-.133v-1.126A.133.133,0,0,0,260.477,139.311Z" transform="translate(-242.017 -139.311)" fill="#f5f5f5"/>
        <path id="Path_1936" data-name="Path 1936" d="M216.8,148.258h-.556a.133.133,0,0,0-.133.133v.015a.133.133,0,0,0,.133.133h.284a.133.133,0,0,1,.133.133v.014a.133.133,0,0,1-.133.133h-.553a.133.133,0,0,1-.133-.133v-.294a.133.133,0,0,0-.133-.133h-1.1a.133.133,0,0,0-.133.133v.567a.133.133,0,0,0,.133.133h.008a.133.133,0,0,0,.133-.133v-.287a.133.133,0,0,1,.133-.133h.553a.133.133,0,0,1,.133.133v.287a.133.133,0,0,0,.133.133h1.1a.133.133,0,0,0,.133-.133v-.567A.133.133,0,0,0,216.8,148.258Z" transform="translate(-201.069 -147.699)" fill="#f5f5f5"/>
        <path id="Path_1937" data-name="Path 1937" d="M214.607,139.592h3.286a.133.133,0,0,0,.133-.133v-.015a.133.133,0,0,0-.133-.133h-3.286a.133.133,0,0,0-.133.133v.015A.133.133,0,0,0,214.607,139.592Z" transform="translate(-201.069 -139.312)" fill="#f5f5f5"/>
        <path id="Path_1938" data-name="Path 1938" d="M223.393,157.48a.133.133,0,0,0,.133-.133v-.008a.132.132,0,0,0-.133-.133h0a.133.133,0,0,0-.133.133v.008a.133.133,0,0,0,.133.133Z" transform="translate(-209.302 -156.088)" fill="#f5f5f5"/>
        <path id="Path_1939" data-name="Path 1939" d="M304.155,148.258H303.6a.133.133,0,0,0-.133.133v.015a.133.133,0,0,0,.133.133h.277a.133.133,0,0,1,.133.133v.014a.133.133,0,0,1-.133.133h-.549a.133.133,0,0,1-.133-.133v-.294a.133.133,0,0,0-.133-.133h-1.1a.133.133,0,0,0-.133.133v.567a.133.133,0,0,0,.133.133h.008a.133.133,0,0,0,.133-.133v-.287a.133.133,0,0,1,.133-.133h.553a.133.133,0,0,1,.133.133v.287a.133.133,0,0,0,.133.133h1.1a.133.133,0,0,0,.133-.133v-.567A.133.133,0,0,0,304.155,148.258Z" transform="translate(-282.966 -147.699)" fill="#f5f5f5"/>
        <path id="Path_1940" data-name="Path 1940" d="M347.885,139.311h-.008a.133.133,0,0,0-.133.133v.853a.133.133,0,0,1-.133.133H347.6a.133.133,0,0,1-.133-.133v-.853a.133.133,0,0,0-.132-.133h-.008a.133.133,0,0,0-.133.133v.853a.133.133,0,0,1-.133.133h-.007a.133.133,0,0,1-.133-.133v-.853a.133.133,0,0,0-.132-.133h-.008a.133.133,0,0,0-.133.133v.294a.133.133,0,0,1-.133.133H345.7a.133.133,0,0,0-.133.133v.567a.133.133,0,0,0,.133.133h.553a.133.133,0,0,0,.133-.133v-.008a.133.133,0,0,0-.133-.133h-.284a.133.133,0,0,1-.133-.133v-.014a.133.133,0,0,1,.133-.133h.556a.133.133,0,0,1,.133.133v.287a.133.133,0,0,0,.133.133h1.1a.133.133,0,0,0,.133-.133v-1.126A.132.132,0,0,0,347.885,139.311Z" transform="translate(-323.966 -139.311)" fill="#f5f5f5"/>
        <path id="Path_1941" data-name="Path 1941" d="M310.749,157.48a.133.133,0,0,0,.133-.133v-.008a.133.133,0,0,0-.133-.133h0a.133.133,0,0,0-.133.133v.008a.133.133,0,0,0,.133.133Z" transform="translate(-291.199 -156.088)" fill="#f5f5f5"/>
        <path id="Path_1942" data-name="Path 1942" d="M301.962,139.592h3.286a.133.133,0,0,0,.133-.133v-.015a.133.133,0,0,0-.133-.133h-3.286a.133.133,0,0,0-.133.133v.015A.133.133,0,0,0,301.962,139.592Z" transform="translate(-282.966 -139.312)" fill="#f5f5f5"/>
        <path id="Path_1943" data-name="Path 1943" d="M398.054,157.48a.133.133,0,0,0,.133-.133v-.008a.133.133,0,0,0-.133-.133h-.011a.133.133,0,0,0-.133.133v.008a.133.133,0,0,0,.133.133Z" transform="translate(-373.041 -156.088)" fill="#f5f5f5"/>
        <path id="Path_1944" data-name="Path 1944" d="M389.318,139.592H392.6a.133.133,0,0,0,.133-.133v-.015a.133.133,0,0,0-.133-.133h-3.286a.133.133,0,0,0-.133.133v.015A.133.133,0,0,0,389.318,139.592Z" transform="translate(-364.861 -139.312)" fill="#f5f5f5"/>
        <path id="Path_1945" data-name="Path 1945" d="M435.242,139.311h0a.133.133,0,0,0-.133.133v.853a.133.133,0,0,1-.133.133h-.011a.133.133,0,0,1-.133-.133v-.853a.133.133,0,0,0-.133-.133h-.008a.133.133,0,0,0-.133.133v.853a.133.133,0,0,1-.133.133h-.007a.133.133,0,0,1-.133-.133v-.853a.133.133,0,0,0-.133-.133h-.008a.133.133,0,0,0-.133.133v.294a.133.133,0,0,1-.133.133h-.825a.133.133,0,0,0-.133.133v.567a.133.133,0,0,0,.133.133h.553a.133.133,0,0,0,.133-.133v-.008a.133.133,0,0,0-.133-.133h-.277a.133.133,0,0,1-.133-.133v-.014a.133.133,0,0,1,.133-.133h.549a.133.133,0,0,1,.133.133v.287a.133.133,0,0,0,.133.133h1.1a.133.133,0,0,0,.133-.133v-1.126A.133.133,0,0,0,435.242,139.311Z" transform="translate(-405.863 -139.311)" fill="#f5f5f5"/>
        <path id="Path_1946" data-name="Path 1946" d="M391.511,148.258h-.553a.133.133,0,0,0-.133.133v.015a.133.133,0,0,0,.133.133h.284a.133.133,0,0,1,.133.133v.014a.133.133,0,0,1-.133.133h-.56a.133.133,0,0,1-.133-.133v-.294a.133.133,0,0,0-.133-.133h-1.1a.133.133,0,0,0-.133.133v.567a.133.133,0,0,0,.133.133h.008a.133.133,0,0,0,.133-.133v-.287a.133.133,0,0,1,.133-.133h.556a.133.133,0,0,1,.133.133v.287a.133.133,0,0,0,.133.133h1.1a.133.133,0,0,0,.133-.133v-.567A.133.133,0,0,0,391.511,148.258Z" transform="translate(-364.862 -147.699)" fill="#f5f5f5"/>
        <path id="Path_1947" data-name="Path 1947" d="M478.235,148.392v.015a.133.133,0,0,0,.133.133h.28a.133.133,0,0,1,.133.133v.014a.133.133,0,0,1-.133.133h-.556a.133.133,0,0,1-.133-.133v-.294a.133.133,0,0,0-.133-.133h-1.1a.133.133,0,0,0-.133.133v.567a.133.133,0,0,0,.133.133h0a.133.133,0,0,0,.133-.133v-.287a.133.133,0,0,1,.133-.133h.553a.133.133,0,0,1,.133.133v.287a.133.133,0,0,0,.133.133h.993v-.832h-.441A.133.133,0,0,0,478.235,148.392Z" transform="translate(-446.809 -147.7)" fill="#f5f5f5"/>
        <path id="Path_1948" data-name="Path 1948" d="M476.595,139.444v.015a.133.133,0,0,0,.133.133h2.08v-.28h-2.08A.133.133,0,0,0,476.595,139.444Z" transform="translate(-446.808 -139.311)" fill="#f5f5f5"/>
        <path id="Path_1949" data-name="Path 1949" d="M485.453,157.48h.008a.133.133,0,0,0,.133-.133v-.008a.133.133,0,0,0-.133-.133h-.008a.133.133,0,0,0-.133.133v.008A.133.133,0,0,0,485.453,157.48Z" transform="translate(-454.987 -156.088)" fill="#f5f5f5"/>
        <path id="Path_1950" data-name="Path 1950" d="M2.213,166.582v-.294a.133.133,0,0,0-.133-.133H0v.559H2.08A.133.133,0,0,0,2.213,166.582Z" transform="translate(0 -164.477)" fill="#f5f5f5"/>
        <path id="Path_1951" data-name="Path 1951" d="M42.091,166.156H39.9a.133.133,0,0,0-.133.133v.294a.133.133,0,0,0,.133.133h2.192a.133.133,0,0,0,.133-.133v-.294A.133.133,0,0,0,42.091,166.156Z" transform="translate(-37.281 -164.478)" fill="#f5f5f5"/>
        <path id="Path_1952" data-name="Path 1952" d="M85.768,166.156H83.576a.133.133,0,0,0-.133.133v.294a.133.133,0,0,0,.133.133h2.192a.133.133,0,0,0,.133-.133v-.294A.133.133,0,0,0,85.768,166.156Z" transform="translate(-78.228 -164.478)" fill="#f5f5f5"/>
        <path id="Path_1953" data-name="Path 1953" d="M129.446,166.156h-2.192a.133.133,0,0,0-.133.133v.294a.133.133,0,0,0,.133.133h2.192a.133.133,0,0,0,.133-.133v-.294A.133.133,0,0,0,129.446,166.156Z" transform="translate(-119.176 -164.478)" fill="#f5f5f5"/>
        <path id="Path_1954" data-name="Path 1954" d="M173.07,166.156h-2.2a.133.133,0,0,0-.133.133v.294a.133.133,0,0,0,.133.133h2.2a.133.133,0,0,0,.133-.133v-.294A.133.133,0,0,0,173.07,166.156Z" transform="translate(-160.071 -164.478)" fill="#f5f5f5"/>
        <path id="Path_1955" data-name="Path 1955" d="M216.8,166.156h-2.192a.133.133,0,0,0-.133.133v.294a.133.133,0,0,0,.133.133H216.8a.133.133,0,0,0,.133-.133v-.294A.133.133,0,0,0,216.8,166.156Z" transform="translate(-201.069 -164.478)" fill="#f5f5f5"/>
        <path id="Path_1956" data-name="Path 1956" d="M260.477,166.156h-2.192a.133.133,0,0,0-.133.133v.294a.132.132,0,0,0,.133.133h2.192a.133.133,0,0,0,.133-.133v-.294A.133.133,0,0,0,260.477,166.156Z" transform="translate(-242.017 -164.478)" fill="#f5f5f5"/>
        <path id="Path_1957" data-name="Path 1957" d="M347.886,166.156H345.7a.133.133,0,0,0-.133.133v.294a.133.133,0,0,0,.133.133h2.189a.133.133,0,0,0,.133-.133v-.294A.133.133,0,0,0,347.886,166.156Z" transform="translate(-323.967 -164.478)" fill="#f5f5f5"/>
        <path id="Path_1958" data-name="Path 1958" d="M304.154,166.156h-2.192a.133.133,0,0,0-.133.133v.294a.133.133,0,0,0,.133.133h2.192a.133.133,0,0,0,.133-.133v-.294A.133.133,0,0,0,304.154,166.156Z" transform="translate(-282.965 -164.478)" fill="#f5f5f5"/>
        <path id="Path_1959" data-name="Path 1959" d="M391.51,166.156h-2.192a.133.133,0,0,0-.133.133v.294a.133.133,0,0,0,.133.133h2.192a.133.133,0,0,0,.133-.133v-.294A.133.133,0,0,0,391.51,166.156Z" transform="translate(-364.861 -164.478)" fill="#f5f5f5"/>
        <path id="Path_1960" data-name="Path 1960" d="M435.241,166.156h-2.189a.133.133,0,0,0-.133.133v.294a.133.133,0,0,0,.133.133h2.189a.133.133,0,0,0,.133-.133v-.294A.133.133,0,0,0,435.241,166.156Z" transform="translate(-405.862 -164.478)" fill="#f5f5f5"/>
        <path id="Path_1961" data-name="Path 1961" d="M476.595,166.289v.294a.133.133,0,0,0,.133.133h2.08v-.559h-2.08A.133.133,0,0,0,476.595,166.289Z" transform="translate(-446.808 -164.478)" fill="#f5f5f5"/>
        <path id="Path_1962" data-name="Path 1962" d="M478.238,350.562v.008a.133.133,0,0,0,.133.133h.28a.133.133,0,0,1,.133.133v.014a.133.133,0,0,1-.133.133H478.1a.133.133,0,0,1-.133-.133v-.287a.133.133,0,0,0-.133-.133h-1.1a.133.133,0,0,0-.133.133v1.126a.133.133,0,0,0,.133.133h.007a.133.133,0,0,0,.133-.133v-.853A.133.133,0,0,1,477,350.7h.011a.133.133,0,0,1,.133.133v.853a.133.133,0,0,0,.133.133h0a.133.133,0,0,0,.133-.133v-.853a.133.133,0,0,1,.133-.133h.011a.133.133,0,0,1,.133.133v.853a.133.133,0,0,0,.133.133h.011a.133.133,0,0,0,.133-.133v-.294a.133.133,0,0,1,.133-.133h.71v-.832h-.441A.133.133,0,0,0,478.238,350.562Z" transform="translate(-446.811 -337.234)" fill="#f5f5f5"/>
        <path id="Path_1963" data-name="Path 1963" d="M502.827,368.346v.015a.133.133,0,0,0,.133.133h.441v-.28h-.441A.133.133,0,0,0,502.827,368.346Z" transform="translate(-471.4 -353.907)" fill="#f5f5f5"/>
        <path id="Path_1964" data-name="Path 1964" d="M459.289,350.7a.133.133,0,0,0,.133-.133v-.008a.133.133,0,0,0-.133-.133h-.007a.133.133,0,0,0-.133.133v.008a.133.133,0,0,0,.133.133Z" transform="translate(-430.452 -337.234)" fill="#f5f5f5"/>
        <path id="Path_1965" data-name="Path 1965" d="M391.7,351.128v-.567a.133.133,0,0,0-.133-.133h-.556a.133.133,0,0,0-.133.133v.008a.133.133,0,0,0,.133.133h.284a.133.133,0,0,1,.133.133v.014a.133.133,0,0,1-.133.133h-.553a.133.133,0,0,1-.133-.133v-.287a.133.133,0,0,0-.133-.133h-1.1a.133.133,0,0,0-.133.133v1.126a.133.133,0,0,0,.133.133h.007a.133.133,0,0,0,.133-.133v-.853a.133.133,0,0,1,.133-.133h0a.133.133,0,0,1,.133.133v.853a.133.133,0,0,0,.133.133h.011a.133.133,0,0,0,.133-.133v-.853a.133.133,0,0,1,.132-.133h.011a.133.133,0,0,1,.133.133v.853a.133.133,0,0,0,.133.133h.008a.133.133,0,0,0,.133-.133v-.294a.133.133,0,0,1,.133-.133h.825A.133.133,0,0,0,391.7,351.128Z" transform="translate(-364.915 -337.234)" fill="#f5f5f5"/>
        <path id="Path_1966" data-name="Path 1966" d="M418.832,368.213h-3.286a.133.133,0,0,0-.133.133v.015a.133.133,0,0,0,.133.133h3.286a.133.133,0,0,0,.133-.133v-.015A.133.133,0,0,0,418.832,368.213Z" transform="translate(-389.45 -353.907)" fill="#f5f5f5"/>
        <path id="Path_1967" data-name="Path 1967" d="M435.245,350.429h-.007a.133.133,0,0,0-.133.133v.287a.133.133,0,0,1-.133.133h-.553a.133.133,0,0,1-.133-.133v-.287a.133.133,0,0,0-.133-.133h-1.1a.133.133,0,0,0-.133.133v.567a.133.133,0,0,0,.133.133h.553a.133.133,0,0,0,.133-.133v-.015a.133.133,0,0,0-.133-.133h-.28a.133.133,0,0,1-.133-.132v-.014a.133.133,0,0,1,.133-.133h.556a.133.133,0,0,1,.133.133v.294a.133.133,0,0,0,.133.133h1.1a.133.133,0,0,0,.133-.133v-.567A.133.133,0,0,0,435.245,350.429Z" transform="translate(-405.863 -337.234)" fill="#f5f5f5"/>
        <path id="Path_1968" data-name="Path 1968" d="M304.348,351.128v-.567a.133.133,0,0,0-.133-.133h-.556a.133.133,0,0,0-.133.133v.008a.133.133,0,0,0,.133.133h.28a.133.133,0,0,1,.133.133v.014a.133.133,0,0,1-.133.133h-.556a.133.133,0,0,1-.133-.133v-.287a.133.133,0,0,0-.133-.133h-1.1a.133.133,0,0,0-.133.133v1.126a.133.133,0,0,0,.133.133h.007a.133.133,0,0,0,.133-.133v-.853a.133.133,0,0,1,.133-.133h.008a.133.133,0,0,1,.133.133v.853a.133.133,0,0,0,.133.133h.011a.133.133,0,0,0,.133-.133v-.853a.133.133,0,0,1,.133-.133h0a.133.133,0,0,1,.133.133v.853a.133.133,0,0,0,.133.133h.007a.133.133,0,0,0,.133-.133v-.294a.133.133,0,0,1,.133-.133h.832A.133.133,0,0,0,304.348,351.128Z" transform="translate(-283.019 -337.234)" fill="#f5f5f5"/>
        <path id="Path_1969" data-name="Path 1969" d="M331.531,368.213h-3.283a.133.133,0,0,0-.133.133v.015a.133.133,0,0,0,.133.133h3.283a.133.133,0,0,0,.133-.133v-.015A.133.133,0,0,0,331.531,368.213Z" transform="translate(-307.609 -353.907)" fill="#f5f5f5"/>
        <path id="Path_1970" data-name="Path 1970" d="M371.933,350.7a.133.133,0,0,0,.133-.133v-.008a.133.133,0,0,0-.133-.133h-.007a.133.133,0,0,0-.133.133v.008a.133.133,0,0,0,.133.133Z" transform="translate(-348.556 -337.234)" fill="#f5f5f5"/>
        <path id="Path_1971" data-name="Path 1971" d="M347.89,350.429h-.007a.133.133,0,0,0-.133.133v.287a.133.133,0,0,1-.133.133h-.553a.133.133,0,0,1-.133-.133v-.287a.133.133,0,0,0-.133-.133h-1.1a.133.133,0,0,0-.133.133v.567a.133.133,0,0,0,.133.133h.556a.133.133,0,0,0,.133-.133v-.015a.133.133,0,0,0-.133-.133h-.28a.133.133,0,0,1-.133-.132v-.014a.133.133,0,0,1,.133-.133h.553a.133.133,0,0,1,.133.133v.294a.133.133,0,0,0,.133.133h1.1a.133.133,0,0,0,.133-.133v-.567A.133.133,0,0,0,347.89,350.429Z" transform="translate(-323.967 -337.234)" fill="#f5f5f5"/>
        <path id="Path_1972" data-name="Path 1972" d="M216.988,351.128v-.567a.133.133,0,0,0-.133-.133H216.3a.133.133,0,0,0-.133.133v.008a.133.133,0,0,0,.133.133h.284a.133.133,0,0,1,.133.133v.014a.133.133,0,0,1-.133.133h-.556a.133.133,0,0,1-.133-.133v-.287a.133.133,0,0,0-.133-.133h-1.1a.133.133,0,0,0-.133.133v1.126a.133.133,0,0,0,.133.133h.008a.133.133,0,0,0,.133-.133v-.853a.133.133,0,0,1,.133-.133h.007a.133.133,0,0,1,.133.133v.853a.133.133,0,0,0,.133.133h.007a.133.133,0,0,0,.133-.133v-.853a.133.133,0,0,1,.133-.133h.008a.133.133,0,0,1,.133.133v.853a.133.133,0,0,0,.133.133h.007a.133.133,0,0,0,.133-.133v-.294a.133.133,0,0,1,.133-.133h.829A.133.133,0,0,0,216.988,351.128Z" transform="translate(-201.123 -337.234)" fill="#f5f5f5"/>
        <path id="Path_1973" data-name="Path 1973" d="M284.575,350.7a.133.133,0,0,0,.133-.133v-.008a.133.133,0,0,0-.133-.133h0a.133.133,0,0,0-.133.133v.008a.133.133,0,0,0,.133.133Z" transform="translate(-266.661 -337.234)" fill="#f5f5f5"/>
        <path id="Path_1974" data-name="Path 1974" d="M260.534,350.429h-.008a.133.133,0,0,0-.133.133v.287a.133.133,0,0,1-.133.133h-.553a.133.133,0,0,1-.133-.133v-.287a.133.133,0,0,0-.133-.133h-1.1a.133.133,0,0,0-.133.133v.567a.133.133,0,0,0,.133.133h.556a.133.133,0,0,0,.133-.133v-.015a.133.133,0,0,0-.133-.133h-.284a.133.133,0,0,1-.133-.132v-.014a.133.133,0,0,1,.133-.133h.553a.133.133,0,0,1,.133.133v.294a.133.133,0,0,0,.133.133h1.1a.133.133,0,0,0,.133-.133v-.567A.133.133,0,0,0,260.534,350.429Z" transform="translate(-242.071 -337.234)" fill="#f5f5f5"/>
        <path id="Path_1975" data-name="Path 1975" d="M244.124,368.213h-3.286a.133.133,0,0,0-.133.133v.015a.133.133,0,0,0,.133.133h3.286a.133.133,0,0,0,.133-.133v-.015A.133.133,0,0,0,244.124,368.213Z" transform="translate(-225.661 -353.907)" fill="#f5f5f5"/>
        <path id="Path_1976" data-name="Path 1976" d="M173.177,350.429h-.008a.133.133,0,0,0-.133.133v.287a.133.133,0,0,1-.133.133h-.553a.133.133,0,0,1-.133-.133v-.287a.133.133,0,0,0-.133-.133h-1.1a.133.133,0,0,0-.133.133v.567a.133.133,0,0,0,.133.133h.553a.133.133,0,0,0,.133-.133v-.015a.133.133,0,0,0-.133-.133h-.277a.133.133,0,0,1-.133-.132v-.014a.133.133,0,0,1,.133-.133h.549a.133.133,0,0,1,.133.133v.294a.133.133,0,0,0,.133.133h1.1a.133.133,0,0,0,.133-.133v-.567A.132.132,0,0,0,173.177,350.429Z" transform="translate(-160.174 -337.234)" fill="#f5f5f5"/>
        <path id="Path_1977" data-name="Path 1977" d="M197.219,350.7a.133.133,0,0,0,.133-.133v-.008a.133.133,0,0,0-.133-.133h0a.133.133,0,0,0-.133.133v.008a.133.133,0,0,0,.133.133Z" transform="translate(-184.764 -337.234)" fill="#f5f5f5"/>
        <path id="Path_1978" data-name="Path 1978" d="M156.768,368.213h-3.286a.133.133,0,0,0-.133.133v.015a.133.133,0,0,0,.133.133h3.286a.133.133,0,0,0,.133-.133v-.015A.133.133,0,0,0,156.768,368.213Z" transform="translate(-143.765 -353.907)" fill="#f5f5f5"/>
        <path id="Path_1979" data-name="Path 1979" d="M129.63,351.128v-.567a.133.133,0,0,0-.133-.133h-.553a.133.133,0,0,0-.133.133v.008a.133.133,0,0,0,.133.133h.284a.133.133,0,0,1,.133.133v.014a.133.133,0,0,1-.133.133h-.556a.133.133,0,0,1-.133-.133v-.287a.133.133,0,0,0-.133-.133h-1.1a.133.133,0,0,0-.133.133v1.126a.133.133,0,0,0,.133.133h.008a.133.133,0,0,0,.133-.133v-.853a.133.133,0,0,1,.133-.133h.007a.133.133,0,0,1,.133.133v.853a.133.133,0,0,0,.133.133h.008a.133.133,0,0,0,.133-.133v-.853a.133.133,0,0,1,.133-.133h.007a.133.133,0,0,1,.133.133v.853a.133.133,0,0,0,.133.133h.008a.133.133,0,0,0,.133-.133v-.294a.133.133,0,0,1,.133-.133h.825A.133.133,0,0,0,129.63,351.128Z" transform="translate(-119.227 -337.234)" fill="#f5f5f5"/>
        <path id="Path_1980" data-name="Path 1980" d="M109.816,350.7a.133.133,0,0,0,.133-.133v-.008a.133.133,0,0,0-.133-.133H109.8a.133.133,0,0,0-.133.133v.008a.133.133,0,0,0,.133.133Z" transform="translate(-102.817 -337.234)" fill="#f5f5f5"/>
        <path id="Path_1981" data-name="Path 1981" d="M85.823,350.429h-.008a.133.133,0,0,0-.133.133v.287a.133.133,0,0,1-.133.133h-.556a.133.133,0,0,1-.133-.133v-.287a.133.133,0,0,0-.133-.133h-1.1a.133.133,0,0,0-.133.133v.567a.133.133,0,0,0,.133.133h.553a.133.133,0,0,0,.133-.133v-.015a.133.133,0,0,0-.133-.133H83.9a.133.133,0,0,1-.133-.132v-.014a.133.133,0,0,1,.133-.133h.56a.133.133,0,0,1,.133.133v.294a.133.133,0,0,0,.133.133h1.1a.133.133,0,0,0,.133-.133v-.567A.133.133,0,0,0,85.823,350.429Z" transform="translate(-78.279 -337.234)" fill="#f5f5f5"/>
        <path id="Path_1982" data-name="Path 1982" d="M42.277,351.128v-.567a.133.133,0,0,0-.133-.133h-.553a.133.133,0,0,0-.133.133v.008a.133.133,0,0,0,.133.133h.277a.133.133,0,0,1,.133.133v.014a.133.133,0,0,1-.133.133h-.549a.133.133,0,0,1-.133-.133v-.287a.133.133,0,0,0-.133-.133h-1.1a.133.133,0,0,0-.133.133v1.126a.133.133,0,0,0,.133.133h0a.133.133,0,0,0,.133-.133v-.853a.133.133,0,0,1,.133-.133h.011a.133.133,0,0,1,.133.133v.853a.133.133,0,0,0,.133.133h.008a.133.133,0,0,0,.133-.133v-.853a.133.133,0,0,1,.133-.133h.007a.133.133,0,0,1,.133.133v.853a.133.133,0,0,0,.133.133h.008a.133.133,0,0,0,.133-.133v-.294a.133.133,0,0,1,.133-.133h.825A.133.133,0,0,0,42.277,351.128Z" transform="translate(-37.334 -337.234)" fill="#f5f5f5"/>
        <path id="Path_1983" data-name="Path 1983" d="M69.413,368.213H66.127a.133.133,0,0,0-.133.133v.015a.133.133,0,0,0,.133.133h3.286a.133.133,0,0,0,.133-.133v-.015A.133.133,0,0,0,69.413,368.213Z" transform="translate(-61.869 -353.907)" fill="#f5f5f5"/>
        <path id="Path_1984" data-name="Path 1984" d="M.573,351.129v-.015a.133.133,0,0,0-.133-.133H.161a.133.133,0,0,1-.133-.133v-.014a.133.133,0,0,1,.133-.133H.717a.133.133,0,0,1,.133.133v.294a.133.133,0,0,0,.133.133h1.1a.133.133,0,0,0,.133-.133v-.567a.133.133,0,0,0-.133-.133h0a.133.133,0,0,0-.133.133v.287a.133.133,0,0,1-.133.133H1.258a.133.133,0,0,1-.133-.133v-.287a.133.133,0,0,0-.133-.133H0v.832H.441A.133.133,0,0,0,.573,351.129Z" transform="translate(0 -337.235)" fill="#f5f5f5"/>
        <path id="Path_1985" data-name="Path 1985" d="M2.213,368.361v-.015a.133.133,0,0,0-.133-.133H0v.28H2.08A.133.133,0,0,0,2.213,368.361Z" transform="translate(0 -353.908)" fill="#f5f5f5"/>
        <path id="Path_1986" data-name="Path 1986" d="M22.456,350.429h-.008a.133.133,0,0,0-.133.133v.008a.133.133,0,0,0,.133.133h.008a.133.133,0,0,0,.133-.133v-.008A.133.133,0,0,0,22.456,350.429Z" transform="translate(-20.921 -337.234)" fill="#f5f5f5"/>
        <path id="Path_1987" data-name="Path 1987" d="M476.6,337.03v.294a.133.133,0,0,0,.133.133h2.08V336.9h-2.08A.133.133,0,0,0,476.6,337.03Z" transform="translate(-446.81 -324.548)" fill="#f5f5f5"/>
        <path id="Path_1988" data-name="Path 1988" d="M389.376,337.456h2.192a.133.133,0,0,0,.133-.133v-.294a.133.133,0,0,0-.133-.133h-2.192a.133.133,0,0,0-.133.133v.294A.133.133,0,0,0,389.376,337.456Z" transform="translate(-364.915 -324.548)" fill="#f5f5f5"/>
        <path id="Path_1989" data-name="Path 1989" d="M435.245,336.9h-2.192a.133.133,0,0,0-.133.133v.294a.133.133,0,0,0,.133.133h2.192a.133.133,0,0,0,.133-.133v-.294A.133.133,0,0,0,435.245,336.9Z" transform="translate(-405.862 -324.548)" fill="#f5f5f5"/>
        <path id="Path_1990" data-name="Path 1990" d="M347.89,336.9H345.7a.132.132,0,0,0-.133.133v.294a.133.133,0,0,0,.133.133h2.192a.133.133,0,0,0,.133-.133v-.294A.133.133,0,0,0,347.89,336.9Z" transform="translate(-323.967 -324.548)" fill="#f5f5f5"/>
        <path id="Path_1991" data-name="Path 1991" d="M302.02,337.456h2.2a.133.133,0,0,0,.133-.133v-.294a.133.133,0,0,0-.133-.133h-2.2a.133.133,0,0,0-.133.133v.294A.133.133,0,0,0,302.02,337.456Z" transform="translate(-283.019 -324.548)" fill="#f5f5f5"/>
        <path id="Path_1992" data-name="Path 1992" d="M214.664,337.456h2.192a.133.133,0,0,0,.133-.133v-.294a.133.133,0,0,0-.133-.133h-2.192a.133.133,0,0,0-.133.133v.294A.133.133,0,0,0,214.664,337.456Z" transform="translate(-201.123 -324.548)" fill="#f5f5f5"/>
        <path id="Path_1993" data-name="Path 1993" d="M260.534,336.9h-2.192a.133.133,0,0,0-.133.133v.294a.133.133,0,0,0,.133.133h2.192a.133.133,0,0,0,.133-.133v-.294A.133.133,0,0,0,260.534,336.9Z" transform="translate(-242.071 -324.548)" fill="#f5f5f5"/>
        <path id="Path_1994" data-name="Path 1994" d="M173.178,336.9h-2.192a.133.133,0,0,0-.133.133v.294a.133.133,0,0,0,.133.133h2.192a.133.133,0,0,0,.133-.133v-.294A.132.132,0,0,0,173.178,336.9Z" transform="translate(-160.175 -324.548)" fill="#f5f5f5"/>
        <path id="Path_1995" data-name="Path 1995" d="M127.309,337.456H129.5a.133.133,0,0,0,.133-.133v-.294a.133.133,0,0,0-.133-.133h-2.189a.133.133,0,0,0-.133.133v.294A.133.133,0,0,0,127.309,337.456Z" transform="translate(-119.227 -324.548)" fill="#f5f5f5"/>
        <path id="Path_1996" data-name="Path 1996" d="M85.823,336.9H83.631a.133.133,0,0,0-.133.133v.294a.133.133,0,0,0,.133.133h2.192a.133.133,0,0,0,.133-.133v-.294A.133.133,0,0,0,85.823,336.9Z" transform="translate(-78.279 -324.548)" fill="#f5f5f5"/>
        <path id="Path_1997" data-name="Path 1997" d="M39.956,337.456h2.188a.133.133,0,0,0,.133-.133v-.294a.133.133,0,0,0-.133-.133H39.956a.133.133,0,0,0-.133.133v.294A.133.133,0,0,0,39.956,337.456Z" transform="translate(-37.334 -324.548)" fill="#f5f5f5"/>
        <path id="Path_1998" data-name="Path 1998" d="M2.213,337.324v-.294a.133.133,0,0,0-.133-.133H0v.559H2.08A.133.133,0,0,0,2.213,337.324Z" transform="translate(0 -324.548)" fill="#f5f5f5"/>
      </g>
      <g id="Group_1631" data-name="Group 1631" transform="translate(12.104 12.191)">
        <path id="Path_1999" data-name="Path 1999" d="M240.926,195.745a2.421,2.421,0,0,1,1.344-.141.565.565,0,0,0,.154-.548.651.651,0,0,1-.9.214c-.016-.01-.036-.021-.05-.031a.662.662,0,0,1-.919-.13.571.571,0,0,0-.034-.052A.564.564,0,0,0,240.926,195.745Z" transform="translate(-237.576 -195.056)" fill="#ff4b55"/>
        <path id="Path_2000" data-name="Path 2000" d="M218.631,215.623a3.559,3.559,0,0,0,.765-5.712.042.042,0,0,0-.064.054,3.871,3.871,0,0,1-.971,5.1l.076-4.887a.216.216,0,0,0-.08-.171l-.26-.21a.216.216,0,0,0-.272,0l-.256.209a.216.216,0,0,0-.079.17l.074,4.89a3.876,3.876,0,0,1-.974-5.107.042.042,0,0,0-.065-.054,3.59,3.59,0,0,0-.844,3.92,3.554,3.554,0,0,0,1.608,1.791,3.942,3.942,0,0,1-1.391.221.043.043,0,0,0-.012.084,3.54,3.54,0,0,0,1.807.065l.229.444a.043.043,0,0,0,.076,0l.231-.444a3.547,3.547,0,0,0,1.807-.065.043.043,0,0,0-.012-.084A3.961,3.961,0,0,1,218.631,215.623Z" transform="translate(-214.065 -208.836)" fill="#ff4b55"/>
        <path id="Path_2001" data-name="Path 2001" d="M286.569,209.506a3.028,3.028,0,0,0-1.666-1.429.043.043,0,0,0-.043.073,3.862,3.862,0,0,1,.669,5.255c-.063.084-.131.172-.2.245A3.054,3.054,0,0,0,286.569,209.506Z" transform="translate(-279.147 -207.261)" fill="#ff4b55"/>
        <path id="Path_2002" data-name="Path 2002" d="M195.076,213.407a3.862,3.862,0,0,1,.667-5.255.043.043,0,0,0-.043-.073,3.061,3.061,0,0,0-.425,5.574A2.263,2.263,0,0,1,195.076,213.407Z" transform="translate(-193.665 -207.263)" fill="#ff4b55"/>
      </g>
    </g>
  </g>
</svg>
