<svg xmlns="http://www.w3.org/2000/svg" xmlns:xlink="http://www.w3.org/1999/xlink" width="28" height="32" viewBox="0 0 28 32">
  <defs>
    <linearGradient id="linear-gradient" x1="0.98" y1="0.5" x2="0.033" y2="0.5" gradientUnits="objectBoundingBox">
      <stop offset="0" stop-color="#171a1d"/>
      <stop offset="1" stop-color="#a2a2a2"/>
    </linearGradient>
  </defs>
  <g id="Group_6345" data-name="Group 6345" transform="translate(-1518.996 -499)">
    <path id="Polygon_12" data-name="Polygon 12" d="M21.679,0a4,4,0,0,1,3.473,2.015l5.714,10a4,4,0,0,1,0,3.969l-5.714,10A4,4,0,0,1,21.679,28H10.321a4,4,0,0,1-3.473-2.015l-5.714-10a4,4,0,0,1,0-3.969l5.714-10A4,4,0,0,1,10.321,0Z" transform="translate(1546.996 499) rotate(90)" fill="url(#linear-gradient)"/>
    <g id="g31" transform="translate(1517.27 500.533)">
      <path id="path29" d="M21.9,8.318h2.46l-5.119,5a4.828,4.828,0,0,1-6.715,0l-5.122-5H9.867l3.889,3.8a3.054,3.054,0,0,0,4.251,0ZM9.836,22.23H7.373L12.526,17.2a4.828,4.828,0,0,1,6.713,0l5.153,5.033H21.929L18.01,18.4a3.054,3.054,0,0,0-4.251,0Z" transform="translate(-0.647 -0.851)" fill="#fff"/>
    </g>
  </g>
</svg>
