<svg xmlns="http://www.w3.org/2000/svg" width="28" height="32" viewBox="0 0 28 32">
  <g id="USDT" transform="translate(-1518.996 -497)">
    <path id="Polygon_9" data-name="Polygon 9" d="M21.679,0a4,4,0,0,1,3.473,2.015l5.714,10a4,4,0,0,1,0,3.969l-5.714,10A4,4,0,0,1,21.679,28H10.321a4,4,0,0,1-3.473-2.015l-5.714-10a4,4,0,0,1,0-3.969l5.714-10A4,4,0,0,1,10.321,0Z" transform="translate(1546.996 497) rotate(90)" fill="#fff"/>
    <path id="use37" d="M17.551,15.866v0c-.1.007-.637.038-1.829.038-.951,0-1.621-.027-1.856-.038v0c-3.661-.156-6.394-.775-6.394-1.516s2.733-1.359,6.394-1.518v2.418c.239.016.925.056,1.872.056,1.137,0,1.706-.046,1.813-.055V12.835c3.654.158,6.38.777,6.38,1.516s-2.726,1.358-6.38,1.515m0-3.283V10.42h5.1v-3.3H8.768v3.3h5.1v2.162c-4.143.185-7.259.982-7.259,1.937s3.116,1.751,7.259,1.937v6.933h3.685V16.454c4.137-.185,7.245-.981,7.245-1.935s-3.108-1.75-7.245-1.936" transform="translate(1517.389 497.879)" fill="#26a17b"/>
  </g>
</svg>
