<svg xmlns="http://www.w3.org/2000/svg" width="28" height="32" viewBox="0 0 28 32">
  <g id="XLM" transform="translate(-1518.996 -499)">
    <path id="Polygon_14" data-name="Polygon 14" d="M21.679,0a4,4,0,0,1,3.473,2.015l5.714,10a4,4,0,0,1,0,3.969l-5.714,10A4,4,0,0,1,21.679,28H10.321a4,4,0,0,1-3.473-2.015l-5.714-10a4,4,0,0,1,0-3.969l5.714-10A4,4,0,0,1,10.321,0Z" transform="translate(1546.996 499) rotate(90)" fill="#fff"/>
    <g id="Group_2166" data-name="Group 2166" transform="translate(1525.089 508.272)">
      <path id="Path_2003" data-name="Path 2003" d="M13.616,1.745l-1.909.973-9.218,4.7a5.49,5.49,0,0,1,8.122-5.5L11.7,1.352l.163-.083A6.707,6.707,0,0,0,1.219,6.7q0,.256.019.51A1.22,1.22,0,0,1,.576,8.387L0,8.681v1.37l1.7-.865h0l.549-.28.541-.276h0L12.5,3.679,13.6,3.123l2.257-1.15V.6Z" transform="translate(0 0.011)" fill="#282829" stroke="#282829" stroke-width="1"/>
      <path id="Path_2004" data-name="Path 2004" d="M15.853,50,3.339,56.372l-1.092.557L0,58.074v1.369l2.232-1.137,1.909-.973,9.227-4.7a5.6,5.6,0,0,1,.047.722A5.491,5.491,0,0,1,5.238,58.14l-.067.036-1.185.6a6.707,6.707,0,0,0,10.648-5.426c0-.172-.007-.345-.019-.515a1.221,1.221,0,0,1,.662-1.179l.577-.294Z" transform="translate(0 -46.646)" fill="#282829" stroke="#282829" stroke-width="1"/>
    </g>
  </g>
</svg>
