<svg xmlns="http://www.w3.org/2000/svg" width="74" height="74" viewBox="0 0 74 74">
  <g id="trophy_1_" data-name="trophy (1)" transform="translate(0)">
    <path id="Path_9043" data-name="Path 9043" d="M74,37A37,37,0,1,1,37,0,37.013,37.013,0,0,1,74,37Z" transform="translate(-0.003 -0.002)" fill="#43caed"/>
    <path id="Path_9044" data-name="Path 9044" d="M75.167,32.666A37.005,37.005,0,0,1,8.121,49.574,36.737,36.737,0,0,1,1.673,32.666a37,37,0,0,1,73.494,0Z" transform="translate(-1.42 -0.002)" fill="#8ee7fe"/>
    <path id="Path_9045" data-name="Path 9045" d="M186.725,311.764v4.17a37.211,37.211,0,0,1-25.272,0v-4.17c4.511-3.353,6.157-8.307,6.754-14.2.318-3.117.34-6.5.34-10.041h11.081c0,3.545.024,6.924.34,10.041C180.568,303.456,182.213,308.411,186.725,311.764Z" transform="translate(-137.089 -244.145)" fill="#ffe26b"/>
    <path id="Path_9046" data-name="Path 9046" d="M179.969,297.563a13.382,13.382,0,0,1-5.88,1.39h-.027a2.926,2.926,0,0,0-2.94,2.615c-.416,4.136-1.224,7.634-2.795,10.2V317.7a36.813,36.813,0,0,1-6.874-1.765v-4.17a14.933,14.933,0,0,0,4.844-6.148,26.679,26.679,0,0,0,1.91-8.053c.318-3.117.34-6.5.34-10.041h11.081C179.629,291.067,179.653,294.445,179.969,297.563Z" transform="translate(-137.082 -244.145)" fill="#feb247"/>
    <path id="Path_9047" data-name="Path 9047" d="M147.062,42.813c0,19.7-9.472,35.674-21.158,35.674s-21.159-15.972-21.159-35.674a57.989,57.989,0,0,1,1.233-12.021H145.83A57.99,57.99,0,0,1,147.062,42.813Z" transform="translate(-88.904 -26.135)" fill="#ffe26b"/>
    <path id="Path_9049" data-name="Path 9049" d="M125.957,78.486c-11.715,0-21.212-15.972-21.212-35.674a57.854,57.854,0,0,1,1.236-12.022h8.98a103.811,103.811,0,0,0-.679,12.022C114.282,62.513,119.509,78.486,125.957,78.486Z" transform="translate(-88.936 -26.134)" fill="#feb247"/>
    <path id="Path_9050" data-name="Path 9050" d="M24.042,82.7c-12.983-.519-18.866-5.719-21.515-9.989a16.519,16.519,0,0,1-1.37-14.82,6.4,6.4,0,0,1,4.36-3.748c6.157-1.57,15.314,4.92,17.974,6.946L21.475,63.74C15.363,59.084,9.422,56.584,6.339,57.37a3.063,3.063,0,0,0-2.145,1.881A13.062,13.062,0,0,0,5.354,70.96c2.225,3.586,7.3,7.957,18.821,8.418Z" transform="translate(0 -45.752)" fill="#feb247"/>
    <path id="Path_9051" data-name="Path 9051" d="M330.284,82.7l-.133-3.324c11.525-.461,16.6-4.832,18.821-8.418a13.063,13.063,0,0,0,1.16-11.709,3.063,3.063,0,0,0-2.145-1.881c-3.083-.787-9.024,1.714-15.136,6.369l-2.016-2.647c2.66-2.027,11.818-8.517,17.974-6.946a6.4,6.4,0,0,1,4.36,3.748,16.519,16.519,0,0,1-1.37,14.82C349.15,76.985,343.267,82.184,330.284,82.7Z" transform="translate(-280.327 -45.752)" fill="#ffe26b"/>
    <g id="Group_5736" data-name="Group 5736" transform="translate(14.219 1.243)">
      <path id="Path_9052" data-name="Path 9052" d="M139.932,11.109A2.888,2.888,0,0,1,137.043,14H97.26a2.89,2.89,0,0,1,0-5.779h39.783A2.89,2.89,0,0,1,139.932,11.109Z" transform="translate(-94.371 -8.219)" fill="#feb247"/>
      <path id="Path_9053" data-name="Path 9053" d="M186.7,11.109A2.888,2.888,0,0,1,183.815,14H152.366a2.89,2.89,0,0,1,0-5.779h31.449A2.89,2.89,0,0,1,186.7,11.109Z" transform="translate(-141.143 -8.219)" fill="#ffe26b"/>
    </g>
    <path id="Path_9054" data-name="Path 9054" d="M387.606,194.4v3.737a26.841,26.841,0,0,1-7.293,2.716v-3.421a21.361,21.361,0,0,0,7.278-3.224A1.315,1.315,0,0,1,387.606,194.4Z" transform="translate(-322.902 -164.887)" fill="#feb247"/>
    <path id="Path_9055" data-name="Path 9055" d="M387.811,203.185V190.738a1.134,1.134,0,0,1,.612-1.006l5.025-2.606a1.134,1.134,0,0,1,1.655,1.006v15.053l-3.646-2.759Z" transform="translate(-329.266 -158.769)" fill="#fd5b67"/>
    <path id="Path_9056" data-name="Path 9056" d="M393.448,187.127l-5.025,2.606a1.134,1.134,0,0,0-.612,1.006v2.266a1.134,1.134,0,0,1,.612-1.006l5.025-2.606A1.134,1.134,0,0,1,395.1,190.4v-2.266A1.134,1.134,0,0,0,393.448,187.127Z" transform="translate(-329.266 -158.762)" fill="#ef297b"/>
  </g>
</svg>
