<svg xmlns="http://www.w3.org/2000/svg" width="74" height="74" viewBox="0 0 74 74">
  <g id="trophy_4_" data-name="trophy (4)" transform="translate(0 -0.077)">
    <path id="Path_9093" data-name="Path 9093" d="M74.057,37.077a36.994,36.994,0,0,1-26.882,35.6q-.976.279-1.973.5a37,37,0,0,1-8.133.9q-.888,0-1.765-.042a36.9,36.9,0,0,1-6.623-.914q-.867-.2-1.718-.441a37,37,0,1,1,47.095-35.6Z" transform="translate(-0.068)" fill="#8eacfe"/>
    <path id="Path_9094" data-name="Path 9094" d="M75.224,32.76A36.986,36.986,0,0,1,8.2,49.677,36.778,36.778,0,0,1,1.75,32.76a36.988,36.988,0,0,1,73.474,0Z" transform="translate(-1.486 0)" fill="#678ffc"/>
    <path id="Path_9095" data-name="Path 9095" d="M36.7,91.185H23.064A17.067,17.067,0,0,1,6.876,79.553L.118,59.475A2.259,2.259,0,0,1,2.259,56.5H22.717v4.518H5.4l5.755,17.1a12.553,12.553,0,0,0,11.907,8.555H36.7Z" transform="translate(0 -47.923)" fill="#c5cae3"/>
    <path id="Path_9096" data-name="Path 9096" d="M257.753,91.186H243.705V86.669h14.048a12.553,12.553,0,0,0,11.907-8.555l5.755-17.1H258.1V56.5h20.458a2.259,2.259,0,0,1,2.141,2.979l-6.758,20.078A17.067,17.067,0,0,1,257.753,91.186Z" transform="translate(-206.817 -47.924)" fill="#f2f4ff"/>
    <path id="Path_9097" data-name="Path 9097" d="M198.3,369.041q-.974.278-1.968.5a37.182,37.182,0,0,1-16.479-.057q-.865-.2-1.714-.44l3.951-19.817h12.258l.965,4.843Z" transform="translate(-151.22 -296.36)" fill="#f2f4ff"/>
    <path id="Path_9098" data-name="Path 9098" d="M145.377,35.611V60.335A21.555,21.555,0,0,1,127.82,81.479a21.646,21.646,0,0,1-25.683-21.144V35.611Z" transform="translate(-86.757 -30.183)" fill="#c5cae3"/>
    <path id="Path_9099" data-name="Path 9099" d="M190.829,60.807v20.93a21.53,21.53,0,0,1-17.479,21.144,21.53,21.53,0,0,1-17.48-21.144V64.944a4.137,4.137,0,0,1,4.137-4.137h11.461V81.118l6.377-6.084,6.379,6.084V60.807Z" transform="translate(-132.284 -51.585)" fill="#f2f4ff"/>
    <path id="Path_9100" data-name="Path 9100" d="M195.314,354.07H189a2.543,2.543,0,0,0-2.543,2.543v13.782a36.818,36.818,0,0,1-6.606-.911q-.865-.2-1.714-.44l3.951-19.817h12.258Z" transform="translate(-151.225 -296.36)" fill="#c5cae3"/>
    <g id="Group_5741" data-name="Group 5741" transform="translate(25.349 49.969)">
      <path id="Path_9101" data-name="Path 9101" d="M191.008,333.208a2.839,2.839,0,0,1-2.839,2.839H170.543a2.84,2.84,0,0,1,0-5.68h17.625A2.84,2.84,0,0,1,191.008,333.208Z" transform="translate(-167.704 -330.367)" fill="#f2f4ff"/>
      <path id="Path_9102" data-name="Path 9102" d="M223.6,333.208a2.839,2.839,0,0,1-2.839,2.839H208.917a2.84,2.84,0,0,1,0-5.68h11.846A2.84,2.84,0,0,1,223.6,333.208Z" transform="translate(-200.299 -330.367)" fill="#f2f4ff"/>
    </g>
    <path id="Path_9103" data-name="Path 9103" d="M134.065,11.6a2.081,2.081,0,0,1-2.085,2.077H88.035a2.077,2.077,0,1,1,0-4.153H131.98a2.081,2.081,0,0,1,2.085,2.077Z" transform="translate(-73.007 -8.027)" fill="#c5cae3"/>
    <path id="Path_9104" data-name="Path 9104" d="M182.581,11.6A2.077,2.077,0,0,1,180.5,13.68H145.367a2.077,2.077,0,0,1,0-4.153H180.5a2.077,2.077,0,0,1,2.077,2.077Z" transform="translate(-121.594 -8.027)" fill="#f2f4ff"/>
    <path id="Path_9105" data-name="Path 9105" d="M291.1,37.56l-6.378-6.083-6.378,6.083V9.527H291.1Z" transform="translate(-236.302 -8.027)" fill="#fd5b67"/>
    <rect id="Rectangle_1398" data-name="Rectangle 1398" width="12.756" height="1.933" transform="translate(42.046 1.5)" fill="#ef297b"/>
  </g>
</svg>
