<svg id="toll-24px" xmlns="http://www.w3.org/2000/svg" width="30" height="30" viewBox="0 0 30 30">
  <path id="Path_2013" data-name="Path 2013" d="M0,0H30V30H0Z" fill="none"/>
  <g id="bnb" transform="translate(2.575 2.581)">
    <path id="Path_805" data-name="Path 805" d="M7.6,10.437l4.824-4.824,4.826,4.826,2.807-2.807L12.425,0,4.795,7.631,7.6,10.437m-7.6,1.981L2.813,9.612,5.62,12.419,2.813,15.226ZM7.6,14.4l4.824,4.824L17.251,14.4,20.059,17.2h0l-7.633,7.633-7.631-7.63,0,0L7.6,14.4m11.63-1.981,2.807-2.807,2.807,2.807-2.807,2.807Z" fill="#fff"/>
    <path id="Path_806" data-name="Path 806" d="M777.329,773.939h0l-3.389-3.389-2.5,2.5h0l-.288.288-.594.594,0,0,0,0,3.386,3.386,3.389-3.389,0,0,0,0" transform="translate(-761.516 -761.522)" fill="#fff"/>
  </g>
</svg>
