<svg id="toll-24px" xmlns="http://www.w3.org/2000/svg" width="30" height="30" viewBox="0 0 30 30">
  <path id="Path_2013" data-name="Path 2013" d="M0,0H30V30H0Z" fill="none"/>
  <g id="g39" transform="translate(5.606 1.741)">
    <path id="use35" d="M27.323,15.925c.391-2.786-1.6-4.284-4.319-5.284l.883-3.775-2.154-.572-.86,3.675c-.566-.152-1.147-.292-1.726-.433l.866-3.7-2.154-.573-.883,3.774c-.469-.114-.93-.226-1.376-.346l0-.012-2.972-.791-.573,2.454s1.6.391,1.566.415a1.214,1.214,0,0,1,1,1.337l-1,4.3a1.831,1.831,0,0,1,.224.076l-.228-.06-1.409,6.024a.781.781,0,0,1-.988.545c.022.033-1.566-.416-1.566-.416l-1.07,2.629,2.8.746c.521.14,1.032.286,1.534.423l-.891,3.818,2.153.572.883-3.775c.588.169,1.159.326,1.718.475l-.88,3.759,2.154.572.891-3.81c3.675.742,6.437.443,7.6-3.1.937-2.853-.046-4.5-1.979-5.572a3.587,3.587,0,0,0,2.751-3.374ZM22.4,23.286c-.664,2.854-5.17,1.311-6.631.924l1.184-5.058C18.413,19.541,23.1,20.311,22.4,23.286Zm.667-7.4c-.607,2.6-4.357,1.276-5.572.953l1.072-4.586C19.782,12.573,23.7,13.176,23.067,15.883Z" transform="translate(-8.586 -5.264)"/>
    <path id="use37" d="M27.323,15.925c.391-2.786-1.6-4.284-4.319-5.284l.883-3.775-2.154-.572-.86,3.675c-.566-.152-1.147-.292-1.726-.433l.866-3.7-2.154-.573-.883,3.774c-.469-.114-.93-.226-1.376-.346l0-.012-2.972-.791-.573,2.454s1.6.391,1.566.415a1.214,1.214,0,0,1,1,1.337l-1,4.3a1.831,1.831,0,0,1,.224.076l-.228-.06-1.409,6.024a.781.781,0,0,1-.988.545c.022.033-1.566-.416-1.566-.416l-1.07,2.629,2.8.746c.521.14,1.032.286,1.534.423l-.891,3.818,2.153.572.883-3.775c.588.169,1.159.326,1.718.475l-.88,3.759,2.154.572.891-3.81c3.675.742,6.437.443,7.6-3.1.937-2.853-.046-4.5-1.979-5.572a3.587,3.587,0,0,0,2.751-3.374ZM22.4,23.286c-.664,2.854-5.17,1.311-6.631.924l1.184-5.058C18.413,19.541,23.1,20.311,22.4,23.286Zm.667-7.4c-.607,2.6-4.357,1.276-5.572.953l1.072-4.586C19.782,12.573,23.7,13.176,23.067,15.883Z" transform="translate(-8.586 -5.264)" fill="#fff"/>
  </g>
</svg>
