<svg xmlns="http://www.w3.org/2000/svg" width="20.001" height="19.079" viewBox="0 0 20.001 19.079">
  <g id="star_1_" data-name="star (1)" transform="translate(0 -11.795)">
    <path id="Path_9108" data-name="Path 9108" d="M19.972,19.04a.586.586,0,0,0-.473-.4l-6.2-.9-2.773-5.619a.586.586,0,0,0-1.051,0L6.7,17.74l-6.2.9a.586.586,0,0,0-.325,1l4.486,4.373L3.6,30.189a.586.586,0,0,0,.85.618L10,27.891l5.546,2.916a.586.586,0,0,0,.85-.618l-1.059-6.175,4.487-4.373A.586.586,0,0,0,19.972,19.04Z" transform="translate(0)" fill="#fed42d"/>
    <path id="Path_9109" data-name="Path 9109" d="M265.973,19.04a.586.586,0,0,0-.473-.4l-6.2-.9-2.773-5.619A.586.586,0,0,0,256,11.8v16.1l5.546,2.916a.586.586,0,0,0,.85-.618l-1.059-6.175,4.487-4.373A.586.586,0,0,0,265.973,19.04Z" transform="translate(-246)" fill="#fcbf29"/>
  </g>
</svg>
