<svg id="toll-24px" xmlns="http://www.w3.org/2000/svg" width="30" height="30" viewBox="0 0 30 30">
  <path id="Path_2013" data-name="Path 2013" d="M0,0H30V30H0Z" fill="none"/>
  <path id="use37" d="M21.235,18.816v0c-.138.01-.852.051-2.444.051-1.271,0-2.166-.037-2.481-.051v0c-4.893-.209-8.546-1.037-8.546-2.027s3.652-1.817,8.546-2.03v3.233c.32.022,1.236.075,2.5.075,1.519,0,2.281-.061,2.423-.073V14.762c4.883.212,8.527,1.039,8.527,2.027s-3.644,1.816-8.527,2.026m0-4.39V11.533h6.814V7.121H9.5v4.412H16.31v2.892c-5.538.247-9.7,1.313-9.7,2.59s4.165,2.342,9.7,2.59v9.271h4.925V19.6c5.529-.247,9.684-1.312,9.684-2.587s-4.155-2.34-9.684-2.589" transform="translate(-3.763 -2.998)" fill="#fff"/>
</svg>
