<svg xmlns="http://www.w3.org/2000/svg" width="384.628" height="170.738" viewBox="0 0 384.628 170.738">
  <g id="Group_7591" data-name="Group 7591" transform="translate(-416.959 -175.279)">
    <g id="Character_1" data-name="Character 1" transform="translate(665.012 175.279)">
      <g id="Group_7326" data-name="Group 7326" transform="translate(0)">
        <g id="Group_7256" data-name="Group 7256" transform="translate(42.982)">
          <g id="Group_7169" data-name="Group 7169" transform="translate(0.033)">
            <g id="Group_7168" data-name="Group 7168">
              <path id="Path_17807" data-name="Path 17807" d="M197.679,230.174c-.109,2.069-2.8,4.822-1.966,6.718,1.534,3.491.652,7.665-1.337,10.917s-4.957,5.77-7.871,8.227a65.625,65.625,0,0,0-1.322-15.159c-.322-1.559-.845-3.3-2.272-4.007-1.845-.916-4.191.408-6.081-.409-2.016-.871-2.424-3.625-4.124-5.016-1.537-1.257-3.8-1.124-5.681-.491s-3.62,1.69-5.558,2.122-4.276.046-5.349-1.625c-.663-1.031-.185-.4-.818-1.451,0,0-3.781.129-5.078-4.267,0,0-1.777-4.885,2.152-7.046,0,0,.894-8.828,9.778-4.856,2.551,1.14,5.571-2.539,8.062-1.273,2.072,1.053,2.69,3.933,4.762,4.988,2.378,1.211,5.149-.587,7.816-.7a6.434,6.434,0,0,1,6.431,6.47s.419-1.763,3.307-.986A7.493,7.493,0,0,1,197.679,230.174Z" transform="translate(-149.821 -212.29)" fill="#263238"/>
            </g>
          </g>
          <g id="Group_7171" data-name="Group 7171" transform="translate(7.043 11.906)">
            <g id="Group_7170" data-name="Group 7170">
              <path id="Path_17808" data-name="Path 17808" d="M197.794,250.978a6.218,6.218,0,0,0-.543-2.91c-.371-.753-1.765-2.466-3.3-2.569l.227-9.1a3.618,3.618,0,0,0-3.236-3.669l-17.843-1.887a10.86,10.86,0,0,0-11.979,10.125c-.432,6.855-.689,15.241.123,20.356,1.633,10.284,9.516,11.593,9.516,11.593l-.193,7.185c-.3,7.656,5.427,12.265,11.339,12.265,5.986,0,11.369-5.1,11.2-12.682l.576-23.157a4.07,4.07,0,0,0,2.606-1.269A6.47,6.47,0,0,0,197.794,250.978Z" transform="translate(-160.709 -230.783)" fill="#ffbe9d"/>
            </g>
          </g>
          <g id="Group_7255" data-name="Group 7255" transform="translate(0 3.73)">
            <g id="Group_7222" data-name="Group 7222" transform="translate(9.001 17.952)">
              <g id="Group_7221" data-name="Group 7221">
                <g id="Group_7220" data-name="Group 7220">
                  <g id="Group_7209" data-name="Group 7209" transform="translate(0.246 3.386)">
                    <g id="Group_7208" data-name="Group 7208">
                      <g id="Group_7207" data-name="Group 7207">
                        <g id="Group_7183" data-name="Group 7183">
                          <g id="Group_7176" data-name="Group 7176" transform="translate(2.19 1.413)">
                            <g id="Group_7175" data-name="Group 7175">
                              <g id="Group_7174" data-name="Group 7174">
                                <g id="Group_7173" data-name="Group 7173">
                                  <g id="Group_7172" data-name="Group 7172">
                                    <path id="Path_17809" data-name="Path 17809" d="M167.535,254.612a1.319,1.319,0,0,0,1.272,1.331,1.262,1.262,0,0,0,1.36-1.189,1.32,1.32,0,0,0-1.27-1.332A1.263,1.263,0,0,0,167.535,254.612Z" transform="translate(-167.534 -253.42)" fill="#263238"/>
                                  </g>
                                </g>
                              </g>
                            </g>
                          </g>
                          <g id="Group_7182" data-name="Group 7182">
                            <g id="Group_7181" data-name="Group 7181">
                              <g id="Group_7180" data-name="Group 7180">
                                <g id="Group_7179" data-name="Group 7179">
                                  <g id="Group_7178" data-name="Group 7178">
                                    <g id="Group_7177" data-name="Group 7177">
                                      <path id="Path_17810" data-name="Path 17810" d="M164.154,252.613c.164.172,1.163-.568,2.582-.564,1.418-.016,2.459.714,2.613.54.076-.077-.091-.388-.544-.718a3.622,3.622,0,0,0-2.092-.645,3.479,3.479,0,0,0-2.055.664C164.221,252.225,164.074,252.536,164.154,252.613Z" transform="translate(-164.133 -251.226)" fill="#263238"/>
                                    </g>
                                  </g>
                                </g>
                              </g>
                            </g>
                          </g>
                        </g>
                        <g id="Group_7195" data-name="Group 7195" transform="translate(13.952 0.265)">
                          <g id="Group_7188" data-name="Group 7188" transform="translate(1.938 1.412)">
                            <g id="Group_7187" data-name="Group 7187">
                              <g id="Group_7186" data-name="Group 7186">
                                <g id="Group_7185" data-name="Group 7185">
                                  <g id="Group_7184" data-name="Group 7184">
                                    <path id="Path_17811" data-name="Path 17811" d="M188.815,255.024a1.319,1.319,0,0,0,1.272,1.331,1.261,1.261,0,0,0,1.36-1.189,1.319,1.319,0,0,0-1.271-1.331A1.262,1.262,0,0,0,188.815,255.024Z" transform="translate(-188.814 -253.832)" fill="#263238"/>
                                  </g>
                                </g>
                              </g>
                            </g>
                          </g>
                          <g id="Group_7194" data-name="Group 7194">
                            <g id="Group_7193" data-name="Group 7193">
                              <g id="Group_7192" data-name="Group 7192">
                                <g id="Group_7191" data-name="Group 7191">
                                  <g id="Group_7190" data-name="Group 7190">
                                    <g id="Group_7189" data-name="Group 7189">
                                      <path id="Path_17812" data-name="Path 17812" d="M185.824,253.024c.164.173,1.165-.567,2.583-.563,1.418-.017,2.459.713,2.613.54.075-.077-.089-.387-.545-.717a3.615,3.615,0,0,0-2.092-.645,3.481,3.481,0,0,0-2.056.663C185.893,252.637,185.744,252.948,185.824,253.024Z" transform="translate(-185.803 -251.638)" fill="#263238"/>
                                    </g>
                                  </g>
                                </g>
                              </g>
                            </g>
                          </g>
                        </g>
                        <g id="Group_7201" data-name="Group 7201" transform="translate(5.205 0.351)">
                          <g id="Group_7200" data-name="Group 7200">
                            <g id="Group_7199" data-name="Group 7199">
                              <g id="Group_7198" data-name="Group 7198">
                                <g id="Group_7197" data-name="Group 7197">
                                  <g id="Group_7196" data-name="Group 7196">
                                    <path id="Path_17813" data-name="Path 17813" d="M175.834,263.6a9.378,9.378,0,0,0-2.306-.416c-.362-.038-.706-.109-.767-.357a1.849,1.849,0,0,1,.242-1.075l1.072-2.76c1.489-3.929,2.566-7.16,2.407-7.218s-1.494,3.079-2.982,7.008q-.538,1.453-1.027,2.776a2.1,2.1,0,0,0-.188,1.423.91.91,0,0,0,.6.53,2.473,2.473,0,0,0,.615.086A9.259,9.259,0,0,0,175.834,263.6Z" transform="translate(-172.218 -251.772)" fill="#263238"/>
                                  </g>
                                </g>
                              </g>
                            </g>
                          </g>
                        </g>
                        <g id="Group_7206" data-name="Group 7206" transform="translate(7.758 25.3)">
                          <g id="Group_7205" data-name="Group 7205">
                            <g id="Group_7204" data-name="Group 7204">
                              <g id="Group_7203" data-name="Group 7203">
                                <g id="Group_7202" data-name="Group 7202">
                                  <path id="Path_17814" data-name="Path 17814" d="M176.266,294.2a26.166,26.166,0,0,0,13.774-3.674s-3.564,7.738-13.857,6.776Z" transform="translate(-176.183 -290.522)" fill="#eb996e"/>
                                </g>
                              </g>
                            </g>
                          </g>
                        </g>
                      </g>
                    </g>
                  </g>
                  <g id="Group_7214" data-name="Group 7214" transform="translate(13.572 1.489)">
                    <g id="Group_7213" data-name="Group 7213">
                      <g id="Group_7212" data-name="Group 7212">
                        <g id="Group_7211" data-name="Group 7211">
                          <g id="Group_7210" data-name="Group 7210">
                            <path id="Path_17815" data-name="Path 17815" d="M184.84,249.343c.14.386,1.557.2,3.222.4,1.669.167,3.012.655,3.233.308.1-.165-.135-.529-.679-.9a5.641,5.641,0,0,0-4.917-.542C185.087,248.856,184.779,249.16,184.84,249.343Z" transform="translate(-184.832 -248.279)" fill="#263238"/>
                          </g>
                        </g>
                      </g>
                    </g>
                  </g>
                  <g id="Group_7219" data-name="Group 7219">
                    <g id="Group_7218" data-name="Group 7218">
                      <g id="Group_7217" data-name="Group 7217">
                        <g id="Group_7216" data-name="Group 7216">
                          <g id="Group_7215" data-name="Group 7215">
                            <path id="Path_17816" data-name="Path 17816" d="M163.788,247.437c.25.323,1.228-.012,2.4-.028,1.176-.057,2.172.216,2.4-.121.1-.163-.057-.487-.492-.792a3.48,3.48,0,0,0-3.87.12C163.814,246.947,163.678,247.28,163.788,247.437Z" transform="translate(-163.751 -245.966)" fill="#263238"/>
                          </g>
                        </g>
                      </g>
                    </g>
                  </g>
                </g>
              </g>
            </g>
            <g id="Group_7225" data-name="Group 7225" transform="translate(18.375 40.82)">
              <g id="Group_7224" data-name="Group 7224">
                <g id="Group_7223" data-name="Group 7223">
                  <path id="Path_17817" data-name="Path 17817" d="M178.314,282.213c-.027-.031.1-.2.387-.382a2.532,2.532,0,0,1,2.532-.012c.29.177.417.348.391.379a3.752,3.752,0,0,0-3.31.015Z" transform="translate(-178.31 -281.485)" fill="#eb996e"/>
                </g>
              </g>
            </g>
            <g id="Group_7228" data-name="Group 7228" transform="translate(39.34 25.873)">
              <g id="Group_7227" data-name="Group 7227">
                <g id="Group_7226" data-name="Group 7226">
                  <path id="Path_17818" data-name="Path 17818" d="M210.874,263.5a8.827,8.827,0,0,0,.974-.475,2.64,2.64,0,0,0,1.192-2.117,2.713,2.713,0,0,0-1.065-2.192,2.264,2.264,0,0,0-.982-.38c-.03-.039.475-.21,1.113.182a2.785,2.785,0,0,1,1.27,2.4,2.633,2.633,0,0,1-.475,1.47,2.783,2.783,0,0,1-.928.843A1.605,1.605,0,0,1,210.874,263.5Z" transform="translate(-210.874 -258.27)" fill="#eb996e"/>
                </g>
              </g>
            </g>
            <g id="Group_7230" data-name="Group 7230" transform="translate(5.119 5.347)">
              <g id="Group_7229" data-name="Group 7229">
                <path id="Path_17819" data-name="Path 17819" d="M158.114,226.825c-1.662,4.443,2.285,7.667,5.36,8.384,4.3,1,8.876-1.711,11.815-.556,2.194.862,4.267,2.559,6.6,2.216,1.133-.167,2.251-.818,3.358-.518,1.409.383,1.982,2.1,1.948,3.56-.041,1.8-.648,3.59-.42,5.379s1.825,3.638,3.566,3.164a4.278,4.278,0,0,0,2.924-3.872c.2-2.475-.247-5.428-.126-7.909.107-2.19.113-4.6-1.281-6.29s-3.777-2.152-5.957-2.452a166.261,166.261,0,0,0-27.787-1.462" transform="translate(-157.721 -226.389)" fill="#263238"/>
              </g>
            </g>
            <g id="Group_7233" data-name="Group 7233">
              <g id="Group_7232" data-name="Group 7232">
                <g id="Group_7231" data-name="Group 7231">
                  <path id="Path_17820" data-name="Path 17820" d="M149.866,224.816a1.413,1.413,0,0,1-.091-.464,2.672,2.672,0,0,1,.27-1.329,2.985,2.985,0,0,1,1.552-1.476,2.744,2.744,0,0,1,1.355-.153c.478.05.964.175,1.47.2a2.9,2.9,0,0,0,1.519-.339,7.165,7.165,0,0,0,1.411-1.022c.462-.4.931-.839,1.474-1.23a4.759,4.759,0,0,1,1.9-.828,6.978,6.978,0,0,1,4.3.731,20.106,20.106,0,0,1,3.814,2.723,15.1,15.1,0,0,0,3.8,2.566,4.386,4.386,0,0,0,2.092.319,5.969,5.969,0,0,0,1.959-.635,17.9,17.9,0,0,1,3.582-1.651,7.111,7.111,0,0,1,3.448-.108,5.271,5.271,0,0,1,2.5,1.347,5.051,5.051,0,0,1,1.191,1.789,3.9,3.9,0,0,1,.263,1.332,2.329,2.329,0,0,1-.015.352c-.007.079-.014.119-.02.118a5.123,5.123,0,0,0-.349-1.754,5.03,5.03,0,0,0-1.2-1.7,5.112,5.112,0,0,0-2.427-1.252,6.923,6.923,0,0,0-3.323.146,18.025,18.025,0,0,0-3.519,1.659,6.246,6.246,0,0,1-2.06.677,4.7,4.7,0,0,1-2.247-.33,15.234,15.234,0,0,1-3.9-2.615,20.068,20.068,0,0,0-3.744-2.686,6.7,6.7,0,0,0-4.1-.723,6.891,6.891,0,0,0-3.246,1.965,7.37,7.37,0,0,1-1.477,1.042,3.128,3.128,0,0,1-1.65.344c-.539-.039-1.022-.174-1.48-.229a2.56,2.56,0,0,0-1.264.116,2.877,2.877,0,0,0-1.5,1.359,2.752,2.752,0,0,0-.319,1.269C149.84,224.653,149.887,224.812,149.866,224.816Z" transform="translate(-149.77 -218.083)" fill="#455a64"/>
                </g>
              </g>
            </g>
            <g id="Group_7236" data-name="Group 7236" transform="translate(3.274 6.201)">
              <g id="Group_7235" data-name="Group 7235">
                <g id="Group_7234" data-name="Group 7234">
                  <path id="Path_17821" data-name="Path 17821" d="M156.654,235.4a.812.812,0,0,1-.45.03,1.55,1.55,0,0,1-1.042-.749,3.021,3.021,0,0,1-.243-2.023,5.8,5.8,0,0,1,1.052-2.494,5.642,5.642,0,0,1,2.62-1.969,5.824,5.824,0,0,1,3.756-.095,13.2,13.2,0,0,1,3.613,2.05,12.7,12.7,0,0,0,3.788,2.124,7.168,7.168,0,0,0,4.254-.234,20.256,20.256,0,0,0,3.686-1.757A33.161,33.161,0,0,1,181,228.543a9.407,9.407,0,0,1,3.173-.821,5.914,5.914,0,0,1,4.411,1.483,3.986,3.986,0,0,1,.758,1.044,2.21,2.21,0,0,1,.153.423,4.874,4.874,0,0,0-1-1.373,5.861,5.861,0,0,0-4.307-1.34,9.278,9.278,0,0,0-3.077.839,34.006,34.006,0,0,0-3.271,1.756,20.193,20.193,0,0,1-3.737,1.8,7.458,7.458,0,0,1-4.448.245,12.863,12.863,0,0,1-3.889-2.181,13.071,13.071,0,0,0-3.513-2.022,5.559,5.559,0,0,0-3.569.062,5.436,5.436,0,0,0-2.524,1.849,5.682,5.682,0,0,0-1.057,2.384,2.921,2.921,0,0,0,.173,1.927,1.512,1.512,0,0,0,.942.747A2.217,2.217,0,0,0,156.654,235.4Z" transform="translate(-154.855 -227.714)" fill="#455a64"/>
                </g>
              </g>
            </g>
            <g id="Group_7239" data-name="Group 7239" transform="translate(38.156 9.283)">
              <g id="Group_7238" data-name="Group 7238">
                <g id="Group_7237" data-name="Group 7237">
                  <path id="Path_17822" data-name="Path 17822" d="M215.378,254.268c-.026-.021.236-.306.572-.9a6.19,6.19,0,0,0,.77-2.754,5.791,5.791,0,0,0-.243-1.955,7.415,7.415,0,0,0-1.033-2.022c-.45-.675-.984-1.352-1.455-2.125a4.883,4.883,0,0,1-.841-2.681,6.547,6.547,0,0,1,.858-2.669,5.688,5.688,0,0,0,.722-2.372,4.045,4.045,0,0,0-1.9-3.535,4.242,4.242,0,0,0-2.758-.541,9.389,9.389,0,0,0-1.034.256.887.887,0,0,1,.243-.141,3.661,3.661,0,0,1,.769-.243,4.159,4.159,0,0,1,4.99,4.211,5.917,5.917,0,0,1-.735,2.507,6.354,6.354,0,0,0-.82,2.537,4.6,4.6,0,0,0,.788,2.5c.452.751.979,1.431,1.431,2.123a7.554,7.554,0,0,1,1.042,2.115,5.92,5.92,0,0,1,.214,2.047,6,6,0,0,1-.894,2.808,4.238,4.238,0,0,1-.482.643C215.456,254.209,215.387,254.276,215.378,254.268Z" transform="translate(-209.035 -232.501)" fill="#455a64"/>
                </g>
              </g>
            </g>
            <g id="Group_7242" data-name="Group 7242" transform="translate(4.095 16.776)">
              <g id="Group_7241" data-name="Group 7241">
                <g id="Group_7240" data-name="Group 7240">
                  <path id="Path_17823" data-name="Path 17823" d="M169.54,250.9a14.615,14.615,0,0,0-.27-1.6,6.6,6.6,0,0,0-2.417-3.568,6.48,6.48,0,0,0-6.137-.9,6.49,6.49,0,0,0-3,2.257,6.436,6.436,0,0,0,0,7.633,6.492,6.492,0,0,0,3,2.258,6.483,6.483,0,0,0,6.138-.905,6.6,6.6,0,0,0,2.416-3.568,14.615,14.615,0,0,0,.27-1.6,5.111,5.111,0,0,1-.144,1.632,6.6,6.6,0,0,1-2.4,3.725,6.663,6.663,0,0,1-2.83,1.283,6.76,6.76,0,0,1-3.556-.276,6.768,6.768,0,0,1-3.157-2.354,6.735,6.735,0,0,1,0-8.021,6.772,6.772,0,0,1,3.157-2.353,6.763,6.763,0,0,1,3.555-.276A6.662,6.662,0,0,1,167,245.542a6.594,6.594,0,0,1,2.4,3.725A5.115,5.115,0,0,1,169.54,250.9Z" transform="translate(-156.13 -244.141)" fill="#263238"/>
                </g>
              </g>
            </g>
            <g id="Group_7245" data-name="Group 7245" transform="translate(19.216 16.776)">
              <g id="Group_7244" data-name="Group 7244">
                <g id="Group_7243" data-name="Group 7243">
                  <path id="Path_17824" data-name="Path 17824" d="M193.026,250.9a14.622,14.622,0,0,0-.27-1.6,6.6,6.6,0,0,0-2.417-3.568,6.48,6.48,0,0,0-6.137-.9,6.491,6.491,0,0,0-3,2.257,6.437,6.437,0,0,0,0,7.633,6.5,6.5,0,0,0,3,2.258,6.484,6.484,0,0,0,6.138-.905,6.6,6.6,0,0,0,2.416-3.568,14.621,14.621,0,0,0,.27-1.6,5.1,5.1,0,0,1-.144,1.632,6.591,6.591,0,0,1-2.4,3.725,6.663,6.663,0,0,1-2.83,1.283,6.762,6.762,0,0,1-3.556-.276,6.776,6.776,0,0,1-3.157-2.354,6.737,6.737,0,0,1,0-8.021,6.774,6.774,0,0,1,3.156-2.353,6.766,6.766,0,0,1,3.556-.276,6.68,6.68,0,0,1,5.23,5.008A5.108,5.108,0,0,1,193.026,250.9Z" transform="translate(-179.616 -244.141)" fill="#263238"/>
                </g>
              </g>
            </g>
            <g id="Group_7248" data-name="Group 7248" transform="translate(17.486 22.261)">
              <g id="Group_7247" data-name="Group 7247">
                <g id="Group_7246" data-name="Group 7246">
                  <path id="Path_17825" data-name="Path 17825" d="M179.19,252.826a.028.028,0,0,1,.006-.017l.008-.008.005,0,0,0h0v.068h0a.222.222,0,0,1-.031.016l-.01,0,0,0h0v-.116h0l.023-.008v.133a4.338,4.338,0,0,1-1.082.1c-.652,0-1.179-.075-1.179-.168s.527-.167,1.179-.167a4.307,4.307,0,0,1,1.082.1v.133l-.023-.008h0v-.116h0l0,0,.01,0a.222.222,0,0,1,.031.016h0v.068h0l0,0-.005,0-.008-.009A.028.028,0,0,1,179.19,252.826Z" transform="translate(-176.93 -252.659)" fill="#263238"/>
                </g>
              </g>
            </g>
            <g id="Group_7251" data-name="Group 7251" transform="translate(32.489 23.262)">
              <g id="Group_7250" data-name="Group 7250">
                <g id="Group_7249" data-name="Group 7249">
                  <path id="Path_17826" data-name="Path 17826" d="M208.318,254.838a49.142,49.142,0,0,1-8.086-.579,49.128,49.128,0,0,1,8.086.579Z" transform="translate(-200.232 -254.214)" fill="#263238"/>
                </g>
              </g>
            </g>
            <g id="Group_7254" data-name="Group 7254" transform="translate(19.379 33.159)">
              <g id="Group_7253" data-name="Group 7253">
                <g id="Group_7252" data-name="Group 7252">
                  <path id="Path_17827" data-name="Path 17827" d="M184.477,269.586a1.728,1.728,0,0,1,.048,1.04,3.55,3.55,0,0,1-3.643,2.982,1.737,1.737,0,0,1-1.011-.252c.014-.053.4.049,1.008.015a3.649,3.649,0,0,0,3.414-2.794C184.446,269.983,184.421,269.589,184.477,269.586Z" transform="translate(-179.87 -269.586)" fill="#263238"/>
                </g>
              </g>
            </g>
          </g>
        </g>
        <g id="Group_7325" data-name="Group 7325" transform="translate(0 60.124)">
          <g id="Group_7259" data-name="Group 7259" transform="translate(38.625 22.99)">
            <g id="Group_7258" data-name="Group 7258">
              <g id="Group_7257" data-name="Group 7257">
                <path id="Path_17828" data-name="Path 17828" d="M145.826,341.384a.952.952,0,0,1,.017.206l.017.605c.007.554.018,1.333.031,2.326.012,2.043.028,4.96.048,8.556.022,7.226-.223,17.209-.782,28.218-.6,11-1.141,20.956-1.535,28.189-.18,3.591-.326,6.5-.428,8.543l-.119,2.323c-.017.251-.03.45-.039.6a.954.954,0,0,1-.025.205.94.94,0,0,1-.01-.207c0-.155,0-.353.006-.6.014-.554.032-1.333.056-2.326.057-2.02.162-4.941.322-8.55.3-7.219.886-17.183,1.436-28.193s.841-20.98.879-28.2c.025-3.6.045-6.512.059-8.555.014-.993.024-1.772.032-2.326l.016-.605A.947.947,0,0,1,145.826,341.384Z" transform="translate(-143.002 -341.384)" fill="#263238"/>
              </g>
            </g>
          </g>
          <g id="Group_7261" data-name="Group 7261" transform="translate(85.386 8.24)">
            <g id="Group_7260" data-name="Group 7260">
              <path id="Path_17829" data-name="Path 17829" d="M233.889,322.133c-3.464-4-10.232-4.585-13.231-2.415a13.057,13.057,0,0,0-4.969,9.547,23.657,23.657,0,0,0,2.049,10.809c2.258,5.486,5.6,9.924,10.59,15.577l12.862,16.886-24.821,24.232L226.654,413l21.1-17L265.2,377.508" transform="translate(-215.633 -318.475)" fill="#e8505b"/>
            </g>
          </g>
          <g id="Group_7264" data-name="Group 7264" transform="translate(13.907 62.81)">
            <g id="Group_7263" data-name="Group 7263">
              <g id="Group_7262" data-name="Group 7262">
                <path id="Path_17830" data-name="Path 17830" d="M104.611,404.37a4.094,4.094,0,0,1,1.336-.645,9.59,9.59,0,0,1,7.032.381,4.084,4.084,0,0,1,1.258.785c-.03.049-.515-.238-1.351-.568a10.9,10.9,0,0,0-6.87-.372C105.149,404.189,104.635,404.422,104.611,404.37Z" transform="translate(-104.61 -403.234)" fill="#263238"/>
              </g>
            </g>
          </g>
          <g id="Group_7266" data-name="Group 7266">
            <g id="Group_7265" data-name="Group 7265">
              <path id="Path_17831" data-name="Path 17831" d="M190,321.369l-.012.024c-8.664-11.484-17.986-10.537-22.738-10.674v-5.042c-3.509,0-8.3,3.162-10.783,5.424l-2.449,3.365h0a12.519,12.519,0,0,0-8.011-7.858,24.915,24.915,0,0,0-4.1-.93v4.511c-11.636.324-17.863,3.506-25.638,12.508-.4.466-1.192,1.256-2.1,2.15h0L91.153,351.867c-4.7,5.2-8.982,12.361-8,19.3h0c1.1,7.824,5.666,12.979,14.4,18.881l24.208,15.691-.116,2.7h57.773s39.177-28.9,40.137-39.606C220.312,360.376,206.818,342.449,190,321.369Zm-67.253,61.364-16.94-12.642,18.3-18.932Zm55.467,1.005-.455-9.358,2.425-24.573c4.828,5.539,13.766,16.524,13.766,18.171Z" transform="translate(-83.009 -305.676)" fill="#ffae43"/>
            </g>
          </g>
          <g id="Group_7269" data-name="Group 7269" transform="translate(71.01 8.789)">
            <g id="Group_7268" data-name="Group 7268">
              <g id="Group_7267" data-name="Group 7267">
                <path id="Path_17832" data-name="Path 17832" d="M193.3,319.327" transform="translate(-193.304 -319.327)" fill="none" stroke="#4e585d" stroke-miterlimit="10" stroke-width="0.05"/>
              </g>
            </g>
          </g>
          <g id="Group_7272" data-name="Group 7272" transform="translate(71.009 5.042)">
            <g id="Group_7271" data-name="Group 7271">
              <g id="Group_7270" data-name="Group 7270">
                <path id="Path_17833" data-name="Path 17833" d="M206.536,313.508a4.421,4.421,0,0,1-.438.766c-.3.479-.751,1.168-1.335,2a46.065,46.065,0,0,1-5.068,6.1c-.547.556-1.1,1.075-1.644,1.571l-.27.249-.005-.368a8.22,8.22,0,0,0-2.371-5.636,3.46,3.46,0,0,0-1.476-1.043.967.967,0,0,0-.626.107.641.641,0,0,1,.645-.22,3.338,3.338,0,0,1,1.606,1,8.111,8.111,0,0,1,1.7,2.3,8.276,8.276,0,0,1,.852,3.483l-.275-.119c.534-.5,1.085-1.014,1.628-1.566a54.621,54.621,0,0,0,5.114-6l1.419-1.933A4.431,4.431,0,0,1,206.536,313.508Z" transform="translate(-193.303 -313.507)" fill="#263238"/>
              </g>
            </g>
          </g>
          <g id="Group_7275" data-name="Group 7275" transform="translate(58.893 4.51)">
            <g id="Group_7274" data-name="Group 7274">
              <g id="Group_7273" data-name="Group 7273">
                <path id="Path_17834" data-name="Path 17834" d="M174.485,312.682a3.524,3.524,0,0,1,.507.6l1.282,1.7c1.07,1.441,2.53,3.447,4.125,5.674l1.04,1.456-.29.043a14.39,14.39,0,0,1,1.3-2.978,5.139,5.139,0,0,1,1.863-1.832,3.491,3.491,0,0,1,1.669-.467,1.435,1.435,0,0,1,.62.089c0,.027-.222-.007-.614.027a3.679,3.679,0,0,0-1.566.538,5.084,5.084,0,0,0-1.724,1.8,15.042,15.042,0,0,0-1.236,2.934l-.1.3-.187-.261-1.045-1.454c-1.595-2.227-3.024-4.254-4.044-5.731l-1.195-1.76A3.515,3.515,0,0,1,174.485,312.682Z" transform="translate(-174.483 -312.681)" fill="#263238"/>
              </g>
            </g>
          </g>
          <g id="Group_7278" data-name="Group 7278" transform="translate(71.01 5.687)" opacity="0.1">
            <g id="Group_7277" data-name="Group 7277">
              <g id="Group_7276" data-name="Group 7276">
                <path id="Path_17835" data-name="Path 17835" d="M193.3,317.611a9.942,9.942,0,0,1,2.517,7.9c-.123.939-.231,2.19.65,2.539.611.242,1.27-.178,1.781-.59a35.034,35.034,0,0,0,9.08-11.074,2.147,2.147,0,0,0,.335-1.125c-.03-.4-.361-.8-.755-.753a1.136,1.136,0,0,0-.671.467c-2.676,3.088-5.639,6.3-8.315,9.389a6.833,6.833,0,0,0-1.488-4.758c-1.063-1.309-2.224-2.622-3.134-2" transform="translate(-193.304 -314.509)"/>
              </g>
            </g>
          </g>
          <g id="Group_7281" data-name="Group 7281" transform="translate(86.162 62.301)">
            <g id="Group_7280" data-name="Group 7280">
              <g id="Group_7279" data-name="Group 7279">
                <path id="Path_17836" data-name="Path 17836" d="M226.385,441.83a1.6,1.6,0,0,1-.2-.27l-.537-.811-1.974-3.067-6.768-10.7-.068-.106.089-.09,6.039-6.022,13.14-13.006,4.009-3.914,1.1-1.052a3.146,3.146,0,0,1,.4-.351,3.138,3.138,0,0,1-.353.4l-1.057,1.1-3.934,3.99L223.2,421l-6.052,6.009.023-.2,6.666,10.763,1.9,3.115.494.838A1.531,1.531,0,0,1,226.385,441.83Z" transform="translate(-216.838 -402.444)" fill="#263238"/>
              </g>
            </g>
          </g>
          <g id="Group_7284" data-name="Group 7284" transform="translate(84.221 11.571)">
            <g id="Group_7283" data-name="Group 7283">
              <g id="Group_7282" data-name="Group 7282">
                <path id="Path_17837" data-name="Path 17837" d="M218.211,323.649a.577.577,0,0,1-.094.126l-.3.347c-.278.292-.646.756-1.107,1.362a13.678,13.678,0,0,0-2.462,5.877,16.884,16.884,0,0,0,1.432,9.294,22.189,22.189,0,0,0,2.833,4.847c1.246,1.521,2.533,3.1,3.828,4.74,5.191,6.545,9.66,12.643,12.936,17.023l3.873,5.192,1.047,1.416c.108.15.194.273.266.373a.557.557,0,0,1,.082.134s-.041-.035-.109-.113l-.292-.353-1.1-1.378c-.944-1.2-2.3-2.953-3.958-5.129-3.326-4.343-7.824-10.418-13.01-16.956-1.293-1.636-2.577-3.217-3.82-4.742a22.253,22.253,0,0,1-2.862-4.931,16.983,16.983,0,0,1-1.382-9.453,13.465,13.465,0,0,1,2.592-5.917,14.524,14.524,0,0,1,1.162-1.33l.324-.325C218.167,323.679,218.206,323.644,218.211,323.649Z" transform="translate(-213.824 -323.648)" fill="#263238"/>
              </g>
            </g>
          </g>
          <g id="Group_7287" data-name="Group 7287" transform="translate(89.334 19.884)">
            <g id="Group_7286" data-name="Group 7286">
              <g id="Group_7285" data-name="Group 7285">
                <path id="Path_17838" data-name="Path 17838" d="M242.756,336.562c.01.03-.355.15-.96.471a9.629,9.629,0,0,0-2.286,1.759,19.2,19.2,0,0,0-2.577,3.441,51.136,51.136,0,0,1-2.875,4.483,10.96,10.96,0,0,1-8.345,4.457,10.148,10.148,0,0,1-2.927-.274,6.072,6.072,0,0,1-.766-.229.878.878,0,0,1-.256-.11,13.639,13.639,0,0,0,3.936.376,11.127,11.127,0,0,0,4.113-1.1,10.974,10.974,0,0,0,3.979-3.327c1.138-1.481,2-3.059,2.878-4.441a18.329,18.329,0,0,1,2.671-3.444,8.92,8.92,0,0,1,2.4-1.709,5.57,5.57,0,0,1,.746-.29A.863.863,0,0,1,242.756,336.562Z" transform="translate(-221.765 -336.56)" fill="#fafafa"/>
              </g>
            </g>
          </g>
          <g id="Group_7290" data-name="Group 7290" transform="translate(40.214 71.996)">
            <g id="Group_7289" data-name="Group 7289">
              <g id="Group_7288" data-name="Group 7288">
                <path id="Path_17839" data-name="Path 17839" d="M200.228,422a.558.558,0,0,1-.152-.023l-.436-.1a6.406,6.406,0,0,0-.713-.131,8.8,8.8,0,0,0-.981-.108,18.13,18.13,0,0,0-6.214.8,31.547,31.547,0,0,0-4.085,1.494c-1.429.633-2.911,1.427-4.513,2.181a29.2,29.2,0,0,1-5.2,1.97,15.387,15.387,0,0,1-2.923.464,12.484,12.484,0,0,1-3.045-.221,17.755,17.755,0,0,1-5.529-2.278c-1.661-.993-3.15-2.114-4.571-3.161a27.383,27.383,0,0,0-8.063-4.624,12.882,12.882,0,0,0-3.518-.576,10.008,10.008,0,0,0-2.673.313,10.5,10.5,0,0,0-2.137.861c0-.005.039-.035.124-.091l.382-.237a7.74,7.74,0,0,1,1.6-.659,9.8,9.8,0,0,1,2.71-.375,12.837,12.837,0,0,1,3.584.536c2.613.735,5.349,2.5,8.178,4.6,1.428,1.041,2.912,2.15,4.556,3.128A17.523,17.523,0,0,0,172.029,428a12.252,12.252,0,0,0,2.962.218,15.253,15.253,0,0,0,2.86-.449A29.31,29.31,0,0,0,183,425.835c1.6-.742,3.083-1.526,4.533-2.155a30.964,30.964,0,0,1,4.132-1.467,17.609,17.609,0,0,1,6.288-.7A8.258,8.258,0,0,1,200.228,422Z" transform="translate(-145.471 -417.501)" fill="#fafafa"/>
              </g>
            </g>
          </g>
          <g id="Group_7293" data-name="Group 7293" transform="translate(19.667 70.781)">
            <g id="Group_7292" data-name="Group 7292">
              <g id="Group_7291" data-name="Group 7291">
                <path id="Path_17840" data-name="Path 17840" d="M125.22,415.614c.012,0,.03.075.053.222s.058.363.075.645a9.725,9.725,0,0,1-.1,2.391,7.954,7.954,0,0,1-1.339,3.294,10.278,10.278,0,0,1-3.3,2.83c-1.321.791-2.62,1.451-3.683,2.223a10.1,10.1,0,0,0-2.486,2.4,4.022,4.022,0,0,0-.742,2.166c0,.552.084.856.048.863-.011,0-.037-.07-.077-.214a2.982,2.982,0,0,1-.1-.647,3.965,3.965,0,0,1,.674-2.3,9.893,9.893,0,0,1,2.5-2.524c1.078-.8,2.387-1.479,3.692-2.26a10.261,10.261,0,0,0,3.224-2.723,7.99,7.99,0,0,0,1.357-3.157,11.238,11.238,0,0,0,.205-2.342A5.782,5.782,0,0,1,125.22,415.614Z" transform="translate(-113.557 -415.614)" fill="#fafafa"/>
              </g>
            </g>
          </g>
          <g id="Group_7296" data-name="Group 7296" transform="translate(106.263 44.123)">
            <g id="Group_7295" data-name="Group 7295">
              <g id="Group_7294" data-name="Group 7294">
                <path id="Path_17841" data-name="Path 17841" d="M270.283,374.216a14.585,14.585,0,0,0-3.819,1.194,11.517,11.517,0,0,0-3.432,2.6,10.489,10.489,0,0,0-1.454,2.088c-.424.775-.717,1.659-1.131,2.532a6.2,6.2,0,0,1-1.7,2.263,7.441,7.441,0,0,1-2.3,1.278,11.308,11.308,0,0,1-4.379.545,24.876,24.876,0,0,1-2.946-.351,6.4,6.4,0,0,1-1.064-.225,7.176,7.176,0,0,1,1.082.1c.693.075,1.7.207,2.937.243a11.445,11.445,0,0,0,4.265-.6,6.319,6.319,0,0,0,3.8-3.395c.4-.847.7-1.739,1.143-2.542a10.6,10.6,0,0,1,1.515-2.141,11.375,11.375,0,0,1,3.558-2.609,10.686,10.686,0,0,1,2.837-.888,6.346,6.346,0,0,1,.8-.091A.9.9,0,0,1,270.283,374.216Z" transform="translate(-248.06 -374.208)" fill="#fafafa"/>
              </g>
            </g>
          </g>
          <g id="Group_7299" data-name="Group 7299" transform="translate(40.794 42.881)">
            <g id="Group_7298" data-name="Group 7298">
              <g id="Group_7297" data-name="Group 7297">
                <path id="Path_17842" data-name="Path 17842" d="M202.068,378.964a.528.528,0,0,1-.147.043l-.44.1c-.386.085-.961.189-1.7.305a38.217,38.217,0,0,1-6.352.449,29.436,29.436,0,0,1-9.3-1.575,31.652,31.652,0,0,1-5.059-2.374,36.057,36.057,0,0,0-5.342-2.607,12.187,12.187,0,0,0-2.912-.66,11.58,11.58,0,0,0-2.889.144,18.622,18.622,0,0,0-5.172,1.863c-3.124,1.657-5.755,3.5-8.126,4.778a19.54,19.54,0,0,1-5.923,2.311,8.55,8.55,0,0,1-1.722.191l-.45.016a.528.528,0,0,1-.153-.006.562.562,0,0,1,.153-.028l.447-.05a9.721,9.721,0,0,0,1.7-.251,20.249,20.249,0,0,0,5.834-2.39c2.343-1.3,4.953-3.158,8.1-4.845a18.756,18.756,0,0,1,5.259-1.913,11.854,11.854,0,0,1,2.976-.153,12.481,12.481,0,0,1,2.992.675,35.924,35.924,0,0,1,5.39,2.636,31.831,31.831,0,0,0,5,2.371,29.757,29.757,0,0,0,9.2,1.629,41.587,41.587,0,0,0,6.329-.342c.744-.1,1.32-.178,1.711-.242l.446-.062A.517.517,0,0,1,202.068,378.964Z" transform="translate(-146.372 -372.279)" fill="#fafafa"/>
              </g>
            </g>
          </g>
          <g id="Group_7302" data-name="Group 7302" transform="translate(16.715 36.333)">
            <g id="Group_7301" data-name="Group 7301">
              <g id="Group_7300" data-name="Group 7300">
                <path id="Path_17843" data-name="Path 17843" d="M125.811,379.063a2.155,2.155,0,0,0-.033-.992,2.859,2.859,0,0,0-2.024-1.655c-.558-.166-1.2-.261-1.884-.419a4.647,4.647,0,0,1-2.062-.948,5.453,5.453,0,0,1-1.428-2.061,15.325,15.325,0,0,1-.74-2.558,14.648,14.648,0,0,0-.735-2.5,9.6,9.6,0,0,0-1.206-2.085,9.223,9.223,0,0,0-3.107-2.62,9.561,9.561,0,0,0-2.611-.915c-.644-.131-1.012-.156-1.009-.19a.81.81,0,0,1,.267-.007,5.672,5.672,0,0,1,.764.068,8.789,8.789,0,0,1,2.7.832,9.21,9.21,0,0,1,3.246,2.642,9.749,9.749,0,0,1,1.264,2.147,14.615,14.615,0,0,1,.758,2.553,15.591,15.591,0,0,0,.716,2.506,5.206,5.206,0,0,0,1.327,1.954,4.412,4.412,0,0,0,1.926.912c.668.166,1.314.276,1.888.463a2.944,2.944,0,0,1,2.08,1.845,1.565,1.565,0,0,1,.01.778A.66.66,0,0,1,125.811,379.063Z" transform="translate(-108.972 -362.108)" fill="#fafafa"/>
              </g>
            </g>
          </g>
          <g id="Group_7305" data-name="Group 7305" transform="translate(35.908 13.05)">
            <g id="Group_7304" data-name="Group 7304">
              <g id="Group_7303" data-name="Group 7303">
                <path id="Path_17844" data-name="Path 17844" d="M187.277,333.16a8.179,8.179,0,0,0-1.892-.767,5.9,5.9,0,0,0-2.37-.034,12.506,12.506,0,0,0-3,1.01c-1.076.487-2.211,1.116-3.448,1.768a19.389,19.389,0,0,1-4.138,1.717,12.05,12.05,0,0,1-4.952.162,19.273,19.273,0,0,1-5.048-1.669,86.823,86.823,0,0,1-8.666-5.427,23.233,23.233,0,0,0-7.5-3.432,12.186,12.186,0,0,0-5.53-.065,19.037,19.037,0,0,0-1.95.639,7.619,7.619,0,0,1,1.919-.765,11.958,11.958,0,0,1,5.612-.04,23.061,23.061,0,0,1,7.615,3.4,90.882,90.882,0,0,0,8.645,5.386,19.144,19.144,0,0,0,4.956,1.648,11.805,11.805,0,0,0,4.822-.137,19.377,19.377,0,0,0,4.086-1.665c1.237-.638,2.386-1.259,3.479-1.738a12.479,12.479,0,0,1,3.069-.978,5.61,5.61,0,0,1,3.852.682A3.134,3.134,0,0,1,187.277,333.16Z" transform="translate(-138.782 -325.945)" fill="#fafafa"/>
              </g>
            </g>
          </g>
          <g id="Group_7309" data-name="Group 7309" transform="translate(71.274 88.801)">
            <g id="Group_7308" data-name="Group 7308" transform="translate(0)">
              <g id="Group_7307" data-name="Group 7307">
                <g id="Group_7306" data-name="Group 7306">
                  <path id="Path_17845" data-name="Path 17845" d="M203.209,456.809c.651.326-.071-.033,1.791.892l10.328-.02,2.083-1.7L209.883,443.6c-.917.4-4.965,1.033-6.268,1.494a10.492,10.492,0,0,1-3.511.59,19.38,19.38,0,0,1-3.972-.326c-.09-.032-.2-.058-.279-.093a1.374,1.374,0,0,0-.554-.112,1.345,1.345,0,0,0-1.376,1.989c.641.945,3.674,2.148,7.564,2.038.062,0,.119.008.181.008,3.417,0,.283,2.86-1.742,4.556a2.691,2.691,0,0,0-.978,2.438,1.144,1.144,0,0,0,.456.84C200.266,457.567,203.209,456.809,203.209,456.809Z" transform="translate(-193.714 -443.604)" fill="#ffbe9d"/>
                </g>
              </g>
            </g>
          </g>
          <g id="Group_7312" data-name="Group 7312" transform="translate(38.726 30.091)">
            <g id="Group_7311" data-name="Group 7311">
              <g id="Group_7310" data-name="Group 7310">
                <path id="Path_17846" data-name="Path 17846" d="M143.167,422.788a.743.743,0,0,1-.008-.183c0-.139.006-.315.01-.534.017-.493.042-1.18.073-2.051.076-1.806.184-4.375.317-7.54.267-6.387.633-15.171,1.037-24.873.379-9.717.67-18.515.825-24.884.067-3.166.121-5.736.159-7.543.019-.871.033-1.557.044-2.051.008-.218.015-.394.02-.533a.794.794,0,0,1,.018-.182.707.707,0,0,1,.016.182c0,.139.008.315.014.534,0,.494.011,1.18.019,2.052.017,1.782-.012,4.361-.053,7.547-.095,6.373-.348,15.174-.728,24.892s-.8,18.509-1.135,24.872c-.178,3.162-.323,5.73-.424,7.535-.058.87-.1,1.555-.136,2.048l-.044.532A.781.781,0,0,1,143.167,422.788Z" transform="translate(-143.159 -352.414)" fill="#263238"/>
              </g>
            </g>
          </g>
          <g id="Group_7315" data-name="Group 7315" transform="translate(66.002 8.789)">
            <g id="Group_7314" data-name="Group 7314">
              <g id="Group_7313" data-name="Group 7313">
                <path id="Path_17847" data-name="Path 17847" d="M186.28,412.226a1.323,1.323,0,0,1-.03-.239c-.014-.175-.033-.408-.057-.7l-.187-2.707c-.08-1.176-.177-2.614-.23-4.287s-.17-3.576-.184-5.683c-.033-2.107-.088-4.414-.058-6.891.01-1.238,0-2.52.027-3.839s.06-2.677.091-4.07c.162-5.568.451-11.687.9-18.1.9-12.829,2.05-24.411,2.784-32.8l.86-9.937.234-2.7c.029-.295.052-.527.07-.7a1.3,1.3,0,0,1,.035-.238,1.244,1.244,0,0,1,0,.241l-.036.705c-.041.638-.1,1.546-.172,2.707-.15,2.351-.413,5.749-.754,9.948-.673,8.4-1.782,19.983-2.685,32.8-.447,6.409-.746,12.522-.925,18.085q-.054,2.087-.106,4.066c-.031,1.318-.028,2.6-.044,3.836-.042,2.475,0,4.78.017,6.885,0,2.106.1,4.008.135,5.68s.113,3.11.173,4.287.095,2.07.124,2.709l.024.706A1.268,1.268,0,0,1,186.28,412.226Z" transform="translate(-185.525 -319.327)" fill="#263238"/>
              </g>
            </g>
          </g>
          <g id="Group_7318" data-name="Group 7318" transform="translate(70.691 38.2)">
            <g id="Group_7317" data-name="Group 7317">
              <g id="Group_7316" data-name="Group 7316">
                <path id="Path_17848" data-name="Path 17848" d="M193.613,365.071c-.032-.032.332-.185.728.161a.952.952,0,0,1,.315.813.961.961,0,0,1-1.758.294.949.949,0,0,1,.034-.871c.262-.456.655-.429.637-.389.017.05-.277.115-.423.491a.747.747,0,0,0,.024.623.673.673,0,0,0,1.18-.2.748.748,0,0,0-.18-.6C193.912,365.09,193.612,365.124,193.613,365.071Z" transform="translate(-192.808 -365.009)" fill="#263238"/>
              </g>
            </g>
          </g>
          <g id="Group_7321" data-name="Group 7321" transform="translate(68.886 67.097)">
            <g id="Group_7320" data-name="Group 7320" transform="translate(0)">
              <g id="Group_7319" data-name="Group 7319">
                <path id="Path_17849" data-name="Path 17849" d="M190.808,409.955c-.031-.033.332-.186.729.161a.951.951,0,0,1,.315.813.962.962,0,0,1-1.758.294.95.95,0,0,1,.035-.871c.262-.456.655-.43.636-.389.017.05-.277.115-.422.491a.748.748,0,0,0,.024.623.674.674,0,0,0,1.181-.2.747.747,0,0,0-.18-.6C191.108,409.973,190.808,410.008,190.808,409.955Z" transform="translate(-190.004 -409.893)" fill="#263238"/>
              </g>
            </g>
          </g>
          <g id="Group_7324" data-name="Group 7324" transform="translate(101.524 71.788)">
            <g id="Group_7323" data-name="Group 7323">
              <g id="Group_7322" data-name="Group 7322">
                <path id="Path_17850" data-name="Path 17850" d="M255.046,432.416a3.839,3.839,0,0,1-.866-.11,11.587,11.587,0,0,1-2.268-.727,12.643,12.643,0,0,1-5.8-5.178,19.732,19.732,0,0,1-1.6-4.014,11.956,11.956,0,0,0-1.427-3.151,5.767,5.767,0,0,0-1.633-1.637c-.468-.292-.765-.389-.754-.418,0-.011.079.006.222.048a3.545,3.545,0,0,1,.6.258,5.454,5.454,0,0,1,1.76,1.612,11.556,11.556,0,0,1,1.526,3.189,20.7,20.7,0,0,0,1.6,3.945,12.933,12.933,0,0,0,5.6,5.13A20.337,20.337,0,0,0,255.046,432.416Z" transform="translate(-240.699 -417.178)" fill="#fafafa"/>
              </g>
            </g>
          </g>
        </g>
      </g>
    </g>
    <g id="Character_2" data-name="Character 2" transform="translate(525.936 180.837)">
      <g id="Group_7451" data-name="Group 7451">
        <g id="Group_7344" data-name="Group 7344" transform="translate(22.872 60.288)">
          <g id="Group_7328" data-name="Group 7328">
            <g id="Group_7327" data-name="Group 7327">
              <path id="Path_17851" data-name="Path 17851" d="M299.747,411.719l-10.933-31.764,5.064-30.482c1.474-8.218,2.3-15.468.089-19.593-5.9-11.026-13.028-12.014-22.765-14.545-2.008-.521-17.285-1.036-18.966-.625-13.255,1.486-21.744,8.513-26.378,19.933l-5.051,20.339-6.931,21.272a9.09,9.09,0,0,1-6.111,4.972L181,390.351l.223,5.236L181,402.649l35.6-6.682c7.139-1.34,14.393-3.972,16.437-10.859l3.834-11.339c1.875,4.8,3.911,9.2,3.911,9.2l-2.6,28.606Z" transform="translate(-181.004 -314.561)" fill="#455a64"/>
            </g>
          </g>
          <g id="Group_7334" data-name="Group 7334" transform="translate(40.286 15.985)">
            <g id="Group_7330" data-name="Group 7330" transform="translate(0.217 0.024)">
              <g id="Group_7329" data-name="Group 7329">
                <path id="Path_17852" data-name="Path 17852" d="M312.986,364.14,302.812,398.15a16.406,16.406,0,0,1-10.951,11l-42.337,11.284-5.61-14.618,38.268-14.225,9.393-34.063s2.168-19.04,19.39-18.061" transform="translate(-243.914 -339.427)" fill="#455a64"/>
              </g>
            </g>
            <g id="Group_7333" data-name="Group 7333">
              <g id="Group_7332" data-name="Group 7332">
                <g id="Group_7331" data-name="Group 7331">
                  <path id="Path_17853" data-name="Path 17853" d="M310.846,339.45s-.174.007-.514.005-.845-.041-1.507.015a16.773,16.773,0,0,0-5.658,1.157,15.259,15.259,0,0,0-3.652,2.044,17.471,17.471,0,0,0-3.482,3.57,25.812,25.812,0,0,0-4.464,11.282v.012l0,.006-9.355,34.074-.021.076-.074.027-38.263,14.238.1-.217,1,2.6,4.61,12.019-.2-.1,36.373-9.675,4.1-1.089c.672-.184,1.348-.348,2-.542a17.642,17.642,0,0,0,1.892-.724,16.195,16.195,0,0,0,8-7.934,22.937,22.937,0,0,0,1.194-3.362q1.013-3.368,1.94-6.449c2.475-8.2,4.464-14.786,5.837-19.335l1.59-5.214.42-1.349c.1-.3.153-.456.153-.456s-.037.159-.122.465-.221.767-.39,1.358c-.353,1.2-.869,2.961-1.534,5.23-1.35,4.556-3.306,11.155-5.739,19.364L303.16,397a23.21,23.21,0,0,1-1.2,3.4,16.431,16.431,0,0,1-8.112,8.083,17.6,17.6,0,0,1-1.928.741c-.661.2-1.332.362-2.005.547l-4.1,1.1-36.369,9.712-.145.039-.053-.14-4.614-12.018c-.341-.89-.682-1.778-1-2.6l-.061-.158.159-.059,38.273-14.212-.095.1c3.6-12.987,6.809-24.586,9.431-34.053l0,.017a25.921,25.921,0,0,1,4.546-11.364,17.608,17.608,0,0,1,3.535-3.585,15.361,15.361,0,0,1,3.7-2.038,16.514,16.514,0,0,1,5.7-1.1c.664-.046,1.17.018,1.51.016S310.846,339.45,310.846,339.45Z" transform="translate(-243.577 -339.39)" fill="#263238"/>
                </g>
              </g>
            </g>
          </g>
          <g id="Group_7337" data-name="Group 7337" transform="translate(71.933 52.732)">
            <g id="Group_7336" data-name="Group 7336">
              <g id="Group_7335" data-name="Group 7335">
                <path id="Path_17854" data-name="Path 17854" d="M301.678,404.258a1.474,1.474,0,0,1-.506.037,6.175,6.175,0,0,1-1.375-.158,9.017,9.017,0,0,1-4.017-2.119,9.839,9.839,0,0,1-2.613-3.719,5.109,5.109,0,0,1-.249-.749,3.615,3.615,0,0,1-.133-.58,1.5,1.5,0,0,1-.044-.506c.062-.012.178.7.644,1.743a10.7,10.7,0,0,0,2.618,3.56,9.645,9.645,0,0,0,3.85,2.139C300.957,404.2,301.681,404.19,301.678,404.258Z" transform="translate(-292.732 -396.465)" fill="#263238"/>
              </g>
            </g>
          </g>
          <g id="Group_7340" data-name="Group 7340" transform="translate(51.857 34.653)">
            <g id="Group_7339" data-name="Group 7339">
              <g id="Group_7338" data-name="Group 7338">
                <path id="Path_17855" data-name="Path 17855" d="M265.434,368.385a6.382,6.382,0,0,1-.359,1c-.246.638-.622,1.553-1.049,2.7a29.2,29.2,0,0,0-2.136,9.21,15.45,15.45,0,0,0,.7,5.132,18.857,18.857,0,0,0,1.743,3.879,25.826,25.826,0,0,0,1.608,2.391,8.363,8.363,0,0,1,.627.858c-.009.008-.079-.057-.2-.187s-.306-.325-.526-.588a20.48,20.48,0,0,1-1.709-2.35,18,18,0,0,1-1.835-3.908,15.307,15.307,0,0,1-.742-5.235,27.519,27.519,0,0,1,2.25-9.287c.457-1.136.867-2.038,1.15-2.661A6.569,6.569,0,0,1,265.434,368.385Z" transform="translate(-261.549 -368.385)" fill="#263238"/>
              </g>
            </g>
          </g>
          <g id="Group_7343" data-name="Group 7343" transform="translate(78.559 68.131)">
            <g id="Group_7342" data-name="Group 7342">
              <g id="Group_7341" data-name="Group 7341">
                <path id="Path_17856" data-name="Path 17856" d="M306.961,424.956a8.682,8.682,0,0,0-3.936-4.564,1.935,1.935,0,0,1,.878.307,6.131,6.131,0,0,1,2.883,3.344A1.933,1.933,0,0,1,306.961,424.956Z" transform="translate(-303.023 -420.384)" fill="#263238"/>
              </g>
            </g>
          </g>
        </g>
        <g id="Group_7346" data-name="Group 7346" transform="translate(52.215 144.719)">
          <g id="Group_7345" data-name="Group 7345">
            <path id="Path_17857" data-name="Path 17857" d="M238.521,445.7s-12.111,1.08-11.94,8.946l15.08-.762Z" transform="translate(-226.579 -445.701)" fill="#b78876"/>
          </g>
        </g>
        <g id="Group_7348" data-name="Group 7348" transform="translate(78.973 8.307)">
          <g id="Group_7347" data-name="Group 7347">
            <path id="Path_17858" data-name="Path 17858" d="M272.849,238.4q-1.663,8.031-3.17,16.093c-1.272,6.816-2.448,13.933-.523,20.593a45.937,45.937,0,0,0,4.923,10.259c1.082,1.845,2.268,3.79,4.186,4.737,2.606,1.288,5.908.27,7.981-1.768s3.135-4.885,3.849-7.7a81.153,81.153,0,0,0,1.921-16.883c.22-5.722.342-11.556-1.255-17.056s-5.195-10.7-10.5-12.849" transform="translate(-268.14 -233.823)" fill="#263238"/>
          </g>
        </g>
        <g id="Group_7350" data-name="Group 7350" transform="translate(84.553 0.699)">
          <g id="Group_7349" data-name="Group 7349">
            <path id="Path_17859" data-name="Path 17859" d="M276.807,229.889a9.379,9.379,0,0,1,5.3-1.963c1.544-3.13,5.209-4.561,8.635-5.229,5.046-.982,4.5-1.12,9.2.952s11.373,7.934,12.221,13.005a46.205,46.205,0,0,0,4.227,12.8c1.265,2.669,3.8,4.53,5.288,7.082a10.587,10.587,0,0,1,.611,9.272c-1.214,2.9-3.78,5.462-3.538,8.6a13.387,13.387,0,0,0,.793,4.8c2.442,5.693,1.3,13.281-3.95,16.564a13.553,13.553,0,0,1-16.874-2.551c-3.515-4.072-4.2-9.881-3.847-15.248s1.568-10.7,1.217-16.071" transform="translate(-276.807 -222.007)" fill="#263238"/>
          </g>
        </g>
        <g id="Group_7362" data-name="Group 7362" transform="translate(0 117.021)">
          <g id="Group_7361" data-name="Group 7361">
            <g id="Group_7360" data-name="Group 7360">
              <g id="Group_7359" data-name="Group 7359">
                <g id="Group_7354" data-name="Group 7354">
                  <g id="Group_7353" data-name="Group 7353">
                    <g id="Group_7352" data-name="Group 7352">
                      <g id="Group_7351" data-name="Group 7351">
                        <path id="Path_17860" data-name="Path 17860" d="M236.044,442.956l-.072-1.852-27.3-2.879-11.962-34.388-51.229-1.156,15.5,40.276Q198.97,443.25,236.044,442.956Z" transform="translate(-145.478 -402.68)" fill="#263238"/>
                      </g>
                    </g>
                  </g>
                </g>
                <g id="Group_7358" data-name="Group 7358" transform="translate(28.068 16.676)">
                  <g id="Group_7357" data-name="Group 7357">
                    <g id="Group_7356" data-name="Group 7356">
                      <g id="Group_7355" data-name="Group 7355">
                        <path id="Path_17861" data-name="Path 17861" d="M189.432,432.6a2.679,2.679,0,1,0,.986-3.659A2.68,2.68,0,0,0,189.432,432.6Z" transform="translate(-189.075 -428.581)" fill="#fff"/>
                      </g>
                    </g>
                  </g>
                </g>
              </g>
            </g>
          </g>
        </g>
        <g id="Group_7431" data-name="Group 7431" transform="translate(81.256 3.614)">
          <g id="Group_7428" data-name="Group 7428" transform="translate(0 7.558)">
            <g id="Group_7427" data-name="Group 7427">
              <g id="Group_7416" data-name="Group 7416">
                <g id="Group_7415" data-name="Group 7415">
                  <g id="Group_7414" data-name="Group 7414">
                    <g id="Group_7367" data-name="Group 7367">
                      <g id="Group_7366" data-name="Group 7366">
                        <g id="Group_7365" data-name="Group 7365">
                          <g id="Group_7364" data-name="Group 7364">
                            <g id="Group_7363" data-name="Group 7363">
                              <path id="Path_17862" data-name="Path 17862" d="M293.431,301.466c6.142,0,11.666-5.236,11.488-13.013l1.1-44.415h0a3.712,3.712,0,0,0-3.321-3.765l-18.308-1.937A11.144,11.144,0,0,0,272.1,248.726c-.443,7.034-.707,15.639.127,20.887,1.675,10.553,9.764,11.9,9.764,11.9l-.2,7.372c-.31,7.857,5.568,12.585,11.634,12.585Z" transform="translate(-271.687 -238.273)" fill="#ffcbb1"/>
                            </g>
                          </g>
                        </g>
                      </g>
                    </g>
                    <g id="Group_7379" data-name="Group 7379" transform="translate(2.262 13.506)">
                      <g id="Group_7372" data-name="Group 7372" transform="translate(2.246 1.449)">
                        <g id="Group_7371" data-name="Group 7371">
                          <g id="Group_7370" data-name="Group 7370">
                            <g id="Group_7369" data-name="Group 7369">
                              <g id="Group_7368" data-name="Group 7368">
                                <path id="Path_17863" data-name="Path 17863" d="M278.69,262.725a1.354,1.354,0,0,0,1.305,1.366,1.294,1.294,0,0,0,1.4-1.22,1.355,1.355,0,0,0-1.3-1.367A1.3,1.3,0,0,0,278.69,262.725Z" transform="translate(-278.689 -261.502)" fill="#263238"/>
                              </g>
                            </g>
                          </g>
                        </g>
                      </g>
                      <g id="Group_7378" data-name="Group 7378">
                        <g id="Group_7377" data-name="Group 7377">
                          <g id="Group_7376" data-name="Group 7376">
                            <g id="Group_7375" data-name="Group 7375">
                              <g id="Group_7374" data-name="Group 7374">
                                <g id="Group_7373" data-name="Group 7373">
                                  <path id="Path_17864" data-name="Path 17864" d="M275.221,260.674c.168.176,1.194-.583,2.65-.579,1.454-.017,2.523.733,2.681.554.077-.079-.093-.4-.559-.737a3.712,3.712,0,0,0-2.146-.662,3.572,3.572,0,0,0-2.109.681C275.291,260.275,275.139,260.595,275.221,260.674Z" transform="translate(-275.2 -259.251)" fill="#263238"/>
                                </g>
                              </g>
                            </g>
                          </g>
                        </g>
                      </g>
                    </g>
                    <g id="Group_7391" data-name="Group 7391" transform="translate(16.577 13.778)">
                      <g id="Group_7384" data-name="Group 7384" transform="translate(1.989 1.449)">
                        <g id="Group_7383" data-name="Group 7383">
                          <g id="Group_7382" data-name="Group 7382">
                            <g id="Group_7381" data-name="Group 7381">
                              <g id="Group_7380" data-name="Group 7380">
                                <path id="Path_17865" data-name="Path 17865" d="M300.526,263.147a1.353,1.353,0,0,0,1.305,1.366,1.3,1.3,0,0,0,1.4-1.22,1.355,1.355,0,0,0-1.3-1.367A1.3,1.3,0,0,0,300.526,263.147Z" transform="translate(-300.525 -261.924)" fill="#263238"/>
                              </g>
                            </g>
                          </g>
                        </g>
                      </g>
                      <g id="Group_7390" data-name="Group 7390">
                        <g id="Group_7389" data-name="Group 7389">
                          <g id="Group_7388" data-name="Group 7388">
                            <g id="Group_7387" data-name="Group 7387">
                              <g id="Group_7386" data-name="Group 7386">
                                <g id="Group_7385" data-name="Group 7385">
                                  <path id="Path_17866" data-name="Path 17866" d="M297.456,261.1c.169.176,1.195-.582,2.65-.578,1.455-.017,2.524.732,2.682.554.077-.079-.092-.4-.559-.737a3.713,3.713,0,0,0-2.147-.662,3.568,3.568,0,0,0-2.109.681C297.527,260.7,297.375,261.017,297.456,261.1Z" transform="translate(-297.435 -259.673)" fill="#263238"/>
                                </g>
                              </g>
                            </g>
                          </g>
                        </g>
                      </g>
                    </g>
                    <g id="Group_7397" data-name="Group 7397" transform="translate(7.603 13.866)">
                      <g id="Group_7396" data-name="Group 7396">
                        <g id="Group_7395" data-name="Group 7395">
                          <g id="Group_7394" data-name="Group 7394">
                            <g id="Group_7393" data-name="Group 7393">
                              <g id="Group_7392" data-name="Group 7392">
                                <path id="Path_17867" data-name="Path 17867" d="M287.206,271.946a9.6,9.6,0,0,0-2.365-.427c-.371-.039-.724-.113-.787-.366a1.894,1.894,0,0,1,.248-1.1q.524-1.35,1.1-2.832c1.527-4.032,2.633-7.347,2.47-7.407s-1.534,3.159-3.061,7.191q-.551,1.491-1.053,2.849a2.15,2.15,0,0,0-.193,1.46.936.936,0,0,0,.612.543,2.55,2.55,0,0,0,.632.088A9.506,9.506,0,0,0,287.206,271.946Z" transform="translate(-283.495 -259.811)" fill="#263238"/>
                              </g>
                            </g>
                          </g>
                        </g>
                      </g>
                    </g>
                    <g id="Group_7402" data-name="Group 7402" transform="translate(10.308 39.465)">
                      <g id="Group_7401" data-name="Group 7401">
                        <g id="Group_7400" data-name="Group 7400">
                          <g id="Group_7399" data-name="Group 7399">
                            <g id="Group_7398" data-name="Group 7398">
                              <path id="Path_17868" data-name="Path 17868" d="M287.7,303.341a26.843,26.843,0,0,0,14.133-3.77s-3.428,7.249-13.99,6.262Z" transform="translate(-287.697 -299.571)" fill="#f1ad8b"/>
                            </g>
                          </g>
                        </g>
                      </g>
                    </g>
                    <g id="Group_7407" data-name="Group 7407" transform="translate(11.784 28.521)">
                      <g id="Group_7406" data-name="Group 7406">
                        <g id="Group_7405" data-name="Group 7405">
                          <g id="Group_7404" data-name="Group 7404">
                            <g id="Group_7403" data-name="Group 7403">
                              <path id="Path_17869" data-name="Path 17869" d="M290.135,283.562a2.625,2.625,0,0,1,2.352-.975,2.4,2.4,0,0,1,1.654.888,1.517,1.517,0,0,1,.116,1.736,1.761,1.761,0,0,1-1.91.483,5.517,5.517,0,0,1-1.861-1.111,1.613,1.613,0,0,1-.416-.431.488.488,0,0,1,0-.542" transform="translate(-289.99 -282.572)" fill="#f83a3a"/>
                            </g>
                          </g>
                        </g>
                      </g>
                    </g>
                    <g id="Group_7413" data-name="Group 7413" transform="translate(10.958 27.008)">
                      <g id="Group_7412" data-name="Group 7412">
                        <g id="Group_7411" data-name="Group 7411">
                          <g id="Group_7410" data-name="Group 7410">
                            <g id="Group_7409" data-name="Group 7409">
                              <g id="Group_7408" data-name="Group 7408">
                                <path id="Path_17870" data-name="Path 17870" d="M293.348,280.223c-.237-.014-.24,1.567-1.593,2.689s-3.036.948-3.048,1.169c-.023.1.375.307,1.086.326a3.937,3.937,0,0,0,2.544-.887,3.427,3.427,0,0,0,1.234-2.255C293.633,280.605,293.456,280.214,293.348,280.223Z" transform="translate(-288.707 -280.223)" fill="#263238"/>
                              </g>
                            </g>
                          </g>
                        </g>
                      </g>
                    </g>
                  </g>
                </g>
              </g>
              <g id="Group_7421" data-name="Group 7421" transform="translate(15.936 11.559)">
                <g id="Group_7420" data-name="Group 7420">
                  <g id="Group_7419" data-name="Group 7419">
                    <g id="Group_7418" data-name="Group 7418">
                      <g id="Group_7417" data-name="Group 7417">
                        <path id="Path_17871" data-name="Path 17871" d="M296.447,257.318c.144.4,1.6.209,3.306.415,1.713.171,3.091.672,3.318.317.1-.17-.139-.543-.7-.926a5.793,5.793,0,0,0-5.046-.557C296.7,256.819,296.385,257.13,296.447,257.318Z" transform="translate(-296.439 -256.227)" fill="#263238"/>
                      </g>
                    </g>
                  </g>
                </g>
              </g>
              <g id="Group_7426" data-name="Group 7426" transform="translate(2.781 9.205)">
                <g id="Group_7425" data-name="Group 7425">
                  <g id="Group_7424" data-name="Group 7424">
                    <g id="Group_7423" data-name="Group 7423">
                      <g id="Group_7422" data-name="Group 7422">
                        <path id="Path_17872" data-name="Path 17872" d="M276.044,254.079c.256.331,1.259-.012,2.466-.028,1.206-.059,2.228.222,2.463-.124.1-.168-.058-.5-.5-.812a3.57,3.57,0,0,0-3.972.123C276.071,253.577,275.931,253.918,276.044,254.079Z" transform="translate(-276.007 -252.57)" fill="#263238"/>
                      </g>
                    </g>
                  </g>
                </g>
              </g>
            </g>
          </g>
          <g id="Group_7430" data-name="Group 7430" transform="translate(0.634)">
            <g id="Group_7429" data-name="Group 7429">
              <path id="Path_17873" data-name="Path 17873" d="M272.672,242.79c3.969-2.3,7.843-4.439,10.323-8.3,1.374,3.87,4.052,5.783,7.6,7.844a52.563,52.563,0,0,0,11.462,4.437c-1.992,1.931-2.255,5.055-1.8,7.79s1.508,5.371,1.678,8.14c.229,3.7-1.123,7.322-1.209,11.026-.117,5.076,2.127,9.872,4.322,14.45l9.533-5.554-1.372-24.759.114-17.519-14.861-13.811-18.83,2.059Z" transform="translate(-272.672 -226.534)" fill="#263238"/>
            </g>
          </g>
        </g>
        <g id="Group_7450" data-name="Group 7450" transform="translate(76.855)">
          <g id="Group_7440" data-name="Group 7440">
            <g id="Group_7433" data-name="Group 7433">
              <g id="Group_7432" data-name="Group 7432">
                <path id="Path_17874" data-name="Path 17874" d="M267.766,292.839c4.836,4.892,4.324,13.6,9.639,17.97,3.259,2.678,8.017,2.931,12.012,1.579s7.363-4.088,10.444-6.969,6-5.983,9.509-8.322c3.41-2.273,9.238-3.671,10.063-7.685.6-2.94-2.481-6.472-3.063-9.417-.923-4.672,4.131-8.286,4.975-12.972,1.686-9.363-3.257-20.36-8.405-28.36s-8.043-16.951-21.1-17.708c-11.687-.522-19.648,5.085-23.532,13.194-1.948,4.066-2.406,8.664-2.785,13.157-.883,10.5-1.37,21.616,3.479,30.965,1.005,1.937,2.2,4.391.85,6.1-1.239,1.567-4.041,1.5-4.822,3.34C264.222,289.618,266.31,291.366,267.766,292.839Zm14.547-62.2c1.564-.066,6.2,0,11.38,6.894,3.1,4.125,3.095,10.813,3.025,16.64-.053,4.333,0,15.3,0,15.3s.688,13.844-4.019,15.073c-5.773,1.506-10.835.469-15.154-3.645s-6.8-9.889-7.78-15.774a60.668,60.668,0,0,1-.769-17.8,24.9,24.9,0,0,1,3.54-10.259A14.3,14.3,0,0,1,282.313,230.636Z" transform="translate(-264.852 -220.921)" fill="#e8505b"/>
              </g>
            </g>
            <g id="Group_7436" data-name="Group 7436" transform="translate(21.401 56.224)" opacity="0.3">
              <g id="Group_7435" data-name="Group 7435">
                <g id="Group_7434" data-name="Group 7434">
                  <path id="Path_17875" data-name="Path 17875" d="M330.263,315.986c-3.869,2.1-6.532,5.223-9.68,8.3s-6.653,6.058-10.915,7.162-9.444-.21-11.576-4.063c12.085,2.054,26.112-7.6,30.24-19.138a6.668,6.668,0,0,0-.065,3.063A41.37,41.37,0,0,0,330.263,315.986Z" transform="translate(-298.092 -308.249)"/>
                </g>
              </g>
            </g>
            <g id="Group_7439" data-name="Group 7439" transform="translate(4.864 60.779)" opacity="0.3">
              <g id="Group_7438" data-name="Group 7438">
                <g id="Group_7437" data-name="Group 7437">
                  <path id="Path_17876" data-name="Path 17876" d="M273.067,315.324A11.882,11.882,0,0,0,278.9,322.7a7.641,7.641,0,0,1,1.843,1.084,1.788,1.788,0,0,1,.561,1.931,1.734,1.734,0,0,1-2.074.759,5.048,5.048,0,0,1-1.961-1.366c-2.1-2.033-4.276-4.089-4.868-6.954a3.4,3.4,0,0,0,.7-1.434A6.4,6.4,0,0,0,273.067,315.324Z" transform="translate(-272.406 -315.324)"/>
                </g>
              </g>
            </g>
          </g>
          <g id="Group_7443" data-name="Group 7443" transform="translate(16.405 58.51)">
            <g id="Group_7442" data-name="Group 7442">
              <g id="Group_7441" data-name="Group 7441">
                <path id="Path_17877" data-name="Path 17877" d="M324.609,311.8a1.9,1.9,0,0,1-.181.376c-.133.238-.312.6-.588,1.041a35.663,35.663,0,0,1-2.494,3.62,39.692,39.692,0,0,1-4.41,4.807,27.135,27.135,0,0,1-6.566,4.552,30.223,30.223,0,0,1-3.907,1.4,29.4,29.4,0,0,1-3.768.84,26.483,26.483,0,0,1-6.521.243,22.2,22.2,0,0,1-4.32-.827c-.5-.133-.876-.29-1.135-.377a2,2,0,0,1-.385-.159c.01-.031.554.152,1.554.41a24.538,24.538,0,0,0,4.306.717,27.229,27.229,0,0,0,6.452-.312,30.038,30.038,0,0,0,3.726-.851,30.585,30.585,0,0,0,3.857-1.386,27.413,27.413,0,0,0,6.5-4.476,41.7,41.7,0,0,0,4.433-4.725,42.55,42.55,0,0,0,2.57-3.542c.292-.427.487-.778.64-1.005A2.028,2.028,0,0,1,324.609,311.8Z" transform="translate(-290.333 -311.8)" fill="#263238"/>
              </g>
            </g>
          </g>
          <g id="Group_7446" data-name="Group 7446" transform="translate(5.382 61.056)">
            <g id="Group_7445" data-name="Group 7445">
              <g id="Group_7444" data-name="Group 7444">
                <path id="Path_17878" data-name="Path 17878" d="M288.877,325.148a3.073,3.073,0,0,1-.767.2,11.73,11.73,0,0,1-2.155.193,13.181,13.181,0,0,1-11.713-7.025,11.738,11.738,0,0,1-.843-1.992,3.108,3.108,0,0,1-.185-.771,28.625,28.625,0,0,0,1.236,2.648,13.559,13.559,0,0,0,11.508,6.9A28.538,28.538,0,0,0,288.877,325.148Z" transform="translate(-273.21 -315.753)" fill="#263238"/>
              </g>
            </g>
          </g>
          <g id="Group_7449" data-name="Group 7449" transform="translate(18.538 66.093)">
            <g id="Group_7448" data-name="Group 7448">
              <g id="Group_7447" data-name="Group 7447">
                <path id="Path_17879" data-name="Path 17879" d="M293.645,343.892a1.705,1.705,0,0,1,.376-.1c.247-.057.615-.111,1.082-.223a34.495,34.495,0,0,0,3.909-1.09,44.7,44.7,0,0,0,11.763-6.288,98.039,98.039,0,0,0,10.14-8.764l2.92-2.837.8-.764a1.679,1.679,0,0,1,.3-.251,1.651,1.651,0,0,1-.248.3l-.756.809c-.663.7-1.631,1.7-2.846,2.914a87.636,87.636,0,0,1-10.109,8.866,42.653,42.653,0,0,1-11.886,6.242,29.247,29.247,0,0,1-3.958.993c-.473.093-.847.126-1.1.162A1.685,1.685,0,0,1,293.645,343.892Z" transform="translate(-293.645 -323.578)" fill="#263238"/>
              </g>
            </g>
          </g>
        </g>
      </g>
    </g>
    <g id="Character_3" data-name="Character 3" transform="translate(416.959 176.279)">
      <g id="Group_7546" data-name="Group 7546">
        <g id="Group_7476" data-name="Group 7476" transform="translate(0 63.317)">
          <g id="Group_7453" data-name="Group 7453">
            <g id="Group_7452" data-name="Group 7452">
              <path id="Path_17880" data-name="Path 17880" d="M575.52,353.287,552.8,326.5l-.052.054c-.9-.885-1.678-1.666-2.077-2.127-7.871-9.114-14.123-12.206-26.164-12.4h0l-23.409.508c-4.352.356-14.228-1.505-23.365,10.6l-.012-.024c-16.637,20.856-29.987,38.592-29.236,46.96.95,10.592,41.346,40.79,41.346,40.79l55.52-.049-.115-4.227,23.95-15.524c8.642-5.839,13.155-10.939,14.248-18.679C584.406,365.517,580.17,358.433,575.52,353.287Zm-101.7,15.939c0-1.63,8.759-11.9,13.534-17.379l2.483,23.712-.449,9.258Zm70.443,14.6-1.344-31.237h0l18.1,18.731Z" transform="translate(-448.458 -312.025)" fill="#10d078"/>
            </g>
          </g>
          <g id="Group_7475" data-name="Group 7475" transform="translate(1.788 2.928)">
            <g id="Group_7458" data-name="Group 7458" transform="translate(16.269 50.468)">
              <g id="Group_7455" data-name="Group 7455" transform="translate(0 0)">
                <g id="Group_7454" data-name="Group 7454">
                  <rect id="Rectangle_1722" data-name="Rectangle 1722" width="50.183" height="34.346" rx="3.42" transform="matrix(0.897, -0.443, 0.443, 0.897, 0, 22.232)" fill="#e0e0e0"/>
                </g>
              </g>
              <g id="Group_7457" data-name="Group 7457" transform="translate(28.694 23.595)">
                <g id="Group_7456" data-name="Group 7456">
                  <path id="Path_17881" data-name="Path 17881" d="M522.286,431.985a2.54,2.54,0,1,1-.838,3.493A2.54,2.54,0,0,1,522.286,431.985Z" transform="translate(-521.073 -431.61)" fill="#fff"/>
                </g>
              </g>
            </g>
            <g id="Group_7461" data-name="Group 7461" transform="translate(92.209 15.38)">
              <g id="Group_7460" data-name="Group 7460">
                <g id="Group_7459" data-name="Group 7459">
                  <path id="Path_17882" data-name="Path 17882" d="M594.57,340.462a.912.912,0,0,1,.017.2c0,.153.01.35.017.6.007.549.018,1.32.032,2.3.013,2.021.034,4.907.059,8.464.038,7.145.317,17.012.871,27.9s1.12,20.751,1.42,27.893c.158,3.57.262,6.46.318,8.459.023.981.042,1.752.055,2.3,0,.248,0,.446.006.6a.956.956,0,0,1-.009.2.925.925,0,0,1-.025-.2c-.01-.153-.022-.35-.039-.6-.028-.548-.068-1.318-.118-2.3-.1-2.018-.246-4.9-.424-8.452-.39-7.155-.926-17-1.519-27.887-.554-10.892-.8-20.768-.773-27.917.02-3.557.036-6.443.048-8.464.014-.982.024-1.753.032-2.3.007-.248.012-.446.017-.6A.919.919,0,0,1,594.57,340.462Z" transform="translate(-594.456 -340.462)" fill="#263238"/>
                </g>
              </g>
            </g>
            <g id="Group_7467" data-name="Group 7467">
              <g id="Group_7463" data-name="Group 7463" transform="translate(0 0.048)">
                <g id="Group_7462" data-name="Group 7462">
                  <path id="Path_17883" data-name="Path 17883" d="M485.746,317.973c2.964-2.152,6.405-1.5,9.373.645a12.915,12.915,0,0,1,4.916,9.445,23.4,23.4,0,0,1-2.027,10.693c-2.233,5.427-5.54,9.819-10.477,15.411l-12.725,16.706,24.555,23.973L489.186,410.9l-20.567-16.548a99.272,99.272,0,0,1-17.385-18.269" transform="translate(-451.235 -316.647)" fill="#10d078"/>
                </g>
              </g>
              <g id="Group_7466" data-name="Group 7466">
                <g id="Group_7465" data-name="Group 7465">
                  <g id="Group_7464" data-name="Group 7464">
                    <path id="Path_17884" data-name="Path 17884" d="M451.235,376.06s.055.063.153.192l.431.58c.379.512.943,1.269,1.713,2.227a89.568,89.568,0,0,0,7.1,7.853c1.615,1.6,3.449,3.318,5.5,5.121,2.031,1.821,4.352,3.636,6.8,5.6l16.351,13.124-.224.037,10.165-16.063.024.205-12.669-12.364c-4.068-3.974-8.048-7.86-11.887-11.609l-.1-.1.089-.115,12.735-16.7,0,0,0,0a83.292,83.292,0,0,0,6.723-8.443,38.236,38.236,0,0,0,4.423-8.685,22.014,22.014,0,0,0,1.387-8.448,14.1,14.1,0,0,0-2.171-6.917,11.148,11.148,0,0,0-4.366-3.912,8.093,8.093,0,0,0-4.243-.94,6.635,6.635,0,0,0-2.609.772c-.549.294-.8.5-.816.48,0,0,.063-.051.193-.143a5.2,5.2,0,0,1,.6-.381,6.529,6.529,0,0,1,2.624-.824,8.154,8.154,0,0,1,4.314.91,11.269,11.269,0,0,1,4.455,3.939,14.251,14.251,0,0,1,2.237,7A22.175,22.175,0,0,1,498.8,337a38.339,38.339,0,0,1-4.428,8.759,83.018,83.018,0,0,1-6.729,8.487l.007-.008-12.714,16.713-.015-.217,11.891,11.6L499.476,394.7l.1.093-.071.113c-3.584,5.647-7.021,11.063-10.185,16.051l-.092.144L489.09,411,472.769,397.83c-2.44-1.972-4.756-3.8-6.785-5.632-2.042-1.815-3.871-3.545-5.479-5.157a85.215,85.215,0,0,1-7.05-7.923c-.758-.968-1.31-1.736-1.676-2.258l-.411-.595C451.276,376.132,451.235,376.06,451.235,376.06Z" transform="translate(-451.235 -316.573)" fill="#263238"/>
                  </g>
                </g>
              </g>
            </g>
            <g id="Group_7470" data-name="Group 7470" transform="translate(110.773 54.751)">
              <g id="Group_7469" data-name="Group 7469">
                <g id="Group_7468" data-name="Group 7468">
                  <path id="Path_17885" data-name="Path 17885" d="M632.088,402.762a9.569,9.569,0,0,1-1.288-.4,9.566,9.566,0,0,0-3.165-.408,9.461,9.461,0,0,0-3.1.735,9.857,9.857,0,0,1-1.239.533,3.816,3.816,0,0,1,1.14-.749,7.92,7.92,0,0,1,6.444-.337A3.836,3.836,0,0,1,632.088,402.762Z" transform="translate(-623.291 -401.613)" fill="#263238"/>
                </g>
              </g>
            </g>
            <g id="Group_7474" data-name="Group 7474" transform="translate(39.114 80.589)">
              <g id="Group_7473" data-name="Group 7473">
                <g id="Group_7472" data-name="Group 7472">
                  <g id="Group_7471" data-name="Group 7471">
                    <path id="Path_17886" data-name="Path 17886" d="M526.038,454.71c-.644.322-2.625,1.306-4.467,2.221a6.306,6.306,0,0,1-6.787-.759l-2.8-2.277,7.724-12.15c.908.4,4.637.924,5.925,1.379a10.367,10.367,0,0,0,3.473.583,19.158,19.158,0,0,0,3.931-.323c.088-.032.2-.057.277-.091a1.354,1.354,0,0,1,.548-.111,1.33,1.33,0,0,1,1.362,1.967c-.633.935-3.634,2.125-7.483,2.017-.061,0-.118.008-.18.008-3.38,0-.28,2.83,1.724,4.507a2.662,2.662,0,0,1,.967,2.412,1.132,1.132,0,0,1-.451.831C528.95,455.46,526.038,454.71,526.038,454.71Z" transform="translate(-511.987 -441.745)" fill="#a36853"/>
                  </g>
                </g>
              </g>
            </g>
          </g>
        </g>
        <g id="Group_7532" data-name="Group 7532" transform="translate(53.028 13.577)">
          <g id="Group_7531" data-name="Group 7531">
            <g id="Group_7530" data-name="Group 7530">
              <g id="Group_7519" data-name="Group 7519">
                <g id="Group_7518" data-name="Group 7518">
                  <g id="Group_7517" data-name="Group 7517">
                    <g id="Group_7481" data-name="Group 7481">
                      <g id="Group_7480" data-name="Group 7480">
                        <g id="Group_7479" data-name="Group 7479">
                          <g id="Group_7478" data-name="Group 7478">
                            <g id="Group_7477" data-name="Group 7477">
                              <path id="Path_17887" data-name="Path 17887" d="M543.084,295.7c-5.921,0-11.247-5.048-11.2-12.566l-1.065-42.824.12.019a3.579,3.579,0,0,1,3.2-3.63l17.653-1.868a10.744,10.744,0,0,1,11.851,10.017c.428,6.782.682,15.079-.122,20.139-1.616,10.175-9.415,11.47-9.415,11.47l.191,7.108c.3,7.575-5.369,12.134-11.218,12.134Z" transform="translate(-530.822 -234.767)" fill="#ffdeb3"/>
                            </g>
                          </g>
                        </g>
                      </g>
                    </g>
                    <g id="Group_7493" data-name="Group 7493" transform="translate(25.869 13.022)">
                      <g id="Group_7486" data-name="Group 7486" transform="translate(0.407 1.398)">
                        <g id="Group_7485" data-name="Group 7485">
                          <g id="Group_7484" data-name="Group 7484">
                            <g id="Group_7483" data-name="Group 7483">
                              <g id="Group_7482" data-name="Group 7482">
                                <path id="Path_17888" data-name="Path 17888" d="M574.239,258.343a1.3,1.3,0,0,1-1.258,1.317,1.248,1.248,0,0,1-1.345-1.177,1.305,1.305,0,0,1,1.257-1.317A1.249,1.249,0,0,1,574.239,258.343Z" transform="translate(-571.635 -257.164)" fill="#263238"/>
                              </g>
                            </g>
                          </g>
                        </g>
                      </g>
                      <g id="Group_7492" data-name="Group 7492">
                        <g id="Group_7491" data-name="Group 7491">
                          <g id="Group_7490" data-name="Group 7490">
                            <g id="Group_7489" data-name="Group 7489">
                              <g id="Group_7488" data-name="Group 7488">
                                <g id="Group_7487" data-name="Group 7487">
                                  <path id="Path_17889" data-name="Path 17889" d="M576.16,256.365c-.162.17-1.151-.561-2.555-.558-1.4-.017-2.434.706-2.586.534-.075-.076.09-.383.538-.71a3.587,3.587,0,0,1,2.07-.638,3.442,3.442,0,0,1,2.034.657C576.093,255.981,576.239,256.289,576.16,256.365Z" transform="translate(-571.002 -254.993)" fill="#263238"/>
                                </g>
                              </g>
                            </g>
                          </g>
                        </g>
                      </g>
                    </g>
                    <g id="Group_7505" data-name="Group 7505" transform="translate(12.065 13.284)">
                      <g id="Group_7498" data-name="Group 7498" transform="translate(0.657 1.398)">
                        <g id="Group_7497" data-name="Group 7497">
                          <g id="Group_7496" data-name="Group 7496">
                            <g id="Group_7495" data-name="Group 7495">
                              <g id="Group_7494" data-name="Group 7494">
                                <path id="Path_17890" data-name="Path 17890" d="M553.186,258.75a1.3,1.3,0,0,1-1.258,1.317,1.248,1.248,0,0,1-1.345-1.177,1.305,1.305,0,0,1,1.257-1.317A1.249,1.249,0,0,1,553.186,258.75Z" transform="translate(-550.582 -257.571)" fill="#263238"/>
                              </g>
                            </g>
                          </g>
                        </g>
                      </g>
                      <g id="Group_7504" data-name="Group 7504">
                        <g id="Group_7503" data-name="Group 7503">
                          <g id="Group_7502" data-name="Group 7502">
                            <g id="Group_7501" data-name="Group 7501">
                              <g id="Group_7500" data-name="Group 7500">
                                <g id="Group_7499" data-name="Group 7499">
                                  <path id="Path_17891" data-name="Path 17891" d="M554.72,256.772c-.162.17-1.152-.561-2.555-.558-1.4-.017-2.433.706-2.586.534-.075-.076.089-.383.539-.709a3.58,3.58,0,0,1,2.07-.639,3.44,3.44,0,0,1,2.033.657C554.652,256.388,554.8,256.7,554.72,256.772Z" transform="translate(-549.562 -255.4)" fill="#263238"/>
                                </g>
                              </g>
                            </g>
                          </g>
                        </g>
                      </g>
                    </g>
                    <g id="Group_7511" data-name="Group 7511" transform="translate(21.662 13.37)">
                      <g id="Group_7510" data-name="Group 7510">
                        <g id="Group_7509" data-name="Group 7509">
                          <g id="Group_7508" data-name="Group 7508">
                            <g id="Group_7507" data-name="Group 7507">
                              <g id="Group_7506" data-name="Group 7506">
                                <path id="Path_17892" data-name="Path 17892" d="M565.126,267.233a9.3,9.3,0,0,1,2.281-.411c.359-.037.7-.108.759-.353a1.827,1.827,0,0,0-.24-1.063l-1.06-2.73c-1.472-3.887-2.539-7.084-2.381-7.142s1.478,3.046,2.951,6.933q.531,1.438,1.016,2.747a2.08,2.08,0,0,1,.186,1.407.9.9,0,0,1-.59.524,2.447,2.447,0,0,1-.609.085A9.144,9.144,0,0,1,565.126,267.233Z" transform="translate(-564.468 -255.533)" fill="#f9ad8f"/>
                              </g>
                            </g>
                          </g>
                        </g>
                      </g>
                    </g>
                    <g id="Group_7516" data-name="Group 7516" transform="translate(9.662 38.051)">
                      <g id="Group_7515" data-name="Group 7515">
                        <g id="Group_7514" data-name="Group 7514">
                          <g id="Group_7513" data-name="Group 7513">
                            <g id="Group_7512" data-name="Group 7512">
                              <path id="Path_17893" data-name="Path 17893" d="M559.457,297.5a25.883,25.883,0,0,1-13.627-3.635s3.526,7.656,13.71,6.7Z" transform="translate(-545.83 -293.869)" fill="#f6ac86"/>
                            </g>
                          </g>
                        </g>
                      </g>
                    </g>
                  </g>
                </g>
              </g>
              <g id="Group_7524" data-name="Group 7524" transform="translate(11.447 11.145)">
                <g id="Group_7523" data-name="Group 7523">
                  <g id="Group_7522" data-name="Group 7522">
                    <g id="Group_7521" data-name="Group 7521">
                      <g id="Group_7520" data-name="Group 7520">
                        <path id="Path_17894" data-name="Path 17894" d="M555.01,253.13c-.138.382-1.541.2-3.187.4-1.652.165-2.98.648-3.2.305-.1-.164.134-.523.672-.893a5.586,5.586,0,0,1,4.865-.537C554.765,252.649,555.07,252.949,555.01,253.13Z" transform="translate(-548.601 -252.077)" fill="#7a4e46"/>
                      </g>
                    </g>
                  </g>
                </g>
              </g>
              <g id="Group_7529" data-name="Group 7529" transform="translate(25.729 8.876)">
                <g id="Group_7528" data-name="Group 7528">
                  <g id="Group_7527" data-name="Group 7527">
                    <g id="Group_7526" data-name="Group 7526">
                      <g id="Group_7525" data-name="Group 7525">
                        <path id="Path_17895" data-name="Path 17895" d="M575.566,250.007c-.247.319-1.214-.012-2.378-.028-1.163-.057-2.148.214-2.375-.119-.1-.162.056-.482.486-.784a3.442,3.442,0,0,1,3.829.118C575.539,249.523,575.674,249.851,575.566,250.007Z" transform="translate(-570.784 -248.553)" fill="#7a4e46"/>
                      </g>
                    </g>
                  </g>
                </g>
              </g>
            </g>
          </g>
        </g>
        <g id="Group_7534" data-name="Group 7534" transform="translate(45.557)">
          <g id="Group_7533" data-name="Group 7533">
            <path id="Path_17896" data-name="Path 17896" d="M526.812,242.526c1.729-.31,3.114.223,3.6,1.91.733,2.541.233,3.8.358,5.55l2.568-.771c-.639-5.866.819-10.207.18-16.074,3.578,1.158,8.5-1.052,10.024-4.762a9.976,9.976,0,0,0,10.625.747,4.092,4.092,0,0,0,4.372,2.045c1.953-.549,3.976-3.293,4.536-5.243,1.008-3.509.516-8.544-2.329-10.832s-8.552-1.739-10.768,1.162c-.875,1.145-.977,3.265-2.389,3.555-1.252.258-2.392-.672-3.538-1.237a6.933,6.933,0,0,0-9.393,4.468c-2.988-1.781-6.6-2.945-9.948-1.985s-6.006,4.663-4.869,7.951c.474,1.374,1.532,2.56,1.648,4.009.225,2.8-3.131,5.337-2.06,7.935.6,1.454,2.358,2.1,3.151,3.457.889,1.52.338,3.433.41,5.192.121,2.936,1.621,7.282,4.439,8.117" transform="translate(-519.218 -213.679)" fill="#7a4e46"/>
          </g>
        </g>
        <g id="Group_7540" data-name="Group 7540" transform="translate(50.937 28.812)">
          <g id="Group_7536" data-name="Group 7536">
            <g id="Group_7535" data-name="Group 7535">
              <path id="Path_17897" data-name="Path 17897" d="M530.045,258.431a2.406,2.406,0,0,0-1.944,1.553,5.383,5.383,0,0,0-.526,2.5,5.594,5.594,0,0,0,1.229,3.731,3.223,3.223,0,0,0,3.629.925" transform="translate(-527.575 -258.431)" fill="#ffdeb3"/>
            </g>
          </g>
          <g id="Group_7539" data-name="Group 7539" transform="translate(1.89 2.13)">
            <g id="Group_7538" data-name="Group 7538">
              <g id="Group_7537" data-name="Group 7537">
                <path id="Path_17898" data-name="Path 17898" d="M532.848,266.111c.014.032-.379.176-.977-.039a2.016,2.016,0,0,1-.881-.645,2.3,2.3,0,0,1-.471-1.253,2.4,2.4,0,0,1,.264-1.31,2.287,2.287,0,0,1,.72-.813c.524-.352.936-.328.933-.292a6.872,6.872,0,0,0-.789.48,2.257,2.257,0,0,0-.794,1.908,2.019,2.019,0,0,0,1.112,1.706A5.584,5.584,0,0,0,532.848,266.111Z" transform="translate(-530.511 -261.739)" fill="#f9ad8f"/>
              </g>
            </g>
          </g>
        </g>
        <g id="Group_7542" data-name="Group 7542" transform="translate(69.504 38.77)">
          <g id="Group_7541" data-name="Group 7541">
            <path id="Path_17899" data-name="Path 17899" d="M557.786,278.748a3.769,3.769,0,0,0,4.635-.89,24.712,24.712,0,0,1-5.377-3.961S555.215,276.94,557.786,278.748Z" transform="translate(-556.413 -273.897)" fill="#fafafa"/>
          </g>
        </g>
        <g id="Group_7545" data-name="Group 7545" transform="translate(71.763 45.87)">
          <g id="Group_7544" data-name="Group 7544">
            <g id="Group_7543" data-name="Group 7543">
              <path id="Path_17900" data-name="Path 17900" d="M563.2,285.648a3.725,3.725,0,0,0-3.275-.014c-.026-.032.1-.2.386-.377a2.5,2.5,0,0,1,2.507.012C563.1,285.446,563.227,285.617,563.2,285.648Z" transform="translate(-559.922 -284.926)" fill="#f2986a"/>
            </g>
          </g>
        </g>
      </g>
    </g>
  </g>
</svg>
