<svg xmlns="http://www.w3.org/2000/svg" xmlns:xlink="http://www.w3.org/1999/xlink" width="303.809" height="160.126" viewBox="0 0 303.809 160.126">
  <defs>
    <linearGradient id="linear-gradient" y1="0.5" x2="1" y2="0.5" gradientUnits="objectBoundingBox">
      <stop offset="0" stop-color="#f1cc52"/>
      <stop offset="1" stop-color="#ff6935"/>
    </linearGradient>
  </defs>
  <g id="Group_7567" data-name="Group 7567" transform="translate(-1344.611 -331.116)">
    <g id="Group_7566" data-name="Group 7566" transform="translate(1344.611 322.389)">
      <g id="Group_7565" data-name="Group 7565" transform="translate(0 0)">
        <g id="Group_7553" data-name="Group 7553" transform="translate(162.824 8.727)">
          <rect id="Rectangle_1723" data-name="Rectangle 1723" width="48.671" height="47.218" rx="23.609" fill="#263238"/>
          <rect id="Rectangle_1724" data-name="Rectangle 1724" width="44.454" height="43.127" rx="21.564" transform="translate(2.108 2.046)" fill="#ffde69"/>
          <g id="Group_7549" data-name="Group 7549" transform="translate(5.746 5.347)">
            <g id="Group_7547" data-name="Group 7547" transform="translate(17.581)">
              <path id="Path_17902" data-name="Path 17902" d="M2603.047,687.3a1.008,1.008,0,1,1,1.008,1.008A1.008,1.008,0,0,1,2603.047,687.3Z" transform="translate(-2603.047 -686.287)" fill="#263238"/>
              <path id="Path_17903" data-name="Path 17903" d="M2657.311,699.749a1.008,1.008,0,1,1,.392,1.371A1.009,1.009,0,0,1,2657.311,699.749Z" transform="translate(-2649.176 -697.316)" fill="#263238"/>
              <path id="Path_17904" data-name="Path 17904" d="M2702.5,739.241a1.008,1.008,0,1,1-.3,1.394A1.009,1.009,0,0,1,2702.5,739.241Z" transform="translate(-2687.395 -731.271)" fill="#263238"/>
              <path id="Path_17905" data-name="Path 17905" d="M2722.691,798.107a1.008,1.008,0,1,1-1.008,1.008A1.009,1.009,0,0,1,2722.691,798.107Z" transform="translate(-2704.134 -781.566)" fill="#263238"/>
              <path id="Path_17906" data-name="Path 17906" d="M2706.668,863.644a1.008,1.008,0,1,1-1.426,0A1.008,1.008,0,0,1,2706.668,863.644Z" transform="translate(-2689.874 -837.158)" fill="#263238"/>
              <path id="Path_17907" data-name="Path 17907" d="M2663.869,906.555a1.008,1.008,0,1,1-1.426,0A1.008,1.008,0,0,1,2663.869,906.555Z" transform="translate(-2653.405 -873.721)" fill="#263238"/>
              <path id="Path_17908" data-name="Path 17908" d="M2603.047,924.567a1.008,1.008,0,1,1,1.008,1.008A1.007,1.007,0,0,1,2603.047,924.567Z" transform="translate(-2603.047 -888.461)" fill="#263238"/>
            </g>
            <g id="Group_7548" data-name="Group 7548" transform="translate(0 1.915)">
              <path id="Path_17909" data-name="Path 17909" d="M2550.581,699.749a1.009,1.009,0,1,0-.392,1.371A1.009,1.009,0,0,0,2550.581,699.749Z" transform="translate(-2539.15 -699.23)" fill="#263238"/>
              <path id="Path_17910" data-name="Path 17910" d="M2505.392,739.241a1.008,1.008,0,1,0,.3,1.394A1.008,1.008,0,0,0,2505.392,739.241Z" transform="translate(-2500.931 -733.186)" fill="#263238"/>
              <path id="Path_17911" data-name="Path 17911" d="M2485.2,798.107a1.008,1.008,0,1,0,1.009,1.008A1.009,1.009,0,0,0,2485.2,798.107Z" transform="translate(-2484.194 -783.481)" fill="#263238"/>
              <path id="Path_17912" data-name="Path 17912" d="M2501.225,863.644a1.009,1.009,0,1,0,1.427,0A1.01,1.01,0,0,0,2501.225,863.644Z" transform="translate(-2498.455 -839.072)" fill="#263238"/>
              <path id="Path_17913" data-name="Path 17913" d="M2544.025,906.555a1.008,1.008,0,1,0,1.426,0A1.009,1.009,0,0,0,2544.025,906.555Z" transform="translate(-2534.923 -875.636)" fill="#263238"/>
            </g>
          </g>
          <g id="Group_7552" data-name="Group 7552" transform="translate(24.064 10.301)">
            <path id="Path_17914" data-name="Path 17914" d="M2608.025,799.115a1.008,1.008,0,1,1,1.009,1.008A1.008,1.008,0,0,1,2608.025,799.115Z" transform="translate(-2608.025 -786.52)" fill="#263238"/>
            <g id="Group_7550" data-name="Group 7550" transform="translate(0.871)">
              <rect id="Rectangle_1725" data-name="Rectangle 1725" width="0.275" height="12.595" fill="#e8505b"/>
            </g>
            <g id="Group_7551" data-name="Group 7551" transform="translate(0.627 7.01)">
              <rect id="Rectangle_1726" data-name="Rectangle 1726" width="8.489" height="0.826" transform="matrix(0.786, -0.618, 0.618, 0.786, 0, 5.243)" fill="#263238"/>
            </g>
          </g>
        </g>
        <path id="Rectangle_1727" data-name="Rectangle 1727" d="M.608,0H303.2a.608.608,0,0,1,.608.608V2.04a.608.608,0,0,1-.608.608H.607A.607.607,0,0,1,0,2.041V.608A.608.608,0,0,1,.608,0Z" transform="translate(0 166.204)" fill="#263238"/>
        <g id="Group_7564" data-name="Group 7564" transform="translate(8.649 32.336)">
          <path id="Path_17915" data-name="Path 17915" d="M1407.564,1302.591h-4.482l5.489,69.471h10.9Z" transform="translate(-1403.082 -1238.414)" fill="#e58033"/>
          <g id="Group_7563" data-name="Group 7563">
            <path id="Path_17916" data-name="Path 17916" d="M1969.756,1045.924l-.962.194a7.97,7.97,0,0,1-9.364-6.216l-1.017-5.03a7.972,7.972,0,0,1,6.216-9.365l.962-.194a7.971,7.971,0,0,1,9.365,6.216l1.016,5.03A7.97,7.97,0,0,1,1969.756,1045.924Z" transform="translate(-1876.133 -1002.019)" fill="#455a64"/>
            <path id="Path_17917" data-name="Path 17917" d="M1403.082,1265.321s24.479-11.49,58.017-3.846l-53.535,3.846Z" transform="translate(-1403.082 -1201.145)" fill="#e58033"/>
            <path id="Path_17918" data-name="Path 17918" d="M1445.294,1340.478l-11.91-70.134s37.506-12.6,66.6,0l17.309,69.692Z" transform="translate(-1428.902 -1206.168)" fill="url(#linear-gradient)"/>
            <g id="Group_7555" data-name="Group 7555" transform="translate(218.416 100.397)">
              <path id="Path_17919" data-name="Path 17919" d="M2970.446,1559.65c-.665,7.609-4.962,9.959-6.852,9.756s-12.94-4.42-13.179-2.873,6.411,6.606,11.068,6.843c0,0-8.794,9.7-14.639,6.9s-6.343-7.236-9.987-8.9-6.753-1.66-5.249.038,8.1,3.345,10.181,7.032c.492.869.972,1.673,1.339,2.38l-12.306-.025c-3.9-1.938-7.189-4.613-7.434-7.5-.02-.22-.037-.43-.053-.631l-.378-4.436s-6.32-7.371-3.035-13.487a9.354,9.354,0,0,1,2.5-2.905s5.889-3.566,10.691-3.275c0,0-3.721,6.24-4.768,9.949-.37,1.307-.407,2.3.166,2.6.627.324,1.44-.617,2.279-2.127,2.1-3.781,4.386-11.134,4.386-11.134s3.541-.344,7.571-.4c1.808-.024,3.715.012,5.443.163a14.637,14.637,0,0,1,4.7,1.006s-.24.2-.645.535c-.6.5-1.564,1.321-2.635,2.268-3.178,2.811-7.308,6.775-5.765,7.132,1.25.29,5.173-2.042,8.664-4.354,3.25-2.151,6.125-4.29,6.125-4.29S2971.112,1552.041,2970.446,1559.65Z" transform="translate(-2913.156 -1547.453)" fill="#10d078"/>
              <g id="Group_7554" data-name="Group 7554" transform="translate(0 12.343)">
                <path id="Path_17920" data-name="Path 17920" d="M2943.815,1630.956s-33.879-1.305-41.361,8.384a24.5,24.5,0,0,1-6.747,9.468l-.793,2.163s5.871-6.19,7.971-6.565C2902.886,1644.406,2899.6,1632.4,2943.815,1630.956Z" transform="translate(-2892.655 -1630.897)" fill="#0a9556"/>
                <path id="Path_17921" data-name="Path 17921" d="M2884.114,1747.012c-.291.319-.725.752-1.348,1.326l-.013.013c-.216.2-.426.416-.63.645a12.351,12.351,0,0,0-.9,1.134l-1.583,0a19.019,19.019,0,0,1,3.053-3.059l0,0C2882.817,1746.99,2885.736,1745.226,2884.114,1747.012Z" transform="translate(-2879.636 -1729.157)" fill="#0a9556"/>
              </g>
            </g>
            <g id="Group_7557" data-name="Group 7557" transform="translate(141.095 73.18)">
              <path id="Path_17922" data-name="Path 17922" d="M2407.061,1398.852s13.669-7.655,7.291-18.042c0,0-5.1-6.379-10.571-8.019,0,0,2.916,15.491,0,15.856s-2-17.5-2-17.5-14.4-6.925-20.047-6.379c0,0,8.93,15.127,6.015,14.763s-12.94-15.674-12.94-15.674-14.763-2.734-17.132,6.015,1.458,13.121,3.645,13.668,16.22.365,15.856,2.187-9.841,4.739-15.126,3.1c0,0,5.832,14.4,13.486,13.669s10.023-5.467,14.762-5.832,8.2.911,5.832,2.187-10.389.418-14.215,3.672-6.926,5.258.183,6.716,19.865.547,22.416-4.921Z" transform="translate(-2356.924 -1363.456)" fill="#10d078"/>
              <g id="Group_7556" data-name="Group 7556" transform="translate(7.491 9.152)">
                <path id="Path_17923" data-name="Path 17923" d="M2407.564,1425.328s38.273,12.393,42.646,26.244a29.074,29.074,0,0,0,3.645,13.3v2.734s-4.01-9.295-6.2-10.571C2447.658,1457.039,2456.224,1445.011,2407.564,1425.328Z" transform="translate(-2407.564 -1425.328)" fill="#522b73"/>
                <path id="Path_17924" data-name="Path 17924" d="M2713.514,1694.687l-2.187,0a28.533,28.533,0,0,0-1.514-9.42v0q-.2-.509-.439-.973l0-.01c-.454-.888-.761-1.543-.955-2.018h0c-1.119-2.743,1.556.626,1.556.626A25.656,25.656,0,0,1,2713.514,1694.687Z" transform="translate(-2663.678 -1643.335)" fill="#ff753c"/>
              </g>
            </g>
            <g id="Group_7559" data-name="Group 7559" transform="translate(201.133 51.361)">
              <path id="Path_17925" data-name="Path 17925" d="M2774.64,1262.613s-18.017-10.09-9.61-23.783c0,0,6.727-8.408,13.934-10.57,0,0-3.844,20.42,0,20.9s2.642-23.063,2.642-23.063,18.979-9.129,26.426-8.408c0,0-11.771,19.939-7.927,19.459s17.057-20.66,17.057-20.66,19.459-3.6,22.582,7.928-1.922,17.3-4.8,18.018-21.381.48-20.9,2.882,12.973,6.247,19.939,4.084c0,0-7.687,18.979-17.778,18.017s-13.213-7.207-19.459-7.687-10.811,1.2-7.687,2.883,13.693.551,18.739,4.84,9.129,6.932-.241,8.853-26.186.721-29.549-6.486Z" transform="translate(-2762.795 -1215.954)" fill="#10d078"/>
              <g id="Group_7558" data-name="Group 7558" transform="translate(2.329 12.064)">
                <path id="Path_17926" data-name="Path 17926" d="M2871.41,1297.513s-50.449,16.336-56.216,34.594a38.326,38.326,0,0,1-4.8,17.537v3.6s5.285-12.252,8.168-13.934C2818.558,1339.314,2807.266,1323.458,2871.41,1297.513Z" transform="translate(-2805.678 -1297.513)" fill="#0a9556"/>
                <path id="Path_17927" data-name="Path 17927" d="M2785.3,1636.186s0,0,0,.006c-.255.627-.66,1.494-1.26,2.667l0,.007c-.208.407-.4.836-.577,1.281,0,0,0,0,0,0-1.728,4.328-2.07,10.3-2,15.009l-2.9-.006a33.868,33.868,0,0,1,4.694-18.138h0C2783.33,1636.917,2786.759,1632.617,2785.3,1636.186Z" transform="translate(-2778.542 -1584.883)" fill="#0a9556"/>
              </g>
            </g>
            <path id="Path_17928" data-name="Path 17928" d="M1795.461,1312.9H1726.93a72.951,72.951,0,0,1-2.68-7.812,132.983,132.983,0,0,1-4.025-21.741c-.01-.093-.021-.19-.031-.284a253.619,253.619,0,0,1-1.2-32.495c.107-4.277.276-6.912.287-7.04v0c.145-.062.294-.121.439-.18,3.634-1.525,7.12-2.839,10.46-3.977a.18.18,0,0,0,.028-.007q4.212-1.436,8.113-2.5a118.485,118.485,0,0,1,12.76-2.784,93.345,93.345,0,0,1,12.6-1.162c.169-.007.336-.007.505-.01q1.489-.026,2.884.007c9.381.2,15.624,2.068,18.781,3.313.439.173.816.336,1.131.481l.125.052c.356.159.633.294.827.39a.432.432,0,0,1,.076.042c.094.048.183.1.27.152l4.942,51.936Z" transform="translate(-1672.188 -1179.027)" fill="#e8505b"/>
            <path id="Path_17929" data-name="Path 17929" d="M2167.727,1312.77c-6.867,3.188-47.706,5.864-51.629,4.734-2.011-.581-10.431-8-18.9-17.12l-.008-.006c-8.016-8.629-16.1-18.787-18.824-26.1a44.726,44.726,0,0,1-.788-28.358s10.421-.044,14.669,2.521,28.538,47.3,31.784,48.484,41.723,3.386,46.128,5.477C2170.158,1302.406,2174.587,1309.584,2167.727,1312.77Z" transform="translate(-1976.162 -1190.129)" fill="#e8505b"/>
            <path id="Path_17930" data-name="Path 17930" d="M1875.622,1161.269l-.01,2.529s.7,7.908-9.036,9.078-17.122-3.058-16.867-9.161c.87-4.727,1.828-7.974,1.887-11.884a27.549,27.549,0,0,0-.354-4.735l18.871-.406,5.56.9Z" transform="translate(-1783.636 -1105.574)" fill="#ea9e6a"/>
            <path id="Path_17931" data-name="Path 17931" d="M1884.543,1149.927l-.051,13.68a15.958,15.958,0,0,1-6.8,1.511c-8.673.014-17.307-13.945-17.58-15.685Z" transform="translate(-1792.507 -1107.912)" fill="#d88d59"/>
            <path id="Path_17932" data-name="Path 17932" d="M1859.383,967.988s-24.162,4.92-26.994-10.174-7.858-24.625,7.449-28.4,19.394,1.416,21.565,6.225S1865.6,966.319,1859.383,967.988Z" transform="translate(-1766.236 -919.328)" fill="#ea9e6a"/>
            <path id="Path_17933" data-name="Path 17933" d="M1827.663,873.823a50.665,50.665,0,0,1-14.7-3.952c-6.457-2.8-14.593.306-17.233,1.7a3.935,3.935,0,0,1,.642-1.591,3.546,3.546,0,0,0-1.358,2.019c-.122.09-.177.153-.145.173a4.546,4.546,0,0,0-2.209.146s.6-.087.821.3a.365.365,0,0,0,.1.107c-10.057,4.879-10.962,20.787-7.718,24.463,3.9,4.422,8.592,14.388,8.592,14.388a8.549,8.549,0,0,0,.986-6.254c-.715-3.9,2.651-3.9,6.9-5.679s.7-6.732,4.413-9.749,17.357-1.267,17.176-3.569C1828.991,884.476,1827.664,874.341,1827.663,873.823Z" transform="translate(-1727.814 -868.741)" fill="#263238"/>
            <path id="Path_17934" data-name="Path 17934" d="M1734.355,1584.942a72.961,72.961,0,0,1-2.68-7.812,133.014,133.014,0,0,1-4.025-21.741c-.01-.093-.021-.19-.031-.283.052.024.138.165.194.1,2.669-3.241,9.952-6.787,18.774,6.125,1.76,2.573,9.478,20.6,10.709,23.614Z" transform="translate(-1679.613 -1451.073)" fill="#cb333e"/>
            <path id="Path_17935" data-name="Path 17935" d="M1821.187,1724.077a7.339,7.339,0,0,1,.93-4.461s1.131-.733,2.632-1.587c2.237-1.262,5.3-2.79,6.684-2.545.249.045.584.118.982.215,3.289.789,10.955,3.15,12.113,4.534.955,1.137,2.255,2.586,3.15,3.845Z" transform="translate(-1759.282 -1590.209)" fill="#ea9e6a"/>
            <path id="Path_17936" data-name="Path 17936" d="M1483.165,1357.976h-64.571a3.917,3.917,0,0,1,.048-2.172c1.926-4.865,5.685-12.874,10.014-21.468,3.185-6.321,6.674-12.96,9.969-18.9,4.575-8.244,8.766-15.139,11.228-17.968a29.162,29.162,0,0,1,6.947-5.629,48.9,48.9,0,0,1,6.48-3.237v0c.145-.062.294-.121.439-.179a57.086,57.086,0,0,1,8.061-2.621s.048,2.04.052,5.176c.014,9.1-.335,27.443-3.24,31.918a60.008,60.008,0,0,1-4.2,5.343c-.055.062-.107.125-.163.187-1.02,1.2-2.151,2.483-3.337,3.808-6.739,7.549-15.274,16.415-16.315,17.494-.073.073-.107.11-.107.11h.125l18.106.253,5.554.076,11.515.159a4.352,4.352,0,0,1,1.888,1.6A11.654,11.654,0,0,1,1483.165,1357.976Z" transform="translate(-1416.191 -1224.108)" fill="#e8505b"/>
            <path id="Path_17937" data-name="Path 17937" d="M2291.834,1619.034c-6.867,3.188-47.706,5.864-51.629,4.734-2.011-.581-10.432-8-18.9-17.12.418.055,4.292-6.4,21.955,9.05,0,0,4.626,2.058,17.215.906S2289.228,1615.028,2291.834,1619.034Z" transform="translate(-2100.269 -1496.394)" fill="#cb333e"/>
            <g id="Group_7560" data-name="Group 7560" transform="translate(104.757 82.897)">
              <path id="Path_17938" data-name="Path 17938" d="M2157.954,1751.453h-46.687a3.722,3.722,0,0,1,3.722-3.721h42.966Z" transform="translate(-2111.267 -1700.606)" fill="#e58033"/>
              <path id="Path_17939" data-name="Path 17939" d="M2323.553,1429.151h72.182L2378.421,1480h-72.65Z" transform="translate(-2276.999 -1429.15)" fill="#e58033"/>
              <path id="Path_17940" data-name="Path 17940" d="M2402.92,1429.144l-17.313,50.848h-72.651l17.783-50.848Z" transform="translate(-2283.121 -1429.144)" fill="url(#linear-gradient)"/>
              <path id="Path_17941" data-name="Path 17941" d="M2616.992,1577.58a4.693,4.693,0,0,1-4.33,3.518,2.709,2.709,0,0,1-2.706-3.518,4.693,4.693,0,0,1,4.33-3.518A2.708,2.708,0,0,1,2616.992,1577.58Z" transform="translate(-2536.109 -1552.626)" fill="#fff"/>
              <path id="Path_17942" data-name="Path 17942" d="M2626.731,1429.144l-17.314,50.848h-33.8l40.48-50.848Z" transform="translate(-2506.933 -1429.144)" fill="#e58033"/>
            </g>
            <path id="Path_17943" data-name="Path 17943" d="M1831.528,1045.924l-.962.194a7.972,7.972,0,0,1-9.365-6.216l-1.016-5.03a7.972,7.972,0,0,1,6.216-9.365l.962-.194a7.971,7.971,0,0,1,9.365,6.216l1.016,5.03A7.971,7.971,0,0,1,1831.528,1045.924Z" transform="translate(-1758.352 -1002.019)" fill="#455a64"/>
            <g id="Group_7561" data-name="Group 7561" transform="translate(64.973 0)">
              <path id="Path_17944" data-name="Path 17944" d="M1843.03,894.532c-.644-1.164-1.59-10.525.984-17.979a11.943,11.943,0,0,1,5.777-7.043,6.187,6.187,0,0,1,2.977-.769l2.536.042c-8.35,3.535-10.286,22.448-9.636,24.466a.7.7,0,0,0-.064-.141Z" transform="translate(-1842.316 -868.741)" fill="#455a64"/>
            </g>
            <g id="Group_7562" data-name="Group 7562" transform="translate(69.009 33.51)">
              <path id="Path_17945" data-name="Path 17945" d="M1890.648,1107.246c-14.034,0-20.98-11.09-21.048-11.2l1.254-.767-.627.384.627-.384c.065.105,6.606,10.5,19.795,10.5h.265l.015,1.47Z" transform="translate(-1869.6 -1095.276)" fill="#455a64"/>
            </g>
            <path id="Path_17946" data-name="Path 17946" d="M1849.469,1072.655l-.479.1a3.972,3.972,0,0,1-4.666-3.1l-.506-2.506a3.971,3.971,0,0,1,3.1-4.666l.479-.1a3.972,3.972,0,0,1,4.666,3.1l.506,2.506A3.971,3.971,0,0,1,1849.469,1072.655Z" transform="translate(-1778.556 -1033.675)" fill="#e8505b"/>
            <path id="Path_17947" data-name="Path 17947" d="M2009,1165.385h-1.323a1.229,1.229,0,0,1-1.226-1.225h0a1.229,1.229,0,0,1,1.226-1.226H2009a1.229,1.229,0,0,1,1.225,1.226h0A1.229,1.229,0,0,1,2009,1165.385Z" transform="translate(-1917.198 -1119.416)" fill="#455a64"/>
          </g>
        </g>
      </g>
    </g>
  </g>
</svg>
