<svg id="account_balance_wallet-24px" xmlns="http://www.w3.org/2000/svg" width="24" height="24" viewBox="0 0 24 24">
  <path id="Path_779" data-name="Path 779" d="M0,0H24V24H0Z" fill="none"/>
  <circle id="Ellipse_172" data-name="Ellipse 172" cx="1.5" cy="1.5" r="1.5" transform="translate(14.5 10.5)" fill="#b4b1b1"/>
  <path id="Path_9115" data-name="Path 9115" d="M12,9h4a1,1,0,0,0,0-2H12a1,1,0,0,0,0,2Zm0,4h4a1,1,0,0,0,0-2H12a1,1,0,0,0,0,2Zm0,4h4a1,1,0,0,0,0-2H12a1,1,0,0,0,0,2ZM7,7H9V9H7Zm0,4H9v2H7Zm0,4H9v2H7ZM20,3H4A1,1,0,0,0,3,4V20a1,1,0,0,0,1,1H20a1,1,0,0,0,1-1V4A1,1,0,0,0,20,3ZM19,19H5V5H19Z" transform="translate(0.121)" fill="#b4b1b1"/>
</svg>
