<svg xmlns="http://www.w3.org/2000/svg" width="34" height="34" viewBox="0 0 34 34"><defs><style>.a{fill:#8dc351;}.b{fill:none;stroke:rgba(0,0,0,0.1);}.c{fill:#fff;}</style></defs><g transform="translate(-1.008 0)"><circle cx="17" cy="17" r="17" transform="translate(1.008 0)"/><circle class="a" cx="17" cy="17" r="17" transform="translate(1.008 0)"/><circle class="b" cx="16.433" cy="16.433" r="16.433" transform="translate(1.566 0.566)"/><g transform="translate(8.907 5.679)"><path d="M22.971,10.137a3.123,3.123,0,0,1-.728,3.741c1.98-.086,3.457.682,3.934,3.215.6,3.145-1.453,4.622-4.661,5.744l.923,3.219-1.941.558-.909-3.177c-.5.145-1.02.289-1.555.431l.915,3.19-1.938.555-.926-3.224c-.454.127-.919.252-1.389.385l-2.525.725-.28-2.429s1.443-.389,1.411-.4a.713.713,0,0,0,.545-.852l-1.459-5.089.2-.059a1.612,1.612,0,0,0-.209.045L11.341,13.08a1.043,1.043,0,0,0-1.36-.53c.017-.033-1.409.406-1.409.406l-.6-2.073,2.677-.766,0,.009c.4-.116.813-.241,1.23-.371l-.912-3.187,1.939-.556.9,3.125c.516-.159,1.035-.317,1.545-.465l-.891-3.1,1.94-.556L17.318,8.2c2.568-.5,4.774-.3,5.653,1.938Zm-.737,7.673c-.722-2.513-4.737-.952-6.053-.575l1.224,4.273c1.315-.379,5.519-1.287,4.828-3.7ZM19.6,12.041c-.657-2.286-4-.952-5.093-.637L15.62,15.28C16.716,14.965,20.231,14.234,19.6,12.041Z" transform="translate(-7.977 -5.011)"/><path class="c" d="M22.971,10.137a3.123,3.123,0,0,1-.728,3.741c1.98-.086,3.457.682,3.934,3.215.6,3.145-1.453,4.622-4.661,5.744l.923,3.219-1.941.558-.909-3.177c-.5.145-1.02.289-1.555.431l.915,3.19-1.938.555-.926-3.224c-.454.127-.919.252-1.389.385l-2.525.725-.28-2.429s1.443-.389,1.411-.4a.713.713,0,0,0,.545-.852l-1.459-5.089.2-.059a1.612,1.612,0,0,0-.209.045L11.341,13.08a1.043,1.043,0,0,0-1.36-.53c.017-.033-1.409.406-1.409.406l-.6-2.073,2.677-.766,0,.009c.4-.116.813-.241,1.23-.371l-.912-3.187,1.939-.556.9,3.125c.516-.159,1.035-.317,1.545-.465l-.891-3.1,1.94-.556L17.318,8.2c2.568-.5,4.774-.3,5.653,1.938Zm-.737,7.673c-.722-2.513-4.737-.952-6.053-.575l1.224,4.273c1.315-.379,5.519-1.287,4.828-3.7ZM19.6,12.041c-.657-2.286-4-.952-5.093-.637L15.62,15.28C16.716,14.965,20.231,14.234,19.6,12.041Z" transform="translate(-7.977 -5.011)"/></g></g></svg>