<svg xmlns="http://www.w3.org/2000/svg" width="24" height="24" viewBox="0 0 24 24"><defs><style>.a{fill:#f7931a;}.b{fill:#fff;}</style></defs><g transform="translate(-1.053)"><circle cx="12" cy="12" r="12" transform="translate(1.053)"/><circle class="a" cx="12" cy="12" r="12" transform="translate(1.053)"/><g transform="translate(6.106 2.581)"><path d="M21.569,12.651c.271-1.931-1.108-2.969-2.993-3.661l.611-2.616-1.492-.4-.6,2.547c-.392-.105-.795-.2-1.2-.3l.6-2.563-1.492-.4L14.4,7.879c-.325-.079-.644-.157-.954-.239l0-.008-2.059-.548-.4,1.7s1.108.271,1.085.287a.841.841,0,0,1,.7.927l-.7,2.98a1.269,1.269,0,0,1,.155.053l-.158-.041L11.1,17.162a.541.541,0,0,1-.685.378c.016.023-1.085-.288-1.085-.288l-.741,1.822,1.943.517c.361.1.715.2,1.063.293l-.618,2.645,1.492.4.611-2.616c.408.117.8.226,1.19.329l-.61,2.6,1.492.4L15.768,21c2.546.514,4.46.307,5.266-2.149.649-1.977-.032-3.118-1.372-3.861a2.485,2.485,0,0,0,1.906-2.338Zm-3.412,5.1c-.46,1.978-3.583.908-4.595.64l.821-3.5C15.4,15.157,18.64,15.69,18.157,17.751Zm.462-5.129c-.421,1.8-3.019.884-3.861.66L15.5,10.1C16.344,10.329,19.058,10.746,18.619,12.622Z" transform="translate(-8.586 -5.264)"/><path class="b" d="M21.569,12.651c.271-1.931-1.108-2.969-2.993-3.661l.611-2.616-1.492-.4-.6,2.547c-.392-.105-.795-.2-1.2-.3l.6-2.563-1.492-.4L14.4,7.879c-.325-.079-.644-.157-.954-.239l0-.008-2.059-.548-.4,1.7s1.108.271,1.085.287a.841.841,0,0,1,.7.927l-.7,2.98a1.269,1.269,0,0,1,.155.053l-.158-.041L11.1,17.162a.541.541,0,0,1-.685.378c.016.023-1.085-.288-1.085-.288l-.741,1.822,1.943.517c.361.1.715.2,1.063.293l-.618,2.645,1.492.4.611-2.616c.408.117.8.226,1.19.329l-.61,2.6,1.492.4L15.768,21c2.546.514,4.46.307,5.266-2.149.649-1.977-.032-3.118-1.372-3.861a2.485,2.485,0,0,0,1.906-2.338Zm-3.412,5.1c-.46,1.978-3.583.908-4.595.64l.821-3.5C15.4,15.157,18.64,15.69,18.157,17.751Zm.462-5.129c-.421,1.8-3.019.884-3.861.66L15.5,10.1C16.344,10.329,19.058,10.746,18.619,12.622Z" transform="translate(-8.586 -5.264)"/></g></g></svg>