<svg xmlns="http://www.w3.org/2000/svg" width="101.734" height="103.114" viewBox="0 0 101.734 103.114"><defs><style>.a{fill:#10d078;}</style></defs><g transform="translate(-3.424)"><path class="a" d="M299.3,458.991H257.389a2.167,2.167,0,0,0-2.164,2.164v6.319a2.167,2.167,0,0,0,2.164,2.164h46.619a2.167,2.167,0,0,0,2.164-2.164v-6.319a2.167,2.167,0,0,0-2.164-2.164Z" transform="translate(-201.074 -366.525)"/><path class="a" d="M234,376.136a2.167,2.167,0,0,0-2.164,2.164v6.319A2.167,2.167,0,0,0,234,386.784h46.619a2.167,2.167,0,0,0,2.164-2.164V378.3a2.167,2.167,0,0,0-2.164-2.164H234Z" transform="translate(-182.397 -300.362)"/><path class="a" d="M360.835,135.232q0,1.507-.112,2.987h22.31a2.167,2.167,0,0,0,2.164-2.164v-6.319a2.167,2.167,0,0,0-2.164-2.164H360.087a39.528,39.528,0,0,1,.748,7.661Z" transform="translate(-284.812 -101.871)"/><path class="a" d="M305.2,293.281H268.673a39.581,39.581,0,0,1-12.03,9.44,2.165,2.165,0,0,0,1.938,1.208H305.2a2.167,2.167,0,0,0,2.164-2.164v-6.319A2.167,2.167,0,0,0,305.2,293.281Z" transform="translate(-202.207 -234.198)"/><path class="a" d="M360.358,210.427h-18.47a39.2,39.2,0,0,1-4.221,10.648h22.691a2.167,2.167,0,0,0,2.164-2.164v-6.319a2.166,2.166,0,0,0-2.164-2.164Z" transform="translate(-266.908 -168.036)"/><path class="a" d="M69.98,33.36A33.278,33.278,0,1,0,36.7,66.721,33.357,33.357,0,0,0,69.98,33.36ZM37.206,58.933a3.022,3.022,0,0,1-3.022-3.022V51.622l-3.567.015H30.6a3.022,3.022,0,0,1-3.022-3.022V18.777A3.022,3.022,0,0,1,30.6,15.755h3.581V11.482a3.022,3.022,0,1,1,6.044,0V15.8a9.882,9.882,0,0,1,6.966,15.749A11.048,11.048,0,0,1,40.784,51.6h-.557v4.309a3.022,3.022,0,0,1-3.022,3.021Z" transform="translate(0)"/><path class="a" d="M153.339,108.208v7.7h2.478c1.319,0,2.529-.008,3.167-.008a3.844,3.844,0,1,0,0-7.688Z" transform="translate(-119.714 -86.409)"/><path class="a" d="M160.5,186.43a5.01,5.01,0,1,0,0-10.02h-7.159v10.042C155.846,186.442,159.2,186.43,160.5,186.43Z" transform="translate(-119.714 -140.871)"/></g></svg>