<svg xmlns="http://www.w3.org/2000/svg" width="34" height="34" viewBox="0 0 34 34"><defs><style>.a{fill:#f3ba2f;}</style></defs><g transform="translate(-0.006)"><path class="a" d="M10.4,14.287l6.6-6.6,6.606,6.606,3.842-3.842L17.006,0,6.561,10.445,10.4,14.287M.006,17l3.842-3.842L7.69,17,3.848,20.841Zm10.4,2.713,6.6,6.6,6.606-6.606,3.844,3.84,0,0L17.006,34,6.561,23.555l-.005-.005L10.4,19.713M26.322,17l3.842-3.842L34.006,17l-3.842,3.842Z"/><path class="a" d="M779.012,774.781h0l-4.231-4.231-3.126,3.127h0l-.359.359-.741.741-.006.006.006.006,4.227,4.227,4.231-4.231,0,0,0,0" transform="translate(-757.777 -757.783)"/></g></svg>