<svg id="cancel-24px_1_" data-name="cancel-24px (1)" xmlns="http://www.w3.org/2000/svg" width="18.08" height="18.08" viewBox="0 0 18.08 18.08">
  <path id="Path_795" data-name="Path 795" d="M0,0H18.08V18.08H0Z" fill="none" opacity="0.87"/>
  <path id="Path_796" data-name="Path 796" d="M9.533,2a7.533,7.533,0,1,0,7.533,7.533A7.526,7.526,0,0,0,9.533,2Zm3.239,10.773a.75.75,0,0,1-1.062,0L9.533,10.6,7.356,12.773A.751.751,0,1,1,6.294,11.71L8.471,9.533,6.294,7.356A.751.751,0,1,1,7.356,6.294L9.533,8.471,11.71,6.294a.751.751,0,0,1,1.062,1.062L10.6,9.533l2.177,2.177a.764.764,0,0,1,0,1.062Z" transform="translate(-0.493 -0.493)" fill="#f83a3a"/>
</svg>
