<svg xmlns="http://www.w3.org/2000/svg" width="17.842" height="17.842" viewBox="0 0 17.842 17.842">
  <g id="check_circle-24px_1_" data-name="check_circle-24px (1)" transform="translate(0 0)">
    <path id="Path_797" data-name="Path 797" d="M0,0H17.842V17.842H0Z" transform="translate(0 0)" fill="none"/>
    <path id="Path_798" data-name="Path 798" d="M9.434,2a7.434,7.434,0,1,0,7.434,7.434A7.437,7.437,0,0,0,9.434,2ZM7.42,12.624,4.751,9.955A.741.741,0,0,1,5.8,8.906l2.148,2.141,5.115-5.115A.741.741,0,0,1,14.11,6.981L8.468,12.624a.74.74,0,0,1-1.048,0Z" transform="translate(-0.513 -0.513)" fill="#10d078"/>
  </g>
</svg>
