<svg id="content_copy-24px" xmlns="http://www.w3.org/2000/svg" width="24" height="24" viewBox="0 0 24 24">
  <path id="Path_2165" data-name="Path 2165" d="M0,0H24V24H0Z" fill="none"/>
  <path id="Path_2166" data-name="Path 2166" d="M15,1H4A2.006,2.006,0,0,0,2,3V16a1,1,0,0,0,2,0V4A1,1,0,0,1,5,3H15a1,1,0,0,0,0-2Zm4,4H8A2.006,2.006,0,0,0,6,7V21a2.006,2.006,0,0,0,2,2H19a2.006,2.006,0,0,0,2-2V7A2.006,2.006,0,0,0,19,5ZM18,21H9a1,1,0,0,1-1-1V8A1,1,0,0,1,9,7h9a1,1,0,0,1,1,1V20A1,1,0,0,1,18,21Z" fill="#7e94ff"/>
</svg>
