<svg xmlns="http://www.w3.org/2000/svg" xmlns:xlink="http://www.w3.org/1999/xlink" width="33.866" height="33.839" viewBox="0 0 33.866 33.839"><defs><style>.a{fill:#627eea;}.b{fill:url(#a);}.c{fill:none;stroke:rgba(0,0,0,0.1);stroke-width:1.057px;}.d{fill:rgba(255,255,255,0);}.e{fill:rgba(255,255,255,0.6);}.f{fill:#fff;}.g{fill:rgba(255,255,255,0.2);}</style><linearGradient id="a" x1="0.5" x2="0.5" y2="1" gradientUnits="objectBoundingBox"><stop offset="0" stop-color="#fff" stop-opacity="0.502"/><stop offset="1" stop-opacity="0.502"/></linearGradient></defs><g transform="translate(-1.058)"><ellipse cx="16.933" cy="16.919" rx="16.933" ry="16.919" transform="translate(1.058)"/><ellipse class="a" cx="16.933" cy="16.919" rx="16.933" ry="16.919" transform="translate(1.058)"/><ellipse class="b" cx="16.933" cy="16.919" rx="16.933" ry="16.919" transform="translate(1.058)"/><ellipse class="c" cx="16.368" cy="16.355" rx="16.368" ry="16.355" transform="translate(1.622 0.564)"/><g transform="translate(10.089 3.384)"><path d="M17.985,23.438l8.469-4.909L17.985,30.236,9.521,18.528l8.464,4.908Zm0-20.267,8.463,13.784-8.463,4.91-8.464-4.91Z" transform="translate(-9.521 -3.171)"/><path class="d" d="M17.985,23.438l8.469-4.909L17.985,30.236,9.521,18.528l8.464,4.908Zm0-20.267,8.463,13.784-8.463,4.91-8.464-4.91Z" transform="translate(-9.521 -3.171)"/></g><g transform="translate(10.089 3.384)"><path class="e" d="M17.452,3.171v10l8.463,3.779Z" transform="translate(-8.988 -3.171)"/><path class="f" d="M17.985,3.171,9.521,16.955l8.464-3.779Z" transform="translate(-9.521 -3.171)"/><path class="e" d="M17.452,22.472v6.8l8.469-11.707Z" transform="translate(-8.988 -2.205)"/><path class="f" d="M17.985,29.27v-6.8L9.521,17.563Z" transform="translate(-9.521 -2.205)"/><path class="g" d="M17.452,21.235l8.463-4.91-8.463-3.776Z" transform="translate(-8.988 -2.541)"/><path class="e" d="M9.521,16.325l8.464,4.91V12.549Z" transform="translate(-9.521 -2.541)"/></g></g></svg>