<svg xmlns="http://www.w3.org/2000/svg" width="34" height="33.853" viewBox="0 0 34 33.853"><defs><style>.a{fill:#26a17b;}.b{fill:none;stroke:rgba(0,0,0,0.1);stroke-width:1.047px;}.c{fill:#fff;}</style></defs><g transform="translate(-35.56)"><g transform="translate(34.511)"><ellipse cx="17" cy="16.927" rx="17" ry="16.927" transform="translate(1.049)"/><ellipse class="a" cx="17" cy="16.927" rx="17" ry="16.927" transform="translate(1.049)"/><ellipse class="b" cx="16.442" cy="16.371" rx="16.442" ry="16.371" transform="translate(1.607 0.555)"/><path d="M19.894,17.744v0c-.126.009-.774.047-2.22.047-1.155,0-1.967-.033-2.253-.047v0c-4.445-.19-7.762-.942-7.762-1.842s3.318-1.65,7.762-1.844V17c.29.02,1.123.068,2.273.068,1.38,0,2.071-.056,2.2-.067V14.062c4.436.192,7.745.944,7.745,1.842s-3.31,1.649-7.745,1.84m0-3.987V11.128h6.189V7.121H9.231v4.007H15.42v2.627c-5.03.224-8.813,1.193-8.813,2.352s3.783,2.127,8.813,2.352v8.421h4.473V18.458c5.022-.224,8.8-1.192,8.8-2.35s-3.774-2.126-8.8-2.351" transform="translate(0.354 0.75)"/><path class="c" d="M19.894,17.744v0c-.126.009-.774.047-2.22.047-1.155,0-1.967-.033-2.253-.047v0c-4.445-.19-7.762-.942-7.762-1.842s3.318-1.65,7.762-1.844V17c.29.02,1.123.068,2.273.068,1.38,0,2.071-.056,2.2-.067V14.062c4.436.192,7.745.944,7.745,1.842s-3.31,1.649-7.745,1.84m0-3.987V11.128h6.189V7.121H9.231v4.007H15.42v2.627c-5.03.224-8.813,1.193-8.813,2.352s3.783,2.127,8.813,2.352v8.421h4.473V18.458c5.022-.224,8.8-1.192,8.8-2.35s-3.774-2.126-8.8-2.351" transform="translate(0.354 0.75)"/></g></g></svg>