<svg xmlns="http://www.w3.org/2000/svg" xmlns:xlink="http://www.w3.org/1999/xlink" width="591.622" height="474.93" viewBox="0 0 591.622 474.93">
  <defs>
    <clipPath id="clip-path">
      <path id="Path_1776" data-name="Path 1776" d="M295.459,513.176s119.669-70.393,140.787-73.913,69.514,6.158,69.514,6.158l67.753-19.357,21.119,5.279,79.192-2.64S742.456,88.176,526,89.057,225.947,270.32,226.827,300.237,295.459,513.176,295.459,513.176Z" transform="translate(-226.82 -89.055)" fill="none"/>
    </clipPath>
  </defs>
  <g id="Group_1542" data-name="Group 1542" transform="translate(-360 -2398.758)">
    <g id="Group_1507" data-name="Group 1507" transform="translate(360 2398.758)">
      <g id="Group_1509" data-name="Group 1509" transform="translate(313.357 68.881)">
        <path id="Path_1364" data-name="Path 1364" d="M544.81,238.194H541.7V198.073L522.222,184l17.926-17.925V141.338h3.109v26.025L527,183.619l17.811,12.863Z" transform="translate(-522.222 -141.338)" fill="#ffd5b0"/>
      </g>
      <g id="Group_1510" data-name="Group 1510" transform="translate(49.768 254.956)">
        <path id="Path_1365" data-name="Path 1365" d="M373.837,358.8H281.592L270.1,344.872,255.68,355.579H239.931v-3.108h14.723l15.962-11.856,12.442,15.075h90.78Z" transform="translate(-239.931 -340.615)" fill="#ffd5b0"/>
      </g>
      <g id="Group_1511" data-name="Group 1511" transform="translate(359.326 4.452)">
        <rect id="Rectangle_963" data-name="Rectangle 963" width="3.108" height="109.285" fill="#ffd5b0"/>
      </g>
      <g id="Group_1512" data-name="Group 1512" transform="translate(89.778 314.849)">
        <rect id="Rectangle_964" data-name="Rectangle 964" width="123.423" height="3.109" fill="#ffd5b0"/>
      </g>
      <g id="Group_1513" data-name="Group 1513" transform="translate(91.643 135.58)">
        <rect id="Rectangle_965" data-name="Rectangle 965" width="110.012" height="3.106" fill="#ffd5b0"/>
      </g>
      <g id="Group_1514" data-name="Group 1514" transform="translate(58.122 172.042)">
        <path id="Path_1366" data-name="Path 1366" d="M279.531,270.586H368.55v-3.105H281.981l-9.43-15.663H248.877v3.107H270.1Z" transform="translate(-248.877 -251.818)" fill="#ffd5b0"/>
      </g>
      <g id="Group_1515" data-name="Group 1515" transform="translate(5.971 223.187)">
        <path id="Path_1367" data-name="Path 1367" d="M339.69,317.606H241.037l-12.972-7.9h-35.04v-3.109h35.913l12.971,7.906H339.69Z" transform="translate(-193.025 -306.592)" fill="#ffd5b0"/>
      </g>
      <g id="Group_1516" data-name="Group 1516" transform="translate(415.17 212.335)">
        <path id="Path_1368" data-name="Path 1368" d="M750.841,313.152h-36.99l-9.574-13.927L692.27,309.932H631.259v-3.109h60.155l13.295-11.854,10.362,15.072h35.771Z" transform="translate(-631.259 -294.97)" fill="#ffd5b0"/>
      </g>
      <g id="Group_1517" data-name="Group 1517" transform="translate(413.579 187.476)">
        <rect id="Rectangle_966" data-name="Rectangle 966" width="110.851" height="3.106" transform="translate(0)" fill="#ffd5b0"/>
      </g>
      <g id="Group_1518" data-name="Group 1518" transform="translate(455.155 258.976)">
        <path id="Path_1369" data-name="Path 1369" d="M674.081,344.92H764.3l10.8,7.906H804.29v3.108H774.379l-10.8-7.908h-89.5Z" transform="translate(-674.081 -344.92)" fill="#ffd5b0"/>
      </g>
      <g id="Group_1519" data-name="Group 1519" transform="translate(452.425 157.697)">
        <path id="Path_1370" data-name="Path 1370" d="M671.157,239.563v-3.107h86.06l7.765,12.156h33.443v3.108H763.707l-7.766-12.157Z" transform="translate(-671.157 -236.456)" fill="#ffd5b0"/>
      </g>
      <g id="Group_1520" data-name="Group 1520" transform="translate(399.238 111.95)">
        <path id="Path_1371" data-name="Path 1371" d="M614.2,209.8v-3.108h81.16l7.765-19.23h38.341v3.109H704.744L696.98,209.8Z" transform="translate(-614.196 -187.462)" fill="#ffd5b0"/>
      </g>
      <g id="Group_1521" data-name="Group 1521" transform="translate(254.753 54.258)">
        <path id="Path_1372" data-name="Path 1372" d="M477.641,125.677v44.414l-13.927,11.493L474.422,196v15.753h-3.107V197.03L459.46,181.068l15.074-12.443V125.677Z" transform="translate(-459.46 -125.677)" fill="#ffd5b0"/>
      </g>
      <g id="Group_1522" data-name="Group 1522" transform="translate(229.892 66.65)">
        <rect id="Rectangle_967" data-name="Rectangle 967" width="3.108" height="75.591" fill="#ffd5b0"/>
      </g>
      <g id="Group_1523" data-name="Group 1523" transform="translate(383.469 61.707)">
        <path id="Path_1373" data-name="Path 1373" d="M616.08,166.517V133.655h-3.108v30.909l-15.664,7.522v18.89h3.107V174.041Z" transform="translate(-597.309 -133.655)" fill="#ffd5b0"/>
      </g>
      <g id="Group_1524" data-name="Group 1524" transform="translate(289.319 20.654)">
        <path id="Path_1374" data-name="Path 1374" d="M496.478,188.521V137.7l7.906-12.973V89.688h3.108V125.6l-7.906,12.972v49.95Z" transform="translate(-496.478 -89.688)" fill="#ffd5b0"/>
      </g>
      <g id="Group_1525" data-name="Group 1525" transform="translate(206.668 19.508)">
        <path id="Path_1375" data-name="Path 1375" d="M411.07,183.764h-3.107V137.935l12.157-9.323V88.461h3.108v41.683l-12.157,9.324Z" transform="translate(-407.962 -88.461)" fill="#ffd5b0"/>
      </g>
      <g id="Group_1526" data-name="Group 1526" transform="translate(168.877 44.023)">
        <path id="Path_1376" data-name="Path 1376" d="M389.826,210.015H386.72V170.073l-19.229-9.323V114.716H370.6V158.8l19.228,9.326Z" transform="translate(-367.491 -114.716)" fill="#ffd5b0"/>
      </g>
      <path id="Path_1377" data-name="Path 1377" d="M536.429,142.562a6.215,6.215,0,1,0,6.214-6.215A6.214,6.214,0,0,0,536.429,142.562Z" transform="translate(-209.806 -72.126)" fill="#ffd5b0"/>
      <path id="Path_1378" data-name="Path 1378" d="M499.818,90.422a6.216,6.216,0,1,0,6.217-6.214A6.216,6.216,0,0,0,499.818,90.422Z" transform="translate(-207.381 -68.671)" fill="#ffd5b0"/>
      <path id="Path_1379" data-name="Path 1379" d="M742.421,188.655a6.215,6.215,0,1,0,6.215-6.215A6.217,6.217,0,0,0,742.421,188.655Z" transform="translate(-223.454 -75.18)" fill="#ffd5b0"/>
      <path id="Path_1380" data-name="Path 1380" d="M609.009,134.919a6.215,6.215,0,1,0,6.215-6.216A6.214,6.214,0,0,0,609.009,134.919Z" transform="translate(-214.615 -71.619)" fill="#ffd5b0"/>
      <path id="Path_1381" data-name="Path 1381" d="M566.1,73.784a6.215,6.215,0,1,0,6.215-6.215A6.215,6.215,0,0,0,566.1,73.784Z" transform="translate(-211.772 -67.569)" fill="#ffd5b0"/>
      <path id="Path_1382" data-name="Path 1382" d="M799.417,250.152a6.215,6.215,0,1,0,6.214-6.216A6.217,6.217,0,0,0,799.417,250.152Z" transform="translate(-227.23 -79.254)" fill="#ffd5b0"/>
      <path id="Path_1383" data-name="Path 1383" d="M740.685,269.648a6.215,6.215,0,1,0,6.216-6.213A6.215,6.215,0,0,0,740.685,269.648Z" transform="translate(-223.339 -80.546)" fill="#ffd5b0"/>
      <path id="Path_1384" data-name="Path 1384" d="M751.5,312.081a6.215,6.215,0,1,0,6.214-6.212A6.216,6.216,0,0,0,751.5,312.081Z" transform="translate(-224.055 -83.357)" fill="#ffd5b0"/>
      <path id="Path_1385" data-name="Path 1385" d="M806.918,353.643a6.215,6.215,0,1,0,6.214-6.211A6.216,6.216,0,0,0,806.918,353.643Z" transform="translate(-227.727 -86.111)" fill="#ffd5b0"/>
      <path id="Path_1386" data-name="Path 1386" d="M277.874,407.084a6.215,6.215,0,1,0,6.216-6.215A6.219,6.219,0,0,0,277.874,407.084Z" transform="translate(-192.676 -89.651)" fill="#ffd5b0"/>
      <path id="Path_1387" data-name="Path 1387" d="M234.922,354.926a6.215,6.215,0,1,0,6.215-6.215A6.214,6.214,0,0,0,234.922,354.926Z" transform="translate(-189.83 -86.196)" fill="#ffd5b0"/>
      <path id="Path_1388" data-name="Path 1388" d="M186.631,308.641a6.215,6.215,0,1,0,6.215-6.213A6.214,6.214,0,0,0,186.631,308.641Z" transform="translate(-186.631 -83.129)" fill="#ffd5b0"/>
      <path id="Path_1389" data-name="Path 1389" d="M243.429,253.034a6.215,6.215,0,1,0,6.215-6.214A6.216,6.216,0,0,0,243.429,253.034Z" transform="translate(-190.394 -79.445)" fill="#ffd5b0"/>
      <path id="Path_1390" data-name="Path 1390" d="M279.734,215.094a6.215,6.215,0,1,0,6.216-6.216A6.215,6.215,0,0,0,279.734,215.094Z" transform="translate(-192.799 -76.931)" fill="#ffd5b0"/>
      <path id="Path_1391" data-name="Path 1391" d="M361.963,116.764a6.215,6.215,0,1,0,6.214-6.216A6.215,6.215,0,0,0,361.963,116.764Z" transform="translate(-198.247 -70.417)" fill="#ffd5b0"/>
      <path id="Path_1392" data-name="Path 1392" d="M415.213,88.475a6.215,6.215,0,1,0,6.215-6.216A6.215,6.215,0,0,0,415.213,88.475Z" transform="translate(-201.775 -68.542)" fill="#ffd5b0"/>
      <path id="Path_1393" data-name="Path 1393" d="M427.694,140.061a6.215,6.215,0,1,0,6.214-6.216A6.214,6.214,0,0,0,427.694,140.061Z" transform="translate(-202.602 -71.96)" fill="#ffd5b0"/>
      <path id="Path_1394" data-name="Path 1394" d="M471.79,126.749a6.215,6.215,0,1,0,6.216-6.216A6.216,6.216,0,0,0,471.79,126.749Z" transform="translate(-205.524 -71.078)" fill="#ffd5b0"/>
    </g>
    <g id="Group_1508" data-name="Group 1508" transform="translate(414.49 2718.815)">
      <path id="Path_1703" data-name="Path 1703" d="M632.2,452.148h-7.856l2.334,31.935h7.857Z" transform="translate(-270.121 -413.105)" fill="#ffad4a"/>
      <path id="Path_1704" data-name="Path 1704" d="M719.252,543.248h-10.93l2.234,30.555h10.933Z" transform="translate(-275.684 -419.141)" fill="#ffad4a"/>
      <path id="Path_1705" data-name="Path 1705" d="M709.889,530.271H698.957l3.12,42.672h10.934Z" transform="translate(-275.064 -418.281)" fill="#ffad4a"/>
      <path id="Path_1706" data-name="Path 1706" d="M729.972,564.765H719.04l.766,10.464h10.93Z" transform="translate(-276.394 -420.566)" fill="#ffad4a"/>
      <path id="Path_1707" data-name="Path 1707" d="M584.279,442.948,459.594,414.424l-25.935,9.129L402.8,459,369.43,499.751l-11.013,65.516h338.2l-35.565-75.7Z" transform="translate(-252.502 -410.606)" fill="#ffcd50"/>
      <path id="Path_1708" data-name="Path 1708" d="M423.771,533.614l27.012-67.72,52.13-24.776,13.958-12.559L445.2,410.335l-58.162,12.947-46.318,35.445L290.555,499.48,272.238,565H395.46Z" transform="translate(-246.792 -410.335)" fill="#ffad4a"/>
      <path id="Path_1709" data-name="Path 1709" d="M705,566.827h-9.224l.626,8.538h9.222Z" transform="translate(-274.853 -420.703)" fill="#ffad4a"/>
      <path id="Path_1710" data-name="Path 1710" d="M468.732,532.63H459.51l1.691,23.127h9.223Z" transform="translate(-259.2 -418.437)" fill="#ffcd50"/>
      <path id="Path_1711" data-name="Path 1711" d="M474.929,517.3h-9.222l1.689,23.126h9.223Z" transform="translate(-259.61 -417.422)" fill="#ffcd50"/>
      <path id="Path_1712" data-name="Path 1712" d="M488.047,466.595h-9.221l1.69,23.123h9.223Z" transform="translate(-260.479 -414.062)" fill="#ffcd50"/>
      <path id="Path_1713" data-name="Path 1713" d="M530.626,441.827H521.4l1.69,23.127h9.223Z" transform="translate(-263.3 -412.421)" fill="#ffcd50"/>
      <path id="Path_1714" data-name="Path 1714" d="M619.835,461.09h-9.223l1.69,23.126h9.223Z" transform="translate(-269.211 -413.698)" fill="#ffcd50"/>
      <path id="Path_1715" data-name="Path 1715" d="M699.206,512.584h-9.223l1.689,23.126H700.9Z" transform="translate(-274.469 -417.109)" fill="#ffcd50"/>
      <path id="Path_1716" data-name="Path 1716" d="M704.315,535.777h-9.222l1.69,23.124h9.224Z" transform="translate(-274.808 -418.646)" fill="#ffcd50"/>
      <path id="Path_1717" data-name="Path 1717" d="M481.509,487.228h-9.224l1.691,23.127H483.2Z" transform="translate(-260.046 -415.429)" fill="#ffcd50"/>
      <path id="Path_1718" data-name="Path 1718" d="M479.789,508.752h-9.224l1.692,23.126h9.225Z" transform="translate(-259.932 -416.855)" fill="#ffcd50"/>
      <path id="Path_1719" data-name="Path 1719" d="M278.114,552.383H264.627l1.61,22.025h13.487Z" transform="translate(-246.288 -419.746)" fill="#ffad4a"/>
      <path id="Path_1720" data-name="Path 1720" d="M258.471,564.181H244.987l.805,11.009h13.484Z" transform="translate(-244.987 -420.528)" fill="#ffad4a"/>
      <path id="Path_1721" data-name="Path 1721" d="M269.658,570.855H256.175l.349,4.776h13.484Z" transform="translate(-245.728 -420.97)" fill="#ffad4a"/>
      <path id="Path_1722" data-name="Path 1722" d="M303.45,489.884H289.3l2.441,33.4h14.153Z" transform="translate(-247.923 -415.605)" fill="#ffad4a"/>
      <path id="Path_1723" data-name="Path 1723" d="M365.028,441.924H353.544l2.335,31.937h11.485Z" transform="translate(-252.179 -412.428)" fill="#ffad4a"/>
      <path id="Path_1724" data-name="Path 1724" d="M393.086,415.983H381.6l2.335,31.932h11.487Z" transform="translate(-254.038 -410.709)" fill="#ffad4a"/>
      <path id="Path_1725" data-name="Path 1725" d="M287.237,521.722H273.085l2.442,33.4h14.15Z" transform="translate(-246.848 -417.715)" fill="#ffad4a"/>
      <path id="Path_1726" data-name="Path 1726" d="M722.46,570.452h-9.224l.377,5.153h9.224Z" transform="translate(-276.01 -420.943)" fill="#ffad4a"/>
      <path id="Path_1727" data-name="Path 1727" d="M629.18,529.662a.168.168,0,0,0,0-.053,1.1,1.1,0,0,0,.013-.338v0h0a3.481,3.481,0,0,0-2.159-2.247l-.037-.015h0c-.065-.032-.131-.052-.2-.078-.143-.062-.283-.124-.429-.171-.056-.017-.11-.03-.166-.046-.156-.046-.311-.1-.462-.126-.056-.013-.107-.017-.163-.027-.151-.024-.3-.056-.447-.071-.063-.006-.126,0-.2-.006-.125,0-.258-.015-.378-.012-.084,0-.158.018-.235.026-.1.01-.2.015-.29.033s-.186.054-.278.08c-.058.021-.124.033-.18.054a1.659,1.659,0,0,0-.3.167c-.023.016-.055.023-.076.04a1.155,1.155,0,0,0-.275.29.909.909,0,0,0-.129.293.3.3,0,0,0-.022.06c-.012.013-.027.025-.036.036-.581.866.309,2.206,1.994,3s3.522.724,4.106-.142a.955.955,0,0,0,.149-.353c.012-.014.026-.024.036-.036A.99.99,0,0,0,629.18,529.662Z" transform="translate(-270.003 -418.029)" fill="#ffe576"/>
      <path id="Path_1728" data-name="Path 1728" d="M539.821,557.355c.022,0,.044,0,.067,0a2,2,0,0,0,.417.011h.008a3.418,3.418,0,0,0,2.527-1.743c.008-.013.009-.023.017-.033h0c.03-.052.048-.1.073-.158a3.553,3.553,0,0,0,.158-.342c.018-.047.024-.091.038-.137a2.52,2.52,0,0,0,.1-.375c.01-.044.008-.085.016-.129a3.406,3.406,0,0,0,.032-.36c0-.054-.014-.1-.018-.158a1.938,1.938,0,0,0-.03-.3,1.426,1.426,0,0,0-.063-.193,1.912,1.912,0,0,0-.073-.232,1.51,1.51,0,0,0-.137-.225.868.868,0,0,0-.086-.141,1.881,1.881,0,0,0-.241-.237c-.023-.019-.04-.043-.064-.062a1.59,1.59,0,0,0-.388-.219,1.742,1.742,0,0,0-.387-.1c-.024,0-.047-.014-.072-.017s-.033-.021-.05-.027a3.038,3.038,0,0,0-3.481,1.615c-.775,1.355-.474,2.833.671,3.3a1.929,1.929,0,0,0,.458.118c.017.007.031.021.049.029A1.872,1.872,0,0,0,539.821,557.355Z" transform="translate(-264.383 -419.723)" fill="#ffe576"/>
      <path id="Path_1729" data-name="Path 1729" d="M591.7,555.277c-.025.006-.051.006-.075.009a2.437,2.437,0,0,1-.467.055h-.008a5.109,5.109,0,0,1-3.4-1.445.206.206,0,0,0-.024-.03v0c-.049-.047-.086-.1-.134-.151a3.572,3.572,0,0,1-.287-.316c-.035-.045-.058-.089-.09-.133a3.338,3.338,0,0,1-.231-.353c-.024-.044-.036-.084-.058-.128a2.5,2.5,0,0,1-.15-.351c-.017-.052-.019-.1-.032-.153a2.766,2.766,0,0,1-.065-.306c-.006-.066.007-.129.007-.193s0-.16.011-.235a1.247,1.247,0,0,1,.081-.235,1.093,1.093,0,0,1,.051-.154,1.621,1.621,0,0,1,.2-.257c.023-.021.032-.047.051-.066a1.576,1.576,0,0,1,.369-.259,1.73,1.73,0,0,1,.4-.142c.029-.007.05-.019.078-.025s.03-.024.047-.034c1.139-.58,3.125-.037,4.43,1.214s1.445,2.738.306,3.32a2.013,2.013,0,0,1-.48.168.341.341,0,0,0-.044.033A1.884,1.884,0,0,1,591.7,555.277Z" transform="translate(-267.625 -419.598)" fill="#ffe576"/>
      <path id="Path_1730" data-name="Path 1730" d="M636.515,564.348a.287.287,0,0,1-.063.034,1.959,1.959,0,0,1-.374.216l-.007.006h0a5.323,5.323,0,0,1-3.759-.117c-.015,0-.024-.01-.038-.014h0c-.071-.027-.129-.058-.2-.091a4.193,4.193,0,0,1-.426-.193c-.055-.028-.1-.061-.151-.085-.139-.084-.276-.161-.4-.246-.046-.032-.079-.066-.121-.1-.113-.085-.226-.176-.325-.267-.043-.042-.074-.089-.113-.132a2.2,2.2,0,0,1-.222-.255,1.8,1.8,0,0,1-.1-.184c-.038-.075-.09-.147-.121-.221a1.19,1.19,0,0,1-.056-.248A1.549,1.549,0,0,1,630,562.3a1.12,1.12,0,0,1,.028-.313c0-.022,0-.05,0-.076a1.264,1.264,0,0,1,.177-.375,1.557,1.557,0,0,1,.273-.27.285.285,0,0,1,.051-.049.4.4,0,0,1,.023-.049c.67-.949,2.7-1.155,4.523-.469s2.771,2.01,2.1,2.954a1.667,1.667,0,0,1-.323.327c-.01.013-.013.032-.024.047A1.555,1.555,0,0,1,636.515,564.348Z" transform="translate(-270.495 -420.27)" fill="#ffe576"/>
      <path id="Path_1731" data-name="Path 1731" d="M626.566,487.208c0-.017,0-.036,0-.052a1.131,1.131,0,0,0,.011-.338v0h0a3.483,3.483,0,0,0-2.156-2.246l-.042-.012h0a1.963,1.963,0,0,0-.2-.078c-.144-.063-.285-.124-.427-.173-.056-.018-.115-.031-.17-.043a4.8,4.8,0,0,0-.463-.129c-.053-.011-.108-.016-.161-.024-.152-.028-.3-.056-.447-.072-.066,0-.129,0-.193,0-.131-.006-.259-.015-.378-.013a2.38,2.38,0,0,0-.24.028,2.789,2.789,0,0,0-.288.032,2.327,2.327,0,0,0-.281.081,1.319,1.319,0,0,0-.177.052,1.556,1.556,0,0,0-.3.164c-.024.019-.054.027-.077.044a1.227,1.227,0,0,0-.275.287.911.911,0,0,0-.128.3.373.373,0,0,0-.024.063c-.009.009-.023.021-.035.034-.583.867.312,2.206,1.995,2.993s3.521.727,4.106-.139a.972.972,0,0,0,.148-.353.38.38,0,0,0,.036-.039A1.007,1.007,0,0,0,626.566,487.208Z" transform="translate(-269.829 -415.217)" fill="#ffe576"/>
      <path id="Path_1732" data-name="Path 1732" d="M681.083,499c.006-.017,0-.037.006-.052a1.17,1.17,0,0,0,.01-.335v-.006h0a3.487,3.487,0,0,0-2.16-2.246l-.039-.014h.006c-.067-.029-.134-.049-.2-.078-.142-.062-.283-.12-.424-.17-.061-.02-.112-.028-.171-.047-.156-.045-.31-.092-.461-.128-.056-.007-.111-.013-.164-.024-.151-.028-.3-.052-.445-.066-.066-.01-.129,0-.2-.01-.127-.006-.258-.012-.381-.009a2.064,2.064,0,0,0-.233.025c-.1.01-.2.014-.291.031a2.528,2.528,0,0,0-.278.082,1.619,1.619,0,0,0-.177.052,1.694,1.694,0,0,0-.3.167.414.414,0,0,0-.076.044,1.227,1.227,0,0,0-.275.283,1.064,1.064,0,0,0-.13.3c0,.019-.017.039-.021.058s-.027.023-.036.036c-.582.866.311,2.206,2,2.993s3.519.726,4.1-.134a1.057,1.057,0,0,0,.15-.356c.01-.012.026-.026.036-.039A.988.988,0,0,0,681.083,499Z" transform="translate(-273.441 -415.998)" fill="#ffe576"/>
      <path id="Path_1733" data-name="Path 1733" d="M693.015,553.16a.338.338,0,0,1,0-.054,1.094,1.094,0,0,0,.013-.332c0-.006,0-.006,0-.006h0a3.464,3.464,0,0,0-2.159-2.243c-.012,0-.024-.015-.037-.019h0c-.067-.03-.13-.049-.2-.079-.143-.059-.283-.119-.427-.165-.057-.02-.114-.031-.173-.051-.151-.044-.306-.091-.457-.123-.054-.01-.11-.019-.166-.026a4.347,4.347,0,0,0-.447-.07c-.064-.008-.128,0-.19-.008-.131,0-.26-.014-.385-.009-.082,0-.156.015-.234.023-.1.013-.2.016-.287.034a2.067,2.067,0,0,0-.281.082,1.55,1.55,0,0,0-.176.052,1.852,1.852,0,0,0-.3.163c-.023.019-.057.029-.078.047a1.226,1.226,0,0,0-.274.287,1.049,1.049,0,0,0-.129.3c-.008.021-.018.039-.023.058s-.025.022-.035.036c-.582.863.314,2.206,1.993,2.993s3.523.727,4.1-.14a.972.972,0,0,0,.153-.35c.009-.016.023-.023.035-.039A1.056,1.056,0,0,0,693.015,553.16Z" transform="translate(-274.232 -419.586)" fill="#ffad4a"/>
      <path id="Path_1734" data-name="Path 1734" d="M661.464,499.705c0-.019,0-.039,0-.055a1.135,1.135,0,0,0,.01-.338v0h0a3.468,3.468,0,0,0-2.155-2.245.182.182,0,0,1-.038-.016h0c-.067-.028-.133-.049-.2-.078-.141-.057-.284-.12-.428-.167-.054-.021-.11-.031-.167-.047-.155-.048-.311-.1-.463-.128-.055-.011-.109-.013-.162-.027-.151-.024-.3-.052-.447-.066-.064-.008-.127,0-.194-.008-.126-.006-.256-.018-.38-.012-.084,0-.157.018-.237.026-.1.01-.2.016-.289.034a2.012,2.012,0,0,0-.28.082c-.058.018-.123.029-.175.049a1.553,1.553,0,0,0-.3.169c-.025.014-.053.024-.079.042a1.331,1.331,0,0,0-.274.283,1.26,1.26,0,0,0-.129.3c0,.021-.02.039-.02.061s-.027.02-.036.035c-.584.864.31,2.206,2,2.994s3.518.726,4.1-.137a1.04,1.04,0,0,0,.15-.356c.011-.013.028-.023.034-.038A1.068,1.068,0,0,0,661.464,499.705Z" transform="translate(-272.142 -416.044)" fill="#ffad4a"/>
      <path id="Path_1735" data-name="Path 1735" d="M578.622,467.47c0-.018,0-.036,0-.054a1.146,1.146,0,0,0,.012-.335v-.006l0,0a3.471,3.471,0,0,0-2.155-2.247l-.037-.013h0c-.066-.032-.132-.053-.2-.079-.145-.059-.283-.121-.428-.168a1.742,1.742,0,0,0-.168-.049,4.272,4.272,0,0,0-.46-.124c-.058-.014-.111-.018-.166-.028-.15-.028-.3-.055-.446-.073-.067,0-.128,0-.189,0a3.363,3.363,0,0,0-.385-.014c-.082,0-.157.016-.237.027s-.2.012-.289.031a2.087,2.087,0,0,0-.278.083c-.057.02-.124.03-.177.05a1.788,1.788,0,0,0-.3.167c-.021.019-.052.026-.077.045a1.271,1.271,0,0,0-.275.284,1.036,1.036,0,0,0-.128.3.332.332,0,0,0-.021.058.2.2,0,0,0-.036.038c-.583.864.31,2.2,1.993,2.993s3.522.727,4.1-.139a1.029,1.029,0,0,0,.154-.357c.008-.011.023-.02.035-.035A1,1,0,0,0,578.622,467.47Z" transform="translate(-266.653 -413.909)" fill="#ffad4a"/>
      <path id="Path_1736" data-name="Path 1736" d="M673.8,523.506c.007-.014.009-.033.019-.051a1.1,1.1,0,0,0,.1-.319v-.008h0a3.032,3.032,0,0,0-1.531-2.538.336.336,0,0,1-.034-.02h0c-.054-.042-.115-.072-.171-.111-.128-.082-.25-.167-.377-.233-.05-.033-.107-.052-.156-.079-.142-.072-.282-.144-.424-.2-.049-.022-.1-.036-.156-.055-.139-.051-.278-.1-.419-.143a1.755,1.755,0,0,0-.191-.042c-.124-.028-.25-.06-.372-.077-.085-.01-.162-.01-.243-.016-.1-.008-.2-.02-.294-.018a2.449,2.449,0,0,0-.3.028,1.737,1.737,0,0,0-.189.023,1.616,1.616,0,0,0-.335.106.78.78,0,0,0-.09.028,1.324,1.324,0,0,0-.348.229,1.175,1.175,0,0,0-.208.263.489.489,0,0,0-.037.055c-.012.007-.029.015-.044.024-.808.735-.285,2.181,1.169,3.234s3.288,1.311,4.1.58a1.186,1.186,0,0,0,.246-.315.474.474,0,0,0,.043-.031A1.039,1.039,0,0,0,673.8,523.506Z" transform="translate(-272.988 -417.574)" fill="#ffe576"/>
      <path id="Path_1737" data-name="Path 1737" d="M571.383,510.82c.016-.007.03-.021.048-.031a1.677,1.677,0,0,0,.318-.2l0,0h0a2.5,2.5,0,0,0,.516-2.7.259.259,0,0,1-.013-.031h0c-.019-.057-.046-.112-.067-.168-.048-.121-.1-.247-.151-.361-.025-.044-.055-.085-.078-.131-.068-.121-.137-.24-.215-.351-.032-.043-.063-.079-.092-.117-.087-.107-.167-.214-.26-.309-.039-.043-.089-.079-.132-.12-.086-.08-.17-.163-.26-.232-.065-.048-.131-.083-.2-.127s-.154-.106-.236-.151-.185-.078-.276-.114a1.311,1.311,0,0,0-.176-.07,2.062,2.062,0,0,0-.362-.076c-.034,0-.065-.011-.1-.018a1.926,1.926,0,0,0-.459.018,1.556,1.556,0,0,0-.366.113.348.348,0,0,0-.071.022.377.377,0,0,0-.056,0c-1.215.2-1.8,1.577-1.323,3.075a3.107,3.107,0,0,0,3.072,2.356,1.57,1.57,0,0,0,.433-.133c.019-.007.043,0,.06-.007A1.406,1.406,0,0,0,571.383,510.82Z" transform="translate(-266.335 -416.64)" fill="#ffe576"/>
      <path id="Path_1738" data-name="Path 1738" d="M555.343,444.26a.138.138,0,0,0,0-.05,1.248,1.248,0,0,0-.05-.336v0h0a3.8,3.8,0,0,0-2.534-1.978.1.1,0,0,0-.042-.013l0,0c-.068-.022-.137-.034-.206-.055-.152-.04-.3-.085-.45-.113-.06-.016-.12-.021-.177-.03-.16-.027-.322-.055-.472-.071-.057,0-.117,0-.167,0-.153-.01-.3-.022-.451-.018-.064,0-.126.013-.193.02a3.174,3.174,0,0,0-.373.032c-.082.013-.154.036-.225.053-.1.023-.2.036-.276.065-.1.036-.176.08-.265.119a1.517,1.517,0,0,0-.158.073,1.364,1.364,0,0,0-.262.2c-.019.019-.049.034-.067.051a1.2,1.2,0,0,0-.217.32,1.008,1.008,0,0,0-.071.315c0,.02-.011.038-.012.058s-.02.027-.024.042c-.413.93.712,2.161,2.509,2.747s3.586.3,4-.632a.98.98,0,0,0,.084-.371.16.16,0,0,1,.024-.042A.958.958,0,0,0,555.343,444.26Z" transform="translate(-265.1 -412.405)" fill="#ffcd50"/>
      <path id="Path_1739" data-name="Path 1739" d="M393.681,528.821c.029,0,.063.007.093.013a4.073,4.073,0,0,0,.6.086l.01,0v0a7.536,7.536,0,0,0,4.434-1.184c.014-.008.022-.019.036-.027v0c.066-.046.117-.092.177-.139.134-.1.274-.2.388-.3.046-.042.076-.084.119-.124a3.665,3.665,0,0,0,.318-.338c.031-.039.049-.083.076-.121a2.364,2.364,0,0,0,.215-.338,1.41,1.41,0,0,0,.05-.154,1.552,1.552,0,0,0,.1-.3.927.927,0,0,0,0-.19,1.378,1.378,0,0,0,0-.24,1.826,1.826,0,0,0-.09-.24,1.273,1.273,0,0,0-.061-.151,1.333,1.333,0,0,0-.236-.274c-.023-.023-.038-.049-.064-.072a1.849,1.849,0,0,0-.453-.285,2.949,2.949,0,0,0-.508-.171c-.031-.011-.064-.022-.1-.032a.3.3,0,0,1-.055-.039c-1.431-.662-4-.268-5.741.882s-2,2.624-.572,3.289a2.932,2.932,0,0,0,.6.2.318.318,0,0,0,.058.035A3.448,3.448,0,0,0,393.681,528.821Z" transform="translate(-254.693 -417.858)" fill="#ffcd50"/>
      <path id="Path_1740" data-name="Path 1740" d="M387.449,489.2c.028,0,.064.01.1.014a4.476,4.476,0,0,0,.593.089l.011,0v0a7.571,7.571,0,0,0,4.434-1.186l.037-.026v0c.066-.046.114-.092.177-.135.134-.1.273-.2.387-.3.046-.045.076-.085.12-.126a4.506,4.506,0,0,0,.316-.335c.034-.044.049-.083.081-.125a2.842,2.842,0,0,0,.209-.336.809.809,0,0,0,.05-.152,1.556,1.556,0,0,0,.1-.3.975.975,0,0,0,0-.2,1.408,1.408,0,0,0,0-.235,1.15,1.15,0,0,0-.091-.243,1.171,1.171,0,0,0-.058-.152,1.3,1.3,0,0,0-.237-.273c-.021-.024-.036-.05-.062-.076a2.051,2.051,0,0,0-.453-.28,3.126,3.126,0,0,0-.509-.173c-.031-.01-.064-.023-.1-.031l-.059-.036c-1.429-.665-4-.274-5.738.879s-2,2.624-.571,3.29a3.3,3.3,0,0,0,.6.2c.023.013.038.022.06.036A3.117,3.117,0,0,0,387.449,489.2Z" transform="translate(-254.281 -415.233)" fill="#ffcd50"/>
      <path id="Path_1741" data-name="Path 1741" d="M324.882,521.047a.575.575,0,0,1,.091.012,4.873,4.873,0,0,0,.6.091h.007a7.588,7.588,0,0,0,4.436-1.189c.013-.007.024-.018.037-.026v0c.065-.047.116-.093.18-.136.131-.1.27-.2.382-.305.049-.038.077-.079.121-.12a2.985,2.985,0,0,0,.314-.338,1.176,1.176,0,0,0,.08-.121,2.941,2.941,0,0,0,.217-.34c.022-.051.031-.1.049-.151a1.57,1.57,0,0,0,.1-.3.715.715,0,0,0,0-.19,1.02,1.02,0,0,0,0-.238,1.249,1.249,0,0,0-.092-.243,1.094,1.094,0,0,0-.055-.151,1.412,1.412,0,0,0-.239-.272c-.022-.025-.037-.053-.061-.075a2.011,2.011,0,0,0-.457-.283,2.935,2.935,0,0,0-.507-.173.818.818,0,0,0-.094-.032c-.022-.01-.036-.024-.06-.036-1.425-.665-4-.27-5.738.881s-2,2.623-.574,3.285a2.924,2.924,0,0,0,.6.207c.025.009.036.024.058.033A2.969,2.969,0,0,0,324.882,521.047Z" transform="translate(-250.135 -417.343)" fill="#ffcd50"/>
      <path id="Path_1742" data-name="Path 1742" d="M377.066,550.806a.85.85,0,0,1,.1,0,4.5,4.5,0,0,0,.605-.022h.01a5.016,5.016,0,0,0,3.49-1.9.124.124,0,0,1,.016-.034v0c.04-.054.057-.109.091-.165a2.869,2.869,0,0,0,.192-.353c.02-.047.026-.092.044-.142a2.51,2.51,0,0,0,.1-.376.619.619,0,0,0,0-.132,1.576,1.576,0,0,0,.011-.363,1.3,1.3,0,0,0-.038-.155,1.927,1.927,0,0,0-.077-.3,1.339,1.339,0,0,0-.109-.187,1.391,1.391,0,0,0-.134-.23,1.571,1.571,0,0,0-.223-.215,1.749,1.749,0,0,0-.137-.138,2.39,2.39,0,0,0-.38-.223c-.035-.018-.063-.043-.1-.059a3.143,3.143,0,0,0-.59-.2,3.653,3.653,0,0,0-.571-.079.828.828,0,0,0-.106-.012c-.03-.008-.052-.022-.078-.028a5.035,5.035,0,0,0-4.884,1.835,1.98,1.98,0,0,0,1.328,3.266,4.275,4.275,0,0,0,.681.091c.027,0,.047.018.077.022A3.534,3.534,0,0,0,377.066,550.806Z" transform="translate(-253.523 -419.283)" fill="#ffcd50"/>
      <path id="Path_1743" data-name="Path 1743" d="M502.645,536.652a.592.592,0,0,0,.07,0,2.275,2.275,0,0,0,.412-.015h.006v0a3.243,3.243,0,0,0,2.341-1.9.179.179,0,0,0,.012-.032h0a1.526,1.526,0,0,0,.058-.164c.046-.119.091-.237.125-.353.012-.047.014-.091.024-.137a3.116,3.116,0,0,0,.063-.379c0-.047,0-.09,0-.134a3.556,3.556,0,0,0,0-.36c-.009-.057-.022-.1-.033-.157a2.133,2.133,0,0,0-.061-.3,1.571,1.571,0,0,0-.077-.189,1.864,1.864,0,0,0-.1-.227,2.305,2.305,0,0,0-.155-.219c-.037-.043-.063-.1-.1-.133a1.719,1.719,0,0,0-.262-.225c-.024-.017-.046-.04-.069-.058a1.78,1.78,0,0,0-.407-.194,1.909,1.909,0,0,0-.4-.082c-.023,0-.048-.01-.073-.01s-.032-.019-.054-.028a2.915,2.915,0,0,0-3.293,1.835c-.639,1.411-.2,2.869.982,3.266a1.843,1.843,0,0,0,.467.091.573.573,0,0,1,.053.028A2.122,2.122,0,0,0,502.645,536.652Z" transform="translate(-261.908 -418.346)" fill="#ffad4a"/>
      <path id="Path_1744" data-name="Path 1744" d="M538.789,471.992c.013.016.035.029.047.042a1.863,1.863,0,0,0,.306.242l.006,0h0a4.668,4.668,0,0,0,3.431.279.213.213,0,0,1,.036-.013h0c.068-.016.126-.041.192-.063.145-.043.289-.087.423-.139.053-.02.1-.047.15-.069.135-.062.276-.121.4-.19.043-.027.082-.055.125-.079a3.847,3.847,0,0,0,.339-.222,1.129,1.129,0,0,0,.128-.113,3.144,3.144,0,0,0,.246-.22,1.621,1.621,0,0,0,.12-.162,1.582,1.582,0,0,0,.149-.2,1.285,1.285,0,0,0,.1-.224,1.194,1.194,0,0,0,.062-.145,1.109,1.109,0,0,0,.028-.3.568.568,0,0,0,.006-.079,1.1,1.1,0,0,0-.1-.365,1.232,1.232,0,0,0-.2-.291c-.014-.016-.027-.036-.042-.051a.167.167,0,0,0-.013-.047c-.447-.964-2.249-1.369-4.025-.908s-2.852,1.616-2.4,2.581a1.388,1.388,0,0,0,.236.34c.007.016.007.034.013.047A1.261,1.261,0,0,0,538.789,471.992Z" transform="translate(-264.413 -414.188)" fill="#ffe576"/>
      <path id="Path_1745" data-name="Path 1745" d="M485.875,457.2c.017.016.035.028.05.041a1.811,1.811,0,0,0,.3.243l.006,0h0a4.656,4.656,0,0,0,3.429.279l.04-.014,0,0c.068-.021.128-.042.2-.064.142-.044.287-.086.419-.139.053-.021.1-.048.151-.07.137-.063.277-.121.4-.191a1.039,1.039,0,0,0,.121-.079,2.944,2.944,0,0,0,.34-.219c.046-.036.084-.076.127-.114.084-.073.173-.145.246-.222a1.414,1.414,0,0,0,.124-.162,1.666,1.666,0,0,0,.147-.2,1.937,1.937,0,0,0,.1-.226c.018-.047.045-.1.059-.142a1.19,1.19,0,0,0,.027-.3.525.525,0,0,0,.006-.077,1.033,1.033,0,0,0-.1-.366,1.26,1.26,0,0,0-.2-.292.508.508,0,0,0-.041-.05.271.271,0,0,0-.013-.05c-.447-.961-2.253-1.365-4.025-.9s-2.853,1.612-2.4,2.575a1.254,1.254,0,0,0,.239.341.256.256,0,0,1,.01.046A1.373,1.373,0,0,0,485.875,457.2Z" transform="translate(-260.907 -413.208)" fill="#ffcd50"/>
      <path id="Path_1746" data-name="Path 1746" d="M492.825,485.5c.013.016.033.025.049.041a1.717,1.717,0,0,0,.305.243s0,0,0,0h0a4.655,4.655,0,0,0,3.429.279c.012-.006.025-.009.04-.015l-.006,0c.07-.019.128-.041.2-.064.146-.044.288-.085.423-.139.052-.019.1-.047.147-.066.14-.063.28-.121.4-.191.046-.024.083-.054.127-.08a3.329,3.329,0,0,0,.34-.222c.047-.035.081-.072.127-.113a2.594,2.594,0,0,0,.245-.219c.047-.055.078-.108.122-.16s.1-.132.147-.2a1.589,1.589,0,0,0,.1-.226c.02-.05.046-.1.059-.142a1.233,1.233,0,0,0,.032-.3c0-.026.006-.054,0-.08a1.011,1.011,0,0,0-.1-.368,1.251,1.251,0,0,0-.2-.29c-.014-.015-.027-.034-.042-.052a.23.23,0,0,0-.01-.046c-.448-.962-2.251-1.372-4.025-.9s-2.852,1.613-2.406,2.577a1.5,1.5,0,0,0,.237.341c.008.015.008.028.017.046A1.183,1.183,0,0,0,492.825,485.5Z" transform="translate(-261.368 -415.083)" fill="#ffad4a"/>
      <path id="Path_1747" data-name="Path 1747" d="M506.551,462.5c.021,0,.044.007.066.012a1.768,1.768,0,0,0,.4.1h0a4,4,0,0,0,3.054-1.119.234.234,0,0,0,.023-.025l0,0c.046-.044.082-.088.127-.136a3.82,3.82,0,0,0,.265-.289c.032-.042.054-.084.085-.124a3.356,3.356,0,0,0,.22-.332c.021-.038.032-.077.055-.121a3.243,3.243,0,0,0,.149-.332c.019-.049.022-.1.036-.153a2.206,2.206,0,0,0,.068-.3,1.142,1.142,0,0,0,0-.2,1.8,1.8,0,0,0,.007-.235,1.842,1.842,0,0,0-.062-.242,1.509,1.509,0,0,0-.039-.152,1.392,1.392,0,0,0-.159-.276c-.014-.022-.025-.051-.04-.075a1.767,1.767,0,0,0-.308-.291,1.908,1.908,0,0,0-.348-.177c-.02-.01-.042-.022-.063-.031s-.027-.025-.043-.038c-.967-.686-2.733-.33-3.939.792s-1.4,2.587-.428,3.273a1.606,1.606,0,0,0,.41.215c.014.01.026.024.039.035A1.872,1.872,0,0,0,506.551,462.5Z" transform="translate(-262.218 -413.468)" fill="#ffad4a"/>
      <path id="Path_1748" data-name="Path 1748" d="M412.717,535.826l33.161-3.439-31.8-.779Z" transform="translate(-256.099 -418.37)" fill="#ffad4a"/>
      <path id="Path_1749" data-name="Path 1749" d="M544.175,511.224l-24.805,2.52,22.218-4.573Z" transform="translate(-263.166 -416.883)" fill="#ffad4a"/>
      <path id="Path_1750" data-name="Path 1750" d="M474.323,468.383l25.738-.542-23.889-3.011Z" transform="translate(-260.181 -413.945)" fill="#ffad4a"/>
      <path id="Path_1751" data-name="Path 1751" d="M629.087,470.745,605.55,470l21.394-2.826Z" transform="translate(-268.875 -414.101)" fill="#ffad4a"/>
      <path id="Path_1752" data-name="Path 1752" d="M705.344,536.067l-23.54-.747,21.4-2.819Z" transform="translate(-273.927 -418.429)" fill="#ffad4a"/>
    </g>
    <g id="Group_1509-2" data-name="Group 1509" transform="translate(397.526 2418.821)">
      <g id="Group_1538" data-name="Group 1538" clip-path="url(#clip-path)">
        <g id="Group_1537" data-name="Group 1537" transform="translate(67.88 40.772)">
          <g id="Group_1536" data-name="Group 1536" transform="translate(0 0)">
            <ellipse id="Ellipse_188" data-name="Ellipse 188" cx="176.037" cy="176.041" rx="176.037" ry="176.041" transform="translate(0 3.929) rotate(-0.639)" fill="#ffe888"/>
            <g id="Group_1532" data-name="Group 1532" transform="translate(1.953 1.954)">
              <path id="Path_1754" data-name="Path 1754" d="M489.736,491.695c.128,0,.244.015.374.015A175.99,175.99,0,0,0,628.934,207.493Z" transform="translate(-314.071 -139.627)" fill="#ffcd50"/>
              <path id="Path_1755" data-name="Path 1755" d="M491.665,135.423c-4.632-.366-9.292-.611-14.019-.611a176.032,176.032,0,0,0-130.026,294.7Z" transform="translate(-301.607 -134.812)" fill="#ffcd50"/>
            </g>
            <path id="Path_1756" data-name="Path 1756" d="M482.385,456.781c-77.783,0-140.843-63.556-140.843-141.951a142.22,142.22,0,0,1,16.278-66.252,142.168,142.168,0,0,0-19.432,71.932c0,78.4,63.062,141.953,140.844,141.953,54.038,0,100.945-30.69,124.565-75.7C579.312,428.65,534.12,456.781,482.385,456.781Z" transform="translate(-302.091 -140.396)" fill="#fff9b3"/>
            <path id="Path_1757" data-name="Path 1757" d="M480.8,174.568c77.786,0,140.846,63.553,140.846,141.956a142.091,142.091,0,0,1-16.284,66.247A142.106,142.106,0,0,0,624.8,310.843c0-78.4-63.052-141.961-140.844-141.961-54.042,0-100.943,30.694-124.565,75.712C383.878,202.7,429.071,174.568,480.8,174.568Z" transform="translate(-303.483 -135.116)" fill="#ff833e"/>
            <path id="Path_1758" data-name="Path 1758" d="M479.68,165.526A147.359,147.359,0,1,0,627.039,312.888,147.363,147.363,0,0,0,479.68,165.526Zm0,289.311c-77.784,0-140.844-63.552-140.844-141.949S401.9,170.932,479.68,170.932s140.843,63.552,140.843,141.956S557.458,454.837,479.68,454.837Z" transform="translate(-301.689 -134.893)" fill="#ffae43"/>
            <path id="Path_1759" data-name="Path 1759" d="M479.536,489.624A176.144,176.144,0,0,1,311.262,261.761,176.056,176.056,0,1,0,645.92,371.088,176.076,176.076,0,0,1,479.536,489.624Z" transform="translate(-299.654 -141.269)" fill="#ffae43"/>
            <path id="Path_1760" data-name="Path 1760" d="M477.318,138.967A176.146,176.146,0,0,1,645.595,366.831,176.055,176.055,0,1,0,310.938,257.507,176.076,176.076,0,0,1,477.318,138.967Z" transform="translate(-300.273 -132.758)" fill="#fffad7"/>
            <g id="Group_1533" data-name="Group 1533" transform="translate(121.202 62.597)">
              <path id="Path_1761" data-name="Path 1761" d="M551.119,367.271c0,32.446-46.49,30.619-56.019,30.614-9.3,0-32.186.692-37.666.692-5.724,0-6.68-4.115-6.68-8.679L451,339.176V328.215a139.113,139.113,0,0,1,.711-15.772c.714-12.786.714-47.746,1.428-54.145a50.91,50.91,0,0,0,.25-6.4,85.025,85.025,0,0,0-.724-11.423,2.368,2.368,0,0,1-.24-1.144c0-.914.713-1.6,2.623-2.06,2.147-.679,18.594-3.191,31.225-3.191,25.753,0,49.111,6.394,49.111,41.582,0,18.047-6.916,28.1-13.826,34.267a39.413,39.413,0,0,1-13.586,7.544C513.213,319.3,551.119,331.865,551.119,367.271ZM536.1,360.952c0-20.753-12.685-30.081-25.158-34.656a74.219,74.219,0,0,0-25.173-3.425,3.941,3.941,0,0,0-.2,1.53,21.442,21.442,0,0,0-.228,4.373c0,4.194.877,19.038.877,22.473,0,3.616-.446,4.18-.446,8.754s.881,16.574.881,20c0,3.8,2.4,3.051,6.561,3.051C522.757,383.05,536.1,373.9,536.1,360.952ZM488.816,307c0,1.472,0,1.9,1.347,1.9,1.541,0,35.088-1.9,35.088-34.2,0-32.521-17.747-34-35.285-34l-.382,13.509c-.194,7.594-.389,16.678-.389,22.595v24.063C489.2,304.251,488.816,305.527,488.816,307Z" transform="translate(-430.738 -202.032)" fill="#ffae43"/>
              <path id="Path_1762" data-name="Path 1762" d="M477.744,407.392l-7.634-.422c0,17.622-1.791,34.4,4.942,33.962S477.744,407.392,477.744,407.392Z" transform="translate(-432.006 -213.487)" fill="#ffae43"/>
              <path id="Path_1763" data-name="Path 1763" d="M464.33,408.15l.45-11.455c-18.41,0-35.9-2.691-35.453,7.411S464.33,408.15,464.33,408.15Z" transform="translate(-429.318 -212.784)" fill="#ffae43"/>
              <path id="Path_1764" data-name="Path 1764" d="M464.33,247.91l.45-11.456c-18.41,0-35.9-2.7-35.453,7.413S464.33,247.91,464.33,247.91Z" transform="translate(-429.318 -202.168)" fill="#ffae43"/>
              <path id="Path_1765" data-name="Path 1765" d="M500.813,407.392l-7.635-.422c0,17.622-1.787,34.4,4.939,33.962C504.859,440.5,500.813,407.392,500.813,407.392Z" transform="translate(-433.534 -213.487)" fill="#ffae43"/>
              <path id="Path_1766" data-name="Path 1766" d="M494.178,233.3l7.622.428c0-17.628,1.8-34.395-4.939-33.963S494.178,233.3,494.178,233.3Z" transform="translate(-433.535 -199.758)" fill="#ffae43"/>
              <path id="Path_1767" data-name="Path 1767" d="M471.1,233.3l7.636.428c0-17.628,1.791-34.395-4.94-33.963S471.1,233.3,471.1,233.3Z" transform="translate(-432.007 -199.758)" fill="#ffae43"/>
            </g>
            <g id="Group_1535" data-name="Group 1535" transform="translate(126.564 59.439)">
              <g id="Group_1534" data-name="Group 1534" transform="translate(19.077 31.789)">
                <path id="Path_1768" data-name="Path 1768" d="M551.121,362.5c0,32.175-44.3,30.365-53.381,30.361-8.859,0-30.664.683-35.889.683-5.452,0-6.361-4.082-6.361-8.612l.229-50.293V323.766a143.278,143.278,0,0,1,.68-15.642c.685-12.677.685-47.346,1.36-53.69a52.667,52.667,0,0,0,.237-6.338,88.146,88.146,0,0,0-.688-11.332,2.516,2.516,0,0,1-.223-1.137c0-.907.674-1.585,2.49-2.038,2.048-.675,17.715-3.166,29.756-3.166,24.538,0,46.8,6.342,46.8,41.232,0,17.9-6.585,27.872-13.168,33.986a37.18,37.18,0,0,1-12.952,7.477C515,314.927,551.121,327.389,551.121,362.5Zm-14.314-.224c0-24.7-13.169-35.8-26.116-41.234a68.211,68.211,0,0,0-26.13-4.076,5.187,5.187,0,0,0-.218,1.812,29.411,29.411,0,0,0-.236,5.212c0,4.984.919,22.654.919,26.732,0,4.311-.465,4.985-.465,10.426s.911,19.706.911,23.784c0,4.53,2.5,3.629,6.818,3.629C522.961,388.563,536.806,377.683,536.806,362.277ZM484.79,308.124c0,1.591,0,2.04,1.6,2.04,1.811,0,41.341-2.04,41.341-36.7,0-34.89-20.907-36.477-41.573-36.477l-.454,14.494c-.229,8.155-.458,17.9-.458,24.248v25.825C485.243,305.18,484.79,306.542,484.79,308.124Z" transform="translate(-455.49 -230.421)" fill="#fffad7"/>
              </g>
              <path id="Path_1769" data-name="Path 1769" d="M481.205,402.291l-7.272-.423c0,17.483-1.708,34.109,4.7,33.685S481.205,402.291,481.205,402.291Z" transform="translate(-437.621 -209.991)" fill="#fffad7"/>
              <path id="Path_1770" data-name="Path 1770" d="M468.415,403.039l.435-11.358c-17.54,0-34.206-2.673-33.783,7.35S468.415,403.039,468.415,403.039Z" transform="translate(-435.06 -209.295)" fill="#fffad7"/>
              <path id="Path_1771" data-name="Path 1771" d="M468.415,244.13l.435-11.359c-17.54,0-34.206-2.671-33.783,7.352S468.415,244.13,468.415,244.13Z" transform="translate(-435.06 -198.766)" fill="#fffad7"/>
              <path id="Path_1772" data-name="Path 1772" d="M503.185,402.291l-7.27-.423c0,17.483-1.711,34.109,4.7,33.685S503.185,402.291,503.185,402.291Z" transform="translate(-439.078 -209.991)" fill="#fffad7"/>
              <path id="Path_1773" data-name="Path 1773" d="M496.862,229.645l7.265.42c0-17.48,1.713-34.105-4.708-33.681S496.862,229.645,496.862,229.645Z" transform="translate(-439.078 -196.376)" fill="#fffad7"/>
              <path id="Path_1774" data-name="Path 1774" d="M474.87,229.645l7.28.42c0-17.48,1.708-34.105-4.708-33.681S474.87,229.645,474.87,229.645Z" transform="translate(-437.621 -196.376)" fill="#fffad7"/>
            </g>
          </g>
        </g>
        <path id="Path_1775" data-name="Path 1775" d="M620.061,498.18a9.446,9.446,0,0,0-.642-.906c-2.212-3.087-10.03-10.854-18.546-18.576l2.412-6.978.112.077-.089-.144.016-.043-.139-.156-1.209-1.952-.3-.207c.71-2.016,1.208-5.1,1.719-7.019.394.1.8.2,1.223.291l1.6-3.045c1.355.26,2.386.158,2.726-.507,6.84-13.3,6.451-71.025,3.209-81.67-1.866-11.674-9-43.429-11.333-50.613-.009-.046-.021-.093-.032-.139-1.115-5.4-6.572-11.76-9.816-15.157.151-.093.3-.187.445-.281l-3.592-2.99c-.211.1-.411.219-.618.326l0,0c-.575-.4-1.173-.78-1.784-1.136l1.133-.6-1.514-3.079s-.763-.275-2.03-.652l-.5-4.087c4.3-1.925,7.576-5.431,7.994-8.827.346-.146.684-.3,1.009-.473-.017-1.166,0-2.272.041-3.353,2.94-2.487,6.39-8.637,5.322-11.42a4.722,4.722,0,0,0-3.405-3.028,74.024,74.024,0,0,0,1.8-11.006,22.984,22.984,0,0,1,.372-2.924l-.012,0c1.6-8.753,7.553-18.019,5.066-20.924-1.934-2.263-4.461-.449-5.8.843,1.488-1.72,4.034-5.218,1.992-7.119-2.773-2.583-7.84,2.225-7.84,2.225s4.93-5.961.761-9.35-10.239,6.025-10.239,6.025c-7.359-8.4-12.21,2.231-12.21,2.231a11.752,11.752,0,0,0-1.4,0l13.481-74.79H573.4l-4.154,22.861H506.783l4.121-22.862h-6.047l-63.177,347.67,6.457.57,1.881-10.436h36.491a39.986,39.986,0,0,0-1.232,5.779L473.3,504.9l14.822-.233,7.413-9.813h16.475l-1.793,9.867,6.457.57,16.639-92.321c1.733.508,3.353,1.008,4.8,1.486a16.436,16.436,0,0,0,3.966,2.981c2.53,10.318,1.944,57.226,1.588,72.074-2.544,3.475-4.949,6.748-7.05,9.517l6.688,5.5c-.431,24.46-1.015,79.053.428,83.157a3.491,3.491,0,0,0,3.871,2.467l-.138,5.987c-3.789,3.081-5.906,16.556-5.906,16.556l-7.612,2.994,9.746,1.407,11.126-16.463s-1.569-4.051-4.153-5.033l.017-6.25a13.857,13.857,0,0,0,1.708-.856s.006-.063.015-.161c.249-2.71,3.913-42.316,6.535-68.882L588.1,543.38c.294-.312.967-1.112,1.918-2.282a9.524,9.524,0,0,0,1.016-1.075c.555.3,1.107.581,1.657.846.519.245,21.218-27.589,26.266-39.019a9.489,9.489,0,0,0,1.086-3.331c0-.012,0-.021,0-.032A2.8,2.8,0,0,0,620.061,498.18Zm-60.621-216.4c0,.023,0,.046,0,.068,0,.222,0,.444-.009.666-.008.449-.025.9-.046,1.355-.008.2-.015.395-.025.593-.035.653-.079,1.308-.135,1.97,0,0,.443.182,1.213.471a13.381,13.381,0,0,0,6.924,11.141l-.646,2.932c-.2.024-.406.048-.607.078l-1.064,1.137-.165.7-.657-.118c-.4.183-.766.391-1.145.593a26.5,26.5,0,0,0-10.465,2.558l4.793-26.591A19.207,19.207,0,0,0,559.44,281.781Zm-13.7,27.461a102.142,102.142,0,0,0-12.885,9.227c-7.005-.317-14.561-19.489-19.077-27.48h35.279Zm-39.576-125.9H568.62l-6,33.007H500.217ZM499.6,219.771H562l-4.521,24.878a7.749,7.749,0,0,0-.732,1.2.245.245,0,0,0-.019.039c-.114.232-.216.473-.307.719,0,.013-.008.026-.012.039a15.942,15.942,0,0,0-.538,6.857l0,.007H493.517Zm-6.7,37.165h62.347l-5.566,30.632H511.075c-3.552-.971-7.629-4.095-10.677,0H487.379Zm-6.138,34.054H498.7c-.244.7-.477,1.47-.695,2.341-.617,2.461,4.643,17.288,10.122,30.687H480.809Zm-6.57,36.451h29.35c4.393,10.474,8.615,19.263,9.736,19.232,5.513-.15,13.455-4.755,20.352-8.424,0,1.406.027,2.812.075,4.214l-3.665,20.169H473.849Zm-6.96,38.614h62.187l-2.628,14.461c-4.682,1.232-10.569,1.736-16.029,2.282-1.358.129-2.686.271-3.957.436.194.132.416.271.651.414-18.089.5-37.858.781-41.088,3.574-.782.675-1.234,2.522-1.426,5.25h0l0,.072c-.076,1.111-.108,2.365-.1,3.747,0,.043,0,.081,0,.123,0,.306.007.62.013.937,0,.08,0,.161,0,.242.007.31.015.624.024.943,0,.091.007.179.008.269.011.328.023.655.038.991,0,.079.007.16.01.238l0,.046H467.1Zm-6.751,37.454h4.65c.064.955.137,1.933.221,2.944.006.056.009.115.015.172.034.409.071.824.107,1.241.009.1.017.2.026.3.037.406.076.815.115,1.231.01.1.021.212.03.317.041.425.083.852.127,1.284.007.069.015.138.021.205.251,2.471.546,5.055.875,7.722.01.085.021.17.031.255.059.471.118.946.179,1.422.014.108.028.216.041.326.061.475.123.956.186,1.437.014.1.026.2.038.291q.1.744.2,1.5c.008.057.016.117.024.175.3,2.232.621,4.5.956,6.79,0,.029.009.058.013.09q.113.776.231,1.556c.016.1.03.2.045.3q.112.745.226,1.492c.017.12.035.239.053.358.077.5.153,1,.231,1.495.017.107.032.212.049.318q.119.761.238,1.525c.012.078.025.153.036.23.166,1.056.341,2.1.512,3.158H459.61Zm-15.848,87.924,8.359-46.376h17.518l.022.139c.015.09.031.182.046.273.077.463.155.922.232,1.383.028.172.058.343.086.515.075.436.148.87.221,1.3.03.174.059.346.089.52.076.442.151.88.227,1.318.027.159.055.316.083.474.078.45.156.9.233,1.345.02.114.04.226.06.339q.4,2.3.81,4.543c.018.1.035.2.052.292.073.4.147.8.219,1.2.035.187.068.376.1.564q.1.553.2,1.1c.041.217.081.434.12.65q.1.527.2,1.05c.041.217.081.43.121.646.064.342.13.684.193,1.021.044.23.086.457.131.683.06.315.12.63.179.942.046.24.092.475.137.713.132.677.262,1.347.391,2.007.025.131.052.268.078.4.048.243.1.479.142.72.057.285.114.572.17.855.049.24.1.477.143.715.053.259.106.521.157.776s.1.5.153.75.1.494.149.738.1.464.143.695.1.48.148.716.1.467.146.695.1.478.151.716c.043.2.086.408.128.608.06.28.12.552.177.825.038.177.077.361.115.536.083.387.166.767.248,1.136.031.143.062.28.093.417.057.259.114.516.17.766l.1.454.154.672c.033.147.067.289.1.432.05.217.1.43.15.64.032.135.063.269.094.4.049.205.1.4.143.6.031.126.061.253.092.376.049.2.1.391.143.582.025.1.051.208.077.311.071.282.14.556.209.815l3.644-.774,1.231,4.441a10.262,10.262,0,0,0-1.517,2.349Zm62,0H497.174c-.837-1.193-2.764-3.576-4.914-3.744l-1.1-3.7,2.516-.534-.013-.2c0-.019,0-.045,0-.067-.013-.209-.035-.535-.063-.981-.009-.149-.021-.316-.031-.491,0-.012,0-.022,0-.035-.035-.563-.077-1.251-.127-2.05,0-.016,0-.031,0-.047-.009-.165-.02-.344-.032-.517-.008-.123-.015-.241-.022-.367-.072-1.174-.154-2.536-.243-4.053,0-.013,0-.025,0-.036-.435-7.383-1.043-18.456-1.495-29.55h29.428Zm9.049-49.8H491.5c-.13-3.434-.242-6.836-.325-10.092a.1.1,0,0,1,0-.023c-.014-.542-.027-1.08-.04-1.614a.153.153,0,0,0,0-.021q-.017-.79-.033-1.565l0-.05c-.009-.519-.02-1.036-.028-1.544V426.7c-.008-.493-.016-.984-.022-1.468,0-.032,0-.064,0-.1-.007-.477-.012-.948-.017-1.415,0-.029,0-.058,0-.088,0-.457-.008-.9-.01-1.349,0-.041,0-.084,0-.128,0-.437,0-.866,0-1.289,0-.044,0-.091,0-.135q0-.619,0-1.22c0-.055,0-.11,0-.162,0-.393,0-.78.007-1.16,0-.055,0-.111,0-.166q.006-.558.015-1.1l0-.182q.008-.527.021-1.035l0-.178c.008-.332.017-.656.026-.975,0-.061,0-.122.006-.182.011-.316.022-.624.035-.923,0-.055,0-.111.007-.165.012-.3.027-.583.041-.863,0-.056.006-.111.008-.167.015-.272.031-.534.048-.791,0-.056.008-.112.011-.167.017-.252.036-.494.056-.728,0-.052.008-.1.012-.154.02-.23.04-.45.063-.663,0-.048.009-.1.015-.146.021-.206.046-.405.069-.594.006-.046.012-.091.018-.134.024-.187.051-.362.077-.529l.02-.115c.027-.163.057-.317.087-.461.006-.035.013-.067.021-.1.03-.139.062-.27.094-.39l.023-.082c.033-.115.067-.219.1-.316.007-.021.016-.043.023-.063a2.066,2.066,0,0,1,.113-.24c.026-.047.052-.1.078-.137,1.906-2.577,20.416.952,35.076,4.822Zm18.694-65.164a6.848,6.848,0,0,1-.6.649l1.765-9.788C541.749,371.707,541.544,374.978,540.379,376.468Zm46.85,90.5c-4.6-3.69-8.519-6.476-10.776-7.414a18.388,18.388,0,0,0-5.21-2.7c-.015,0-.036,0-.05,0,.839-3.391,1.673-6.793,2.474-10.115.5.546,1,1.043,1.47,1.467,4.714-22.894,8.842-52.58,10.958-70.77a66.792,66.792,0,0,1,2.915-11.85c3.066,6.552,6.458,13.171,8.054,18.658a5.7,5.7,0,0,0,.478,1.146c2.595,15.847-.809,62.388-2.59,66.84a.776.776,0,0,0-.048.29c0,.034.007.066.011.1a.967.967,0,0,0,.05.232c.011.037.023.073.037.109a2.268,2.268,0,0,0,.146.289c.013.023.024.043.036.068a4.3,4.3,0,0,0,.294.4l0,0c.113.134.24.273.381.416.018.017.036.036.055.053q.2.2.44.409l.029.026a.422.422,0,0,1,.038.035l-.9,2.236a18.078,18.078,0,0,0,1.157,1.448,14.9,14.9,0,0,0-4.045,4.619l-1.226-.86Zm9.983,8.453c-2.219-1.96-4.436-3.873-6.57-5.655l1.694-4.22a4.468,4.468,0,0,0,.6,1.346,4.241,4.241,0,0,0,1.159,1.2,1.745,1.745,0,0,0,1.158.566c.04.064.07.125.111.19a3.1,3.1,0,0,0,2.2,1.579,1.58,1.58,0,0,0,.568.009,2.449,2.449,0,0,0,1.767.91Z" transform="translate(-241.055 -93.56)" fill="#d64c4c" opacity="0.3" style="mix-blend-mode: multiply;isolation: isolate"/>
      </g>
    </g>
    <g id="Group_1510-2" data-name="Group 1510" transform="translate(660.329 2461.558)">
      <path id="Path_1778" data-name="Path 1778" d="M717,428.894c-1.91-18.035-7.167-51.7-3.711-54.336,6.778-4.213,52.161-4.586,55.382-2.66,3.194,1.91,3.429,48.866,3.43,52.56Z" transform="translate(-521.777 -150.458)" fill="#663a31"/>
      <path id="Path_1779" data-name="Path 1779" d="M746.651,370.684l-1.466-8.563,3.027.248,3.983,8.981Z" transform="translate(-523.966 -149.884)" fill="#663a31"/>
      <path id="Path_1780" data-name="Path 1780" d="M734.468,355.156c-1.461,2.018-.857,8.731.184,8.9s3.832-1.664,3.832-1.664S735.794,353.326,734.468,355.156Z" transform="translate(-523.198 -149.406)" fill="#f9ad8f"/>
      <path id="Path_1781" data-name="Path 1781" d="M739.879,365.374c.184-.816-.827-1.753-2.254-2.088s-2.741.054-2.924.871.826,1.754,2.256,2.088S739.7,366.193,739.879,365.374Z" transform="translate(-523.27 -149.953)" fill="#f9ad8f"/>
      <path id="Path_1782" data-name="Path 1782" d="M743.134,365.079c.184-.818-.824-1.754-2.256-2.089s-2.737.054-2.92.87.826,1.755,2.256,2.092S742.954,365.9,743.134,365.079Z" transform="translate(-523.486 -149.934)" fill="#f9ad8f"/>
      <path id="Path_1783" data-name="Path 1783" d="M745.508,364.129c.185-.816-.824-1.755-2.255-2.088s-2.737.053-2.921.869.825,1.754,2.256,2.09S745.326,364.948,745.508,364.129Z" transform="translate(-523.643 -149.871)" fill="#f9ad8f"/>
      <path id="Path_1784" data-name="Path 1784" d="M685.158,220.792s-10.829-2.272-18.695.112l.09,3,10.2,2.493,7.939-3.881Z" transform="translate(-518.75 -140.456)" fill="#d1aaba"/>
      <path id="Path_1785" data-name="Path 1785" d="M732.863,371.41l-.345-7.651,12.479-2,2.553.665-12.478,2.108,2.62,6.764Z" transform="translate(-523.127 -149.86)" fill="#7c4e43"/>
      <path id="Path_1786" data-name="Path 1786" d="M733.8,356.928c2.09,2.551,2.525,7.617,4.062,8.411s2.517-.927,2.517-.927a2.291,2.291,0,0,0,1.629.59,1.6,1.6,0,0,0,1.247-1.11,1.68,1.68,0,0,0,1.676-.228c1.582-1.123-3.333-7.484-4.179-9.813C738.774,348.422,734.3,353.886,733.8,356.928Z" transform="translate(-523.211 -149.183)" fill="#ffdeb3"/>
      <path id="Path_1787" data-name="Path 1787" d="M677.3,498.868H606.07l.118,3.884h71.229Z" transform="translate(-514.749 -158.944)" fill="#7a6a71"/>
      <path id="Path_1788" data-name="Path 1788" d="M694.432,559.361H623.2l.118,3.884H694.55Z" transform="translate(-515.884 -162.952)" fill="#7a6a71"/>
      <path id="Path_1789" data-name="Path 1789" d="M661.927,448.392H590.7l.117,3.886h71.229Z" transform="translate(-513.731 -155.6)" fill="#7a6a71"/>
      <path id="Path_1790" data-name="Path 1790" d="M651.764,402.9h-71.23l.118,3.885h71.229Z" transform="translate(-513.057 -152.585)" fill="#7a6a71"/>
      <path id="Path_1791" data-name="Path 1791" d="M637.024,355.99H565.8l.118,3.884h71.227Z" transform="translate(-512.081 -149.478)" fill="#7a6a71"/>
      <path id="Path_1792" data-name="Path 1792" d="M626.094,311.711l-71.227,0,.117,3.882H626.21Z" transform="translate(-511.357 -146.544)" fill="#7a6a71"/>
      <path id="Path_1793" data-name="Path 1793" d="M614.622,270.344h-71.23l.117,3.884h71.231Z" transform="translate(-510.596 -143.803)" fill="#7a6a71"/>
      <path id="Path_1794" data-name="Path 1794" d="M602.693,225.193h-71.23l.118,3.887H602.81Z" transform="translate(-509.806 -140.812)" fill="#7a6a71"/>
      <path id="Path_1795" data-name="Path 1795" d="M582.373,227.942c-3.806-4.048-8.526-2.3-12.464-3.1-.26-2.883,10.276-4.546,13.1-2.44a15.465,15.465,0,0,1,3.31,2.883Z" transform="translate(-512.353 -140.564)" fill="#ffdeb3"/>
      <path id="Path_1796" data-name="Path 1796" d="M574.249,229.285c-.994-.56.915-2.26,1.482-2.764a14.843,14.843,0,0,0,2.214-2.794c.788.2,5.231,3.376,3.373,3.473C577.214,227.414,576.093,230.326,574.249,229.285Z" transform="translate(-512.622 -140.715)" fill="#ffdeb3"/>
      <path id="Path_1797" data-name="Path 1797" d="M589.734,180.936H518.5l.118,3.886h71.23Z" transform="translate(-508.947 -137.88)" fill="#7a6a71"/>
      <path id="Path_1798" data-name="Path 1798" d="M587.721,153.167h-6.048l108,394.357,6.738.647Z" transform="translate(-513.133 -136.04)" fill="#7a6a71"/>
      <path id="Path_1799" data-name="Path 1799" d="M514.317,153.167H508.27L616.263,547.524l6.738.647Z" transform="translate(-508.27 -136.04)" fill="#7a6a71"/>
      <path id="Path_1800" data-name="Path 1800" d="M688.715,540.513l-1.62-14.924,2.581-2.95,2.085,16.16Z" transform="translate(-520.117 -160.519)" fill="#af9aa3"/>
      <path id="Path_1801" data-name="Path 1801" d="M613.181,432.125l-5.887-14.011,1.6-3.55,6.687,15.083Z" transform="translate(-514.83 -153.359)" fill="#af9aa3"/>
      <path id="Path_1802" data-name="Path 1802" d="M676.923,557.449h9.63l8.646-17.862s-3.464-6.424-7.173-3.884c-3.786,2.589-4.115,17.7-4.115,17.7Z" transform="translate(-519.443 -161.345)" fill="#705a62"/>
      <path id="Path_1803" data-name="Path 1803" d="M598.519,449.6l14.339-2.346,7.564-13.776s-4.51-5.808-7.712-2.7c-3.265,3.174-3.142,12.889-3.142,12.889Z" transform="translate(-514.249 -154.372)" fill="#705a62"/>
      <path id="Path_1804" data-name="Path 1804" d="M729.791,351.046l1.974,5.085c4.3.818,6.885-.084,10.277-2.22l-2.121-7.682Z" transform="translate(-522.946 -148.831)" fill="#e8d4db"/>
      <path id="Path_1805" data-name="Path 1805" d="M592.577,227.454l-3.82-4.031c-4.25.819-6.44,1.887-8.687,5.135l5.169,7.13Z" transform="translate(-513.027 -140.695)" fill="#e8d4db"/>
      <path id="Path_1806" data-name="Path 1806" d="M741.435,344.832c.855,3-13.543,7.3-14.512,4.814-1.84-4.744-12.366-33.774-16.5-48.428-1.887-6.683,11.748-10.464,13.374-6.9C728.288,304.176,737.326,330.388,741.435,344.832Z" transform="translate(-521.651 -145.301)" fill="#705a62"/>
      <path id="Path_1807" data-name="Path 1807" d="M582.061,234.129c-1.781-2.625,10.173-12.206,11.763-10.019,3.914,5.4,25.015,26.884,30.461,35.7a9.306,9.306,0,0,1-2.2,12.807C616.587,276.518,590.324,246.325,582.061,234.129Z" transform="translate(-513.146 -140.719)" fill="#705a62"/>
      <path id="Path_1808" data-name="Path 1808" d="M619.135,260.8s22.808-31.917,35.385-33.847-.693,27.17-7.689,31.805-16.425,13.23-23.078,14.4C618.649,274.05,615.161,265.673,619.135,260.8Z" transform="translate(-515.501 -140.922)" fill="#705a62"/>
      <path id="Path_1809" data-name="Path 1809" d="M657.113,230.055c-.28,8.273-9.455,18.5-14.271,21.689-7,4.635-14.612,18.047-21.263,19.216a3.876,3.876,0,0,1-2.507-.421c-8.548-3.024-29.03-26.8-36.758-37.924-.428.8-.559,1.476-.251,1.93,7.292,10.763,28.081,36.386,36.82,39.479a3.865,3.865,0,0,0,2.506.419c6.652-1.167,16.1-10.839,23.091-15.475C649.876,255.393,658.992,237.275,657.113,230.055Z" transform="translate(-513.147 -141.134)" fill="#634c56"/>
      <path id="Path_1810" data-name="Path 1810" d="M605.576,420.658C598.8,403.821,575.9,331.345,581.1,325.3s67.965-11.657,69.359-17.483c14.572.432,34.723,18.243,38.683,30.762.985,10.788-7.256,75.436-7.522,81.481s3.249,92.814,3.249,92.814-6.117,5.181-8.5.434S664.59,427.4,663.919,420.059s-7.849-70.8-12.046-76.3c-2.859-3.749-46.579-7.015-49.122-2.267S614.269,417.4,614.269,417.4Z" transform="translate(-513.044 -146.286)" fill="#513f45"/>
      <path id="Path_1811" data-name="Path 1811" d="M602.708,343.229a76.086,76.086,0,0,1-22.309-10.91c1.145,18.414,19.275,75.3,25.181,89.963l8.693-3.256S600.4,348.836,602.708,343.229Z" transform="translate(-513.048 -147.91)" fill="#47373e"/>
      <path id="Path_1812" data-name="Path 1812" d="M687.513,428.423a17.557,17.557,0,0,1-5.644.949,20.579,20.579,0,0,1-12.337-4.49c.141,1.32.241,2.324.3,2.934.67,7.34,10.06,88.5,12.448,93.248s8.5-.434,8.5-.434S687.428,438.1,687.513,428.423Z" transform="translate(-518.954 -154.042)" fill="#47373e"/>
      <path id="Path_1813" data-name="Path 1813" d="M624.3,316.341c6.32,3.491,29.591,13.972,40.97,13.472l-2.215-10.479Z" transform="translate(-515.957 -146.851)" fill="#423137"/>
      <g id="Group_1541" data-name="Group 1541" transform="translate(83.801 165.11)">
        <path id="Path_1814" data-name="Path 1814" d="M653.027,345.529c-.343-1-2.363-1.995-4.229-2.882-4.321-2.052-47.976-7.92-50.52-3.173-2.277,4.247,10.979,67.778,13.8,81.162l3.358-1.257s-14.064-71.164-11.518-75.914C606.031,339.531,641.058,342.741,653.027,345.529Z" transform="translate(-598.017 -313.374)" fill="#423137"/>
        <path id="Path_1815" data-name="Path 1815" d="M687.767,420.483c.266-6.045,8.507-70.693,7.522-81.481-2.559-8.091-11.886-18.389-22.1-24.78,7.843,6.206,14.376,14.223,16.451,20.788.986,10.787-7.256,75.435-7.521,81.481-.243,5.515,3.978,85.173,4.717,99.061a12.426,12.426,0,0,0,4.175-2.256S687.5,426.527,687.767,420.483Z" transform="translate(-602.998 -311.82)" fill="#423137"/>
        <path id="Path_1816" data-name="Path 1816" d="M689.766,372.86s-27.672-24.618-28.083-61.21l28.642,49.234Z" transform="translate(-602.235 -311.65)" fill="#423137"/>
      </g>
      <path id="Path_1817" data-name="Path 1817" d="M653.935,302.818c-1.476,10.36,40.335,42.518,39.192,29.355-3.775-43.386,1.477-63.279,5.284-77.273,4.636-17.054-6.3-30.649-20.907-32.161s-31.31,9.064-31.353,15.109S656.673,283.658,653.935,302.818Z" transform="translate(-517.404 -140.64)" fill="#e8d4db"/>
      <path id="Path_1818" data-name="Path 1818" d="M662.5,265.122s1.733-18.85,6.2-31.047l.8-.111,1.306,3.272L685.5,224.651l-1.35-1-14.77,6.321-2.794-1.309-.921-3.57-1.525,1-1.179,8.538,2.419-1.83.879,2.44s-8.6,21.9-6.266,38.311Z" transform="translate(-518.295 -140.71)" fill="#d6b9c4"/>
      <path id="Path_1819" data-name="Path 1819" d="M658.456,280.744c-4.028-14.617,1.334-34.528,8.5-47.478l1.109.343s-10.3,29.789-5.257,48.708l-2.167,6.153Z" transform="translate(-518.128 -141.347)" fill="#513f45"/>
      <path id="Path_1820" data-name="Path 1820" d="M665.7,230.879l1.289-1.86,2.781.323,1.539,3.642-4.306,2.105Z" transform="translate(-518.7 -141.066)" fill="#513f45"/>
      <path id="Path_1821" data-name="Path 1821" d="M692.371,361.749c-10.539-7.234-29.857-35.457-32.189-54.821-4.782-39.714,8.5-63.352,28.581-80.945,0,0,12.888,9.078,14.506,16.836s-9.043,37.27-8.808,50.9C694.776,312.005,693.963,338.442,692.371,361.749Z" transform="translate(-518.269 -140.864)" fill="#705a62"/>
      <path id="Path_1822" data-name="Path 1822" d="M703.441,243.841c-2.056-9.853-9.052,12.423-15.11,25.121-10.472,21.952,1.548,62.707-10.677,63.7-7.039.576-13.569-15.44-15.846-17.774,5.431,19.289,22.886,45.215,32.246,51.637,1.59-23.306,1.729-53.246,1.414-71.531C695.232,281.365,705.06,251.6,703.441,243.841Z" transform="translate(-518.442 -141.886)" fill="#634c56"/>
      <path id="Path_1823" data-name="Path 1823" d="M622.575,309.993c7.476,3.7,43.373,11.558,45.113.162,1.329-8.743-31.13-55.473-3.182-86.771,0,0-10.975.438-16.764,7.61-15.331,18.993,5.209,61.3.927,68.8C645.369,305.576,632.151,307.265,622.575,309.993Z" transform="translate(-515.843 -140.692)" fill="#705a62"/>
      <path id="Path_1824" data-name="Path 1824" d="M659.288,280.278c-4.585-10.866-14.013-44.909,4.665-57.183l5.237.189C655.579,233.6,652.282,252.111,659.288,280.278Z" transform="translate(-517.846 -140.673)" fill="#937c85"/>
      <path id="Path_1825" data-name="Path 1825" d="M648.6,301.5c-3.024,5.3-14.125,7.585-23.371,9.957,10.378-1.763,23.615-3.595,26.3-8.294,4.037-7.072-6.088-30.161-9.345-47.682C642.845,274.776,651.57,296.295,648.6,301.5Z" transform="translate(-516.019 -142.819)" fill="#634c56"/>
      <path id="Path_1826" data-name="Path 1826" d="M666.441,227.389l1.289-15.782,12.7-2.267,4,15.54S675.792,230.951,666.441,227.389Z" transform="translate(-518.749 -139.762)" fill="#ffd0a6"/>
      <path id="Path_1827" data-name="Path 1827" d="M709.317,299.52c-3.851-8.851-14.064-22.611-17.937-32.108-6.788-18.369,6.506-37.72,13.168-25.741,2.669,4.805,16.587,43.146,18.7,51.8C724.8,299.851,712.39,306.582,709.317,299.52Z" transform="translate(-520.277 -141.658)" fill="#705a62"/>
      <path id="Path_1828" data-name="Path 1828" d="M718.289,429.02c-1.912-18.033-6-51.038-2.644-53.671,6.578-4.2,15.976,6.053,19.114,7.984,3.112,1.916,37.115,37.663,37.123,41.354Z" transform="translate(-521.924 -150.694)" fill="#592e27"/>
      <path id="Path_1829" data-name="Path 1829" d="M731.967,429.249c-1.908-18.032-8.306-54.112-12.976-56.329,7.949-3.55,54.079-4.346,57.3-2.421,3.2,1.912,7.564,50.847,7.564,54.536Z" transform="translate(-522.231 -150.371)" fill="#7c4e43"/>
      <path id="Path_1830" data-name="Path 1830" d="M723.042,372.456c1.668,5.655,12.133,51.231,13.753,51.563s29.987,2.329,47.123-1.774c.612-.2-3.611-45.556-8.2-50.563C769.8,370.018,729.566,371.239,723.042,372.456Z" transform="translate(-522.499 -150.464)" fill="#592e27"/>
      <path id="Path_1831" data-name="Path 1831" d="M723.275,371.94c2.294,5.147,13.809,49.677,15.433,50.01s30.146,3.77,47.006-1.885c.608-.2-4.621-44.667-9.209-49.676C770.585,368.723,729.8,370.719,723.275,371.94Z" transform="translate(-522.514 -150.39)" fill="#7c4e43"/>
      <path id="Path_1832" data-name="Path 1832" d="M750.547,378.514c13.466,5.513,25.922,13.978,32.723,23.346-1.554-14.428-5.181-30.284-6.982-31.362-3.218-1.924-49.348-1.129-57.3,2.421a1.645,1.645,0,0,1,.239.164C728.578,372.285,739.5,373.993,750.547,378.514Z" transform="translate(-522.231 -150.371)" fill="#93584d"/>
      <path id="Path_1833" data-name="Path 1833" d="M648.856,339.913c.767,2.553,6.255,8.984,14.521,8.316A43.786,43.786,0,0,1,648.856,339.913Z" transform="translate(-517.584 -148.413)" fill="#423137"/>
      <path id="Path_1834" data-name="Path 1834" d="M602.014,342.242c-2.506-2.992-7.97-8.648-6.369-8.98s9.094,7.761,9.094,7.761Z" transform="translate(-514.039 -147.971)" fill="#423137"/>
      <path id="Path_1835" data-name="Path 1835" d="M602.669,343.435c-3.907.364-10.435.626-9.909-.865s11.451-3.056,11.451-3.056Z" transform="translate(-513.865 -148.386)" fill="#423137"/>
      <path id="Path_1836" data-name="Path 1836" d="M666.268,311.525c-.043-1.44-.773-2.606-1.631-2.606s-1.517,1.166-1.474,2.606.773,2.606,1.631,2.606S666.312,312.963,666.268,311.525Z" transform="translate(-518.531 -146.359)" fill="#a58996"/>
      <path id="Path_1837" data-name="Path 1837" d="M665.257,296.384c-.042-1.44-.775-2.606-1.632-2.606s-1.517,1.166-1.474,2.606.775,2.605,1.631,2.605S665.3,297.822,665.257,296.384Z" transform="translate(-518.464 -145.356)" fill="#a58996"/>
      <path id="Path_1838" data-name="Path 1838" d="M674.22,278.466l10.058,4.1-1.08,3.532-9.484-4.7Z" transform="translate(-519.231 -144.342)" fill="#937c85"/>
      <path id="Path_1839" data-name="Path 1839" d="M659.523,281.083c.373-10.534,5.474-39.808,28.462-55.887l3.871,2.441C673.454,243.385,665.722,255.758,659.523,281.083Z" transform="translate(-518.291 -140.812)" fill="#937c85"/>
      <path id="Path_1840" data-name="Path 1840" d="M685.207,220.861l-18.015,7.265,4.576,6.908,15.307-11.346Z" transform="translate(-518.799 -140.525)" fill="#f9e5ed"/>
      <path id="Path_1841" data-name="Path 1841" d="M664.46,232.668l4.366-3.777-2.495-7.909-.884,1.276Z" transform="translate(-518.618 -140.533)" fill="#f9e5ed"/>
      <path id="Path_1842" data-name="Path 1842" d="M664.106,242.331c12.229,1.954,17.413-7.507,28.561-13.883-.648-.558-1.264-1.073-1.816-1.518.132-.115.263-.229.4-.344l-3.871-2.441c-.189.133-.37.275-.555.41-.612-.317-1.242-.605-1.882-.873l1.02-.756-1.869-2.828s-.781-.161-2.051-.351l-2.676-10.407-12.7,2.267-.689,8.45c-.192.052-.39.1-.578.152l-.883,1.275-.069.721-.654-.022c-.36.237-.692.5-1.033.751a25.3,25.3,0,0,0-10.363,4.423c-.111.059-.222.128-.333.188C647.23,235.624,653.074,240.568,664.106,242.331Z" transform="translate(-517.683 -139.762)" fill="#af5652" opacity="0.4" style="mix-blend-mode: multiply;isolation: isolate"/>
      <path id="Path_1843" data-name="Path 1843" d="M658.483,190.9c-2.71-4.99-8.1-4.581-8.949-.886-.792,3.44,7.81,13.38,9.8,11.5C661.46,199.483,659.6,192.954,658.483,190.9Z" transform="translate(-517.625 -138.295)" fill="#ffdeb3"/>
      <path id="Path_1844" data-name="Path 1844" d="M658.65,192.85c-1.822-3.354-5.449-3.081-6.016-.595-.533,2.312,5.251,8.995,6.588,7.729C660.651,198.624,659.4,194.234,658.65,192.85Z" transform="translate(-517.832 -138.504)" fill="#f9ad8f"/>
      <path id="Path_1845" data-name="Path 1845" d="M685.691,190c1.254-5.11,6.451-5.335,8.443-1.631s-4.011,15.467-6.573,13.136S685.164,192.15,685.691,190Z" transform="translate(-520.003 -138.205)" fill="#ffdeb3"/>
      <path id="Path_1846" data-name="Path 1846" d="M686.385,191.658c.837-3.4,4.3-3.554,5.627-1.086s-2.677,10.3-4.385,8.751S686.033,193.091,686.385,191.658Z" transform="translate(-520.056 -138.407)" fill="#f9ad8f"/>
      <path id="Path_1847" data-name="Path 1847" d="M656.7,201.8c-1.029-22.62-14.655-37.1-4.245-44.148,0,0-4.6-10.172,5.029-10.989,0,0,3.319-11.206,11.546-3.948,0,0,4.663-10.171,9.142-7.419s.479,9.353.479,9.353,4.286-5.477,7.31-3.319-1.781,8.457-1.781,8.457,3.2-5.6,6.292-2.8-2.9,14.872-2.157,24.348c.633,8.139-1.786,16.044.1,29.017C678.713,207.5,656.7,201.8,656.7,201.8Z" transform="translate(-517.564 -134.825)" fill="#7a4e46"/>
      <path id="Path_1848" data-name="Path 1848" d="M688.318,172.934a23.07,23.07,0,0,1-.021-2.944c-4.253,2.018-6.69-11.232-16.427-11.118-14.148.167-17.023,10.236-22.571,4.021-3.463,7.9,6.529,21.246,7.4,40.5,0,0,22.011,5.7,31.716-1.443C686.532,188.978,688.951,181.074,688.318,172.934Z" transform="translate(-517.565 -136.418)" fill="#633933"/>
      <path id="Path_1849" data-name="Path 1849" d="M658.08,182.735c.161,10.564.31,17.092.383,19.536.209,6.88,6.531,12.581,14.755,12.581,7.829,0,15.088-7.016,14.92-12.581-.065-2.162-1.605-10.458-2.35-19.536-.577-7.019-1.84-26.376-14.336-26.376C659.293,156.359,657.906,171.54,658.08,182.735Z" transform="translate(-518.194 -136.252)" fill="#ffdeb3"/>
      <path id="Path_1850" data-name="Path 1850" d="M681.318,158.672c-.06-2.021-4.489-3.659-9.89-3.659s-9.733,1.639-9.672,3.659,4.49,3.658,9.893,3.658S681.379,160.694,681.318,158.672Z" transform="translate(-518.438 -136.162)" fill="#7a4e46"/>
      <path id="Path_1851" data-name="Path 1851" d="M662.178,184.1c-1.473,0-1.8-2.55-1.021-3.327s7.18-2.327,8.009-1.552,0,3.77-.343,3.881S662.868,184.1,662.178,184.1Z" transform="translate(-518.372 -137.752)" fill="#7a4e46"/>
      <path id="Path_1852" data-name="Path 1852" d="M682.1,184.342c1.291,0,1.433-2.551.706-3.327s-6.415-2.33-7.095-1.553.213,3.769.52,3.882S681.493,184.342,682.1,184.342Z" transform="translate(-519.346 -137.768)" fill="#7a4e46"/>
      <path id="Path_1853" data-name="Path 1853" d="M666.477,205.159h13.348a6.232,6.232,0,0,1-6.383,5.875C666.771,211.156,666.477,205.159,666.477,205.159Z" transform="translate(-518.751 -139.485)" fill="#4f322f"/>
      <path id="Path_1854" data-name="Path 1854" d="M678.107,208.193a6.39,6.39,0,0,0,.977-2.828H667.347a6.234,6.234,0,0,0,1,2.828Z" transform="translate(-518.809 -139.498)" fill="#fff7e9"/>
      <path id="Path_1855" data-name="Path 1855" d="M669.237,199.624c.884.582,4.888,1.746,7.76-.25l-3.017-14.138-3.1.167Z" transform="translate(-518.934 -138.165)" fill="#f9ad8f"/>
      <path id="Path_1856" data-name="Path 1856" d="M669.689,199.2a6.123,6.123,0,0,0,6.636-.332l-2.438-14.97-3.1.166Z" transform="translate(-518.964 -138.076)" fill="#ffdeb3"/>
      <path id="Path_1857" data-name="Path 1857" d="M681.608,189.275c-.045-1.493-.815-2.7-1.721-2.7s-1.6,1.21-1.559,2.7.817,2.7,1.722,2.7S681.654,190.767,681.608,189.275Z" transform="translate(-519.536 -138.253)" fill="#56453e"/>
      <path id="Path_1858" data-name="Path 1858" d="M666.728,189.275c-.045-1.493-.816-2.7-1.722-2.7s-1.6,1.21-1.559,2.7.817,2.7,1.722,2.7S666.774,190.767,666.728,189.275Z" transform="translate(-518.55 -138.253)" fill="#56453e"/>
      <path id="Path_1859" data-name="Path 1859" d="M675.57,213.394c-.011-.367-.744-.166-1.818-.166s-2.077-.2-2.066.166.892.666,1.962.666S675.582,213.761,675.57,213.394Z" transform="translate(-519.096 -140.016)" fill="#f9ad8f"/>
      <path id="Path_1860" data-name="Path 1860" d="M727.483,347.429c-1.727-4.711-11.044-31.971-15.574-48.186a5.619,5.619,0,0,1-.621-1.132c-2.243-5.438-7.1-13.058-12.36-19.386a45.187,45.187,0,0,1-8.578-15.468c-.317,1,.975,7.315,1.468,8.649,3.873,9.5,13.209,20.855,17.058,29.705a5.539,5.539,0,0,0,.614,1.065c4.575,15.294,14.389,40.565,16.112,45,.308.8,1.991.895,4.107.569C728.526,348.233,727.688,347.984,727.483,347.429Z" transform="translate(-520.33 -143.334)" fill="#634c56"/>
      <path id="Path_1861" data-name="Path 1861" d="M618.823,251.315l5.238,9.535,3.965-9.646-4.565,5.1Z" transform="translate(-515.594 -142.535)" fill="#634c56"/>
      <path id="Path_1862" data-name="Path 1862" d="M768.5,424.608l-.182,5.405,4.48-.249-1.377-5.654Z" transform="translate(-525.499 -153.991)" fill="#592e27"/>
      <path id="Path_1863" data-name="Path 1863" d="M768.933,423.094l.43,5.654,4.481-.249-1.991-5.9Z" transform="translate(-525.539 -153.891)" fill="#d1b77c"/>
    </g>
  </g>
</svg>
