<svg xmlns="http://www.w3.org/2000/svg" width="1379.121" height="392.309" viewBox="0 0 1379.121 392.309">
  <g id="Group_1470" data-name="Group 1470" transform="translate(0 -314.818)">
    <g id="Group_1431" data-name="Group 1431" transform="translate(169.97 537.699)">
      <path id="Path_1198" data-name="Path 1198" d="M245.808,250.543c-8.164-3.533-16.639-1.956-18.934,3.516s2.463,12.785,10.621,16.318,16.639,1.958,18.936-3.52S253.966,254.08,245.808,250.543Z" transform="translate(-226.297 -246.229)" fill="#ffae39"/>
      <path id="Path_1199" data-name="Path 1199" d="M246.153,249.3c-8.164-3.539-16.637-1.956-18.934,3.516s2.465,12.781,10.629,16.314,16.633,1.962,18.928-3.518S254.313,252.835,246.153,249.3Z" transform="translate(-225.965 -247.416)" fill="#ffcd50"/>
      <g id="Group_1430" data-name="Group 1430" transform="translate(0.692 0.005)">
        <path id="Path_1200" data-name="Path 1200" d="M236.2,261.741c-1.16.376-2.3.708-3.435,1.013,7.917,3.109,15.927,1.471,18.149-3.829a7.86,7.86,0,0,0,.419-4.515A56.631,56.631,0,0,1,236.2,261.741Z" transform="translate(-220.8 -240.731)" fill="#ffe36c"/>
        <path id="Path_1201" data-name="Path 1201" d="M236.719,251.549a66.536,66.536,0,0,1,9.259-2.314c-8.113-3.439-16.484-1.857-18.765,3.582a7.557,7.557,0,0,0-.561,2.96A64.316,64.316,0,0,1,236.719,251.549Z" transform="translate(-226.651 -247.419)" fill="#ffe36c"/>
      </g>
      <path id="Path_1202" data-name="Path 1202" d="M243.455,249.938c-6.076-2.633-12.394-1.457-14.1,2.622s1.835,9.52,7.914,12.149,12.388,1.459,14.1-2.616S249.531,252.573,243.455,249.938Z" transform="translate(-223.786 -246.348)" fill="#ffae39"/>
      <path id="Path_1203" data-name="Path 1203" d="M243.076,250.16c-5.908-2.563-12.073-1.354-13.763,2.7s1.716,9.412,7.63,11.971,12.067,1.364,13.761-2.682S248.984,252.732,243.076,250.16Z" transform="translate(-223.829 -246.078)" fill="#ffe66c"/>
    </g>
    <g id="Group_1433" data-name="Group 1433" transform="translate(1363.901 440.311)">
      <path id="Path_1204" data-name="Path 1204" d="M385.595,111.415c-3.778-2.312-8.054-2.131-9.555.4s.346,6.464,4.122,8.774,8.054,2.13,9.557-.4S389.373,113.726,385.595,111.415Z" transform="translate(-375.518 -108.646)" fill="#ffae39"/>
      <path id="Path_1205" data-name="Path 1205" d="M385.851,110.829c-3.778-2.314-8.054-2.129-9.557.4s.348,6.462,4.124,8.774,8.054,2.131,9.555-.4S389.627,113.14,385.851,110.829Z" transform="translate(-375.275 -109.207)" fill="#ffcd50"/>
      <g id="Group_1432" data-name="Group 1432" transform="translate(0.541 0.001)">
        <path id="Path_1206" data-name="Path 1206" d="M380.092,115.945c-.6.1-1.18.188-1.759.26,3.686,2.084,7.739,1.839,9.191-.612a3.921,3.921,0,0,0,.513-2.2A27.955,27.955,0,0,1,380.092,115.945Z" transform="translate(-373.368 -105.199)" fill="#ffe36c"/>
        <path id="Path_1207" data-name="Path 1207" d="M381.038,111.273a32.978,32.978,0,0,1,4.711-.489c-3.758-2.262-7.986-2.07-9.477.448a3.774,3.774,0,0,0-.477,1.416A32.065,32.065,0,0,1,381.038,111.273Z" transform="translate(-375.795 -109.207)" fill="#ffe36c"/>
      </g>
      <path id="Path_1208" data-name="Path 1208" d="M384.4,111.035c-2.811-1.722-6-1.587-7.117.3s.258,4.813,3.071,6.534,6,1.585,7.115-.3S387.216,112.759,384.4,111.035Z" transform="translate(-374.199 -108.613)" fill="#ffae39"/>
      <path id="Path_1209" data-name="Path 1209" d="M384.2,111.12c-2.735-1.675-5.848-1.512-6.955.362s.207,4.752,2.942,6.427,5.846,1.516,6.955-.356S386.936,112.8,384.2,111.12Z" transform="translate(-374.24 -108.484)" fill="#ffe66c"/>
    </g>
    <g id="Group_1439" data-name="Group 1439" transform="translate(927.59 479.684)">
      <path id="Path_1222" data-name="Path 1222" d="M628.016,220.929c-5.421-3.316-11.556-3.056-13.71.581s.5,9.273,5.914,12.587,11.554,3.054,13.71-.581S633.437,224.245,628.016,220.929Z" transform="translate(-613.556 -216.956)" fill="#ffae39"/>
      <path id="Path_1223" data-name="Path 1223" d="M628.379,220.089c-5.419-3.316-11.552-3.058-13.708.575s.495,9.279,5.914,12.591,11.554,3.058,13.708-.579S633.8,223.4,628.379,220.089Z" transform="translate(-613.205 -217.761)" fill="#ffcd50"/>
      <g id="Group_1438" data-name="Group 1438" transform="translate(0.781 0.002)">
        <path id="Path_1224" data-name="Path 1224" d="M620.119,227.429c-.857.151-1.694.27-2.524.374,5.29,2.985,11.1,2.641,13.186-.878a5.615,5.615,0,0,0,.736-3.148A40.04,40.04,0,0,1,620.119,227.429Z" transform="translate(-610.474 -212.011)" fill="#ffe36c"/>
        <path id="Path_1225" data-name="Path 1225" d="M621.473,220.728a46.8,46.8,0,0,1,6.763-.7c-5.392-3.246-11.461-2.972-13.6.638a5.468,5.468,0,0,0-.685,2.041A45.219,45.219,0,0,1,621.473,220.728Z" transform="translate(-613.955 -217.762)" fill="#ffe36c"/>
      </g>
      <path id="Path_1226" data-name="Path 1226" d="M626.3,220.39c-4.034-2.475-8.606-2.283-10.21.428s.374,6.908,4.406,9.375,8.608,2.277,10.21-.43S630.34,222.857,626.3,220.39Z" transform="translate(-611.662 -216.909)" fill="#ffae39"/>
      <path id="Path_1227" data-name="Path 1227" d="M626.019,220.508c-3.925-2.406-8.391-2.172-9.979.516s.3,6.82,4.22,9.224,8.389,2.173,9.978-.515S629.939,222.92,626.019,220.508Z" transform="translate(-611.721 -216.725)" fill="#ffe66c"/>
    </g>
    <g id="Group_1441" data-name="Group 1441" transform="translate(558.771 503.878)">
      <path id="Path_1228" data-name="Path 1228" d="M435.579,232.508c-7.139,2.831-11.433,9.005-9.6,13.792s9.107,6.378,16.242,3.551,11.433-9.007,9.6-13.8S442.716,229.679,435.579,232.508Z" transform="translate(-424.534 -229.192)" fill="#ffae39"/>
      <path id="Path_1229" data-name="Path 1229" d="M435.057,231.53c-7.139,2.827-11.433,9-9.6,13.787s9.1,6.378,16.246,3.545,11.433-9,9.594-13.785S442.192,228.7,435.057,231.53Z" transform="translate(-425.033 -230.128)" fill="#ffcd50"/>
      <g id="Group_1440" data-name="Group 1440" transform="translate(0.001 1.465)">
        <path id="Path_1230" data-name="Path 1230" d="M435.4,244.914c-.487.943-.992,1.851-1.51,2.735,6.726-2.946,10.7-8.868,8.929-13.5A6.594,6.594,0,0,0,440.4,231.1,50.363,50.363,0,0,1,435.4,244.914Z" transform="translate(-416.561 -230.662)" fill="#ffe36c"/>
        <path id="Path_1231" data-name="Path 1231" d="M430.571,237.986a58.716,58.716,0,0,1,4.343-7.109c-7.051,2.858-11.275,8.972-9.459,13.724a6.534,6.534,0,0,0,1.412,2.177A57.581,57.581,0,0,1,430.571,237.986Z" transform="translate(-425.034 -230.877)" fill="#ffe36c"/>
      </g>
      <path id="Path_1232" data-name="Path 1232" d="M434.162,232.057c-5.319,2.1-8.514,6.706-7.156,10.271s6.783,4.744,12.1,2.641,8.514-6.7,7.149-10.271S439.474,229.95,434.162,232.057Z" transform="translate(-423.445 -229.283)" fill="#ffae39"/>
      <path id="Path_1233" data-name="Path 1233" d="M434.058,232.32c-5.171,2.038-8.258,6.569-6.9,10.1s6.644,4.758,11.817,2.708,8.258-6.568,6.9-10.107S439.227,230.28,434.058,232.32Z" transform="translate(-423.308 -228.981)" fill="#ffe66c"/>
    </g>
    <g id="Group_1443" data-name="Group 1443" transform="translate(214.08 364.046)">
      <path id="Path_1234" data-name="Path 1234" d="M256.952,160.483c-5.49,2.175-8.79,6.922-7.381,10.6s7,4.9,12.485,2.729,8.792-6.924,7.381-10.607S262.438,158.307,256.952,160.483Z" transform="translate(-248.46 -157.933)" fill="#ffae39"/>
      <path id="Path_1235" data-name="Path 1235" d="M256.552,159.731c-5.49,2.174-8.792,6.922-7.383,10.6s7,4.907,12.489,2.729,8.79-6.918,7.377-10.6S262.038,157.556,256.552,159.731Z" transform="translate(-248.844 -158.653)" fill="#ffcd50"/>
      <g id="Group_1442" data-name="Group 1442" transform="translate(0.001 1.127)">
        <path id="Path_1236" data-name="Path 1236" d="M256.819,170.022q-.563,1.083-1.164,2.1c5.173-2.265,8.23-6.818,6.867-10.38a5.087,5.087,0,0,0-1.862-2.342A38.729,38.729,0,0,1,256.819,170.022Z" transform="translate(-242.331 -159.065)" fill="#ffe36c"/>
        <path id="Path_1237" data-name="Path 1237" d="M253.1,164.693a44.892,44.892,0,0,1,3.338-5.464c-5.419,2.2-8.669,6.9-7.272,10.549a5.031,5.031,0,0,0,1.084,1.675A44.218,44.218,0,0,1,253.1,164.693Z" transform="translate(-248.844 -159.229)" fill="#ffe36c"/>
      </g>
      <path id="Path_1238" data-name="Path 1238" d="M255.861,160.136c-4.089,1.616-6.546,5.155-5.5,7.9s5.214,3.649,9.3,2.031,6.546-5.155,5.5-7.9S259.946,158.516,255.861,160.136Z" transform="translate(-247.623 -158.003)" fill="#ffae39"/>
      <path id="Path_1239" data-name="Path 1239" d="M255.782,160.338c-3.973,1.567-6.348,5.051-5.306,7.767s5.11,3.66,9.085,2.084,6.348-5.049,5.306-7.771S259.759,158.769,255.782,160.338Z" transform="translate(-247.518 -157.771)" fill="#ffe66c"/>
    </g>
    <g id="Group_1445" data-name="Group 1445" transform="translate(994.984 358.344)">
      <path id="Path_1240" data-name="Path 1240" d="M656.126,157.57c-5.5,2.179-8.8,6.935-7.4,10.623s7.014,4.91,12.511,2.735,8.806-6.937,7.4-10.627S661.623,155.391,656.126,157.57Z" transform="translate(-647.62 -155.018)" fill="#ffae39"/>
      <path id="Path_1241" data-name="Path 1241" d="M655.725,156.818c-5.5,2.177-8.808,6.933-7.4,10.617s7.01,4.914,12.511,2.731,8.8-6.929,7.391-10.617S661.221,154.64,655.725,156.818Z" transform="translate(-648.005 -155.738)" fill="#ffcd50"/>
      <g id="Group_1444" data-name="Group 1444" transform="translate(0.001 1.128)">
        <path id="Path_1242" data-name="Path 1242" d="M655.992,167.125c-.378.726-.767,1.426-1.164,2.107,5.181-2.269,8.244-6.83,6.879-10.4a5.1,5.1,0,0,0-1.868-2.344A38.843,38.843,0,0,1,655.992,167.125Z" transform="translate(-641.48 -156.15)" fill="#ffe36c"/>
        <path id="Path_1243" data-name="Path 1243" d="M652.27,161.789a45.059,45.059,0,0,1,3.343-5.474c-5.429,2.2-8.684,6.91-7.283,10.568a5.054,5.054,0,0,0,1.088,1.679A44.163,44.163,0,0,1,652.27,161.789Z" transform="translate(-648.005 -156.315)" fill="#ffe36c"/>
      </g>
      <path id="Path_1244" data-name="Path 1244" d="M655.035,157.223c-4.095,1.62-6.556,5.165-5.513,7.91s5.228,3.654,9.322,2.037,6.556-5.167,5.505-7.912S659.126,155.6,655.035,157.223Z" transform="translate(-646.782 -155.088)" fill="#ffae39"/>
      <path id="Path_1245" data-name="Path 1245" d="M654.955,157.425c-3.981,1.571-6.36,5.061-5.316,7.782s5.118,3.664,9.1,2.085,6.36-5.057,5.315-7.784S658.936,155.854,654.955,157.425Z" transform="translate(-646.676 -154.855)" fill="#ffe66c"/>
    </g>
    <g id="Group_1451" data-name="Group 1451" transform="translate(1203.266 349.266)">
      <path id="Path_1258" data-name="Path 1258" d="M768.937,152.309c-7.422-.831-13.873,2.534-14.417,7.51s5.042,9.692,12.46,10.523,13.871-2.532,14.413-7.514S776.358,153.14,768.937,152.309Z" transform="translate(-754.452 -150.061)" fill="#ffae39"/>
      <path id="Path_1259" data-name="Path 1259" d="M768.922,151.225c-7.425-.835-13.871,2.532-14.419,7.509s5.04,9.692,12.462,10.519,13.873-2.53,14.415-7.51S776.34,152.053,768.922,151.225Z" transform="translate(-754.468 -151.098)" fill="#ffcd50"/>
      <g id="Group_1450" data-name="Group 1450" transform="translate(0.002 0.004)">
        <path id="Path_1260" data-name="Path 1260" d="M763.742,164.271c-.845.591-1.688,1.143-2.526,1.667,7.119.55,13.182-2.751,13.71-7.569a6.654,6.654,0,0,0-.743-3.742A48.3,48.3,0,0,1,763.742,164.271Z" transform="translate(-748.016 -147.728)" fill="#ffe36c"/>
        <path id="Path_1261" data-name="Path 1261" d="M761.86,155.361a56.981,56.981,0,0,1,6.906-4.151c-7.356-.767-13.724,2.577-14.264,7.522a6.374,6.374,0,0,0,.254,2.526A54.889,54.889,0,0,1,761.86,155.361Z" transform="translate(-754.469 -151.1)" fill="#ffe36c"/>
      </g>
      <path id="Path_1262" data-name="Path 1262" d="M767.111,151.974c-5.525-.62-10.333,1.888-10.737,5.6s3.756,7.213,9.283,7.833,10.332-1.886,10.731-5.591S772.639,152.6,767.111,151.974Z" transform="translate(-752.67 -150.35)" fill="#ffae39"/>
      <path id="Path_1263" data-name="Path 1263" d="M766.856,152.228c-5.374-.6-10.05,1.894-10.447,5.574s3.633,7.16,9.007,7.761,10.05-1.882,10.449-5.56S772.231,152.84,766.856,152.228Z" transform="translate(-752.637 -150.103)" fill="#ffe66c"/>
    </g>
    <g id="Group_1453" data-name="Group 1453" transform="translate(988.401 556.7)">
      <path id="Path_1264" data-name="Path 1264" d="M659.1,311.41c-5.421-3.314-11.558-3.056-13.712.581s.5,9.273,5.916,12.587,11.552,3.056,13.708-.581S664.52,314.728,659.1,311.41Z" transform="translate(-644.639 -307.439)" fill="#ffae39"/>
      <path id="Path_1265" data-name="Path 1265" d="M659.462,310.573c-5.419-3.318-11.552-3.06-13.708.573s.5,9.279,5.916,12.589,11.554,3.062,13.708-.577S664.883,313.885,659.462,310.573Z" transform="translate(-644.289 -308.243)" fill="#ffcd50"/>
      <g id="Group_1452" data-name="Group 1452" transform="translate(0.78 0.002)">
        <path id="Path_1266" data-name="Path 1266" d="M651.2,317.911c-.857.153-1.692.272-2.522.374,5.29,2.985,11.1,2.641,13.186-.878a5.6,5.6,0,0,0,.734-3.148A39.96,39.96,0,0,1,651.2,317.911Z" transform="translate(-641.556 -302.493)" fill="#ffe36c"/>
        <path id="Path_1267" data-name="Path 1267" d="M652.556,311.21a47.075,47.075,0,0,1,6.763-.7c-5.392-3.244-11.46-2.968-13.6.64a5.455,5.455,0,0,0-.685,2.04A45.462,45.462,0,0,1,652.556,311.21Z" transform="translate(-645.038 -308.244)" fill="#ffe36c"/>
      </g>
      <path id="Path_1268" data-name="Path 1268" d="M657.385,310.871c-4.032-2.473-8.6-2.281-10.208.43s.374,6.906,4.406,9.375,8.606,2.275,10.21-.43S661.422,313.338,657.385,310.871Z" transform="translate(-642.745 -307.391)" fill="#ffae39"/>
      <path id="Path_1269" data-name="Path 1269" d="M657.1,310.992c-3.923-2.408-8.389-2.175-9.978.514s.3,6.822,4.218,9.224,8.391,2.175,9.979-.515S661.022,313.4,657.1,310.992Z" transform="translate(-642.804 -307.207)" fill="#ffe66c"/>
    </g>
    <g id="Group_1457" data-name="Group 1457" transform="translate(749.395 493.44)">
      <path id="Path_1276" data-name="Path 1276" d="M540.921,242.475c3.76-6.789,3.238-14.33-1.158-16.856s-11.02.931-14.782,7.716-3.238,14.334,1.164,16.862S537.159,249.263,540.921,242.475Z" transform="translate(-522.471 -224.793)" fill="#ffae39"/>
      <path id="Path_1277" data-name="Path 1277" d="M541.933,242.9c3.766-6.787,3.24-14.332-1.156-16.854s-11.018.929-14.779,7.72-3.242,14.326,1.16,16.848S538.174,249.681,541.933,242.9Z" transform="translate(-521.502 -224.388)" fill="#ffcd50"/>
      <g id="Group_1456" data-name="Group 1456" transform="translate(1.992 0.877)">
        <path id="Path_1278" data-name="Path 1278" d="M526.189,233.006q-.311-1.567-.532-3.091c-3.371,6.615-2.762,13.755,1.5,16.2a6.441,6.441,0,0,0,3.772.8A50.5,50.5,0,0,1,526.189,233.006Z" transform="translate(-523.489 -220.771)" fill="#ffe36c"/>
        <path id="Path_1279" data-name="Path 1279" d="M533.682,234.432a59.438,59.438,0,0,1,1.068,8.3c3.674-6.753,3.138-14.207-1.231-16.713a6.385,6.385,0,0,0-2.447-.777A57.91,57.91,0,0,1,533.682,234.432Z" transform="translate(-516.237 -225.241)" fill="#ffe36c"/>
      </g>
      <path id="Path_1280" data-name="Path 1280" d="M538.919,240.377c2.809-5.053,2.412-10.676-.857-12.556-3.285-1.882-8.2.7-11.009,5.748s-2.414,10.674.863,12.552S536.12,245.43,538.919,240.377Z" transform="translate(-519.878 -222.486)" fill="#ffae39"/>
      <path id="Path_1281" data-name="Path 1281" d="M538.65,240.026c2.729-4.907,2.295-10.4-.955-12.264s-8.1.6-10.828,5.517-2.3,10.4.955,12.264S535.919,244.934,538.65,240.026Z" transform="translate(-519.985 -222.551)" fill="#ffe66c"/>
    </g>
    <g id="Group_1459" data-name="Group 1459" transform="translate(1157.027 432.272)">
      <path id="Path_1282" data-name="Path 1282" d="M738.956,246.475c-5.5,2.179-8.8,6.935-7.4,10.623s7.016,4.91,12.511,2.733,8.808-6.935,7.4-10.627S744.451,244.3,738.956,246.475Z" transform="translate(-730.449 -243.922)" fill="#ffae39"/>
      <path id="Path_1283" data-name="Path 1283" d="M738.553,245.72c-5.5,2.179-8.806,6.935-7.4,10.619s7.012,4.912,12.511,2.731,8.806-6.929,7.391-10.617S744.049,243.544,738.553,245.72Z" transform="translate(-730.833 -244.642)" fill="#ffcd50"/>
      <g id="Group_1458" data-name="Group 1458" transform="translate(0 1.127)">
        <path id="Path_1284" data-name="Path 1284" d="M738.82,256.029q-.563,1.089-1.164,2.105c5.181-2.267,8.244-6.828,6.879-10.4a5.113,5.113,0,0,0-1.866-2.344A38.814,38.814,0,0,1,738.82,256.029Z" transform="translate(-724.308 -245.052)" fill="#ffe36c"/>
        <path id="Path_1285" data-name="Path 1285" d="M735.1,250.694a45.474,45.474,0,0,1,3.345-5.476c-5.429,2.2-8.686,6.912-7.286,10.57a5.087,5.087,0,0,0,1.088,1.679A44.194,44.194,0,0,1,735.1,250.694Z" transform="translate(-730.833 -245.218)" fill="#ffe36c"/>
      </g>
      <path id="Path_1286" data-name="Path 1286" d="M737.864,246.126c-4.1,1.62-6.558,5.165-5.513,7.912s5.225,3.655,9.32,2.035,6.558-5.165,5.505-7.91S741.955,244.5,737.864,246.126Z" transform="translate(-729.61 -243.991)" fill="#ffae39"/>
      <path id="Path_1287" data-name="Path 1287" d="M737.782,246.33c-3.981,1.571-6.36,5.061-5.314,7.783s5.116,3.664,9.1,2.085,6.358-5.057,5.316-7.784S741.765,244.759,737.782,246.33Z" transform="translate(-729.504 -243.759)" fill="#ffe66c"/>
    </g>
    <g id="Group_1461" data-name="Group 1461" transform="translate(335.907 452.358)">
      <path id="Path_1288" data-name="Path 1288" d="M318.568,205.474c-5.045,2-8.078,6.366-6.785,9.752s6.436,4.507,11.478,2.51,8.084-6.368,6.789-9.754S323.614,203.477,318.568,205.474Z" transform="translate(-310.763 -203.132)" fill="#ffae39"/>
      <path id="Path_1289" data-name="Path 1289" d="M318.2,204.784c-5.048,2-8.082,6.366-6.787,9.743s6.435,4.513,11.482,2.506c5.044-1.99,8.082-6.358,6.783-9.741S323.245,202.785,318.2,204.784Z" transform="translate(-311.116 -203.794)" fill="#ffcd50"/>
      <g id="Group_1460" data-name="Group 1460" transform="translate(0.001 1.036)">
        <path id="Path_1290" data-name="Path 1290" d="M318.448,214.249c-.346.659-.7,1.307-1.07,1.929,4.756-2.084,7.567-6.266,6.313-9.543a4.7,4.7,0,0,0-1.714-2.154A35.663,35.663,0,0,1,318.448,214.249Z" transform="translate(-305.128 -204.172)" fill="#ffe36c"/>
        <path id="Path_1291" data-name="Path 1291" d="M315.03,209.349a41.317,41.317,0,0,1,3.07-5.026c-4.983,2.019-7.97,6.343-6.685,9.7a4.525,4.525,0,0,0,1,1.54A40.3,40.3,0,0,1,315.03,209.349Z" transform="translate(-311.117 -204.323)" fill="#ffe36c"/>
      </g>
      <path id="Path_1292" data-name="Path 1292" d="M317.569,205.157c-3.76,1.487-6.018,4.74-5.059,7.26s4.8,3.355,8.553,1.868,6.018-4.742,5.053-7.26S321.323,203.666,317.569,205.157Z" transform="translate(-309.994 -203.196)" fill="#ffae39"/>
      <path id="Path_1293" data-name="Path 1293" d="M317.5,205.343c-3.655,1.442-5.838,4.644-4.879,7.143s4.7,3.363,8.352,1.911,5.838-4.639,4.879-7.143S321.15,203.9,317.5,205.343Z" transform="translate(-309.898 -202.983)" fill="#ffe66c"/>
    </g>
    <g id="Group_1463" data-name="Group 1463" transform="translate(258.092 691.535)">
      <path id="Path_1294" data-name="Path 1294" d="M278.794,378.848c-5.045,2-8.08,6.366-6.787,9.749s6.436,4.507,11.48,2.51,8.082-6.366,6.789-9.754S283.84,376.846,278.794,378.848Z" transform="translate(-270.988 -376.503)" fill="#ffae39"/>
      <path id="Path_1295" data-name="Path 1295" d="M278.425,378.157c-5.045,2-8.08,6.362-6.787,9.743s6.436,4.509,11.482,2.508,8.084-6.358,6.785-9.745S283.469,376.154,278.425,378.157Z" transform="translate(-271.341 -377.165)" fill="#ffcd50"/>
      <g id="Group_1462" data-name="Group 1462" transform="translate(0 1.034)">
        <path id="Path_1296" data-name="Path 1296" d="M278.671,387.618c-.344.665-.7,1.307-1.068,1.929,4.754-2.082,7.567-6.266,6.313-9.541a4.7,4.7,0,0,0-1.714-2.154A35.688,35.688,0,0,1,278.671,387.618Z" transform="translate(-265.352 -377.541)" fill="#ffe36c"/>
        <path id="Path_1297" data-name="Path 1297" d="M275.254,382.719a41.633,41.633,0,0,1,3.072-5.026c-4.985,2.023-7.97,6.343-6.687,9.7a4.631,4.631,0,0,0,1,1.542A40.59,40.59,0,0,1,275.254,382.719Z" transform="translate(-271.341 -377.693)" fill="#ffe36c"/>
      </g>
      <path id="Path_1298" data-name="Path 1298" d="M277.792,378.527c-3.76,1.487-6.018,4.742-5.057,7.26s4.8,3.355,8.551,1.868,6.02-4.738,5.053-7.26S281.549,377.036,277.792,378.527Z" transform="translate(-270.219 -376.568)" fill="#ffae39"/>
      <path id="Path_1299" data-name="Path 1299" d="M277.721,378.715c-3.656,1.44-5.84,4.642-4.881,7.143s4.7,3.365,8.354,1.913,5.838-4.642,4.879-7.145S281.376,377.271,277.721,378.715Z" transform="translate(-270.122 -376.354)" fill="#ffe66c"/>
    </g>
    <g id="Group_1469" data-name="Group 1469" transform="translate(0 314.818)">
      <path id="Path_1312" data-name="Path 1312" d="M151.161,134.96c-7.244,1.577-12.286,6.794-11.263,11.656s7.724,7.524,14.966,5.945,12.28-6.793,11.261-11.654S158.4,133.385,151.161,134.96Z" transform="translate(-139.082 -132.518)" fill="#ffae39"/>
      <path id="Path_1313" data-name="Path 1313" d="M150.811,133.944c-7.241,1.575-12.284,6.793-11.263,11.654s7.724,7.522,14.966,5.941,12.284-6.789,11.261-11.65S158.052,132.367,150.811,133.944Z" transform="translate(-139.417 -133.49)" fill="#ffcd50"/>
      <g id="Group_1468" data-name="Group 1468" transform="translate(0 0.487)">
        <path id="Path_1314" data-name="Path 1314" d="M149.346,147.483c-.612.824-1.236,1.6-1.864,2.367,6.873-1.747,11.57-6.775,10.58-11.482a6.522,6.522,0,0,0-1.849-3.289A48.7,48.7,0,0,1,149.346,147.483Z" transform="translate(-131.703 -132.457)" fill="#ffe36c"/>
        <path id="Path_1315" data-name="Path 1315" d="M145.439,139.847a56.731,56.731,0,0,1,5.225-6.108c-7.164,1.62-12.131,6.793-11.116,11.621a6.3,6.3,0,0,0,1.017,2.295A55.358,55.358,0,0,1,145.439,139.847Z" transform="translate(-139.417 -133.739)" fill="#ffe36c"/>
      </g>
      <path id="Path_1316" data-name="Path 1316" d="M149.619,134.612c-5.4,1.168-9.146,5.057-8.387,8.677s5.754,5.6,11.147,4.429,9.146-5.059,8.385-8.674S155.014,133.438,149.619,134.612Z" transform="translate(-137.774 -132.74)" fill="#ffae39"/>
      <path id="Path_1317" data-name="Path 1317" d="M149.465,134.878c-5.247,1.137-8.882,4.975-8.125,8.567s5.623,5.585,10.87,4.449,8.884-4.973,8.125-8.561S154.713,133.746,149.465,134.878Z" transform="translate(-137.673 -132.466)" fill="#ffe66c"/>
    </g>
  </g>
</svg>
