<svg xmlns="http://www.w3.org/2000/svg" width="398.714" height="501.112" viewBox="0 0 398.714 501.112">
  <g id="Group_1996" data-name="Group 1996" transform="translate(-383 -2879.161)">
    <g id="Group_1564" data-name="Group 1564" transform="translate(-221.711 -31.192)">
      <ellipse id="Ellipse_194" data-name="Ellipse 194" cx="190.694" cy="33.026" rx="190.694" ry="33.026" transform="translate(622.038 3345.413)" fill="#181c1f"/>
      <g id="Group_1554" data-name="Group 1554" transform="translate(693.928 3047.131)">
        <g id="Layer_3" data-name="Layer 3" transform="translate(0 57.146)">
          <path id="Path_1866" data-name="Path 1866" d="M3268.229,1087.557l-61.021,48.516-104.771,6.023-76.646-54.539V941.674h242.438Z" transform="translate(-3023.519 -863.319)" fill="#c0902e"/>
          <path id="Path_1867" data-name="Path 1867" d="M3012.056,1020.743c41.126,75.94,214.526,70.933,244.581-2.269,5.261,26.693-5.29,45.752-26.368,60.053-48.752,33.078-141.625,33.392-190.6.787C3019.537,1065.915,3007.333,1048.642,3012.056,1020.743Z" transform="translate(-3011.042 -928.287)" fill="#e3ae59"/>
          <path id="Path_1868" data-name="Path 1868" d="M3012.056,1273.925c41.126,75.94,214.526,70.933,244.581-2.269,5.261,26.693-5.29,45.752-26.368,60.053-48.752,33.078-141.625,33.392-190.6.787C3019.537,1319.1,3007.333,1301.824,3012.056,1273.925Z" transform="translate(-3011.042 -1142.46)" fill="#e3ae59"/>
          <path id="Path_1869" data-name="Path 1869" d="M3013.826,1784.561c28.552,43.823,73.847,52.535,121.066,52.3,48.106-.241,94.544-8.564,122.4-55.9,4.229,24.464-4.515,43.211-24.495,57.511-49.356,35.326-146.267,35.628-195.743.431C3014.835,1823.093,3006.934,1803.87,3013.826,1784.561Z" transform="translate(-3011.354 -1573.293)" fill="#e3ae59"/>
          <path id="Path_1870" data-name="Path 1870" d="M3012.056,1527.107c41.126,75.94,214.526,70.933,244.581-2.269,5.261,26.693-5.29,45.752-26.368,60.053-48.752,33.078-141.625,33.392-190.6.787C3019.537,1572.279,3007.333,1555.006,3012.056,1527.107Z" transform="translate(-3011.042 -1356.633)" fill="#e3ae59"/>
          <ellipse id="Ellipse_189" data-name="Ellipse 189" cx="123.463" cy="68.281" rx="123.463" ry="68.281" transform="translate(0.057)" fill="#fbca47"/>
          <path id="Path_1871" data-name="Path 1871" d="M3464.286,661.8c-4.493.508-7.589,1.814-9.69,3.7a22.074,22.074,0,0,0-2.149,2.542c-.054.064-.128.126-.275.268-.254-.217-.437-.376-.627-.532-2.75-2.257-6.853-3.428-12.314-3.609a47.823,47.823,0,0,0-9.57.563,23.2,23.2,0,0,0-10.375,4.2,23.874,23.874,0,0,0-6.274,7.133c-.59.969-.58.97-2.44.97-3.272,0-6.595.092-9.819.092l-3.264,6.614h11.805c-.106.616-.341.741-.509,1.186-.451,1.2-.914,2.341-1.334,3.593-.151.447-.477.528-1.26.526-3.807-.01-7.329-.047-11.414-.047l-3.923,7.838h13.587l-6.266,16.178h16.64c.49-1.695.937-3.42,1.506-4.975,1.1-3.009,4.568-4.874,9.084-4.874q31.253,0,62.507-.048c4.121,0,6.457,1.425,7.226,4.11.521,1.821,1.015,3.476,1.584,5.787h18.534l-6.465-16.178h11.957l-3.915-7.834c-3.574,0-6.519,0-9.712,0-.456,0-1.063.279-1.247-.161-.747-1.789-1.541-3.711-2.2-5.1h10.44l-3.268-6.621c-1.38,0-2.833-.041-4.191-.039-1.555,0-3.183-.044-4.723-.013-.848.017-1.218-.124-1.5-.577a58.7,58.7,0,0,0-3.9-5.928,20.582,20.582,0,0,0-7.933-5.982,35.873,35.873,0,0,0-10.8-2.676A61.255,61.255,0,0,0,3464.286,661.8ZM3422.6,688.276c.853-2.59,1.439-5.079,2.435-7.448a10.536,10.536,0,0,1,5.131-5.393c3.391-1.793,9.57-2.246,13.1-.9a7.26,7.26,0,0,1,4.386,3.766c1.382,3.119,1.19,6.483.873,10.062-.043.476-.482.491-1.1.49q-6.012-.009-12.025,0c-3.933,0-7.866-.007-11.8.006C3422.845,688.859,3422.431,688.79,3422.6,688.276Zm55.716-16.332a11.923,11.923,0,0,1,5.68,3.369,19.105,19.105,0,0,1,4.272,7.571c.665,1.977,1.14,3.943,1.778,6.562h-1.332c-8.609,0-17.216-.311-25.823-.283-1.146,0-1.473-.325-1.474-.961,0-2.8-.193-5.55-.1-8.1a8.723,8.723,0,0,1,3.012-6.352C3467.042,671.3,3473.141,670.517,3478.316,671.945Z" transform="translate(-3332.333 -626.295)" fill="#fff"/>
          <path id="Path_1872" data-name="Path 1872" d="M3250.866,635.191c-27.192,0-52.775-5.2-72.037-14.639-9.435-4.624-16.856-10.024-22.057-16.051-5.47-6.338-8.243-13.1-8.243-20.088s2.773-13.75,8.243-20.088c5.2-6.026,12.622-11.427,22.057-16.05,19.262-9.44,44.845-14.639,72.037-14.639s52.774,5.2,72.037,14.639c9.435,4.624,16.856,10.024,22.057,16.05,5.47,6.338,8.243,13.1,8.243,20.088s-2.773,13.75-8.243,20.088c-5.2,6.026-12.622,11.427-22.057,16.051C3303.64,629.992,3278.057,635.191,3250.866,635.191Zm0-99.111c-26.826,0-52.027,5.11-70.961,14.39-18.656,9.143-28.931,21.2-28.931,33.943s10.275,24.8,28.931,33.944c18.934,9.279,44.135,14.39,70.961,14.39s52.027-5.11,70.961-14.39c18.656-9.143,28.931-21.2,28.931-33.944s-10.275-24.8-28.931-33.943C3302.893,541.191,3277.692,536.08,3250.866,536.08Z" transform="translate(-3127.346 -518.15)" fill="#fff"/>
        </g>
        <g id="Layer_4" data-name="Layer 4" transform="translate(85.963 0)">
          <path id="Path_1873" data-name="Path 1873" d="M4036.949,883.133a9.289,9.289,0,0,0-1.535-4.256l.092-.191-.418-.32c-1.682-2.515-5.008-5.976-10.716-9.638-5.381-4.1-11.186-7.045-12.545-8.013-8.441-6.013-27.861-17.121-27.861-17.121h-70.833s-16.758,11.108-25.2,17.121c-1.359.968-7.165,3.914-12.546,8.013-5.708,3.662-9.034,7.123-10.715,9.638l-.418.32.091.191a9.3,9.3,0,0,0-1.535,4.256c-2.652,7.022,8.895,28.867,8.895,28.867l30.466,69.67c18.49,2.808,19.812-4.178,19.812-4.178-.468-3.979-4.885-29.231-4.885-29.231-6.294-26.095-16.6-39.982-21.621-47.1a3.1,3.1,0,0,1,1.444-4.691c3.608-1.358,7.4-2.823,11.1-4.321a216.243,216.243,0,0,0,30.007-14.47l23.825.074c-.009.1.1.158.3.179a218.356,218.356,0,0,0,29.583,14.217c3.883,1.57,7.856,3.1,11.619,4.515a2.718,2.718,0,0,1,1.308,4.049c-4.577,6.9-14.031,20.486-20.452,47.108,0,0-5.131,25.361-5.6,29.339,0,0,.486,7.322,18.977,4.514L4028.056,912S4039.6,890.154,4036.949,883.133Z" transform="translate(-3862.416 -714.83)" fill="#65584c"/>
          <path id="Path_1874" data-name="Path 1874" d="M4527.191,1581.729s-.649,11.973,2.114,18.253l-21.921-2.194s3.444-6.514-.017-16.06Z" transform="translate(-4389.717 -1318.317)" fill="#eed3b6"/>
          <path id="Path_1875" data-name="Path 1875" d="M4061.144,1571.085s.649,11.974-2.114,18.253l21.921-2.194s-3.445-6.514.016-16.06Z" transform="translate(-4023.164 -1309.614)" fill="#eed3b6"/>
          <path id="Path_1876" data-name="Path 1876" d="M3927.434,1647.991a8.636,8.636,0,0,1-3.806-1.106c-.651.615-1.449,1.337-2.358,2.129a1.049,1.049,0,0,1-.122.108c-.613.531-1.288,1.1-2.01,1.689-.025.023-.049.035-.073.059-.271.225-.553.448-.846.683a1.816,1.816,0,0,0-.183.143c-.625.495-1.286,1-1.972,1.5l-.44.318c-.257.189-.525.377-.8.565-.2.142-.391.283-.6.423-.562.389-1.137.789-1.735,1.152-.28.2-.586.388-.878.576a51.513,51.513,0,0,1-7.352,3.886c-.449.2-.9.394-1.373.566-9.07,3.479-9.875,8.537-9.595,11.124a6.081,6.081,0,0,0,.4,1.7,21.336,21.336,0,0,0,8.461,1.989c17.558.381,44.951-9.067,44.951-9.067s1.962-2.343,1.3-7.736c-.032-.255-.064-.508-.106-.776-.055-.363-2.567-10.573-3.542-13.477a93.273,93.273,0,0,1-12.362,3.217c-.583.121-1.114.208-1.6.273-.326.042-.642.073-.931.1a9.816,9.816,0,0,1-1.546.022h-.048l-.182,0a.094.094,0,0,0-.059-.014Z" transform="translate(-3887.628 -1369.581)" fill="#262626"/>
          <path id="Path_1877" data-name="Path 1877" d="M3901.863,1755.6a23.6,23.6,0,0,1-8.571-1.9,7.979,7.979,0,0,0,.011,1.533,6.07,6.07,0,0,0,.4,1.7,21.533,21.533,0,0,0,8.487,1.991c17.551.374,44.95-9.074,44.95-9.074a7.481,7.481,0,0,0,1.255-3.369C3941.265,1748.788,3917.814,1755.936,3901.863,1755.6Z" transform="translate(-3887.634 -1453.013)" fill="#3a3a3a"/>
          <path id="Path_1878" data-name="Path 1878" d="M4511.929,1658.636a8.631,8.631,0,0,0,3.805-1.106c.652.615,1.45,1.337,2.358,2.129a.986.986,0,0,0,.123.108c.613.531,1.287,1.1,2.01,1.689.025.023.049.035.073.059.271.225.553.448.846.683a1.814,1.814,0,0,1,.183.143c.625.495,1.286,1,1.972,1.5l.44.318c.257.189.526.377.8.565.2.142.391.283.6.423.561.389,1.137.789,1.735,1.152.28.2.585.388.878.576a51.437,51.437,0,0,0,7.352,3.886c.449.2.9.394,1.373.567,9.069,3.479,9.874,8.537,9.595,11.124a6.067,6.067,0,0,1-.4,1.7,21.335,21.335,0,0,1-8.461,1.989c-17.558.381-44.95-9.067-44.95-9.067s-1.963-2.343-1.3-7.736c.032-.255.064-.508.106-.776.055-.363,2.567-10.573,3.541-13.477a93.356,93.356,0,0,0,12.363,3.217c.583.121,1.114.208,1.6.273.326.042.642.072.931.1a9.771,9.771,0,0,0,1.546.022h.048l.181,0a.1.1,0,0,1,.061-.014Z" transform="translate(-4376.182 -1378.284)" fill="#262626"/>
          <path id="Path_1879" data-name="Path 1879" d="M4538.208,1766.24a23.6,23.6,0,0,0,8.571-1.9,7.979,7.979,0,0,1-.012,1.533,6.09,6.09,0,0,1-.4,1.7,21.532,21.532,0,0,1-8.488,1.991c-17.55.374-44.948-9.074-44.948-9.074a7.485,7.485,0,0,1-1.255-3.37C4498.806,1759.432,4522.257,1766.581,4538.208,1766.24Z" transform="translate(-4376.884 -1461.715)" fill="#3a3a3a"/>
          <rect id="Rectangle_971" data-name="Rectangle 971" width="29.473" height="11.059" rx="5.53" transform="translate(32.37 255.758)" fill="#51443a"/>
          <rect id="Rectangle_972" data-name="Rectangle 972" width="29.473" height="11.059" rx="5.53" transform="translate(142.977 267.141) rotate(180)" fill="#51443a"/>
          <path id="Path_1880" data-name="Path 1880" d="M4202.809,154.619l-16.143-5.96c-12.089-3.978-9.487-10.933-9.487-10.933h-25.05s2.6,6.955-9.487,10.933l-16.143,5.964,38.155,4.593Z" transform="translate(-4078.325 -137.726)" fill="#dcb89c"/>
          <path id="Path_1881" data-name="Path 1881" d="M4214.939,182.611l.08,0,7.062,36.452.05.253,5.712,29.485,2.006,47.692h12.4l2.853-45.918,6.033-31.144,7.062-36.5a18.024,18.024,0,0,0-5.435-1.926s1.367,9.849-14.116,10.245c-17.394.445-17.618-10.245-17.618-10.245a35.557,35.557,0,0,0-6.169,1.611l.084,0Z" transform="translate(-4150.564 -173.106)" fill="#e8d4db"/>
          <path id="Path_1882" data-name="Path 1882" d="M4072.057,260.047l-10.114-38.375c-6.49-25.909-42.089-32.96-42.089-32.96l-21.435,110.126-20.741-110.419s-36.293,7.344-42.783,33.253l-10.114,38.375a49.492,49.492,0,0,0-.416,18.6,27.887,27.887,0,0,0,5.27,12.464l8.228,10.948,17.411-3.8-10.555-18.009s.048-7.432,1.548-11.569l9-21.741,3.509,34.751,1.541,26.252h76.207l1.54-26.252,3.509-34.751,9,21.741c1.5,4.138,1.548,11.569,1.548,11.569l-10.555,18.009,17.411,3.8,8.228-10.948a27.888,27.888,0,0,0,5.27-12.464A49.492,49.492,0,0,0,4072.057,260.047Z" transform="translate(-3912.533 -179.172)" fill="#705a62"/>
          <rect id="Rectangle_973" data-name="Rectangle 973" width="137.449" height="86.489" rx="5" transform="translate(18.74 47.322)" fill="#f3f3f3"/>
          <g id="Group_1553" data-name="Group 1553" transform="translate(19.846 49.593)">
            <g id="Group_1552" data-name="Group 1552">
              <path id="Path_1883" data-name="Path 1883" d="M3971.211,491.093a6.2,6.2,0,0,0,5.17,2.817h125.075a6.177,6.177,0,0,0,6.124-6.239V413.555a6.1,6.1,0,0,0-1.419-3.966Z" transform="translate(-3971.211 -409.589)" fill="#dddddc"/>
            </g>
          </g>
          <rect id="Rectangle_974" data-name="Rectangle 974" width="138.908" height="7.808" rx="3.904" transform="translate(18.079 133.552)" fill="silver"/>
        </g>
      </g>
      <g id="Group_1557" data-name="Group 1557" transform="translate(832.493 2945.192)">
        <path id="Path_1843" data-name="Path 1843" d="M662.155,192.407c-3.815-7.025-11.411-6.45-12.6-1.248-1.115,4.843,11,18.837,13.8,16.185C666.346,204.5,663.727,195.3,662.155,192.407Z" transform="translate(-648.268 -118.347)" fill="#ffdeb3"/>
        <path id="Path_1844" data-name="Path 1844" d="M661.118,193.866c-2.565-4.722-7.672-4.338-8.47-.837-.751,3.255,7.394,12.664,9.275,10.881C663.935,201.994,662.176,195.814,661.118,193.866Z" transform="translate(-647.288 -117.351)" fill="#f9ad8f"/>
        <path id="Path_1845" data-name="Path 1845" d="M685.821,191.695c1.765-7.2,9.083-7.511,11.887-2.3s-5.648,21.776-9.254,18.494S685.078,194.724,685.821,191.695Z" transform="translate(-636.976 -118.773)" fill="#ffdeb3"/>
        <path id="Path_1846" data-name="Path 1846" d="M686.472,192.788c1.178-4.793,6.051-5,7.922-1.529s-3.769,14.508-6.174,12.321S685.976,194.8,686.472,192.788Z" transform="translate(-636.725 -117.814)" fill="#f9ad8f"/>
        <path id="Path_1847" data-name="Path 1847" d="M660.023,229.121c-1.449-31.847-20.633-52.231-5.976-62.156,0,0-6.477-14.322,7.081-15.472,0,0,4.672-15.777,16.256-5.558,0,0,6.565-14.32,12.872-10.445s.674,13.169.674,13.169,6.034-7.712,10.292-4.674-2.507,11.907-2.507,11.907,4.5-7.879,8.858-3.936-4.083,20.938-3.037,34.28c.891,11.46-2.515,22.588.141,40.854C691.013,237.142,660.023,229.121,660.023,229.121Z" transform="translate(-648.559 -134.825)" fill="#7a4e46"/>
        <path id="Path_1848" data-name="Path 1848" d="M704.531,178.671a32.479,32.479,0,0,1-.03-4.145c-5.988,2.841-9.419-15.814-23.128-15.653-19.919.235-23.967,14.411-31.779,5.661-4.876,11.117,9.192,29.912,10.425,57.022,0,0,30.99,8.021,44.653-2.031C702.016,201.259,705.423,190.13,704.531,178.671Z" transform="translate(-648.556 -127.259)" fill="#633933"/>
        <path id="Path_1849" data-name="Path 1849" d="M658.085,193.494c.226,14.874.436,24.064.539,27.5.295,9.686,9.195,17.713,20.774,17.713,11.022,0,21.243-9.878,21.007-17.713-.091-3.043-2.26-14.724-3.309-27.5-.812-9.882-2.591-37.135-20.184-37.135C659.793,156.359,657.841,177.732,658.085,193.494Z" transform="translate(-645.568 -128.049)" fill="#ffdeb3"/>
        <path id="Path_1850" data-name="Path 1850" d="M689.3,160.165c-.084-2.845-6.319-5.152-13.925-5.152s-13.7,2.307-13.617,5.152,6.322,5.151,13.929,5.151S689.383,163.011,689.3,160.165Z" transform="translate(-644.407 -128.473)" fill="#7a4e46"/>
        <path id="Path_1851" data-name="Path 1851" d="M662.763,186.179c-2.075,0-2.538-3.59-1.438-4.684s10.108-3.276,11.276-2.185,0,5.307-.483,5.464S663.734,186.179,662.763,186.179Z" transform="translate(-644.725 -120.922)" fill="#7a4e46"/>
        <path id="Path_1852" data-name="Path 1852" d="M684.8,186.419c1.818,0,2.018-3.592.994-4.684s-9.032-3.28-9.989-2.186.3,5.306.732,5.465S683.955,186.419,684.8,186.419Z" transform="translate(-640.096 -120.847)" fill="#7a4e46"/>
        <path id="Path_1853" data-name="Path 1853" d="M666.477,205.159H685.27s-.4,8.114-8.987,8.272C666.891,213.6,666.477,205.159,666.477,205.159Z" transform="translate(-642.922 -112.695)" fill="#4f322f"/>
        <path id="Path_1854" data-name="Path 1854" d="M682.5,209.347a9,9,0,0,0,1.375-3.982H667.347a8.776,8.776,0,0,0,1.411,3.982Z" transform="translate(-642.648 -112.63)" fill="#fff7e9"/>
        <path id="Path_1855" data-name="Path 1855" d="M669.237,205.493c1.245.819,6.882,2.458,10.926-.352l-4.247-19.9-4.365.235Z" transform="translate(-642.054 -118.964)" fill="#f9ad8f"/>
        <path id="Path_1856" data-name="Path 1856" d="M669.689,205.444a8.62,8.62,0,0,0,9.343-.468L675.6,183.9l-4.367.234Z" transform="translate(-641.911 -119.384)" fill="#ffdeb3"/>
        <path id="Path_1857" data-name="Path 1857" d="M682.947,190.378c-.063-2.1-1.148-3.806-2.423-3.806s-2.258,1.7-2.2,3.806,1.151,3.807,2.424,3.807S683.012,192.479,682.947,190.378Z" transform="translate(-639.194 -118.543)" fill="#56453e"/>
        <path id="Path_1858" data-name="Path 1858" d="M668.067,190.378c-.063-2.1-1.149-3.806-2.424-3.806s-2.259,1.7-2.2,3.806,1.15,3.807,2.424,3.807S668.132,192.479,668.067,190.378Z" transform="translate(-643.875 -118.543)" fill="#56453e"/>
        <path id="Path_1859" data-name="Path 1859" d="M677.155,213.484c-.016-.517-1.048-.234-2.56-.234s-2.924-.283-2.909.234,1.256.937,2.762.937S677.171,214,677.155,213.484Z" transform="translate(-641.283 -110.174)" fill="#f9ad8f"/>
      </g>
      <g id="Group_1563" data-name="Group 1563" transform="translate(604.711 3221.43)">
        <circle id="Ellipse_193" data-name="Ellipse 193" cx="89.148" cy="89.148" r="89.148" fill="#fbca47"/>
        <path id="Path_1902" data-name="Path 1902" d="M836.723,3256.273a70.691,70.691,0,1,1,27.6-5.573A70.464,70.464,0,0,1,836.723,3256.273Zm0-140.329a69.42,69.42,0,1,0,69.42,69.42A69.5,69.5,0,0,0,836.723,3115.944Z" transform="translate(-747.575 -3096.216)" fill="#fff"/>
        <path id="Path_1903" data-name="Path 1903" d="M1122.587,3374.672a14.286,14.286,0,0,0-7.938-9.467,51.75,51.75,0,0,0-5.109-1.95c-.126-.048-.246-.114-.524-.244.423-.241.736-.415,1.043-.6a14.332,14.332,0,0,0,7.372-11.937,20.452,20.452,0,0,0-1.187-9.02c-1.574-4.05-4.576-6.654-8.425-8.446a40.345,40.345,0,0,0-12.835-3.172c-1.616-.177-1.617-.066-1.617-1.639,0-2.767,0-5.931,0-8.2h-9.844v9.219c-.836,0-1.383-.007-2.026,0-1.716.023-3.452.03-5.167.091-.6.021-.785-.094-.782-.692.013-2.906.022-5.871.022-8.619h-9.727v9.557H1049v10.606c1.314.02,3.08.017,4.631.1a4.929,4.929,0,0,1,4.97,5.294q0,21.368-.008,42.738c0,2.817-1.318,4.172-4.111,4.182-1.834.006-3.811,0-5.483,0v11.976h16.844v8.123h9.7c0-2.389,0-4.818,0-7.253,0-.348-.09-.793.5-.8,2.45-.009,5.087.023,7.476.023v8.025h9.856c-.005-1.194-.008-2.244-.012-3.393-.005-1.316.035-2.607-.017-3.92-.028-.723.186-.952.938-1.033,3.492-.379,7.011-.64,10.451-1.312a25.168,25.168,0,0,0,11.837-5.312,18.241,18.241,0,0,0,5.778-9.7A26.6,26.6,0,0,0,1122.587,3374.672Zm-46.063-33.8c3.6.112,7.21.039,10.794.323a15.076,15.076,0,0,1,8.741,3.152c3.1,2.589,3.9,7.92,1.544,11.154a11,11,0,0,1-6.3,4.034c-4.9,1.31-9.893,1.315-14.9,1.233-.644-.011-.663-.345-.662-.818.008-3.061,0-6.122,0-9.182,0-3,.009-6.008-.009-9.011C1075.734,3341.181,1075.828,3340.851,1076.524,3340.872Zm25.671,45.435c-1.354,2.254-3.569,3.4-5.93,4.259a36.32,36.32,0,0,1-11.553,1.918c-2.911.087-5.847.017-8.834.017v-1.017c0-6.575-.049-13.151-.087-19.725,0-.875.2-1.119,1.068-1.1,3.912.1,7.813.05,11.721.227a22.378,22.378,0,0,1,10.467,2.9A9.013,9.013,0,0,1,1102.195,3386.307Z" transform="translate(-996.93 -3277.206)" fill="#fff"/>
      </g>
    </g>
    <g id="Group_1582" data-name="Group 1582">
      <g id="Group_1579" data-name="Group 1579" transform="translate(420.7 2987.722) rotate(-30)">
        <g id="Group_1578" data-name="Group 1578" transform="translate(0 0)">
          <g id="Group_1571" data-name="Group 1571" transform="translate(4.342 4.301)">
            <path id="Path_1904" data-name="Path 1904" d="M157.752,162.133h.873l.119-.864c.232-1.7.455-3.19.652-4.5.918-6.114,1.3-8.645-.623-11.664-1.936-3.041-4.595-4.936-7.167-6.769-2.769-1.973-5.383-3.835-7.236-7.058-1.738-3.019-1.658-6.343.207-8.675,2.249-2.812,6.5-3.588,11.372-2.081a37.167,37.167,0,0,1,6.33,2.629c4.535,2.306,5.068,1.482,10.162-6.412.528-.819,1.111-1.723,1.759-2.717l.483-.743L174,112.71c-10.662-8.934-23.739-11.689-34.972-7.37-8.258,3.174-13.822,9.59-14.884,17.161-1.2,8.591,3.555,17.408,13.4,24.827,6.14,4.63,5.886,7.616,5.7,9.8a3.783,3.783,0,0,0,.652,3.139C145.217,161.7,148.454,162.133,157.752,162.133Zm-6.458-44.367a10.23,10.23,0,0,0-8.279,3.588c-2.389,2.988-2.535,7.174-.38,10.921,2.072,3.6,4.99,5.68,7.811,7.69,2.526,1.8,4.914,3.5,6.639,6.213,1.521,2.388,1.2,4.541.334,10.294-.165,1.091-.346,2.3-.538,3.66-5.288-.016-10.569-.2-11.506-1.221-.236-.257-.207-.731-.132-1.617.2-2.344.533-6.268-6.49-11.563-9.24-6.962-13.723-15.113-12.624-22.953.959-6.84,6.051-12.662,13.621-15.571,10.31-3.965,22.32-1.54,32.286,6.475q-.687,1.059-1.276,1.973c-2.413,3.74-3.743,5.8-4.684,6.444-.571.39-.993.234-2.891-.731a38.973,38.973,0,0,0-6.644-2.757A17.835,17.835,0,0,0,151.294,117.766Z" transform="translate(-123.965 -103.336)" fill="#10d078"/>
          </g>
          <g id="Group_1572" data-name="Group 1572" transform="translate(22.387 73.629)">
            <path id="Path_1905" data-name="Path 1905" d="M146.6,192.2c4.988,0,10.038-3.36,10.038-9.782,0-6.4-5.05-9.755-10.038-9.755-5.016,0-10.094,3.351-10.094,9.755C136.506,188.841,141.584,192.2,146.6,192.2Zm0-17.537c3.871,0,8.038,2.427,8.038,7.755,0,5.346-4.167,7.782-8.038,7.782-3.9,0-8.094-2.436-8.094-7.782C138.506,177.091,142.7,174.664,146.6,174.664Z" transform="translate(-136.506 -172.664)" fill="#10d078"/>
          </g>
          <g id="Group_1573" data-name="Group 1573" transform="translate(15.607 35.101)">
            <path id="Path_1906" data-name="Path 1906" d="M156.712,166.452h4.641l.63-4.6c.226-1.653.442-3.1.633-4.374.971-6.454,1.55-10.31-1.239-14.693-2.387-3.752-5.53-5.991-8.3-7.967l-.955-.684-1.17,1.622.962.689c2.627,1.872,5.6,3.991,7.778,7.413,2.388,3.752,1.91,6.929.959,13.257-.2,1.351-.42,2.8-.647,4.466l-.392,2.869h-2.9c-9.275,0-13.486-.364-15.558-2.619a5.93,5.93,0,0,1-1.255-4.9c.177-2.086-.039-4.09-4.488-7.522l-1.221,1.584c3.947,3.045,3.83,4.429,3.717,5.767a7.844,7.844,0,0,0,1.774,6.429C142.228,165.959,146.358,166.452,156.712,166.452Z" transform="translate(-134.19 -134.136)" fill="#10d078"/>
          </g>
          <g id="Group_1574" data-name="Group 1574" transform="translate(25.81 24.158)">
            <path id="Path_1907" data-name="Path 1907" d="M150.4,128.391l1.928-.53a3.781,3.781,0,0,1-.141-.992,2.54,2.54,0,0,1,.326-1.289,2.444,2.444,0,0,1,.7-.761l-1.164-1.626a4.443,4.443,0,0,0-1.267,1.384,4.517,4.517,0,0,0-.6,2.292A5.712,5.712,0,0,0,150.4,128.391Z" transform="translate(-150.189 -123.193)" fill="#10d078"/>
          </g>
          <g id="Group_1575" data-name="Group 1575" transform="translate(27.737)">
            <path id="Path_1908" data-name="Path 1908" d="M136.411,128.619c4.4,0,6.33-2.988,10.555-9.536l4.322-6.657-3.612-3.027c-8.83-7.4-19.111-11-29.418-10.272l.141,2c9.795-.688,19.564,2.748,27.992,9.81l2.255,1.889L145.286,118c-4.049,6.274-5.563,8.621-8.875,8.621a9.4,9.4,0,0,1-4.286-1.4,34.681,34.681,0,0,0-5.964-2.481,14.79,14.79,0,0,0-2.851-.6l-.2,1.99a12.709,12.709,0,0,1,2.461.52,32.936,32.936,0,0,1,5.65,2.353A11.2,11.2,0,0,0,136.411,128.619Z" transform="translate(-118.258 -99.035)" fill="#10d078"/>
          </g>
          <g id="Group_1576" data-name="Group 1576" transform="translate(0 20.948)">
            <path id="Path_1909" data-name="Path 1909" d="M177.279,137.749l1.746-.975a23.675,23.675,0,0,1-3.2-11.6,20.961,20.961,0,0,1,.544-4.743l-1.95-.451a23.087,23.087,0,0,0-.594,5.194A25.64,25.64,0,0,0,177.279,137.749Z" transform="translate(-173.822 -119.983)" fill="#10d078"/>
          </g>
          <g id="Group_1577" data-name="Group 1577" transform="translate(18.068 69.311)">
            <path id="Path_1910" data-name="Path 1910" d="M146.6,196.519c7.134,0,14.356-4.843,14.356-14.1,0-9.239-7.222-14.073-14.356-14.073-6.987,0-14.413,4.932-14.413,14.073a13.98,13.98,0,0,0,1.988,7.4l1.707-1.042a12.006,12.006,0,0,1-1.695-6.354c0-7.842,6.4-12.073,12.413-12.073,6.141,0,12.356,4.147,12.356,12.073,0,7.944-6.215,12.1-12.356,12.1Z" transform="translate(-132.188 -168.346)" fill="#10d078"/>
          </g>
        </g>
      </g>
      <g id="Group_1581" data-name="Group 1581" transform="translate(464.242 2879.161)">
        <g id="Group_1578-2" data-name="Group 1578" transform="translate(0 0)">
          <g id="Group_1571-2" data-name="Group 1571" transform="translate(3.11 3.081)">
            <path id="Path_1904-2" data-name="Path 1904" d="M148.169,145.456h.625l.085-.619c.166-1.221.326-2.285.467-3.224.658-4.38.931-6.193-.446-8.356a17.812,17.812,0,0,0-5.134-4.849,16.1,16.1,0,0,1-5.184-5.056,5.444,5.444,0,0,1,.148-6.214c1.611-2.014,4.656-2.57,8.146-1.491a26.625,26.625,0,0,1,4.535,1.883c3.249,1.652,3.63,1.062,7.28-4.593.378-.587.8-1.234,1.26-1.946l.346-.532-.486-.408c-7.638-6.4-17.006-8.373-25.052-5.28-5.916,2.274-9.9,6.87-10.662,12.293-.862,6.154,2.547,12.47,9.6,17.785,4.4,3.317,4.216,5.456,4.084,7.018a2.71,2.71,0,0,0,.467,2.249C139.189,145.143,141.508,145.456,148.169,145.456Zm-4.626-31.782a7.328,7.328,0,0,0-5.931,2.57,6.847,6.847,0,0,0-.272,7.823,17.486,17.486,0,0,0,5.6,5.509,16.436,16.436,0,0,1,4.756,4.451c1.09,1.711.858,3.253.239,7.374-.118.782-.248,1.65-.385,2.622-3.788-.011-7.571-.143-8.242-.875-.169-.184-.148-.524-.095-1.158.143-1.679.382-4.49-4.649-8.283-6.619-4.987-9.831-10.826-9.043-16.442.687-4.9,4.335-9.07,9.757-11.154,7.386-2.84,15.989-1.1,23.128,4.638q-.492.759-.914,1.413c-1.729,2.679-2.681,4.155-3.355,4.616-.409.279-.711.168-2.071-.524a27.919,27.919,0,0,0-4.759-1.975A12.776,12.776,0,0,0,143.542,113.673Z" transform="translate(-123.965 -103.336)" fill="#10d078"/>
          </g>
          <g id="Group_1572-2" data-name="Group 1572" transform="translate(16.037 52.745)">
            <path id="Path_1905-2" data-name="Path 1905" d="M143.737,186.659c3.573,0,7.191-2.407,7.191-7.007s-3.618-6.988-7.191-6.988c-3.593,0-7.231,2.4-7.231,6.988S140.144,186.659,143.737,186.659Zm0-12.563c2.773,0,5.758,1.739,5.758,5.555s-2.985,5.575-5.758,5.575c-2.792,0-5.8-1.745-5.8-5.575S140.945,174.1,143.737,174.1Z" transform="translate(-136.506 -172.664)" fill="#10d078"/>
          </g>
          <g id="Group_1573-2" data-name="Group 1573" transform="translate(11.18 25.145)">
            <path id="Path_1906-2" data-name="Path 1906" d="M150.324,157.286h3.325l.451-3.294c.162-1.184.317-2.219.453-3.133.7-4.623,1.11-7.386-.888-10.525a20.547,20.547,0,0,0-5.948-5.707l-.684-.49L146.2,135.3l.689.494a19.386,19.386,0,0,1,5.572,5.31c1.711,2.688,1.368,4.964.687,9.5-.145.968-.3,2.009-.463,3.2l-.281,2.055h-2.075c-6.644,0-9.661-.261-11.145-1.876a4.248,4.248,0,0,1-.9-3.514c.127-1.494-.028-2.93-3.215-5.388l-.875,1.135c2.827,2.181,2.744,3.173,2.663,4.131a5.619,5.619,0,0,0,1.271,4.605C139.948,156.933,142.907,157.286,150.324,157.286Z" transform="translate(-134.19 -134.136)" fill="#10d078"/>
          </g>
          <g id="Group_1574-2" data-name="Group 1574" transform="translate(18.489 17.306)">
            <path id="Path_1907-2" data-name="Path 1907" d="M150.342,126.917l1.381-.38a2.708,2.708,0,0,1-.1-.711,1.82,1.82,0,0,1,.234-.923,1.751,1.751,0,0,1,.5-.545l-.834-1.165a3.183,3.183,0,0,0-.908.991,3.236,3.236,0,0,0-.426,1.642A4.092,4.092,0,0,0,150.342,126.917Z" transform="translate(-150.189 -123.193)" fill="#10d078"/>
          </g>
          <g id="Group_1575-2" data-name="Group 1575" transform="translate(19.87)">
            <path id="Path_1908-2" data-name="Path 1908" d="M131.262,120.228c3.153,0,4.535-2.14,7.561-6.831l3.1-4.769-2.587-2.168c-6.325-5.3-13.69-7.88-21.074-7.358l.1,1.429c7.017-.493,14.015,1.969,20.052,7.027l1.615,1.353-2.407,3.709c-2.9,4.494-3.985,6.176-6.358,6.176a6.737,6.737,0,0,1-3.07-1,24.844,24.844,0,0,0-4.272-1.777,10.6,10.6,0,0,0-2.042-.429l-.145,1.426a9.1,9.1,0,0,1,1.763.373,23.593,23.593,0,0,1,4.047,1.686A8.026,8.026,0,0,0,131.262,120.228Z" transform="translate(-118.258 -99.035)" fill="#10d078"/>
          </g>
          <g id="Group_1576-2" data-name="Group 1576" transform="translate(0 15.006)">
            <path id="Path_1909-2" data-name="Path 1909" d="M176.3,132.71l1.251-.7a16.96,16.96,0,0,1-2.294-8.308,15.016,15.016,0,0,1,.39-3.4l-1.4-.323a16.538,16.538,0,0,0-.426,3.721A18.368,18.368,0,0,0,176.3,132.71Z" transform="translate(-173.822 -119.983)" fill="#10d078"/>
          </g>
          <g id="Group_1577-2" data-name="Group 1577" transform="translate(12.943 49.651)">
            <path id="Path_1910-2" data-name="Path 1910" d="M142.513,188.528c5.11,0,10.284-3.469,10.284-10.1s-5.174-10.081-10.284-10.081c-5.005,0-10.325,3.533-10.325,10.081a10.015,10.015,0,0,0,1.424,5.3l1.223-.746a8.6,8.6,0,0,1-1.214-4.552c0-5.618,4.582-8.649,8.892-8.649,4.4,0,8.851,2.971,8.851,8.649s-4.452,8.668-8.851,8.668Z" transform="translate(-132.188 -168.346)" fill="#10d078"/>
          </g>
        </g>
      </g>
      <g id="Group_1580" data-name="Group 1580" transform="matrix(-0.966, -0.259, 0.259, -0.966, 566.116, 3010.687)">
        <g id="Group_1578-3" data-name="Group 1578" transform="translate(0 0)">
          <g id="Group_1571-3" data-name="Group 1571" transform="translate(4.342 34.386)">
            <path id="Path_1904-3" data-name="Path 1904" d="M33.787,0h.873l.119.864c.232,1.7.455,3.19.652,4.5.918,6.114,1.3,8.645-.623,11.664-1.936,3.041-4.595,4.936-7.167,6.769-2.769,1.973-5.383,3.835-7.236,7.058-1.738,3.019-1.658,6.343.207,8.675,2.249,2.812,6.5,3.588,11.372,2.081a37.167,37.167,0,0,0,6.33-2.629c4.535-2.306,5.068-1.482,10.162,6.412.528.819,1.111,1.723,1.759,2.717l.483.743-.679.569C39.377,58.357,26.3,61.112,15.067,56.793,6.809,53.619,1.245,47.2.183,39.632c-1.2-8.591,3.555-17.408,13.4-24.827,6.14-4.63,5.886-7.616,5.7-9.8a3.783,3.783,0,0,1,.652-3.139C21.252.436,24.489,0,33.787,0ZM27.329,44.367a10.23,10.23,0,0,1-8.279-3.588c-2.389-2.988-2.535-7.174-.38-10.921,2.072-3.6,4.99-5.68,7.811-7.69,2.526-1.8,4.914-3.5,6.639-6.213,1.521-2.388,1.2-4.541.334-10.294-.165-1.091-.346-2.3-.538-3.66-5.288.016-10.569.2-11.506,1.221-.236.257-.207.731-.132,1.617.2,2.344.533,6.268-6.49,11.563C5.548,23.364,1.065,31.515,2.164,39.355c.959,6.84,6.051,12.662,13.621,15.571,10.31,3.965,22.32,1.54,32.286-6.475q-.687-1.059-1.276-1.973c-2.413-3.74-3.743-5.8-4.684-6.444-.571-.39-.993-.234-2.891.731a38.973,38.973,0,0,1-6.644,2.757A17.835,17.835,0,0,1,27.329,44.367Z" fill="#10d078"/>
          </g>
          <g id="Group_1572-3" data-name="Group 1572" transform="translate(22.387 4.318)">
            <path id="Path_1905-3" data-name="Path 1905" d="M10.094,0c4.988,0,10.038,3.36,10.038,9.782,0,6.4-5.05,9.755-10.038,9.755C5.078,19.537,0,16.186,0,9.782,0,3.36,5.078,0,10.094,0Zm0,17.537c3.871,0,8.038-2.427,8.038-7.755C18.132,4.436,13.965,2,10.094,2,6.2,2,2,4.436,2,9.782,2,15.11,6.2,17.537,10.094,17.537Z" transform="translate(0 0)" fill="#10d078"/>
          </g>
          <g id="Group_1573-3" data-name="Group 1573" transform="translate(15.607 30.067)">
            <path id="Path_1906-3" data-name="Path 1906" d="M22.522,0h4.641l.63,4.6c.226,1.653.442,3.1.633,4.374.971,6.454,1.55,10.31-1.239,14.693-2.387,3.752-5.53,5.991-8.3,7.967l-.955.684-1.17-1.622L17.721,30c2.627-1.872,5.6-3.991,7.778-7.413,2.388-3.752,1.91-6.929.959-13.257-.2-1.351-.42-2.8-.647-4.466L25.419,2h-2.9C13.247,2,9.036,2.364,6.964,4.619a5.93,5.93,0,0,0-1.255,4.9c.177,2.086-.039,4.09-4.488,7.522L0,15.462c3.947-3.045,3.83-4.429,3.717-5.767A7.844,7.844,0,0,1,5.491,3.266C8.038.493,12.168,0,22.522,0Z" fill="#10d078"/>
          </g>
          <g id="Group_1574-3" data-name="Group 1574" transform="translate(25.81 68.128)">
            <path id="Path_1907-3" data-name="Path 1907" d="M.213,0,2.141.53A3.781,3.781,0,0,0,2,1.522a2.54,2.54,0,0,0,.326,1.289,2.444,2.444,0,0,0,.7.761L1.862,5.2A4.443,4.443,0,0,1,.6,3.814,4.517,4.517,0,0,1,0,1.522,5.712,5.712,0,0,1,.213,0Z" transform="translate(0 0)" fill="#10d078"/>
          </g>
          <g id="Group_1575-3" data-name="Group 1575" transform="translate(27.737 67.9)">
            <path id="Path_1908-3" data-name="Path 1908" d="M18.153,0c4.4,0,6.33,2.988,10.555,9.536l4.322,6.657L29.418,19.22c-8.83,7.4-19.111,11-29.418,10.272l.141-2c9.795.688,19.564-2.748,27.992-9.81L30.388,15.8l-3.36-5.177C22.979,4.347,21.465,2,18.153,2a9.4,9.4,0,0,0-4.286,1.4A34.681,34.681,0,0,1,7.9,5.882a14.79,14.79,0,0,1-2.851.6l-.2-1.99a12.709,12.709,0,0,0,2.461-.52,32.936,32.936,0,0,0,5.65-2.353A11.2,11.2,0,0,1,18.153,0Z" transform="translate(0 0)" fill="#10d078"/>
          </g>
          <g id="Group_1576-3" data-name="Group 1576" transform="translate(0 58.77)">
            <path id="Path_1909-3" data-name="Path 1909" d="M3.457,0,5.2.975A23.675,23.675,0,0,0,2,12.572a20.961,20.961,0,0,0,.544,4.743l-1.95.451A23.087,23.087,0,0,1,0,12.572,25.64,25.64,0,0,1,3.457,0Z" transform="translate(0 0)" fill="#10d078"/>
          </g>
          <g id="Group_1577-3" data-name="Group 1577" transform="translate(18.068 0)">
            <path id="Path_1910-3" data-name="Path 1910" d="M14.413,0c7.134,0,14.356,4.843,14.356,14.1,0,9.239-7.222,14.073-14.356,14.073C7.426,28.173,0,23.241,0,14.1A13.98,13.98,0,0,1,1.988,6.7L3.695,7.746A12.006,12.006,0,0,0,2,14.1c0,7.842,6.4,12.073,12.413,12.073,6.141,0,12.356-4.147,12.356-12.073C26.769,6.156,20.554,2,14.413,2Z" fill="#10d078"/>
          </g>
        </g>
      </g>
    </g>
  </g>
</svg>
