<svg xmlns="http://www.w3.org/2000/svg" width="880.795" height="237.242" viewBox="0 0 880.795 237.242">
  <g id="Group_1831" data-name="Group 1831" transform="translate(-580.217 -739.4)">
    <g id="Group_1832" data-name="Group 1832" transform="translate(1315.005 804.117)">
      <g id="Layer_3" data-name="Layer 3" transform="translate(0 0)">
        <path id="Path_1866" data-name="Path 1866" d="M3169.112,1027.914l-36.073,28.681-61.937,3.56-45.31-32.241V941.674h143.32Z" transform="translate(-3024.448 -895.354)" fill="#c0902e"/>
        <path id="Path_1867" data-name="Path 1867" d="M3011.641,1019.815c24.312,44.893,126.82,41.933,144.587-1.341,3.11,15.78-3.127,27.047-15.588,35.5-28.82,19.555-83.724,19.74-112.677.466C3016.064,1046.519,3008.85,1036.308,3011.641,1019.815Z" transform="translate(-3011.042 -965.158)" fill="#e3ae59"/>
        <path id="Path_1868" data-name="Path 1868" d="M3011.641,1273c24.312,44.893,126.82,41.933,144.587-1.342,3.11,15.78-3.127,27.047-15.588,35.5-28.82,19.555-83.724,19.74-112.677.465C3016.064,1299.7,3008.85,1289.49,3011.641,1273Z" transform="translate(-3011.042 -1195.28)" fill="#e3ae59"/>
        <path id="Path_1869" data-name="Path 1869" d="M3012.839,1783.089c16.879,25.907,43.656,31.057,71.57,30.917,28.439-.142,55.891-5.062,72.36-33.046,2.5,14.462-2.669,25.545-14.48,34-29.177,20.884-86.467,21.062-115.716.255C3013.435,1805.868,3008.765,1794.5,3012.839,1783.089Z" transform="translate(-3011.378 -1658.195)" fill="#e3ae59"/>
        <path id="Path_1870" data-name="Path 1870" d="M3011.641,1526.179c24.312,44.893,126.82,41.933,144.587-1.341,3.11,15.78-3.127,27.047-15.588,35.5-28.82,19.555-83.724,19.74-112.677.465C3016.064,1552.883,3008.85,1542.672,3011.641,1526.179Z" transform="translate(-3011.042 -1425.401)" fill="#e3ae59"/>
        <ellipse id="Ellipse_189" data-name="Ellipse 189" cx="72.987" cy="40.365" rx="72.987" ry="40.365" transform="translate(0.034)" fill="#fbca47"/>
        <path id="Path_1871" data-name="Path 1871" d="M3434.263,661.672a9.973,9.973,0,0,0-5.729,2.19,13.1,13.1,0,0,0-1.27,1.5c-.032.038-.076.075-.163.159-.15-.128-.258-.222-.371-.315-1.626-1.334-4.051-2.026-7.28-2.133a28.269,28.269,0,0,0-5.657.333,13.715,13.715,0,0,0-6.133,2.48,14.109,14.109,0,0,0-3.709,4.217c-.349.573-.343.573-1.443.573-1.934,0-3.9.055-5.8.054l-1.93,3.91h6.979c-.062.364-.2.438-.3.7-.266.711-.54,1.384-.789,2.124-.089.264-.282.312-.745.311-2.25-.006-4.333-.028-6.748-.028l-2.319,4.634h8.032l-3.7,9.564h9.837c.29-1,.553-2.021.89-2.941.651-1.779,2.7-2.881,5.37-2.881q18.476,0,36.952-.029c2.436,0,3.817.842,4.272,2.43.308,1.077.6,2.055.937,3.421H3464.4l-3.822-9.564h7.069l-2.315-4.631c-2.113,0-3.853,0-5.741,0-.27,0-.629.165-.737-.095-.442-1.057-.911-2.194-1.3-3.014h6.172l-1.932-3.914c-.816,0-1.675-.024-2.478-.023-.919,0-1.882-.026-2.792-.008-.5.01-.72-.073-.886-.341a34.6,34.6,0,0,0-2.3-3.5,12.162,12.162,0,0,0-4.689-3.536,21.2,21.2,0,0,0-6.386-1.582A36.2,36.2,0,0,0,3434.263,661.672Zm-24.643,15.649c.5-1.531.851-3,1.439-4.4a6.228,6.228,0,0,1,3.034-3.188,11.169,11.169,0,0,1,7.746-.532,4.292,4.292,0,0,1,2.593,2.226,11.784,11.784,0,0,1,.516,5.948c-.026.281-.285.29-.651.29q-3.554-.005-7.109,0c-2.325,0-4.65,0-6.977,0C3409.766,677.665,3409.521,677.624,3409.621,677.32Zm32.937-9.655a7.047,7.047,0,0,1,3.358,1.992,11.291,11.291,0,0,1,2.526,4.476c.393,1.169.674,2.331,1.051,3.879h-.787c-5.089,0-10.178-.184-15.265-.167-.677,0-.871-.192-.871-.568,0-1.654-.114-3.281-.057-4.789a5.155,5.155,0,0,1,1.781-3.755C3435.893,667.283,3439.5,666.822,3442.558,667.666Z" transform="translate(-3356.258 -640.68)" fill="#fff"/>
        <path id="Path_1872" data-name="Path 1872" d="M3209.027,593.672c-16.075,0-31.2-3.074-42.585-8.654a40.644,40.644,0,0,1-13.039-9.489c-3.233-3.747-4.873-7.742-4.873-11.875s1.64-8.128,4.873-11.875a40.642,40.642,0,0,1,13.039-9.488c11.387-5.581,26.511-8.654,42.585-8.654s31.2,3.073,42.585,8.654a40.648,40.648,0,0,1,13.039,9.488c3.234,3.747,4.873,7.742,4.873,11.875s-1.639,8.129-4.873,11.875a40.65,40.65,0,0,1-13.039,9.489C3240.226,590.6,3225.1,593.672,3209.027,593.672Zm0-58.591c-15.858,0-30.756,3.021-41.95,8.507-11.029,5.405-17.1,12.532-17.1,20.066s6.074,14.661,17.1,20.066c11.193,5.486,26.091,8.507,41.95,8.507s30.756-3.021,41.95-8.507c11.029-5.405,17.1-12.532,17.1-20.066s-6.074-14.661-17.1-20.066C3239.783,538.1,3224.885,535.081,3209.027,535.081Z" transform="translate(-3136.006 -524.481)" fill="#fff"/>
      </g>
    </g>
    <g id="Group_1554" data-name="Group 1554" transform="translate(580.217 759.881)">
      <g id="Layer_3-2" data-name="Layer 3" transform="translate(0 0)">
        <path id="Path_1866-2" data-name="Path 1866" d="M3169.112,1027.914l-36.073,28.681-61.937,3.56-45.31-32.241V941.674h143.32Z" transform="translate(-3024.448 -895.354)" fill="#c0902e"/>
        <path id="Path_1867-2" data-name="Path 1867" d="M3011.641,1019.815c24.312,44.893,126.82,41.933,144.587-1.341,3.11,15.78-3.127,27.047-15.588,35.5-28.82,19.555-83.724,19.74-112.677.466C3016.064,1046.519,3008.85,1036.308,3011.641,1019.815Z" transform="translate(-3011.042 -965.158)" fill="#e3ae59"/>
        <path id="Path_1868-2" data-name="Path 1868" d="M3011.641,1273c24.312,44.893,126.82,41.933,144.587-1.342,3.11,15.78-3.127,27.047-15.588,35.5-28.82,19.555-83.724,19.74-112.677.465C3016.064,1299.7,3008.85,1289.49,3011.641,1273Z" transform="translate(-3011.042 -1195.28)" fill="#e3ae59"/>
        <path id="Path_1869-2" data-name="Path 1869" d="M3012.839,1783.089c16.879,25.907,43.656,31.057,71.57,30.917,28.439-.142,55.891-5.062,72.36-33.046,2.5,14.462-2.669,25.545-14.48,34-29.177,20.884-86.467,21.062-115.716.255C3013.435,1805.868,3008.765,1794.5,3012.839,1783.089Z" transform="translate(-3011.378 -1658.195)" fill="#e3ae59"/>
        <path id="Path_1870-2" data-name="Path 1870" d="M3011.641,1526.179c24.312,44.893,126.82,41.933,144.587-1.341,3.11,15.78-3.127,27.047-15.588,35.5-28.82,19.555-83.724,19.74-112.677.465C3016.064,1552.883,3008.85,1542.672,3011.641,1526.179Z" transform="translate(-3011.042 -1425.401)" fill="#e3ae59"/>
        <ellipse id="Ellipse_189-2" data-name="Ellipse 189" cx="72.987" cy="40.365" rx="72.987" ry="40.365" transform="translate(0.034)" fill="#fbca47"/>
        <path id="Path_1871-2" data-name="Path 1871" d="M3434.263,661.672a9.973,9.973,0,0,0-5.729,2.19,13.1,13.1,0,0,0-1.27,1.5c-.032.038-.076.075-.163.159-.15-.128-.258-.222-.371-.315-1.626-1.334-4.051-2.026-7.28-2.133a28.269,28.269,0,0,0-5.657.333,13.715,13.715,0,0,0-6.133,2.48,14.109,14.109,0,0,0-3.709,4.217c-.349.573-.343.573-1.443.573-1.934,0-3.9.055-5.8.054l-1.93,3.91h6.979c-.062.364-.2.438-.3.7-.266.711-.54,1.384-.789,2.124-.089.264-.282.312-.745.311-2.25-.006-4.333-.028-6.748-.028l-2.319,4.634h8.032l-3.7,9.564h9.837c.29-1,.553-2.021.89-2.941.651-1.779,2.7-2.881,5.37-2.881q18.476,0,36.952-.029c2.436,0,3.817.842,4.272,2.43.308,1.077.6,2.055.937,3.421H3464.4l-3.822-9.564h7.069l-2.315-4.631c-2.113,0-3.853,0-5.741,0-.27,0-.629.165-.737-.095-.442-1.057-.911-2.194-1.3-3.014h6.172l-1.932-3.914c-.816,0-1.675-.024-2.478-.023-.919,0-1.882-.026-2.792-.008-.5.01-.72-.073-.886-.341a34.6,34.6,0,0,0-2.3-3.5,12.162,12.162,0,0,0-4.689-3.536,21.2,21.2,0,0,0-6.386-1.582A36.2,36.2,0,0,0,3434.263,661.672Zm-24.643,15.649c.5-1.531.851-3,1.439-4.4a6.228,6.228,0,0,1,3.034-3.188,11.169,11.169,0,0,1,7.746-.532,4.292,4.292,0,0,1,2.593,2.226,11.784,11.784,0,0,1,.516,5.948c-.026.281-.285.29-.651.29q-3.554-.005-7.109,0c-2.325,0-4.65,0-6.977,0C3409.766,677.665,3409.521,677.624,3409.621,677.32Zm32.937-9.655a7.047,7.047,0,0,1,3.358,1.992,11.291,11.291,0,0,1,2.526,4.476c.393,1.169.674,2.331,1.051,3.879h-.787c-5.089,0-10.178-.184-15.265-.167-.677,0-.871-.192-.871-.568,0-1.654-.114-3.281-.057-4.789a5.155,5.155,0,0,1,1.781-3.755C3435.893,667.283,3439.5,666.822,3442.558,667.666Z" transform="translate(-3356.258 -640.68)" fill="#fff"/>
        <path id="Path_1872-2" data-name="Path 1872" d="M3209.027,593.672c-16.075,0-31.2-3.074-42.585-8.654a40.644,40.644,0,0,1-13.039-9.489c-3.233-3.747-4.873-7.742-4.873-11.875s1.64-8.128,4.873-11.875a40.642,40.642,0,0,1,13.039-9.488c11.387-5.581,26.511-8.654,42.585-8.654s31.2,3.073,42.585,8.654a40.648,40.648,0,0,1,13.039,9.488c3.234,3.747,4.873,7.742,4.873,11.875s-1.639,8.129-4.873,11.875a40.65,40.65,0,0,1-13.039,9.489C3240.226,590.6,3225.1,593.672,3209.027,593.672Zm0-58.591c-15.858,0-30.756,3.021-41.95,8.507-11.029,5.405-17.1,12.532-17.1,20.066s6.074,14.661,17.1,20.066c11.193,5.486,26.091,8.507,41.95,8.507s30.756-3.021,41.95-8.507c11.029-5.405,17.1-12.532,17.1-20.066s-6.074-14.661-17.1-20.066C3239.783,538.1,3224.885,535.081,3209.027,535.081Z" transform="translate(-3136.006 -524.481)" fill="#fff"/>
      </g>
    </g>
    <g id="Group_1826" data-name="Group 1826" transform="translate(899.354 759.881)">
      <g id="Layer_3-3" data-name="Layer 3" transform="translate(0 0)">
        <path id="Path_1866-3" data-name="Path 1866" d="M3169.112,1027.914l-36.073,28.681-61.937,3.56-45.31-32.241V941.674h143.32Z" transform="translate(-3024.448 -895.354)" fill="#c0902e"/>
        <path id="Path_1867-3" data-name="Path 1867" d="M3011.641,1019.815c24.312,44.893,126.82,41.933,144.587-1.341,3.11,15.78-3.127,27.047-15.588,35.5-28.82,19.555-83.724,19.74-112.677.466C3016.064,1046.519,3008.85,1036.308,3011.641,1019.815Z" transform="translate(-3011.042 -965.158)" fill="#e3ae59"/>
        <path id="Path_1868-3" data-name="Path 1868" d="M3011.641,1273c24.312,44.893,126.82,41.933,144.587-1.342,3.11,15.78-3.127,27.047-15.588,35.5-28.82,19.555-83.724,19.74-112.677.465C3016.064,1299.7,3008.85,1289.49,3011.641,1273Z" transform="translate(-3011.042 -1195.28)" fill="#e3ae59"/>
        <path id="Path_1869-3" data-name="Path 1869" d="M3012.839,1783.089c16.879,25.907,43.656,31.057,71.57,30.917,28.439-.142,55.891-5.062,72.36-33.046,2.5,14.462-2.669,25.545-14.48,34-29.177,20.884-86.467,21.062-115.716.255C3013.435,1805.868,3008.765,1794.5,3012.839,1783.089Z" transform="translate(-3011.378 -1658.195)" fill="#e3ae59"/>
        <path id="Path_1870-3" data-name="Path 1870" d="M3011.641,1526.179c24.312,44.893,126.82,41.933,144.587-1.341,3.11,15.78-3.127,27.047-15.588,35.5-28.82,19.555-83.724,19.74-112.677.465C3016.064,1552.883,3008.85,1542.672,3011.641,1526.179Z" transform="translate(-3011.042 -1425.401)" fill="#e3ae59"/>
        <ellipse id="Ellipse_189-3" data-name="Ellipse 189" cx="72.987" cy="40.365" rx="72.987" ry="40.365" transform="translate(0.034)" fill="#fbca47"/>
        <path id="Path_1871-3" data-name="Path 1871" d="M3434.263,661.672a9.973,9.973,0,0,0-5.729,2.19,13.1,13.1,0,0,0-1.27,1.5c-.032.038-.076.075-.163.159-.15-.128-.258-.222-.371-.315-1.626-1.334-4.051-2.026-7.28-2.133a28.269,28.269,0,0,0-5.657.333,13.715,13.715,0,0,0-6.133,2.48,14.109,14.109,0,0,0-3.709,4.217c-.349.573-.343.573-1.443.573-1.934,0-3.9.055-5.8.054l-1.93,3.91h6.979c-.062.364-.2.438-.3.7-.266.711-.54,1.384-.789,2.124-.089.264-.282.312-.745.311-2.25-.006-4.333-.028-6.748-.028l-2.319,4.634h8.032l-3.7,9.564h9.837c.29-1,.553-2.021.89-2.941.651-1.779,2.7-2.881,5.37-2.881q18.476,0,36.952-.029c2.436,0,3.817.842,4.272,2.43.308,1.077.6,2.055.937,3.421H3464.4l-3.822-9.564h7.069l-2.315-4.631c-2.113,0-3.853,0-5.741,0-.27,0-.629.165-.737-.095-.442-1.057-.911-2.194-1.3-3.014h6.172l-1.932-3.914c-.816,0-1.675-.024-2.478-.023-.919,0-1.882-.026-2.792-.008-.5.01-.72-.073-.886-.341a34.6,34.6,0,0,0-2.3-3.5,12.162,12.162,0,0,0-4.689-3.536,21.2,21.2,0,0,0-6.386-1.582A36.2,36.2,0,0,0,3434.263,661.672Zm-24.643,15.649c.5-1.531.851-3,1.439-4.4a6.228,6.228,0,0,1,3.034-3.188,11.169,11.169,0,0,1,7.746-.532,4.292,4.292,0,0,1,2.593,2.226,11.784,11.784,0,0,1,.516,5.948c-.026.281-.285.29-.651.29q-3.554-.005-7.109,0c-2.325,0-4.65,0-6.977,0C3409.766,677.665,3409.521,677.624,3409.621,677.32Zm32.937-9.655a7.047,7.047,0,0,1,3.358,1.992,11.291,11.291,0,0,1,2.526,4.476c.393,1.169.674,2.331,1.051,3.879h-.787c-5.089,0-10.178-.184-15.265-.167-.677,0-.871-.192-.871-.568,0-1.654-.114-3.281-.057-4.789a5.155,5.155,0,0,1,1.781-3.755C3435.893,667.283,3439.5,666.822,3442.558,667.666Z" transform="translate(-3356.258 -640.68)" fill="#fff"/>
        <path id="Path_1872-3" data-name="Path 1872" d="M3209.027,593.672c-16.075,0-31.2-3.074-42.585-8.654a40.644,40.644,0,0,1-13.039-9.489c-3.233-3.747-4.873-7.742-4.873-11.875s1.64-8.128,4.873-11.875a40.642,40.642,0,0,1,13.039-9.488c11.387-5.581,26.511-8.654,42.585-8.654s31.2,3.073,42.585,8.654a40.648,40.648,0,0,1,13.039,9.488c3.234,3.747,4.873,7.742,4.873,11.875s-1.639,8.129-4.873,11.875a40.65,40.65,0,0,1-13.039,9.489C3240.226,590.6,3225.1,593.672,3209.027,593.672Zm0-58.591c-15.858,0-30.756,3.021-41.95,8.507-11.029,5.405-17.1,12.532-17.1,20.066s6.074,14.661,17.1,20.066c11.193,5.486,26.091,8.507,41.95,8.507s30.756-3.021,41.95-8.507c11.029-5.405,17.1-12.532,17.1-20.066s-6.074-14.661-17.1-20.066C3239.783,538.1,3224.885,535.081,3209.027,535.081Z" transform="translate(-3136.006 -524.481)" fill="#fff"/>
      </g>
    </g>
    <g id="Group_1827" data-name="Group 1827" transform="translate(1004.99 787.4)">
      <g id="Layer_3-4" data-name="Layer 3" transform="translate(0 0)">
        <path id="Path_1866-4" data-name="Path 1866" d="M3169.112,1027.914l-36.073,28.681-61.937,3.56-45.31-32.241V941.674h143.32Z" transform="translate(-3024.448 -895.354)" fill="#c0902e"/>
        <path id="Path_1867-4" data-name="Path 1867" d="M3011.641,1019.815c24.312,44.893,126.82,41.933,144.587-1.341,3.11,15.78-3.127,27.047-15.588,35.5-28.82,19.555-83.724,19.74-112.677.466C3016.064,1046.519,3008.85,1036.308,3011.641,1019.815Z" transform="translate(-3011.042 -965.158)" fill="#e3ae59"/>
        <path id="Path_1868-4" data-name="Path 1868" d="M3011.641,1273c24.312,44.893,126.82,41.933,144.587-1.342,3.11,15.78-3.127,27.047-15.588,35.5-28.82,19.555-83.724,19.74-112.677.465C3016.064,1299.7,3008.85,1289.49,3011.641,1273Z" transform="translate(-3011.042 -1195.28)" fill="#e3ae59"/>
        <path id="Path_1869-4" data-name="Path 1869" d="M3012.839,1783.089c16.879,25.907,43.656,31.057,71.57,30.917,28.439-.142,55.891-5.062,72.36-33.046,2.5,14.462-2.669,25.545-14.48,34-29.177,20.884-86.467,21.062-115.716.255C3013.435,1805.868,3008.765,1794.5,3012.839,1783.089Z" transform="translate(-3011.378 -1658.195)" fill="#e3ae59"/>
        <path id="Path_1870-4" data-name="Path 1870" d="M3011.641,1526.179c24.312,44.893,126.82,41.933,144.587-1.341,3.11,15.78-3.127,27.047-15.588,35.5-28.82,19.555-83.724,19.74-112.677.465C3016.064,1552.883,3008.85,1542.672,3011.641,1526.179Z" transform="translate(-3011.042 -1425.401)" fill="#e3ae59"/>
        <ellipse id="Ellipse_189-4" data-name="Ellipse 189" cx="72.987" cy="40.365" rx="72.987" ry="40.365" transform="translate(0.034)" fill="#fbca47"/>
        <path id="Path_1871-4" data-name="Path 1871" d="M3434.263,661.672a9.973,9.973,0,0,0-5.729,2.19,13.1,13.1,0,0,0-1.27,1.5c-.032.038-.076.075-.163.159-.15-.128-.258-.222-.371-.315-1.626-1.334-4.051-2.026-7.28-2.133a28.269,28.269,0,0,0-5.657.333,13.715,13.715,0,0,0-6.133,2.48,14.109,14.109,0,0,0-3.709,4.217c-.349.573-.343.573-1.443.573-1.934,0-3.9.055-5.8.054l-1.93,3.91h6.979c-.062.364-.2.438-.3.7-.266.711-.54,1.384-.789,2.124-.089.264-.282.312-.745.311-2.25-.006-4.333-.028-6.748-.028l-2.319,4.634h8.032l-3.7,9.564h9.837c.29-1,.553-2.021.89-2.941.651-1.779,2.7-2.881,5.37-2.881q18.476,0,36.952-.029c2.436,0,3.817.842,4.272,2.43.308,1.077.6,2.055.937,3.421H3464.4l-3.822-9.564h7.069l-2.315-4.631c-2.113,0-3.853,0-5.741,0-.27,0-.629.165-.737-.095-.442-1.057-.911-2.194-1.3-3.014h6.172l-1.932-3.914c-.816,0-1.675-.024-2.478-.023-.919,0-1.882-.026-2.792-.008-.5.01-.72-.073-.886-.341a34.6,34.6,0,0,0-2.3-3.5,12.162,12.162,0,0,0-4.689-3.536,21.2,21.2,0,0,0-6.386-1.582A36.2,36.2,0,0,0,3434.263,661.672Zm-24.643,15.649c.5-1.531.851-3,1.439-4.4a6.228,6.228,0,0,1,3.034-3.188,11.169,11.169,0,0,1,7.746-.532,4.292,4.292,0,0,1,2.593,2.226,11.784,11.784,0,0,1,.516,5.948c-.026.281-.285.29-.651.29q-3.554-.005-7.109,0c-2.325,0-4.65,0-6.977,0C3409.766,677.665,3409.521,677.624,3409.621,677.32Zm32.937-9.655a7.047,7.047,0,0,1,3.358,1.992,11.291,11.291,0,0,1,2.526,4.476c.393,1.169.674,2.331,1.051,3.879h-.787c-5.089,0-10.178-.184-15.265-.167-.677,0-.871-.192-.871-.568,0-1.654-.114-3.281-.057-4.789a5.155,5.155,0,0,1,1.781-3.755C3435.893,667.283,3439.5,666.822,3442.558,667.666Z" transform="translate(-3356.258 -640.68)" fill="#fff"/>
        <path id="Path_1872-4" data-name="Path 1872" d="M3209.027,593.672c-16.075,0-31.2-3.074-42.585-8.654a40.644,40.644,0,0,1-13.039-9.489c-3.233-3.747-4.873-7.742-4.873-11.875s1.64-8.128,4.873-11.875a40.642,40.642,0,0,1,13.039-9.488c11.387-5.581,26.511-8.654,42.585-8.654s31.2,3.073,42.585,8.654a40.648,40.648,0,0,1,13.039,9.488c3.234,3.747,4.873,7.742,4.873,11.875s-1.639,8.129-4.873,11.875a40.65,40.65,0,0,1-13.039,9.489C3240.226,590.6,3225.1,593.672,3209.027,593.672Zm0-58.591c-15.858,0-30.756,3.021-41.95,8.507-11.029,5.405-17.1,12.532-17.1,20.066s6.074,14.661,17.1,20.066c11.193,5.486,26.091,8.507,41.95,8.507s30.756-3.021,41.95-8.507c11.029-5.405,17.1-12.532,17.1-20.066s-6.074-14.661-17.1-20.066C3239.783,538.1,3224.885,535.081,3209.027,535.081Z" transform="translate(-3136.006 -524.481)" fill="#fff"/>
      </g>
    </g>
    <g id="Group_1828" data-name="Group 1828" transform="translate(1077.781 759.881)">
      <g id="Layer_3-5" data-name="Layer 3" transform="translate(0 0)">
        <path id="Path_1866-5" data-name="Path 1866" d="M3169.112,1027.914l-36.073,28.681-61.937,3.56-45.31-32.241V941.674h143.32Z" transform="translate(-3024.448 -895.354)" fill="#c0902e"/>
        <path id="Path_1867-5" data-name="Path 1867" d="M3011.641,1019.815c24.312,44.893,126.82,41.933,144.587-1.341,3.11,15.78-3.127,27.047-15.588,35.5-28.82,19.555-83.724,19.74-112.677.466C3016.064,1046.519,3008.85,1036.308,3011.641,1019.815Z" transform="translate(-3011.042 -965.158)" fill="#e3ae59"/>
        <path id="Path_1868-5" data-name="Path 1868" d="M3011.641,1273c24.312,44.893,126.82,41.933,144.587-1.342,3.11,15.78-3.127,27.047-15.588,35.5-28.82,19.555-83.724,19.74-112.677.465C3016.064,1299.7,3008.85,1289.49,3011.641,1273Z" transform="translate(-3011.042 -1195.28)" fill="#e3ae59"/>
        <path id="Path_1869-5" data-name="Path 1869" d="M3012.839,1783.089c16.879,25.907,43.656,31.057,71.57,30.917,28.439-.142,55.891-5.062,72.36-33.046,2.5,14.462-2.669,25.545-14.48,34-29.177,20.884-86.467,21.062-115.716.255C3013.435,1805.868,3008.765,1794.5,3012.839,1783.089Z" transform="translate(-3011.378 -1658.195)" fill="#e3ae59"/>
        <path id="Path_1870-5" data-name="Path 1870" d="M3011.641,1526.179c24.312,44.893,126.82,41.933,144.587-1.341,3.11,15.78-3.127,27.047-15.588,35.5-28.82,19.555-83.724,19.74-112.677.465C3016.064,1552.883,3008.85,1542.672,3011.641,1526.179Z" transform="translate(-3011.042 -1425.401)" fill="#e3ae59"/>
        <ellipse id="Ellipse_189-5" data-name="Ellipse 189" cx="72.987" cy="40.365" rx="72.987" ry="40.365" transform="translate(0.034)" fill="#fbca47"/>
        <path id="Path_1871-5" data-name="Path 1871" d="M3434.263,661.672a9.973,9.973,0,0,0-5.729,2.19,13.1,13.1,0,0,0-1.27,1.5c-.032.038-.076.075-.163.159-.15-.128-.258-.222-.371-.315-1.626-1.334-4.051-2.026-7.28-2.133a28.269,28.269,0,0,0-5.657.333,13.715,13.715,0,0,0-6.133,2.48,14.109,14.109,0,0,0-3.709,4.217c-.349.573-.343.573-1.443.573-1.934,0-3.9.055-5.8.054l-1.93,3.91h6.979c-.062.364-.2.438-.3.7-.266.711-.54,1.384-.789,2.124-.089.264-.282.312-.745.311-2.25-.006-4.333-.028-6.748-.028l-2.319,4.634h8.032l-3.7,9.564h9.837c.29-1,.553-2.021.89-2.941.651-1.779,2.7-2.881,5.37-2.881q18.476,0,36.952-.029c2.436,0,3.817.842,4.272,2.43.308,1.077.6,2.055.937,3.421H3464.4l-3.822-9.564h7.069l-2.315-4.631c-2.113,0-3.853,0-5.741,0-.27,0-.629.165-.737-.095-.442-1.057-.911-2.194-1.3-3.014h6.172l-1.932-3.914c-.816,0-1.675-.024-2.478-.023-.919,0-1.882-.026-2.792-.008-.5.01-.72-.073-.886-.341a34.6,34.6,0,0,0-2.3-3.5,12.162,12.162,0,0,0-4.689-3.536,21.2,21.2,0,0,0-6.386-1.582A36.2,36.2,0,0,0,3434.263,661.672Zm-24.643,15.649c.5-1.531.851-3,1.439-4.4a6.228,6.228,0,0,1,3.034-3.188,11.169,11.169,0,0,1,7.746-.532,4.292,4.292,0,0,1,2.593,2.226,11.784,11.784,0,0,1,.516,5.948c-.026.281-.285.29-.651.29q-3.554-.005-7.109,0c-2.325,0-4.65,0-6.977,0C3409.766,677.665,3409.521,677.624,3409.621,677.32Zm32.937-9.655a7.047,7.047,0,0,1,3.358,1.992,11.291,11.291,0,0,1,2.526,4.476c.393,1.169.674,2.331,1.051,3.879h-.787c-5.089,0-10.178-.184-15.265-.167-.677,0-.871-.192-.871-.568,0-1.654-.114-3.281-.057-4.789a5.155,5.155,0,0,1,1.781-3.755C3435.893,667.283,3439.5,666.822,3442.558,667.666Z" transform="translate(-3356.258 -640.68)" fill="#fff"/>
        <path id="Path_1872-5" data-name="Path 1872" d="M3209.027,593.672c-16.075,0-31.2-3.074-42.585-8.654a40.644,40.644,0,0,1-13.039-9.489c-3.233-3.747-4.873-7.742-4.873-11.875s1.64-8.128,4.873-11.875a40.642,40.642,0,0,1,13.039-9.488c11.387-5.581,26.511-8.654,42.585-8.654s31.2,3.073,42.585,8.654a40.648,40.648,0,0,1,13.039,9.488c3.234,3.747,4.873,7.742,4.873,11.875s-1.639,8.129-4.873,11.875a40.65,40.65,0,0,1-13.039,9.489C3240.226,590.6,3225.1,593.672,3209.027,593.672Zm0-58.591c-15.858,0-30.756,3.021-41.95,8.507-11.029,5.405-17.1,12.532-17.1,20.066s6.074,14.661,17.1,20.066c11.193,5.486,26.091,8.507,41.95,8.507s30.756-3.021,41.95-8.507c11.029-5.405,17.1-12.532,17.1-20.066s-6.074-14.661-17.1-20.066C3239.783,538.1,3224.885,535.081,3209.027,535.081Z" transform="translate(-3136.006 -524.481)" fill="#fff"/>
      </g>
    </g>
    <g id="Group_1829" data-name="Group 1829" transform="translate(1150.572 787.4)">
      <g id="Layer_3-6" data-name="Layer 3" transform="translate(0 0)">
        <path id="Path_1866-6" data-name="Path 1866" d="M3169.112,1027.914l-36.073,28.681-61.937,3.56-45.31-32.241V941.674h143.32Z" transform="translate(-3024.448 -895.354)" fill="#c0902e"/>
        <path id="Path_1867-6" data-name="Path 1867" d="M3011.641,1019.815c24.312,44.893,126.82,41.933,144.587-1.341,3.11,15.78-3.127,27.047-15.588,35.5-28.82,19.555-83.724,19.74-112.677.466C3016.064,1046.519,3008.85,1036.308,3011.641,1019.815Z" transform="translate(-3011.042 -965.158)" fill="#e3ae59"/>
        <path id="Path_1868-6" data-name="Path 1868" d="M3011.641,1273c24.312,44.893,126.82,41.933,144.587-1.342,3.11,15.78-3.127,27.047-15.588,35.5-28.82,19.555-83.724,19.74-112.677.465C3016.064,1299.7,3008.85,1289.49,3011.641,1273Z" transform="translate(-3011.042 -1195.28)" fill="#e3ae59"/>
        <path id="Path_1869-6" data-name="Path 1869" d="M3012.839,1783.089c16.879,25.907,43.656,31.057,71.57,30.917,28.439-.142,55.891-5.062,72.36-33.046,2.5,14.462-2.669,25.545-14.48,34-29.177,20.884-86.467,21.062-115.716.255C3013.435,1805.868,3008.765,1794.5,3012.839,1783.089Z" transform="translate(-3011.378 -1658.195)" fill="#e3ae59"/>
        <path id="Path_1870-6" data-name="Path 1870" d="M3011.641,1526.179c24.312,44.893,126.82,41.933,144.587-1.341,3.11,15.78-3.127,27.047-15.588,35.5-28.82,19.555-83.724,19.74-112.677.465C3016.064,1552.883,3008.85,1542.672,3011.641,1526.179Z" transform="translate(-3011.042 -1425.401)" fill="#e3ae59"/>
        <ellipse id="Ellipse_189-6" data-name="Ellipse 189" cx="72.987" cy="40.365" rx="72.987" ry="40.365" transform="translate(0.034)" fill="#fbca47"/>
        <path id="Path_1871-6" data-name="Path 1871" d="M3434.263,661.672a9.973,9.973,0,0,0-5.729,2.19,13.1,13.1,0,0,0-1.27,1.5c-.032.038-.076.075-.163.159-.15-.128-.258-.222-.371-.315-1.626-1.334-4.051-2.026-7.28-2.133a28.269,28.269,0,0,0-5.657.333,13.715,13.715,0,0,0-6.133,2.48,14.109,14.109,0,0,0-3.709,4.217c-.349.573-.343.573-1.443.573-1.934,0-3.9.055-5.8.054l-1.93,3.91h6.979c-.062.364-.2.438-.3.7-.266.711-.54,1.384-.789,2.124-.089.264-.282.312-.745.311-2.25-.006-4.333-.028-6.748-.028l-2.319,4.634h8.032l-3.7,9.564h9.837c.29-1,.553-2.021.89-2.941.651-1.779,2.7-2.881,5.37-2.881q18.476,0,36.952-.029c2.436,0,3.817.842,4.272,2.43.308,1.077.6,2.055.937,3.421H3464.4l-3.822-9.564h7.069l-2.315-4.631c-2.113,0-3.853,0-5.741,0-.27,0-.629.165-.737-.095-.442-1.057-.911-2.194-1.3-3.014h6.172l-1.932-3.914c-.816,0-1.675-.024-2.478-.023-.919,0-1.882-.026-2.792-.008-.5.01-.72-.073-.886-.341a34.6,34.6,0,0,0-2.3-3.5,12.162,12.162,0,0,0-4.689-3.536,21.2,21.2,0,0,0-6.386-1.582A36.2,36.2,0,0,0,3434.263,661.672Zm-24.643,15.649c.5-1.531.851-3,1.439-4.4a6.228,6.228,0,0,1,3.034-3.188,11.169,11.169,0,0,1,7.746-.532,4.292,4.292,0,0,1,2.593,2.226,11.784,11.784,0,0,1,.516,5.948c-.026.281-.285.29-.651.29q-3.554-.005-7.109,0c-2.325,0-4.65,0-6.977,0C3409.766,677.665,3409.521,677.624,3409.621,677.32Zm32.937-9.655a7.047,7.047,0,0,1,3.358,1.992,11.291,11.291,0,0,1,2.526,4.476c.393,1.169.674,2.331,1.051,3.879h-.787c-5.089,0-10.178-.184-15.265-.167-.677,0-.871-.192-.871-.568,0-1.654-.114-3.281-.057-4.789a5.155,5.155,0,0,1,1.781-3.755C3435.893,667.283,3439.5,666.822,3442.558,667.666Z" transform="translate(-3356.258 -640.68)" fill="#fff"/>
        <path id="Path_1872-6" data-name="Path 1872" d="M3209.027,593.672c-16.075,0-31.2-3.074-42.585-8.654a40.644,40.644,0,0,1-13.039-9.489c-3.233-3.747-4.873-7.742-4.873-11.875s1.64-8.128,4.873-11.875a40.642,40.642,0,0,1,13.039-9.488c11.387-5.581,26.511-8.654,42.585-8.654s31.2,3.073,42.585,8.654a40.648,40.648,0,0,1,13.039,9.488c3.234,3.747,4.873,7.742,4.873,11.875s-1.639,8.129-4.873,11.875a40.65,40.65,0,0,1-13.039,9.489C3240.226,590.6,3225.1,593.672,3209.027,593.672Zm0-58.591c-15.858,0-30.756,3.021-41.95,8.507-11.029,5.405-17.1,12.532-17.1,20.066s6.074,14.661,17.1,20.066c11.193,5.486,26.091,8.507,41.95,8.507s30.756-3.021,41.95-8.507c11.029-5.405,17.1-12.532,17.1-20.066s-6.074-14.661-17.1-20.066C3239.783,538.1,3224.885,535.081,3209.027,535.081Z" transform="translate(-3136.006 -524.481)" fill="#fff"/>
      </g>
    </g>
    <g id="Group_1830" data-name="Group 1830" transform="translate(1242.005 790.117)">
      <g id="Layer_3-7" data-name="Layer 3" transform="translate(0 0)">
        <path id="Path_1866-7" data-name="Path 1866" d="M3169.112,1027.914l-36.073,28.681-61.937,3.56-45.31-32.241V941.674h143.32Z" transform="translate(-3024.448 -895.354)" fill="#c0902e"/>
        <path id="Path_1867-7" data-name="Path 1867" d="M3011.641,1019.815c24.312,44.893,126.82,41.933,144.587-1.341,3.11,15.78-3.127,27.047-15.588,35.5-28.82,19.555-83.724,19.74-112.677.466C3016.064,1046.519,3008.85,1036.308,3011.641,1019.815Z" transform="translate(-3011.042 -965.158)" fill="#e3ae59"/>
        <path id="Path_1868-7" data-name="Path 1868" d="M3011.641,1273c24.312,44.893,126.82,41.933,144.587-1.342,3.11,15.78-3.127,27.047-15.588,35.5-28.82,19.555-83.724,19.74-112.677.465C3016.064,1299.7,3008.85,1289.49,3011.641,1273Z" transform="translate(-3011.042 -1195.28)" fill="#e3ae59"/>
        <path id="Path_1869-7" data-name="Path 1869" d="M3012.839,1783.089c16.879,25.907,43.656,31.057,71.57,30.917,28.439-.142,55.891-5.062,72.36-33.046,2.5,14.462-2.669,25.545-14.48,34-29.177,20.884-86.467,21.062-115.716.255C3013.435,1805.868,3008.765,1794.5,3012.839,1783.089Z" transform="translate(-3011.378 -1658.195)" fill="#e3ae59"/>
        <path id="Path_1870-7" data-name="Path 1870" d="M3011.641,1526.179c24.312,44.893,126.82,41.933,144.587-1.341,3.11,15.78-3.127,27.047-15.588,35.5-28.82,19.555-83.724,19.74-112.677.465C3016.064,1552.883,3008.85,1542.672,3011.641,1526.179Z" transform="translate(-3011.042 -1425.401)" fill="#e3ae59"/>
        <ellipse id="Ellipse_189-7" data-name="Ellipse 189" cx="72.987" cy="40.365" rx="72.987" ry="40.365" transform="translate(0.034)" fill="#fbca47"/>
        <path id="Path_1871-7" data-name="Path 1871" d="M3434.263,661.672a9.973,9.973,0,0,0-5.729,2.19,13.1,13.1,0,0,0-1.27,1.5c-.032.038-.076.075-.163.159-.15-.128-.258-.222-.371-.315-1.626-1.334-4.051-2.026-7.28-2.133a28.269,28.269,0,0,0-5.657.333,13.715,13.715,0,0,0-6.133,2.48,14.109,14.109,0,0,0-3.709,4.217c-.349.573-.343.573-1.443.573-1.934,0-3.9.055-5.8.054l-1.93,3.91h6.979c-.062.364-.2.438-.3.7-.266.711-.54,1.384-.789,2.124-.089.264-.282.312-.745.311-2.25-.006-4.333-.028-6.748-.028l-2.319,4.634h8.032l-3.7,9.564h9.837c.29-1,.553-2.021.89-2.941.651-1.779,2.7-2.881,5.37-2.881q18.476,0,36.952-.029c2.436,0,3.817.842,4.272,2.43.308,1.077.6,2.055.937,3.421H3464.4l-3.822-9.564h7.069l-2.315-4.631c-2.113,0-3.853,0-5.741,0-.27,0-.629.165-.737-.095-.442-1.057-.911-2.194-1.3-3.014h6.172l-1.932-3.914c-.816,0-1.675-.024-2.478-.023-.919,0-1.882-.026-2.792-.008-.5.01-.72-.073-.886-.341a34.6,34.6,0,0,0-2.3-3.5,12.162,12.162,0,0,0-4.689-3.536,21.2,21.2,0,0,0-6.386-1.582A36.2,36.2,0,0,0,3434.263,661.672Zm-24.643,15.649c.5-1.531.851-3,1.439-4.4a6.228,6.228,0,0,1,3.034-3.188,11.169,11.169,0,0,1,7.746-.532,4.292,4.292,0,0,1,2.593,2.226,11.784,11.784,0,0,1,.516,5.948c-.026.281-.285.29-.651.29q-3.554-.005-7.109,0c-2.325,0-4.65,0-6.977,0C3409.766,677.665,3409.521,677.624,3409.621,677.32Zm32.937-9.655a7.047,7.047,0,0,1,3.358,1.992,11.291,11.291,0,0,1,2.526,4.476c.393,1.169.674,2.331,1.051,3.879h-.787c-5.089,0-10.178-.184-15.265-.167-.677,0-.871-.192-.871-.568,0-1.654-.114-3.281-.057-4.789a5.155,5.155,0,0,1,1.781-3.755C3435.893,667.283,3439.5,666.822,3442.558,667.666Z" transform="translate(-3356.258 -640.68)" fill="#fff"/>
        <path id="Path_1872-7" data-name="Path 1872" d="M3209.027,593.672c-16.075,0-31.2-3.074-42.585-8.654a40.644,40.644,0,0,1-13.039-9.489c-3.233-3.747-4.873-7.742-4.873-11.875s1.64-8.128,4.873-11.875a40.642,40.642,0,0,1,13.039-9.488c11.387-5.581,26.511-8.654,42.585-8.654s31.2,3.073,42.585,8.654a40.648,40.648,0,0,1,13.039,9.488c3.234,3.747,4.873,7.742,4.873,11.875s-1.639,8.129-4.873,11.875a40.65,40.65,0,0,1-13.039,9.489C3240.226,590.6,3225.1,593.672,3209.027,593.672Zm0-58.591c-15.858,0-30.756,3.021-41.95,8.507-11.029,5.405-17.1,12.532-17.1,20.066s6.074,14.661,17.1,20.066c11.193,5.486,26.091,8.507,41.95,8.507s30.756-3.021,41.95-8.507c11.029-5.405,17.1-12.532,17.1-20.066s-6.074-14.661-17.1-20.066C3239.783,538.1,3224.885,535.081,3209.027,535.081Z" transform="translate(-3136.006 -524.481)" fill="#fff"/>
      </g>
    </g>
    <g id="Group_1824" data-name="Group 1824" transform="translate(688.799 750.117)">
      <g id="Layer_3-8" data-name="Layer 3" transform="translate(0 0)">
        <path id="Path_1866-8" data-name="Path 1866" d="M3169.112,1027.914l-36.073,28.681-61.937,3.56-45.31-32.241V941.674h143.32Z" transform="translate(-3024.448 -895.354)" fill="#c0902e"/>
        <path id="Path_1867-8" data-name="Path 1867" d="M3011.641,1019.815c24.312,44.893,126.82,41.933,144.587-1.341,3.11,15.78-3.127,27.047-15.588,35.5-28.82,19.555-83.724,19.74-112.677.466C3016.064,1046.519,3008.85,1036.308,3011.641,1019.815Z" transform="translate(-3011.042 -965.158)" fill="#e3ae59"/>
        <path id="Path_1868-8" data-name="Path 1868" d="M3011.641,1273c24.312,44.893,126.82,41.933,144.587-1.342,3.11,15.78-3.127,27.047-15.588,35.5-28.82,19.555-83.724,19.74-112.677.465C3016.064,1299.7,3008.85,1289.49,3011.641,1273Z" transform="translate(-3011.042 -1195.28)" fill="#e3ae59"/>
        <path id="Path_1869-8" data-name="Path 1869" d="M3012.839,1783.089c16.879,25.907,43.656,31.057,71.57,30.917,28.439-.142,55.891-5.062,72.36-33.046,2.5,14.462-2.669,25.545-14.48,34-29.177,20.884-86.467,21.062-115.716.255C3013.435,1805.868,3008.765,1794.5,3012.839,1783.089Z" transform="translate(-3011.378 -1658.195)" fill="#e3ae59"/>
        <path id="Path_1870-8" data-name="Path 1870" d="M3011.641,1526.179c24.312,44.893,126.82,41.933,144.587-1.341,3.11,15.78-3.127,27.047-15.588,35.5-28.82,19.555-83.724,19.74-112.677.465C3016.064,1552.883,3008.85,1542.672,3011.641,1526.179Z" transform="translate(-3011.042 -1425.401)" fill="#e3ae59"/>
        <ellipse id="Ellipse_189-8" data-name="Ellipse 189" cx="72.987" cy="40.365" rx="72.987" ry="40.365" transform="translate(0.034)" fill="#fbca47"/>
        <path id="Path_1871-8" data-name="Path 1871" d="M3434.263,661.672a9.973,9.973,0,0,0-5.729,2.19,13.1,13.1,0,0,0-1.27,1.5c-.032.038-.076.075-.163.159-.15-.128-.258-.222-.371-.315-1.626-1.334-4.051-2.026-7.28-2.133a28.269,28.269,0,0,0-5.657.333,13.715,13.715,0,0,0-6.133,2.48,14.109,14.109,0,0,0-3.709,4.217c-.349.573-.343.573-1.443.573-1.934,0-3.9.055-5.8.054l-1.93,3.91h6.979c-.062.364-.2.438-.3.7-.266.711-.54,1.384-.789,2.124-.089.264-.282.312-.745.311-2.25-.006-4.333-.028-6.748-.028l-2.319,4.634h8.032l-3.7,9.564h9.837c.29-1,.553-2.021.89-2.941.651-1.779,2.7-2.881,5.37-2.881q18.476,0,36.952-.029c2.436,0,3.817.842,4.272,2.43.308,1.077.6,2.055.937,3.421H3464.4l-3.822-9.564h7.069l-2.315-4.631c-2.113,0-3.853,0-5.741,0-.27,0-.629.165-.737-.095-.442-1.057-.911-2.194-1.3-3.014h6.172l-1.932-3.914c-.816,0-1.675-.024-2.478-.023-.919,0-1.882-.026-2.792-.008-.5.01-.72-.073-.886-.341a34.6,34.6,0,0,0-2.3-3.5,12.162,12.162,0,0,0-4.689-3.536,21.2,21.2,0,0,0-6.386-1.582A36.2,36.2,0,0,0,3434.263,661.672Zm-24.643,15.649c.5-1.531.851-3,1.439-4.4a6.228,6.228,0,0,1,3.034-3.188,11.169,11.169,0,0,1,7.746-.532,4.292,4.292,0,0,1,2.593,2.226,11.784,11.784,0,0,1,.516,5.948c-.026.281-.285.29-.651.29q-3.554-.005-7.109,0c-2.325,0-4.65,0-6.977,0C3409.766,677.665,3409.521,677.624,3409.621,677.32Zm32.937-9.655a7.047,7.047,0,0,1,3.358,1.992,11.291,11.291,0,0,1,2.526,4.476c.393,1.169.674,2.331,1.051,3.879h-.787c-5.089,0-10.178-.184-15.265-.167-.677,0-.871-.192-.871-.568,0-1.654-.114-3.281-.057-4.789a5.155,5.155,0,0,1,1.781-3.755C3435.893,667.283,3439.5,666.822,3442.558,667.666Z" transform="translate(-3356.258 -640.68)" fill="#fff"/>
        <path id="Path_1872-8" data-name="Path 1872" d="M3209.027,593.672c-16.075,0-31.2-3.074-42.585-8.654a40.644,40.644,0,0,1-13.039-9.489c-3.233-3.747-4.873-7.742-4.873-11.875s1.64-8.128,4.873-11.875a40.642,40.642,0,0,1,13.039-9.488c11.387-5.581,26.511-8.654,42.585-8.654s31.2,3.073,42.585,8.654a40.648,40.648,0,0,1,13.039,9.488c3.234,3.747,4.873,7.742,4.873,11.875s-1.639,8.129-4.873,11.875a40.65,40.65,0,0,1-13.039,9.489C3240.226,590.6,3225.1,593.672,3209.027,593.672Zm0-58.591c-15.858,0-30.756,3.021-41.95,8.507-11.029,5.405-17.1,12.532-17.1,20.066s6.074,14.661,17.1,20.066c11.193,5.486,26.091,8.507,41.95,8.507s30.756-3.021,41.95-8.507c11.029-5.405,17.1-12.532,17.1-20.066s-6.074-14.661-17.1-20.066C3239.783,538.1,3224.885,535.081,3209.027,535.081Z" transform="translate(-3136.006 -524.481)" fill="#fff"/>
      </g>
    </g>
    <g id="Group_1825" data-name="Group 1825" transform="translate(775.077 739.4)">
      <g id="Layer_3-9" data-name="Layer 3" transform="translate(0 0)">
        <path id="Path_1866-9" data-name="Path 1866" d="M3169.112,1027.914l-36.073,28.681-61.937,3.56-45.31-32.241V941.674h143.32Z" transform="translate(-3024.448 -895.354)" fill="#c0902e"/>
        <path id="Path_1867-9" data-name="Path 1867" d="M3011.641,1019.815c24.312,44.893,126.82,41.933,144.587-1.341,3.11,15.78-3.127,27.047-15.588,35.5-28.82,19.555-83.724,19.74-112.677.466C3016.064,1046.519,3008.85,1036.308,3011.641,1019.815Z" transform="translate(-3011.042 -965.158)" fill="#e3ae59"/>
        <path id="Path_1868-9" data-name="Path 1868" d="M3011.641,1273c24.312,44.893,126.82,41.933,144.587-1.342,3.11,15.78-3.127,27.047-15.588,35.5-28.82,19.555-83.724,19.74-112.677.465C3016.064,1299.7,3008.85,1289.49,3011.641,1273Z" transform="translate(-3011.042 -1195.28)" fill="#e3ae59"/>
        <path id="Path_1869-9" data-name="Path 1869" d="M3012.839,1783.089c16.879,25.907,43.656,31.057,71.57,30.917,28.439-.142,55.891-5.062,72.36-33.046,2.5,14.462-2.669,25.545-14.48,34-29.177,20.884-86.467,21.062-115.716.255C3013.435,1805.868,3008.765,1794.5,3012.839,1783.089Z" transform="translate(-3011.378 -1658.195)" fill="#e3ae59"/>
        <path id="Path_1870-9" data-name="Path 1870" d="M3011.641,1526.179c24.312,44.893,126.82,41.933,144.587-1.341,3.11,15.78-3.127,27.047-15.588,35.5-28.82,19.555-83.724,19.74-112.677.465C3016.064,1552.883,3008.85,1542.672,3011.641,1526.179Z" transform="translate(-3011.042 -1425.401)" fill="#e3ae59"/>
        <ellipse id="Ellipse_189-9" data-name="Ellipse 189" cx="72.987" cy="40.365" rx="72.987" ry="40.365" transform="translate(0.034)" fill="#fbca47"/>
        <path id="Path_1871-9" data-name="Path 1871" d="M3434.263,661.672a9.973,9.973,0,0,0-5.729,2.19,13.1,13.1,0,0,0-1.27,1.5c-.032.038-.076.075-.163.159-.15-.128-.258-.222-.371-.315-1.626-1.334-4.051-2.026-7.28-2.133a28.269,28.269,0,0,0-5.657.333,13.715,13.715,0,0,0-6.133,2.48,14.109,14.109,0,0,0-3.709,4.217c-.349.573-.343.573-1.443.573-1.934,0-3.9.055-5.8.054l-1.93,3.91h6.979c-.062.364-.2.438-.3.7-.266.711-.54,1.384-.789,2.124-.089.264-.282.312-.745.311-2.25-.006-4.333-.028-6.748-.028l-2.319,4.634h8.032l-3.7,9.564h9.837c.29-1,.553-2.021.89-2.941.651-1.779,2.7-2.881,5.37-2.881q18.476,0,36.952-.029c2.436,0,3.817.842,4.272,2.43.308,1.077.6,2.055.937,3.421H3464.4l-3.822-9.564h7.069l-2.315-4.631c-2.113,0-3.853,0-5.741,0-.27,0-.629.165-.737-.095-.442-1.057-.911-2.194-1.3-3.014h6.172l-1.932-3.914c-.816,0-1.675-.024-2.478-.023-.919,0-1.882-.026-2.792-.008-.5.01-.72-.073-.886-.341a34.6,34.6,0,0,0-2.3-3.5,12.162,12.162,0,0,0-4.689-3.536,21.2,21.2,0,0,0-6.386-1.582A36.2,36.2,0,0,0,3434.263,661.672Zm-24.643,15.649c.5-1.531.851-3,1.439-4.4a6.228,6.228,0,0,1,3.034-3.188,11.169,11.169,0,0,1,7.746-.532,4.292,4.292,0,0,1,2.593,2.226,11.784,11.784,0,0,1,.516,5.948c-.026.281-.285.29-.651.29q-3.554-.005-7.109,0c-2.325,0-4.65,0-6.977,0C3409.766,677.665,3409.521,677.624,3409.621,677.32Zm32.937-9.655a7.047,7.047,0,0,1,3.358,1.992,11.291,11.291,0,0,1,2.526,4.476c.393,1.169.674,2.331,1.051,3.879h-.787c-5.089,0-10.178-.184-15.265-.167-.677,0-.871-.192-.871-.568,0-1.654-.114-3.281-.057-4.789a5.155,5.155,0,0,1,1.781-3.755C3435.893,667.283,3439.5,666.822,3442.558,667.666Z" transform="translate(-3356.258 -640.68)" fill="#fff"/>
        <path id="Path_1872-9" data-name="Path 1872" d="M3209.027,593.672c-16.075,0-31.2-3.074-42.585-8.654a40.644,40.644,0,0,1-13.039-9.489c-3.233-3.747-4.873-7.742-4.873-11.875s1.64-8.128,4.873-11.875a40.642,40.642,0,0,1,13.039-9.488c11.387-5.581,26.511-8.654,42.585-8.654s31.2,3.073,42.585,8.654a40.648,40.648,0,0,1,13.039,9.488c3.234,3.747,4.873,7.742,4.873,11.875s-1.639,8.129-4.873,11.875a40.65,40.65,0,0,1-13.039,9.489C3240.226,590.6,3225.1,593.672,3209.027,593.672Zm0-58.591c-15.858,0-30.756,3.021-41.95,8.507-11.029,5.405-17.1,12.532-17.1,20.066s6.074,14.661,17.1,20.066c11.193,5.486,26.091,8.507,41.95,8.507s30.756-3.021,41.95-8.507c11.029-5.405,17.1-12.532,17.1-20.066s-6.074-14.661-17.1-20.066C3239.783,538.1,3224.885,535.081,3209.027,535.081Z" transform="translate(-3136.006 -524.481)" fill="#fff"/>
      </g>
    </g>
  </g>
</svg>
