<svg xmlns="http://www.w3.org/2000/svg" width="1013.371" height="476.758" viewBox="0 0 1013.371 476.758">
  <g id="Group_1995" data-name="Group 1995" transform="translate(-471.096 -400.241)">
    <g id="Group_1419" data-name="Group 1419" transform="translate(990.747 400.241)">
      <path id="Path_1000" data-name="Path 1000" d="M929.977,198.331l-6.9-3.735-186,311.839,64.4-19.487Z" transform="translate(-510.231 -109.231)" fill="#f25536"/>
      <path id="Path_1001" data-name="Path 1001" d="M843.184,389.689l85.2-191.359-6.9-3.735-78.3,131.269Z" transform="translate(-508.636 -109.231)" fill="#f97243"/>
      <g id="Group_1414" data-name="Group 1414" transform="translate(330.977)">
        <path id="Path_1002" data-name="Path 1002" d="M843.152,128.226a8.885,8.885,0,0,1-1.937-1.938,10.011,10.011,0,0,1-1.548-5.659,10.935,10.935,0,0,1,.23-1.785,16.1,16.1,0,0,1,1.936-4.729,8.519,8.519,0,0,1,5.006-3.6,6.9,6.9,0,0,1,1.893.1,8.157,8.157,0,0,1,3.887,2.235,7.034,7.034,0,0,1,1.053,2.513c.221.791.059,1.558.273,2.351a20.51,20.51,0,0,1-.578,4.863,15.007,15.007,0,0,1-1.333,4.335,5.81,5.81,0,0,1-5.926,2.284A8.883,8.883,0,0,1,843.152,128.226Zm25.578-15.339c.272.058.485.191.217.561a2.832,2.832,0,0,1-1.167,1.692c-.517.647-1.4,1.222-1.928,1.912-1.522,1.57-2.639,3.273-4.1,4.53-2.489,2.549-4.989,5.148-7.512,8.067-2.953,2.931-5.588,6.157-8.611,9.447-.562.638-.716,1.361-1.606,1.98-.445.285-1.593.054-2.326-.092-.368-.075-.735-.149-.3-.433.089-.406.53-.692.606-1.055a7.245,7.245,0,0,1,1.975-1.9c3.026-3.289,6.109-6.847,9.12-10.046,3.029-3.292,6.028-6.447,8.98-9.372,1.032-1.3,2.567-2.914,3.61-4.254.444-.287.592-1,1.459-1.258l.733.149C868.064,112.85,868.451,112.831,868.729,112.886Zm-21.9,11.9a2.668,2.668,0,0,0,1.313-1.708,9.492,9.492,0,0,0,.459-1.5,16.754,16.754,0,0,0,.244-3.706c-.284-.478-.133-1.2-.789-1.708a1.536,1.536,0,0,0-.4-.174,1.962,1.962,0,0,0-1.712.877,6.3,6.3,0,0,0-1.086,2.692c-.182.861-.268,1.735-.4,2.411a2.71,2.71,0,0,0,.685,2.439Zm21.634,12.785a15.486,15.486,0,0,1-.83,2.84,8.735,8.735,0,0,1-2.726,3.68,5.853,5.853,0,0,1-4.175,1.226,12.66,12.66,0,0,1-2.158-.663c-1.908-.713-3.074-2.451-3.794-4.52a14.94,14.94,0,0,1,.083-6.134,11.482,11.482,0,0,1,2.73-5.555,6.323,6.323,0,0,1,5.587-2.026,3.891,3.891,0,0,1,.681.186,6.826,6.826,0,0,1,4.383,3.741,9.011,9.011,0,0,1,.667,3.467A24.771,24.771,0,0,1,868.468,137.571Zm-4.308-.2c.233-1.129.293-2.337.457-3.335.231-1.128.316-3.364-1.154-3.659a3.374,3.374,0,0,0-3.724,2.729,13.764,13.764,0,0,0-.845,2.693,14.706,14.706,0,0,0-.3,2.8,2.8,2.8,0,0,0,1.718,3.023c1.882.378,2.682-1.389,3.347-2.755A5.684,5.684,0,0,0,864.16,137.368Z" transform="translate(-839.666 -110.495)" fill="#fff1d7"/>
      </g>
      <g id="Group_1415" data-name="Group 1415" transform="translate(225.947 214.13)">
        <path id="Path_1003" data-name="Path 1003" d="M748.4,358.466a12.8,12.8,0,0,1-3.787-.918,14.483,14.483,0,0,1-6.115-5.667,16.091,16.091,0,0,1-1.069-2.31,22.6,22.6,0,0,1-1.235-7.075,11.686,11.686,0,0,1,3.3-7.943,9.571,9.571,0,0,1,2.346-1.258,11.716,11.716,0,0,1,6.341-.136,10.377,10.377,0,0,1,3.159,2.246c.855.794,1.242,1.829,2.1,2.624a29.669,29.669,0,0,1,2.964,6.25c.75,2.012,1.672,4.5,1.665,6.162a7.975,7.975,0,0,1-5.394,7.04A12.517,12.517,0,0,1,748.4,358.466Zm1.825-6.8a3.689,3.689,0,0,0,.287-3,13.205,13.205,0,0,0-.585-2.136,24.159,24.159,0,0,0-2.495-4.623c-.7-.368-1.064-1.344-2.238-1.473a2.082,2.082,0,0,0-.6.079,2.7,2.7,0,0,0-1.394,2.3,8.9,8.9,0,0,0,.723,4.014c.429,1.156.985,2.268,1.326,3.18a3.92,3.92,0,0,0,2.659,2.425Zm17.3-30.146c.374-.135.73-.124.682.512a3.927,3.927,0,0,1-.122,2.874c-.134,1.152-.763,2.484-.871,3.694-.642,2.992-.7,5.84-1.505,8.4-1.07,4.871-2.116,9.8-2.939,15.128-1.34,5.654-2.065,11.435-3.219,17.574-.2,1.177.161,2.148-.443,3.537-.315.667-1.863,1.224-2.857,1.58-.493.175-.99.357-.673-.313-.2-.546.109-1.21-.075-1.7a9.988,9.988,0,0,1,.938-3.714c1.152-6.141,2.174-12.647,3.374-18.665,1.158-6.14,2.38-12.1,3.716-17.751.265-2.3.886-5.354,1.133-7.719.315-.667-.05-1.636.8-2.562l.995-.357C766.7,321.954,767.147,321.656,767.519,321.523Zm18.27,29.794a22.387,22.387,0,0,1,1.142,4.006c.189,2.207.443,4.392-.5,6.388-1,2.015-1.756,3.39-4.083,4.5a17.741,17.741,0,0,1-3.086.761c-2.827.532-5.532-.7-7.952-2.663a21.5,21.5,0,0,1-4.52-7.414,16.034,16.034,0,0,1-.9-8.647,8.658,8.658,0,0,1,5.178-6.478,5.156,5.156,0,0,1,.95-.273c2.54-.913,5.927-.123,8.079,1.306a13.12,13.12,0,0,1,3.406,3.679A35.379,35.379,0,0,1,785.788,351.317Zm-5.323,2.878c-.566-1.523-1.4-3.017-1.963-4.333-.564-1.519-2.153-4.262-4.132-3.55-2.547.913-3.163,3.964-2.418,5.971a19.484,19.484,0,0,0,1.016,3.845,20.794,20.794,0,0,0,1.748,3.577c.571,1.523,2.844,2.914,4.334,2.377,2.543-.911,2.17-3.6,1.939-5.73A8.02,8.02,0,0,0,780.466,354.195Z" transform="translate(-736.191 -321.454)" fill="#fff1d7"/>
      </g>
      <path id="Path_1004" data-name="Path 1004" d="M885.962,414.854l-36.655,41.407V582.678h36.655Z" transform="translate(-508.544 -105.92)" fill="#ffcd50"/>
      <path id="Path_1005" data-name="Path 1005" d="M849.307,461.849V581.972h36.655V504.236C873.35,500.215,858.986,484.035,849.307,461.849Z" transform="translate(-508.544 -105.214)" fill="#ffb53e"/>
      <path id="Path_1006" data-name="Path 1006" d="M832.58,484.158l-34.313,44.209v53.269H832.58Z" transform="translate(-509.311 -104.879)" fill="#ffb53e"/>
      <path id="Path_1007" data-name="Path 1007" d="M941.945,359.627l-15.334,30.992-21.318,12.368V583.508h36.652Z" transform="translate(-507.703 -106.75)" fill="#ffcd50"/>
      <path id="Path_1008" data-name="Path 1008" d="M934.027,526.671c-11.282,0-21.464-10.13-28.734-26.395v81.118h36.652V524.968A19.732,19.732,0,0,1,934.027,526.671Z" transform="translate(-507.703 -104.637)" fill="#ffb53e"/>
      <path id="Path_1009" data-name="Path 1009" d="M1000.543,216.233l-36.654,91.005V585.663h36.654Z" transform="translate(-506.822 -108.906)" fill="#ffcd50"/>
      <path id="Path_1010" data-name="Path 1010" d="M963.889,522.775v58.281h36.654V547.7C988.682,547.571,976.01,538.51,963.889,522.775Z" transform="translate(-506.822 -104.298)" fill="#ffb53e"/>
      <g id="Group_1416" data-name="Group 1416" transform="translate(284.135 94.911)">
        <path id="Path_1011" data-name="Path 1011" d="M798.86,533.08l-5.343-3.9,80.3-105.982,51.788-31.365L1003.1,204v14.726L930.975,396.264,878.407,428.1Z" transform="translate(-793.518 -204)" fill="#ffcd50"/>
      </g>
      <path id="Path_1012" data-name="Path 1012" d="M963.252,130.6l-75.111,75.473,36.777-8.293,12.469,34.965Z" transform="translate(-507.961 -110.192)" fill="#f97243"/>
      <path id="Path_1013" data-name="Path 1013" d="M541.954,583.188h379.1c16.546-19.361.975-43.711-24.421-29.7-.32-.807-3.655-3.347-3.916-4.158-6.771-.072-11.663.316-15.183,5-.319-.809,3.122-10.316-5.941-6.626-12.418,5.051.267-9.457,1.085-23.61.7-12.061-8.183-23.957-38.066-21.686-2.906.223-12.985,2.4-21.283,5.681a65.517,65.517,0,0,0-.056-8.133c-1.66-15.016-8.7-29.839-9.1-44.881-.183-6.774,11.1-24.6-5.977-22.482.824-8.251,6.236-16.287,7.084-24.927.236-2.357-1.593-3.337-1.128-5.928.96-5.365,11.462-10.041,9.838-16-3.422-12.534-11.259,2.863-14.65,6.085-2.5,2.379-7.716,3.773-9.718,6.161-1.936,2.311-.952,5.854-2.28,7.53-4.662,5.932-18.175,8.354-21.7,16.274-1.036,2.328,1.8,5.374.071,7.493-1.468,1.8-6.891,1.256-8.257,3.187-1.319,1.852.51,5.931-.038,6.617-2.889,3.623-6.066,3.566-12.119,5.714-10.478,3.726-20.615,9.719-17.88,20.2-6.522,1.014-21,2.186-25.085,6.359-5.389,5.506,3,8.683,2.041,14.7-1.653,10.433-14.642,6.572-21.384,10.62-11.521-28.228-55.166-38.064-75.848-14.025-22.019,25.594,42.126,28.218,33.819,42.583-13.43-3.749-60.547-4.34-31.5,12.549-9.776-3.479-29.989-6.953-35.653,1.651-4.459,6.766,5.219,13.11,13.7,14.242a19.377,19.377,0,0,0,.246,2.04c-14.652-9.1-64.39-11.137-72.838,4.026C509.71,569.1,520.04,583.188,541.954,583.188Z" transform="translate(-513.59 -106.431)" fill="#fff1d7"/>
      <path id="Path_1014" data-name="Path 1014" d="M911.24,548.043c-10.6,3.288-19.245,11.868-29.577,15.605-11.884,4.3-21.264,3.861-33.485,2.546-7.254-.781-17.584,1.222-22.509-5.564a15.084,15.084,0,0,1-1.41-13.355c-4.11,4.765-18.24,4.973-22.909,5.514-7.6.873-17.487,2.916-25.047,1.322-3.6-.755-4.189-3.23-8.008-3.039-7.44.367-14.165,9.64-22.261,10.32-1.72.143-3.227.989-5.058.709-1.972-.3-1.626-2.95-2.894-3.2-5.8-1.156-10.3,1.094-16.111,2.623-12.336,3.255-28.682,3.525-41.146.559-10.5-2.493-31.159-14.128-19.843-26.222,1.721-1.831,13.463-7.083,22.8-8.622a6.832,6.832,0,0,1,.758-2.091c1.674-2.968,11.236-5.979,14.616-7.429-3.272-2.113-4.311-6.99-.573-8.9a84.388,84.388,0,0,1-14-14.2,11.413,11.413,0,0,0-1.595.763c-11.521-28.228-55.166-38.064-75.848-14.025-22.019,25.594,22.834,22.613,14.527,36.977-13.43-3.748-41.256,1.266-12.21,18.155-9.776-3.479-29.989-6.953-35.653,1.651-4.459,6.766,5.219,13.11,13.7,14.242a19.373,19.373,0,0,0,.246,2.04c-14.652-9.1-64.39-11.137-72.838,4.026-5.209,9.356,5.121,23.44,27.035,23.44h379.1C934.1,566.624,927.185,548.287,911.24,548.043Z" transform="translate(-513.59 -105.125)" fill="#ffe8bb"/>
      <g id="Group_1417" data-name="Group 1417" transform="translate(312.384 127.198)">
        <path id="Path_1015" data-name="Path 1015" d="M852.179,240.822c.268.086.461.247.146.579a2.856,2.856,0,0,1-1.367,1.539c-.594.58-1.544,1.042-2.155,1.666-1.712,1.375-3.036,2.926-4.641,3.994-2.8,2.23-5.6,4.5-8.472,7.1-3.3,2.548-6.318,5.43-9.736,8.328-.637.565-.878,1.262-1.841,1.768-.476.229-1.589-.138-2.3-.374-.36-.118-.712-.232-.236-.468.135-.389.612-.622.728-.97a7.354,7.354,0,0,1,2.2-1.65c3.417-2.9,6.926-6.053,10.318-8.863,3.418-2.9,6.792-5.662,10.087-8.208,1.194-1.162,2.915-2.577,4.119-3.782.478-.231.717-.926,1.608-1.069l.713.232C851.529,240.7,851.915,240.731,852.179,240.822Zm-27.3,12.116a8.7,8.7,0,0,1-1.682-2.162,9.993,9.993,0,0,1-.826-5.806,11.837,11.837,0,0,1,.452-1.745,16.156,16.156,0,0,1,2.525-4.453,8.555,8.555,0,0,1,5.418-2.964,6.976,6.976,0,0,1,1.864.326,8.166,8.166,0,0,1,3.575,2.694,7.053,7.053,0,0,1,.731,2.62c.117.814-.14,1.557-.022,2.369a20.927,20.927,0,0,1-1.192,4.75,15.085,15.085,0,0,1-1.867,4.14,5.832,5.832,0,0,1-6.172,1.548A8.786,8.786,0,0,1,824.874,252.939Zm4.082-2.969a2.682,2.682,0,0,0,1.517-1.534,9.356,9.356,0,0,0,.642-1.438,17.015,17.015,0,0,0,.716-3.648c-.225-.513.014-1.207-.573-1.794a1.561,1.561,0,0,0-.371-.22,1.99,1.99,0,0,0-1.811.664,6.421,6.421,0,0,0-1.416,2.542c-.286.827-.482,1.684-.705,2.338a2.708,2.708,0,0,0,.374,2.5Zm19.851,15.317A15.426,15.426,0,0,1,847.627,268a8.875,8.875,0,0,1-3.165,3.32,5.906,5.906,0,0,1-4.3.713,12.524,12.524,0,0,1-2.055-.926c-1.8-.937-2.746-2.8-3.19-4.942a15,15,0,0,1,.845-6.077,11.542,11.542,0,0,1,3.421-5.178,6.329,6.329,0,0,1,5.8-1.334,3.842,3.842,0,0,1,.65.265,6.793,6.793,0,0,1,3.878,4.244,8.965,8.965,0,0,1,.22,3.523A24.017,24.017,0,0,1,848.808,265.286Zm-4.246-.729c.379-1.088.586-2.28.87-3.254.374-1.09.743-3.3-.682-3.769a3.39,3.39,0,0,0-4.037,2.251,14.433,14.433,0,0,0-1.829,5.318,2.8,2.8,0,0,0,1.321,3.205c1.822.6,2.834-1.053,3.67-2.327A5.832,5.832,0,0,0,844.562,264.558Z" transform="translate(-821.348 -235.809)" fill="#fff1d7"/>
      </g>
      <path id="Path_1016" data-name="Path 1016" d="M974.877,580.59h-74.3s-1.622-7.089,10.149-14.715,8.53,9.264,19.9,2.723,15.43-15.8,24.363-14.71-4.063,17.437,5.68,14.71S1000.457,563.151,974.877,580.59Z" transform="translate(-507.775 -103.832)" fill="#ffe8bb"/>
      <path id="Path_1017" data-name="Path 1017" d="M938.709,532.57c-2.6-3.8-8.324-.577-11.319,4.258-2,3.235-2.416,6.728-1.432,8.706,1.025,2.06,3.685,2.757,6.786,1.011C937.537,543.838,941.5,536.666,938.709,532.57Z" transform="translate(-507.4 -104.176)" fill="#fff1d7"/>
      <path id="Path_1018" data-name="Path 1018" d="M984.56,549.276c-.523-3.475-4.8-3.1-7.869-.728-2.052,1.586-3.233,3.868-3.178,5.561.059,1.755,1.454,3.1,3.764,2.9C980.849,556.7,985.125,553.022,984.56,549.276Z" transform="translate(-506.678 -103.939)" fill="#fff1d7"/>
      <path id="Path_1019" data-name="Path 1019" d="M658.951,473.213c-14.909-5.7-34.061-5.389-41.448,2.388-8.5,8.939,3.381,21.571,23.908,26.085,17.264,3.8,32.068-.378,35.1-8C679.232,486.819,671.913,478.17,658.951,473.213Z" transform="translate(-512.07 -105.102)" fill="#fff1d7"/>
      <path id="Path_1020" data-name="Path 1020" d="M677.819,521.632l-9.993,5.085c11.843,1.814,22.573,1.45,31.451,12.712C699.277,539.43,690.031,523.445,677.819,521.632Z" transform="translate(-511.272 -104.316)" fill="#ffe8bb"/>
      <path id="Path_1021" data-name="Path 1021" d="M648.408,539.909c-5.9-3.1-12.363-2.522-14.438,1.291s1.023,9.413,6.921,12.513,12.363,2.52,14.443-1.293S654.31,543.007,648.408,539.909Z" transform="translate(-511.79 -104.071)" fill="#fff1d7"/>
      <path id="Path_1022" data-name="Path 1022" d="M676.181,513.023c-2.6-2.74-8.57-6.06-12.714-3.655-11.21,6.464,4.84,15.651,12.325,13.3a4.193,4.193,0,0,0,3.015-4.721A9.587,9.587,0,0,0,676.181,513.023Z" transform="translate(-511.395 -104.512)" fill="#fff1d7"/>
      <path id="Path_1023" data-name="Path 1023" d="M601.126,536.128c-10.234-5.369-23.955-5.8-26.587-.95-1.977,3.652,4.194,8.341,11.956,10.771,6.541,2.045,13.914,2.39,17.953.812C609.345,544.843,609,540.252,601.126,536.128Z" transform="translate(-512.679 -104.163)" fill="#fff1d7"/>
      <path id="Path_1024" data-name="Path 1024" d="M584.077,521.06c-5.017-2.651-13.171-2.853-16.122-.12-2.48,2.305.742,5.191,5.728,6.471,4.058,1.042,8.719.847,11.292-.378C587.855,525.66,587.922,523.092,584.077,521.06Z" transform="translate(-512.785 -104.356)" fill="#ffe8bb"/>
      <path id="Path_1025" data-name="Path 1025" d="M693.731,486.506c2.625-2.487,2.365-8.271-4.136-10.331-7.364-2.307-9.464,3.584-7.13,7.693a8.756,8.756,0,0,0,5.561,3.977A6.545,6.545,0,0,0,693.731,486.506Z" transform="translate(-511.065 -105.007)" fill="#ffe8bb"/>
      <path id="Path_1026" data-name="Path 1026" d="M716.9,508.352c4.466-7.217-10.769-17.347-27.282-16.314-10.553.685-11.574,6.487-7.193,11.212,3.171,3.4,9.354,6.506,15.51,7.94C705.454,512.941,714.361,512.452,716.9,508.352Z" transform="translate(-511.089 -104.762)" fill="#ffe8bb"/>
      <path id="Path_1027" data-name="Path 1027" d="M730.573,508.889c4.461-7.219-10.771-17.348-27.285-16.317-10.55.686-11.575,6.493-7.194,11.213,3.176,3.4,9.359,6.509,15.514,7.943C719.123,513.477,728.03,512.988,730.573,508.889Z" transform="translate(-510.883 -104.753)" fill="#fff1d7"/>
      <g id="Group_1418" data-name="Group 1418" transform="translate(248.096 427.485)">
        <path id="Path_1028" data-name="Path 1028" d="M759.723,531.65s-6.658,15.619,6.292,26.153l23.379-.883C778.9,555.718,759.421,547.877,759.723,531.65Z" transform="translate(-758.012 -531.65)" fill="#ffe8bb"/>
      </g>
      <path id="Path_1029" data-name="Path 1029" d="M817.684,467.956c-4.875,14.363-18.318.546-11.657-9.262S819.346,463.055,817.684,467.956Z" transform="translate(-509.222 -105.312)" fill="#fff1d7"/>
      <path id="Path_1030" data-name="Path 1030" d="M816.905,441.642c-3.013,11.782-11.312.446-7.2-7.6S817.932,437.617,816.905,441.642Z" transform="translate(-509.156 -105.674)" fill="#fff1d7"/>
      <path id="Path_1031" data-name="Path 1031" d="M830.347,452.774c-2.928,5.606-11.006.212-7.006-3.615S831.351,450.86,830.347,452.774Z" transform="translate(-508.951 -105.425)" fill="#fff1d7"/>
      <path id="Path_1032" data-name="Path 1032" d="M742.647,428.8c-2.931,5.6-11.011.208-7.008-3.617S743.648,426.887,742.647,428.8Z" transform="translate(-510.269 -105.785)" fill="#fff1d7"/>
      <path id="Path_1033" data-name="Path 1033" d="M610.34,511.864c-2.931,5.6-11.009.207-7.01-3.616S611.34,509.946,610.34,511.864Z" transform="translate(-512.257 -104.537)" fill="#ffe8bb"/>
    </g>
    <g id="Group_1420" data-name="Group 1420" transform="translate(704.783 615.607)">
      <path id="Path_1034" data-name="Path 1034" d="M382.257,324.03c.679-.815,2.986-1.087,2.986-1.087s-3.8-1.085-5.834,1.087-.269,6.509-.269,6.509l5.016,2.442S379.118,327.793,382.257,324.03Z" transform="translate(-229.658 -322.672)" fill="#a35540"/>
      <path id="Path_1035" data-name="Path 1035" d="M531.185,398.191l4.476,12.343L523.587,404.7l2.036-7.323Z" transform="translate(-227.476 -321.549)" fill="#3a242a"/>
      <rect id="Rectangle_905" data-name="Rectangle 905" width="9.36" height="47.207" transform="translate(325.954 90.477)" fill="#ffad4a"/>
      <rect id="Rectangle_906" data-name="Rectangle 906" width="13.02" height="45.169" transform="translate(411.954 216.223)" fill="#ffad4a"/>
      <rect id="Rectangle_907" data-name="Rectangle 907" width="13.021" height="63.079" transform="translate(402.594 198.312)" fill="#ffad4a"/>
      <rect id="Rectangle_908" data-name="Rectangle 908" width="13.022" height="15.467" transform="translate(422.127 245.924)" fill="#ffad4a"/>
      <path id="Path_1036" data-name="Path 1036" d="M531.359,402.673,385.307,360.51,353.616,374l-39.848,52.4-43.3,60.247L251.64,583.5H654.528L618.757,471.584Z" transform="translate(-231.563 -322.103)" fill="#ffcd50"/>
      <path id="Path_1037" data-name="Path 1037" d="M376.973,537.1l26.043-100.105,43.95-36.624,53.716,9.768,103.446,49.914-72.77-57.379L385.307,360.51,353.616,374l-39.848,52.4-43.3,60.247L251.64,583.5h100.4Z" transform="translate(-231.563 -322.103)" fill="#ffad4a"/>
      <path id="Path_1038" data-name="Path 1038" d="M365.107,354.41c-3.689,8.223-2.19,20.935,3.554,26.984l11.581-11.01S368.8,346.19,365.107,354.41Z" transform="translate(-229.888 -322.221)" fill="#5b3e43"/>
      <path id="Path_1039" data-name="Path 1039" d="M420.191,353.725c-11.988,12.242-43.135,23.865-45.326,14.41,0,0-15.255-2.646-10.33-18.012,0,0-12.431-6.2-8.875-12.4,0,0-2.9-1.944,1.059-6.594,3.939-4.625,10.416-3.955,10.416-3.955s5.608-6.736,15.294,3.849C402.41,336.984,420.191,353.725,420.191,353.725Z" transform="translate(-230.015 -322.636)" fill="#a35540"/>
      <path id="Path_1040" data-name="Path 1040" d="M399.926,338.668c-.012.188,0,.377-.024.567-.973,7.5-12.453,12.2-25.643,10.483-8.285-1.079-15.265-4.431-19.072-8.631,1.275,4.8,9.339,8.832,9.339,8.832-4.925,15.366,10.33,18.012,10.33,18.012,2.191,9.455,33.339-2.168,45.326-14.41A124.139,124.139,0,0,0,399.926,338.668Z" transform="translate(-230.007 -322.432)" fill="#8e412f"/>
      <path id="Path_1041" data-name="Path 1041" d="M421.9,339.958l16.005-.313-5.58,13.242-16.072,2.132Z" transform="translate(-229.089 -322.417)" fill="#ffbe8d"/>
      <path id="Path_1042" data-name="Path 1042" d="M384.182,359.4c-5.875-3.049-6.669-26.334-3.767-27.926s36.713-2.04,47.068.313c0,0-.314,13.647-7.139,20.238C413.318,358.806,389.8,362.316,384.182,359.4Z" transform="translate(-229.652 -322.56)" fill="#ffd7a6"/>
      <path id="Path_1043" data-name="Path 1043" d="M379.131,358.018c1.587-5.258,21.431-5.561,29.569-2.576l-2.848,3.933S376.959,365.208,379.131,358.018Z" transform="translate(-229.649 -322.208)" fill="#8e412f"/>
      <path id="Path_1044" data-name="Path 1044" d="M399.776,355.888c-4.352-.782-11.914,5.617-5.907,6.3S406.656,357.12,399.776,355.888Z" transform="translate(-229.459 -322.174)" fill="#ffae85"/>
      <path id="Path_1045" data-name="Path 1045" d="M435.395,337.651l-9.884,15.782,10.858-4.2,15.358-11.439Z" transform="translate(-228.95 -322.447)" fill="#fff3d9"/>
      <path id="Path_1046" data-name="Path 1046" d="M590.368,422.811l-.726,12.922,4.095,1.51-.246-19.694Z" transform="translate(-226.483 -321.246)" fill="#ffae85"/>
      <path id="Path_1047" data-name="Path 1047" d="M579.048,420.861l-2.821,13.495,3.764,2.51L582.971,416Z" transform="translate(-226.685 -321.269)" fill="#ffae85"/>
      <path id="Path_1048" data-name="Path 1048" d="M593.508,434.578c-3.376-2.2-8.537,2.45-8.537,2.45l-.2.1,14.223,22.232S596.886,436.783,593.508,434.578Z" transform="translate(-226.556 -320.999)" fill="#fff3d9"/>
      <path id="Path_1049" data-name="Path 1049" d="M578.345,432.693c-3.923-.941-7.218,5.175-7.218,5.175l-.157.16,20.865,16.158S582.268,433.633,578.345,432.693Z" transform="translate(-226.764 -321.02)" fill="#fff3d9"/>
      <path id="Path_1050" data-name="Path 1050" d="M596.9,428.365l-8.791.016s-7.668-71.519-2.168-76.325c5.462-4.772,11.922-5.941,13.134-.717C602.263,365.106,596.9,428.365,596.9,428.365Z" transform="translate(-226.569 -322.293)" fill="#5b3e43"/>
      <path id="Path_1051" data-name="Path 1051" d="M592.6,401.346c1.116-14.9,4.132-27.69,7.483-33.254.023-7.376-.25-13.472-1.01-16.752-1.212-5.224-7.672-4.055-13.134.717-5.5,4.806,2.168,76.325,2.168,76.325l5.229-.008C592.139,421.738,591.794,412.091,592.6,401.346Z" transform="translate(-226.569 -322.293)" fill="#56383d"/>
      <path id="Path_1052" data-name="Path 1052" d="M518.033,400.8c6.03,2.576,11.137,4.854,28.545-3.913,18.192-9.164,52.993-34.762,52.993-34.762l-4-15.058-67.218,23.028a49.208,49.208,0,0,1-14.622-4.837C508.279,372.846,509.429,397.13,518.033,400.8Z" transform="translate(-227.674 -322.305)" fill="#4f3339"/>
      <path id="Path_1053" data-name="Path 1053" d="M505.511,393.894l22.673,23.222-.863-16.863Z" transform="translate(-227.748 -321.602)" fill="#3a242a"/>
      <path id="Path_1054" data-name="Path 1054" d="M516.547,401.718c6.431,1.786,12.031,4.668,30.053-8.723,17.615-13.094,51.072-40.814,51.072-40.814l-5.421-13.693-63.694,27.9a43.623,43.623,0,0,1-15.1-3.215C507.289,372.471,507.237,399.137,516.547,401.718Z" transform="translate(-227.693 -322.434)" fill="#684a4e"/>
      <path id="Path_1055" data-name="Path 1055" d="M545.887,379.4c-18.462,13.115-23.974,11.418-30.56,9.532-2.818-.8-4.811-3.815-6.069-7.881-.27,10.1,2.043,20.358,7.511,21.876,6.431,1.785,11.808,3.4,29.83-9.992,17.615-13.094,51.072-40.814,51.072-40.814l-3.714-9.385C584.22,350.406,560.055,369.332,545.887,379.4Z" transform="translate(-227.692 -322.371)" fill="#5b3e43"/>
      <path id="Path_1056" data-name="Path 1056" d="M518.936,364.433s-12.162-10.59-25.1-14.121c-11.589-3.161-9.728,34.517-9.728,34.517l30.748,16.943Z" transform="translate(-228.071 -322.259)" fill="#fff3d9"/>
      <path id="Path_1057" data-name="Path 1057" d="M506.057,355.633c-.538,14.093,7.66,36.815,11.837,47.391a17.655,17.655,0,0,0,9.262.438c-7.96-10.147-15.658-35.088-18.911-46.536C507.541,356.493,506.807,356.063,506.057,355.633Z" transform="translate(-227.74 -322.177)" fill="#964e47" opacity="0.5" style="mix-blend-mode: multiply;isolation: isolate"/>
      <path id="Path_1058" data-name="Path 1058" d="M414.3,368.535c23.693,16.917,68.438,10.765,115.271,49.439-11.445-15.041-17.015-36.53-20.711-62.756,0,0-19.611-14.9-53.969-18.356C441.018,335.469,406.566,363.011,414.3,368.535Z" transform="translate(-229.135 -322.46)" fill="#684a4e"/>
      <path id="Path_1059" data-name="Path 1059" d="M414.313,368.18C437.17,384.5,479.622,379.364,524.634,413.7c-15.15-20.4-44.533-36.431-68.42-48.328-11.31-5.633-26.62-5.371-33.1-4.341C412.53,368.849,410.126,365.189,414.313,368.18Z" transform="translate(-229.148 -322.104)" fill="#5b3e43"/>
      <path id="Path_1060" data-name="Path 1060" d="M583.911,430.214l-7.561-1.878s8.27-86.1,14.891-89.83c6.571-3.7,11.553,1.366,11.348,7.548C602.046,362.415,583.911,430.214,583.911,430.214Z" transform="translate(-226.683 -322.453)" fill="#684a4e"/>
      <path id="Path_1061" data-name="Path 1061" d="M587.729,346.754C582.018,369.187,576.35,428.2,576.35,428.2l4.44,1.1C581.908,417.859,588.914,342.089,587.729,346.754Z" transform="translate(-226.683 -322.313)" fill="#5b3e43"/>
      <path id="Path_1062" data-name="Path 1062" d="M433.034,374.67c-12.827,2.7-58.109,10.166-63.24,7.633s-3.793-16.14.448-17.165,56.222-14.476,59.125-13.9S439.727,373.26,433.034,374.67Z" transform="translate(-229.837 -322.243)" fill="#684a4e"/>
      <path id="Path_1063" data-name="Path 1063" d="M370.8,366.329c-.209-.1-5.783-2.716-5.969-2.847-1.388,4.526,1.491,16.957,4.99,18.688,5.131,2.533,50.763-3.042,63.589-5.743,3.366-.714,7.382-9.623,1.89-16.335C430.851,362.718,376.578,369.067,370.8,366.329Z" transform="translate(-229.867 -322.11)" fill="#5b3e43"/>
      <rect id="Rectangle_909" data-name="Rectangle 909" width="10.987" height="12.619" transform="translate(396.084 248.773)" fill="#ffad4a"/>
      <rect id="Rectangle_910" data-name="Rectangle 910" width="10.989" height="34.185" transform="translate(136.051 201.568)" fill="#ffcd50"/>
      <rect id="Rectangle_911" data-name="Rectangle 911" width="10.987" height="34.184" transform="translate(144.19 180.409)" fill="#ffcd50"/>
      <rect id="Rectangle_912" data-name="Rectangle 912" width="10.988" height="34.183" transform="translate(162.908 110.417)" fill="#ffcd50"/>
      <rect id="Rectangle_913" data-name="Rectangle 913" width="10.986" height="34.186" transform="translate(212.284 76.231)" fill="#ffcd50"/>
      <rect id="Rectangle_914" data-name="Rectangle 914" width="10.989" height="34.185" transform="translate(309.947 102.819)" fill="#ffcd50"/>
      <rect id="Rectangle_915" data-name="Rectangle 915" width="10.989" height="34.184" transform="translate(394.046 173.897)" fill="#ffcd50"/>
      <rect id="Rectangle_916" data-name="Rectangle 916" width="10.986" height="34.184" transform="translate(397.845 205.91)" fill="#ffcd50"/>
      <rect id="Rectangle_917" data-name="Rectangle 917" width="10.986" height="34.184" transform="translate(153.957 138.902)" fill="#ffcd50"/>
      <rect id="Rectangle_918" data-name="Rectangle 918" width="10.987" height="34.184" transform="translate(150.293 168.608)" fill="#ffcd50"/>
      <rect id="Rectangle_919" data-name="Rectangle 919" width="10.985" height="32.557" transform="translate(15.599 228.834)" fill="#ffad4a"/>
      <rect id="Rectangle_920" data-name="Rectangle 920" width="10.986" height="16.279" transform="translate(0 245.113)" fill="#ffad4a"/>
      <rect id="Rectangle_921" data-name="Rectangle 921" width="10.987" height="7.057" transform="translate(8.139 254.335)" fill="#ffad4a"/>
      <rect id="Rectangle_922" data-name="Rectangle 922" width="11.531" height="49.376" transform="translate(37.844 142.565)" fill="#ffad4a"/>
      <rect id="Rectangle_923" data-name="Rectangle 923" width="9.361" height="47.208" transform="translate(89.388 76.368)" fill="#ffad4a"/>
      <rect id="Rectangle_924" data-name="Rectangle 924" width="9.36" height="47.205" transform="translate(112.177 40.559)" fill="#ffad4a"/>
      <rect id="Rectangle_925" data-name="Rectangle 925" width="11.53" height="49.378" transform="translate(23.736 186.512)" fill="#ffad4a"/>
      <rect id="Rectangle_926" data-name="Rectangle 926" width="10.988" height="7.616" transform="translate(415.21 253.776)" fill="#ffad4a"/>
      <path id="Path_1064" data-name="Path 1064" d="M552.688,517.6c.006-.026,0-.055.006-.08a2.207,2.207,0,0,0,.046-.5v-.008h0a4.521,4.521,0,0,0-2.377-3.318.365.365,0,0,1-.044-.023h0c-.073-.046-.151-.073-.229-.115a5.32,5.32,0,0,0-.492-.249c-.067-.029-.133-.046-.2-.071-.18-.068-.36-.139-.537-.187-.067-.017-.13-.023-.2-.037-.176-.042-.35-.081-.523-.107-.079-.009-.152,0-.229-.009-.153-.007-.307-.022-.455-.014-.1,0-.188.023-.283.034-.115.017-.236.025-.346.051a2.635,2.635,0,0,0-.34.12,1.989,1.989,0,0,0-.215.077,2.2,2.2,0,0,0-.369.247c-.028.022-.065.039-.093.063a1.807,1.807,0,0,0-.351.424,1.727,1.727,0,0,0-.181.439c-.008.029-.024.055-.031.086a.441.441,0,0,0-.046.053c-.769,1.279.178,3.261,2.113,4.426s4.132,1.072,4.9-.206a1.808,1.808,0,0,0,.211-.524c.012-.02.032-.034.045-.055A1.81,1.81,0,0,0,552.688,517.6Z" transform="translate(-227.155 -319.813)" fill="#ffe576"/>
      <path id="Path_1065" data-name="Path 1065" d="M452.093,555.511c.024,0,.054,0,.08,0a1.967,1.967,0,0,0,.494.012l.01,0,0,0a4.506,4.506,0,0,0,3.165-2.577c.008-.017.013-.032.02-.048v0c.039-.077.066-.156.1-.234a5.163,5.163,0,0,0,.216-.508c.028-.07.041-.136.061-.2.056-.185.113-.37.15-.55.014-.065.017-.129.029-.2.027-.178.057-.355.069-.528,0-.082-.007-.154-.007-.231a3.716,3.716,0,0,0-.009-.453,2.195,2.195,0,0,0-.058-.281c-.019-.116-.038-.234-.064-.344a3.17,3.17,0,0,0-.143-.332c-.034-.07-.056-.144-.093-.209a2.171,2.171,0,0,0-.267-.351.8.8,0,0,0-.072-.092,1.793,1.793,0,0,0-.444-.325,1.645,1.645,0,0,0-.449-.151.616.616,0,0,0-.088-.024c-.02-.012-.035-.031-.055-.043-1.327-.69-3.243.381-4.286,2.386s-.812,4.189.513,4.88a1.922,1.922,0,0,0,.537.177.473.473,0,0,0,.056.04A1.756,1.756,0,0,0,452.093,555.511Z" transform="translate(-228.585 -319.291)" fill="#ffe576"/>
      <path id="Path_1066" data-name="Path 1066" d="M509.394,552.662c-.031.007-.062.007-.09.013a2.632,2.632,0,0,1-.56.076l-.011,0h0a5.191,5.191,0,0,1-3.927-2.135.331.331,0,0,1-.027-.045v0c-.057-.068-.094-.145-.147-.222a5.058,5.058,0,0,1-.313-.471,1.91,1.91,0,0,1-.094-.194,5.386,5.386,0,0,1-.246-.523c-.023-.065-.036-.127-.055-.192a4.976,4.976,0,0,1-.153-.517c-.013-.078-.013-.151-.024-.227a4.392,4.392,0,0,1-.047-.453c0-.1.019-.19.025-.286.01-.115.01-.235.029-.347a2.562,2.562,0,0,1,.12-.348,2.005,2.005,0,0,1,.073-.221,2.17,2.17,0,0,1,.258-.382c.024-.033.041-.073.066-.1a2.048,2.048,0,0,1,.462-.381,2.16,2.16,0,0,1,.489-.213c.032-.01.064-.027.094-.036a.449.449,0,0,1,.06-.049c1.406-.862,3.723-.055,5.17,1.793s1.481,4.048.075,4.911a2.432,2.432,0,0,1-.585.244c-.022.015-.036.034-.059.051A2.3,2.3,0,0,1,509.394,552.662Z" transform="translate(-227.775 -319.33)" fill="#ffe576"/>
      <path id="Path_1067" data-name="Path 1067" d="M557.926,564.87a.776.776,0,0,1-.075.048,2.561,2.561,0,0,1-.469.321l-.008.007,0,0a5.187,5.187,0,0,1-4.469-.169l-.045-.024h0a1.985,1.985,0,0,1-.228-.131,5.054,5.054,0,0,1-.493-.285c-.057-.04-.112-.088-.168-.131a5.221,5.221,0,0,1-.452-.359c-.051-.046-.086-.1-.135-.147a3.987,3.987,0,0,1-.362-.4c-.049-.062-.082-.128-.126-.193a3.544,3.544,0,0,1-.244-.382,2.82,2.82,0,0,1-.1-.27c-.042-.108-.094-.217-.124-.325a1.966,1.966,0,0,1-.049-.363,2.043,2.043,0,0,1-.033-.232,2.215,2.215,0,0,1,.059-.457c.008-.04.006-.08.014-.119a2.086,2.086,0,0,1,.246-.549,2.275,2.275,0,0,1,.343-.405.947.947,0,0,1,.069-.072.626.626,0,0,1,.031-.071c.882-1.4,3.314-1.7,5.43-.692s3.12,2.971,2.243,4.368a2.3,2.3,0,0,1-.413.48.7.7,0,0,0-.029.071A2.47,2.47,0,0,1,557.926,564.87Z" transform="translate(-227.074 -319.122)" fill="#ffe576"/>
      <path id="Path_1068" data-name="Path 1068" d="M553.221,459.866c.006-.028.005-.057.008-.081a2.1,2.1,0,0,0,.044-.5l0-.008h0a4.509,4.509,0,0,0-2.376-3.319.244.244,0,0,1-.044-.024h0c-.077-.042-.153-.073-.229-.114a5.423,5.423,0,0,0-.5-.25c-.064-.029-.129-.046-.195-.07a5.674,5.674,0,0,0-.54-.186c-.066-.018-.127-.024-.192-.039a4.735,4.735,0,0,0-.523-.1c-.084-.012-.155,0-.232-.012-.154-.009-.308-.021-.452-.016a1.985,1.985,0,0,0-.285.041,2.819,2.819,0,0,0-.344.044,2.669,2.669,0,0,0-.344.123,1.751,1.751,0,0,0-.214.079,1.774,1.774,0,0,0-.366.246.82.82,0,0,0-.093.061,1.685,1.685,0,0,0-.353.424,1.723,1.723,0,0,0-.182.438c-.008.028-.022.058-.03.086s-.033.032-.046.053c-.769,1.28.181,3.261,2.114,4.427s4.133,1.071,4.9-.206a1.78,1.78,0,0,0,.21-.524.449.449,0,0,0,.046-.054A1.844,1.844,0,0,0,553.221,459.866Z" transform="translate(-227.147 -320.681)" fill="#ffe576"/>
      <path id="Path_1069" data-name="Path 1069" d="M612.022,475.9c.005-.025,0-.054.009-.077a2.152,2.152,0,0,0,.043-.494v-.008h0A4.5,4.5,0,0,0,609.7,472l-.046-.024h0c-.076-.044-.153-.073-.229-.114-.166-.09-.328-.181-.5-.252-.064-.028-.131-.045-.2-.068a5.422,5.422,0,0,0-.54-.189c-.065-.016-.125-.021-.193-.037a4.12,4.12,0,0,0-.523-.1c-.082-.011-.154-.007-.232-.011a4.3,4.3,0,0,0-.453-.019,2.419,2.419,0,0,0-.284.041,3.076,3.076,0,0,0-.344.047,2.2,2.2,0,0,0-.341.124,1.51,1.51,0,0,0-.216.075,2.115,2.115,0,0,0-.368.246c-.026.02-.067.038-.093.062a1.834,1.834,0,0,0-.351.424,1.645,1.645,0,0,0-.182.44c-.008.027-.023.058-.031.084s-.033.033-.045.055c-.769,1.281.181,3.26,2.115,4.424s4.131,1.075,4.9-.2a1.883,1.883,0,0,0,.21-.523c.013-.019.031-.037.045-.058A1.784,1.784,0,0,0,612.022,475.9Z" transform="translate(-226.263 -320.44)" fill="#ffe576"/>
      <path id="Path_1070" data-name="Path 1070" d="M620.756,549.55c.005-.023,0-.05.007-.078a1.982,1.982,0,0,0,.044-.493l0-.008h0a4.5,4.5,0,0,0-2.373-3.318c-.016-.008-.028-.017-.045-.025h0c-.078-.045-.153-.073-.228-.113a4.8,4.8,0,0,0-.5-.249c-.066-.031-.131-.047-.2-.074-.178-.067-.357-.136-.538-.186-.063-.015-.127-.021-.191-.036a4.215,4.215,0,0,0-.528-.1c-.077-.011-.151-.005-.228-.011-.152-.007-.306-.023-.452-.016-.1,0-.191.024-.285.036-.116.017-.237.023-.344.05a3.23,3.23,0,0,0-.345.119c-.069.028-.146.045-.212.078a2.333,2.333,0,0,0-.369.245c-.027.024-.067.041-.1.066a1.725,1.725,0,0,0-.35.423,1.811,1.811,0,0,0-.181.438c-.008.031-.023.056-.03.084s-.033.037-.046.056c-.768,1.276.178,3.259,2.114,4.424s4.133,1.074,4.9-.205a1.8,1.8,0,0,0,.211-.523c.014-.021.031-.035.047-.056A1.827,1.827,0,0,0,620.756,549.55Z" transform="translate(-226.132 -319.333)" fill="#ffad4a"/>
      <path id="Path_1071" data-name="Path 1071" d="M590.463,476.856c.005-.026,0-.056.007-.079a1.861,1.861,0,0,0,.044-.494l0-.008h0a4.507,4.507,0,0,0-2.375-3.319l-.045-.024h.005c-.079-.044-.154-.073-.229-.114-.163-.088-.328-.181-.494-.251-.067-.028-.132-.044-.2-.068a4.814,4.814,0,0,0-.541-.189c-.063-.016-.126-.024-.192-.038a4.836,4.836,0,0,0-.527-.1c-.077-.011-.148-.007-.227-.011a4.049,4.049,0,0,0-.453-.018c-.1.005-.191.027-.285.04a3.053,3.053,0,0,0-.344.047,2.339,2.339,0,0,0-.344.124,1.764,1.764,0,0,0-.213.075,1.889,1.889,0,0,0-.367.247c-.029.023-.065.038-.1.063a1.753,1.753,0,0,0-.35.422,1.652,1.652,0,0,0-.178.441.546.546,0,0,0-.033.084.57.57,0,0,0-.046.054c-.769,1.281.18,3.26,2.114,4.423s4.131,1.074,4.9-.2a1.8,1.8,0,0,0,.213-.523.651.651,0,0,1,.047-.058A1.834,1.834,0,0,0,590.463,476.856Z" transform="translate(-226.587 -320.426)" fill="#ffad4a"/>
      <path id="Path_1072" data-name="Path 1072" d="M502.264,433.023c0-.025,0-.054.008-.082a2.184,2.184,0,0,0,.043-.492v-.005a4.512,4.512,0,0,0-2.377-3.321c-.012-.008-.029-.014-.044-.023h0c-.076-.044-.152-.075-.231-.116-.164-.087-.325-.178-.491-.249-.068-.029-.132-.046-.2-.073-.181-.067-.359-.136-.536-.183-.067-.019-.129-.024-.195-.039a4.629,4.629,0,0,0-.526-.105c-.079-.008-.151,0-.229-.008a4.023,4.023,0,0,0-.453-.016,2.574,2.574,0,0,0-.284.038,2.842,2.842,0,0,0-.344.047,3.161,3.161,0,0,0-.343.12c-.068.028-.148.047-.214.079a2.072,2.072,0,0,0-.365.245c-.029.023-.069.041-.1.066a1.9,1.9,0,0,0-.351.421,1.845,1.845,0,0,0-.18.439c-.008.03-.022.056-.029.084s-.033.035-.045.056c-.769,1.278.176,3.259,2.112,4.425s4.133,1.076,4.9-.2a1.734,1.734,0,0,0,.208-.525.674.674,0,0,0,.046-.052A1.853,1.853,0,0,0,502.264,433.023Z" transform="translate(-227.913 -321.084)" fill="#ffad4a"/>
      <path id="Path_1073" data-name="Path 1073" d="M602.026,509.313a.622.622,0,0,0,.025-.078,2.111,2.111,0,0,0,.149-.471v-.008h0A4.5,4.5,0,0,0,600.6,505a.284.284,0,0,1-.039-.033l0,0c-.061-.061-.132-.106-.2-.163-.142-.12-.283-.246-.43-.348-.057-.043-.118-.073-.176-.115a5.637,5.637,0,0,0-.486-.294c-.06-.032-.118-.054-.181-.081a5.265,5.265,0,0,0-.491-.213c-.073-.026-.147-.036-.22-.06a4,4,0,0,0-.439-.115,2.114,2.114,0,0,0-.286-.021,2.6,2.6,0,0,0-.348-.03,2.367,2.367,0,0,0-.359.044,2.213,2.213,0,0,0-.224.031,1.834,1.834,0,0,0-.413.16c-.032.014-.073.024-.107.04a1.776,1.776,0,0,0-.435.34,1.749,1.749,0,0,0-.273.389c-.01.023-.033.048-.047.077a.368.368,0,0,0-.055.043c-1.027,1.083-.531,3.221,1.108,4.777s3.805,1.939,4.831.861a1.927,1.927,0,0,0,.32-.469c.016-.015.036-.027.052-.044A1.77,1.77,0,0,0,602.026,509.313Z" transform="translate(-226.405 -319.954)" fill="#ffe576"/>
      <path id="Path_1074" data-name="Path 1074" d="M490.607,492.228a.776.776,0,0,0,.065-.049,1.991,1.991,0,0,0,.395-.3l0-.005h0a4.513,4.513,0,0,0,.851-3.992l-.014-.047h0c-.016-.084-.047-.162-.068-.246-.047-.18-.088-.362-.149-.531-.023-.069-.055-.129-.08-.2a5.452,5.452,0,0,0-.226-.519c-.032-.062-.07-.116-.1-.171a5.233,5.233,0,0,0-.279-.459c-.043-.063-.1-.115-.145-.177a4.116,4.116,0,0,0-.291-.344,2.711,2.711,0,0,0-.222-.185c-.089-.076-.175-.158-.267-.225a3.127,3.127,0,0,0-.321-.169,1.47,1.47,0,0,0-.2-.106,1.98,1.98,0,0,0-.43-.11c-.037,0-.073-.02-.111-.024a1.752,1.752,0,0,0-.549.023,1.774,1.774,0,0,0-.447.164.55.55,0,0,0-.083.037.521.521,0,0,0-.069,0c-1.465.294-2.289,2.331-1.844,4.544s1.992,3.777,3.456,3.486a1.852,1.852,0,0,0,.528-.2c.024-.005.049,0,.069-.005A1.717,1.717,0,0,0,490.607,492.228Z" transform="translate(-228.042 -320.242)" fill="#ffe576"/>
      <path id="Path_1075" data-name="Path 1075" d="M478.634,401.4a.54.54,0,0,0,0-.081,2.115,2.115,0,0,0-.031-.5v-.006h0a4.505,4.505,0,0,0-2.844-2.926.144.144,0,0,0-.05-.017h.006c-.081-.035-.163-.054-.244-.081-.176-.062-.351-.129-.522-.173-.074-.019-.14-.024-.21-.044-.192-.039-.377-.079-.559-.1-.067-.006-.131-.006-.2-.011-.181-.012-.36-.027-.535-.024-.076,0-.15.021-.23.029a3.115,3.115,0,0,0-.448.049,1.968,1.968,0,0,0-.276.08,2.977,2.977,0,0,0-.334.094c-.116.049-.214.116-.321.173a1.908,1.908,0,0,0-.2.109,1.832,1.832,0,0,0-.331.3c-.024.024-.061.048-.085.074a2.047,2.047,0,0,0-.286.471,1.78,1.78,0,0,0-.11.466.856.856,0,0,0-.019.087c-.009.019-.026.037-.037.059-.57,1.38.664,3.2,2.75,4.06s4.247.446,4.82-.934a1.848,1.848,0,0,0,.13-.548c.008-.02.024-.041.032-.06A1.721,1.721,0,0,0,478.634,401.4Z" transform="translate(-228.272 -321.548)" fill="#ffcd50"/>
      <path id="Path_1076" data-name="Path 1076" d="M345.37,516.656c.023.009.052.012.076.021a2.028,2.028,0,0,0,.481.131h.005a4.491,4.491,0,0,0,3.685-1.756c.012-.01.021-.025.033-.036h0c.058-.067.1-.137.151-.205.117-.146.236-.291.336-.442.036-.06.065-.122.1-.183a4.959,4.959,0,0,0,.278-.5c.029-.058.046-.12.073-.183a4.583,4.583,0,0,0,.193-.5,1.835,1.835,0,0,0,.05-.224,4.334,4.334,0,0,0,.1-.441c.012-.1.008-.192.012-.287.006-.117.019-.24.014-.351a2.575,2.575,0,0,0-.06-.355c-.014-.073-.016-.154-.037-.223a2.114,2.114,0,0,0-.178-.407c-.018-.033-.027-.073-.047-.106a1.767,1.767,0,0,0-.352-.419,1.739,1.739,0,0,0-.4-.255.576.576,0,0,0-.08-.046.538.538,0,0,0-.043-.054c-1.124-.985-3.242-.4-4.73,1.3s-1.783,3.877-.66,4.861a1.745,1.745,0,0,0,.475.3c.02.02.029.04.048.056A1.877,1.877,0,0,0,345.37,516.656Z" transform="translate(-230.18 -319.866)" fill="#ffcd50"/>
      <path id="Path_1077" data-name="Path 1077" d="M342.871,462.786c.022.007.051.013.076.02a2,2,0,0,0,.48.131h.006a4.506,4.506,0,0,0,3.687-1.753c.01-.014.018-.025.03-.04v0c.057-.066.1-.139.153-.2.116-.146.233-.292.333-.442.04-.06.066-.122.1-.184a5.549,5.549,0,0,0,.279-.5c.028-.062.045-.124.074-.182a5.36,5.36,0,0,0,.191-.5c.024-.075.032-.146.05-.223a4.232,4.232,0,0,0,.1-.442c.013-.1.008-.194.013-.287.006-.119.019-.237.016-.349a2.717,2.717,0,0,0-.062-.358c-.014-.073-.016-.152-.036-.225a2.2,2.2,0,0,0-.179-.4c-.017-.032-.025-.073-.047-.107a1.711,1.711,0,0,0-.351-.418,1.832,1.832,0,0,0-.4-.257c-.026-.013-.052-.033-.078-.046s-.028-.038-.045-.053c-1.124-.982-3.24-.4-4.728,1.3s-1.785,3.877-.662,4.86a1.822,1.822,0,0,0,.476.3.625.625,0,0,0,.048.053A1.708,1.708,0,0,0,342.871,462.786Z" transform="translate(-230.217 -320.676)" fill="#ffcd50"/>
      <path id="Path_1078" data-name="Path 1078" d="M294.228,506.086c.025.007.053.011.075.019a1.981,1.981,0,0,0,.481.13l.008,0,0,0a4.5,4.5,0,0,0,3.687-1.754.41.41,0,0,1,.029-.038h0c.059-.066.1-.135.154-.2.115-.148.233-.3.331-.445.041-.059.068-.125.1-.183a4.873,4.873,0,0,0,.278-.5c.028-.059.046-.119.074-.18.069-.169.143-.336.193-.5.024-.074.031-.147.049-.224a3.963,3.963,0,0,0,.1-.44,2.778,2.778,0,0,0,.012-.287,2.885,2.885,0,0,0,.015-.347,2.377,2.377,0,0,0-.06-.358c-.015-.073-.016-.153-.038-.226a2.247,2.247,0,0,0-.178-.4c-.018-.032-.026-.075-.047-.108a1.805,1.805,0,0,0-.351-.42,1.952,1.952,0,0,0-.4-.255c-.027-.014-.052-.031-.078-.044s-.027-.038-.045-.052c-1.125-.986-3.241-.4-4.727,1.3s-1.786,3.877-.664,4.86a1.721,1.721,0,0,0,.477.3.429.429,0,0,0,.048.055A1.742,1.742,0,0,0,294.228,506.086Z" transform="translate(-230.948 -320.025)" fill="#ffcd50"/>
      <path id="Path_1079" data-name="Path 1079" d="M331.777,546.614c.027,0,.055-.008.079-.006a1.945,1.945,0,0,0,.5-.028h.007a4.513,4.513,0,0,0,2.957-2.816c.006-.017.009-.03.014-.047h0c.034-.079.051-.159.083-.239.064-.177.131-.353.179-.525.019-.069.024-.137.043-.208.042-.187.083-.376.107-.555.008-.072.008-.132.012-.2a5.1,5.1,0,0,0,.029-.536c0-.078-.016-.151-.024-.229a3.776,3.776,0,0,0-.044-.451,2.717,2.717,0,0,0-.08-.276,2.647,2.647,0,0,0-.094-.337,2.789,2.789,0,0,0-.167-.32c-.038-.065-.066-.14-.107-.2a2.066,2.066,0,0,0-.294-.329c-.025-.025-.05-.062-.075-.086a1.911,1.911,0,0,0-.469-.291,1.812,1.812,0,0,0-.462-.114c-.029-.006-.058-.016-.086-.019a.688.688,0,0,0-.059-.038c-1.375-.584-3.2.629-4.09,2.71s-.485,4.241.888,4.824a1.693,1.693,0,0,0,.548.134.232.232,0,0,0,.062.039A1.8,1.8,0,0,0,331.777,546.614Z" transform="translate(-230.397 -319.427)" fill="#ffcd50"/>
      <path id="Path_1080" data-name="Path 1080" d="M413.029,527.367a.558.558,0,0,0,.08,0,2.06,2.06,0,0,0,.5-.026h0a4.511,4.511,0,0,0,2.959-2.816.3.3,0,0,1,.016-.046h0c.033-.078.053-.158.082-.241.065-.177.131-.349.18-.523.016-.07.024-.135.041-.205.041-.189.085-.378.106-.559a1.445,1.445,0,0,0,.012-.2,5.027,5.027,0,0,0,.031-.534c0-.079-.018-.15-.023-.231a4.379,4.379,0,0,0-.046-.447c-.017-.1-.053-.186-.077-.278-.031-.114-.056-.232-.094-.335a2.956,2.956,0,0,0-.169-.323c-.039-.065-.062-.139-.1-.2a2.058,2.058,0,0,0-.3-.332c-.026-.025-.049-.059-.076-.085a1.867,1.867,0,0,0-.468-.289,1.988,1.988,0,0,0-.462-.119c-.029,0-.058-.014-.088-.018a.288.288,0,0,1-.057-.038c-1.375-.581-3.2.632-4.091,2.712s-.484,4.243.887,4.823a1.7,1.7,0,0,0,.547.139.344.344,0,0,1,.063.035A1.741,1.741,0,0,0,413.029,527.367Z" transform="translate(-229.175 -319.716)" fill="#ffad4a"/>
      <path id="Path_1081" data-name="Path 1081" d="M457.671,439.21c.015.023.039.041.054.06a2.3,2.3,0,0,0,.343.36s0,0,.008,0h0a4.513,4.513,0,0,0,4.061.413.483.483,0,0,1,.047-.019h0c.082-.025.156-.063.236-.091.176-.065.352-.13.515-.205.066-.033.12-.072.184-.1a5.444,5.444,0,0,0,.494-.283c.055-.036.106-.081.157-.118.147-.107.293-.213.424-.327.059-.052.1-.111.16-.168a3.9,3.9,0,0,0,.312-.325,2.614,2.614,0,0,0,.158-.24,3.077,3.077,0,0,0,.193-.291,2.541,2.541,0,0,0,.136-.335,2.109,2.109,0,0,0,.084-.212,2.017,2.017,0,0,0,.059-.436c0-.038.015-.08.015-.116a1.868,1.868,0,0,0-.083-.542,1.771,1.771,0,0,0-.213-.427c-.014-.024-.025-.054-.043-.078s0-.048-.009-.069c-.451-1.424-2.564-2.024-4.718-1.343s-3.536,2.389-3.089,3.813a1.919,1.919,0,0,0,.253.5c.007.024,0,.049.011.069A1.826,1.826,0,0,0,457.671,439.21Z" transform="translate(-228.476 -320.998)" fill="#ffe576"/>
      <path id="Path_1082" data-name="Path 1082" d="M400.873,419.1c.015.019.038.039.054.059a2.034,2.034,0,0,0,.343.357s0,0,.005.009v0a4.51,4.51,0,0,0,4.06.413c.016-.005.03-.013.047-.019l0,0c.084-.026.157-.064.24-.1a5.318,5.318,0,0,0,.512-.205c.065-.028.123-.068.184-.1a5.131,5.131,0,0,0,.494-.281,1.516,1.516,0,0,0,.156-.12,4.133,4.133,0,0,0,.425-.323c.062-.054.106-.111.159-.166a3.312,3.312,0,0,0,.314-.33,2.679,2.679,0,0,0,.158-.237c.066-.1.142-.192.195-.292a3.172,3.172,0,0,0,.135-.336c.024-.069.063-.141.082-.21a2.062,2.062,0,0,0,.061-.439c0-.039.013-.077.015-.117a1.9,1.9,0,0,0-.084-.541,1.83,1.83,0,0,0-.212-.425.622.622,0,0,0-.044-.079c-.006-.023,0-.048-.011-.072-.449-1.422-2.562-2.022-4.717-1.338s-3.537,2.387-3.088,3.81a1.75,1.75,0,0,0,.254.505.493.493,0,0,0,.011.068A1.79,1.79,0,0,0,400.873,419.1Z" transform="translate(-229.329 -321.301)" fill="#ffcd50"/>
      <path id="Path_1083" data-name="Path 1083" d="M406.217,457.584c.017.022.039.039.055.06a2.2,2.2,0,0,0,.343.359l.005.007h0a4.521,4.521,0,0,0,4.063.409l.047-.017v0c.081-.027.155-.063.236-.1.176-.065.351-.129.514-.205.063-.029.12-.07.184-.1.171-.09.342-.18.5-.28.056-.039.1-.081.157-.12a5.366,5.366,0,0,0,.425-.328c.057-.051.1-.11.159-.166a4.279,4.279,0,0,0,.312-.327c.062-.077.107-.159.16-.239.065-.1.139-.192.192-.289a2.96,2.96,0,0,0,.135-.335c.025-.074.066-.142.083-.213a2.105,2.105,0,0,0,.059-.437c0-.037.016-.077.016-.116a1.823,1.823,0,0,0-.085-.544,1.661,1.661,0,0,0-.211-.425c-.014-.024-.025-.053-.043-.08s0-.047-.009-.067c-.453-1.424-2.564-2.025-4.72-1.342s-3.537,2.39-3.088,3.81a1.849,1.849,0,0,0,.253.507c.009.022,0,.047.012.069A1.761,1.761,0,0,0,406.217,457.584Z" transform="translate(-229.249 -320.722)" fill="#ffad4a"/>
      <path id="Path_1084" data-name="Path 1084" d="M423.181,426.461c.022.009.049.015.073.026a2.239,2.239,0,0,0,.479.141l.008,0h0a4.525,4.525,0,0,0,3.735-1.654.364.364,0,0,0,.028-.042v.005c.062-.067.1-.134.159-.2a5.347,5.347,0,0,0,.343-.429c.044-.06.072-.122.112-.18a5.578,5.578,0,0,0,.29-.491c.033-.058.05-.118.077-.179.076-.167.153-.332.209-.5.024-.074.035-.147.058-.222a4.088,4.088,0,0,0,.107-.44,2.742,2.742,0,0,0,.019-.285,2.774,2.774,0,0,0,.024-.349,2.915,2.915,0,0,0-.049-.36,1.909,1.909,0,0,0-.033-.224,2.1,2.1,0,0,0-.162-.408c-.019-.034-.027-.074-.045-.109a1.923,1.923,0,0,0-.343-.43,1.8,1.8,0,0,0-.394-.263c-.028-.016-.05-.036-.077-.049s-.027-.038-.044-.054c-1.1-1.014-3.228-.488-4.762,1.169s-1.893,3.828-.8,4.84a1.848,1.848,0,0,0,.471.316c.016.017.026.038.044.053A1.823,1.823,0,0,0,423.181,426.461Z" transform="translate(-229.009 -321.22)" fill="#ffad4a"/>
      <path id="Path_1085" data-name="Path 1085" d="M431.913,359.034s10.309,6.24,17.9,8.273L438.039,358.2Z" transform="translate(-228.854 -322.138)" fill="#684a4e"/>
      <path id="Path_1086" data-name="Path 1086" d="M460.2,351.127s-6.378-5.156-5.833-6.241,8.137-2.032,8.137-2.032Z" transform="translate(-228.517 -322.369)" fill="#fff3d9"/>
      <path id="Path_1087" data-name="Path 1087" d="M462.167,341.816l-3.5,10.236,5.082,1.4,1.469-11.865Z" transform="translate(-228.452 -322.388)" fill="#876369"/>
      <path id="Path_1088" data-name="Path 1088" d="M359.118,526.1l27.221-5.08-25.865-1.151Z" transform="translate(-229.948 -319.708)" fill="#ffad4a"/>
      <path id="Path_1089" data-name="Path 1089" d="M462.754,492.387l-29.771,3.728,26.871-6.761Z" transform="translate(-228.838 -320.167)" fill="#ffad4a"/>
      <path id="Path_1090" data-name="Path 1090" d="M387.258,434.308l30.707-.8-28.192-4.45Z" transform="translate(-229.525 -321.073)" fill="#ffad4a"/>
      <path id="Path_1091" data-name="Path 1091" d="M558.917,437.521l-27.974-1.1,25.733-4.174Z" transform="translate(-227.365 -321.025)" fill="#ffad4a"/>
      <path id="Path_1092" data-name="Path 1092" d="M637.248,526.352l-27.973-1.1,25.733-4.177Z" transform="translate(-226.188 -319.69)" fill="#ffad4a"/>
      <path id="Path_1093" data-name="Path 1093" d="M390.529,330.944c-1.835-1.647,16.985-6.751,19.22-6.133,1.073.3.035,7.112.035,7.112S390.852,331.237,390.529,330.944Z" transform="translate(-229.478 -322.641)" fill="#ffd7a6"/>
      <path id="Path_1094" data-name="Path 1094" d="M397.806,334.732c-1.322-.119-2.313.644-2.221,1.709a2.72,2.72,0,0,0,2.553,2.152c1.322.126-1.105-.536-1.239-2.1S399.128,334.855,397.806,334.732Z" transform="translate(-229.4 -322.491)" fill="#4f3131"/>
      <path id="Path_1095" data-name="Path 1095" d="M388.807,332.405c1.47.754,1.593,6.213.868,6.924s-1.493,1.2-2.03.228-2.087-5.6-1.552-6.53A2.261,2.261,0,0,1,388.807,332.405Z" transform="translate(-229.544 -322.529)" fill="#9e4435"/>
      <path id="Path_1096" data-name="Path 1096" d="M414.533,331.035l-1.982,8.676s7.243-.347,8.057-1.918,1.067-5.257-.086-5.9C419.391,331.254,414.533,331.035,414.533,331.035Z" transform="translate(-229.145 -322.546)" fill="#542a29"/>
      <path id="Path_1097" data-name="Path 1097" d="M414.532,332.031l-1.669,7.306s6.074-.33,6.75-1.636c.686-1.322.886-4.372-.071-4.919C418.6,332.247,414.532,332.031,414.532,332.031Z" transform="translate(-229.14 -322.531)" fill="#fffaf3"/>
    </g>
    <g id="Group_1429" data-name="Group 1429" transform="translate(471.096 727.711)">
      <path id="Path_1098" data-name="Path 1098" d="M270.649,512.912H253.187v59.859l23.551-1.839Z" transform="translate(2.147 -431.917)" fill="#ffcd50"/>
      <path id="Path_1099" data-name="Path 1099" d="M263.534,569.683V512.912H253.187v59.859l23.551-1.839-.236-2.262Z" transform="translate(2.147 -431.917)" fill="#ffad4a"/>
      <path id="Path_1100" data-name="Path 1100" d="M251.4,483.616l-11.877,1.462-1.236,55.6,19.5.733Z" transform="translate(1.923 -432.357)" fill="#ffcd50"/>
      <path id="Path_1101" data-name="Path 1101" d="M103.734,497.767l-28.439,1.462-2.96,55.6,46.69.733Z" transform="translate(-0.571 -432.145)" fill="#ffad4a"/>
      <path id="Path_1102" data-name="Path 1102" d="M108.786,476.434,90.329,477.9l-1.921,55.6,30.3.733Z" transform="translate(-0.33 -432.465)" fill="#ffad4a"/>
      <path id="Path_1103" data-name="Path 1103" d="M57.162,507.768,43.194,509.23l-1.454,55.6,22.932.733Z" transform="translate(-1.031 -431.994)" fill="#ffad4a"/>
      <path id="Path_1104" data-name="Path 1104" d="M79.37,486.334l-22.908,2.24-2.054,55.6L80.723,542.5Z" transform="translate(-0.841 -432.316)" fill="#ffad4a"/>
      <path id="Path_1105" data-name="Path 1105" d="M245.47,484.336l-5.945.732-1.236,55.6,7.8.291Z" transform="translate(1.923 -432.346)" fill="#ffad4a"/>
      <rect id="Rectangle_927" data-name="Rectangle 927" width="17.373" height="15.337" transform="translate(292.797 127.759)" fill="#ffcd50"/>
      <path id="Path_1106" data-name="Path 1106" d="M282.343,550.138H261.905v22.818h23.469Z" transform="translate(2.278 -431.358)" fill="#ffcd50"/>
      <rect id="Rectangle_928" data-name="Rectangle 928" width="19.232" height="14.591" transform="translate(13.464 133.743)" fill="#ffcd50"/>
      <rect id="Rectangle_929" data-name="Rectangle 929" width="15.388" height="45.64" transform="translate(18.751 91.097)" fill="#ffcd50"/>
      <rect id="Rectangle_930" data-name="Rectangle 930" width="19.232" height="8.977" transform="translate(0 139.357)" fill="#ffcd50"/>
      <path id="Path_1107" data-name="Path 1107" d="M265.228,535.025H41.419L25.794,579.919H265.228Z" transform="translate(-1.271 -431.585)" fill="#ffcd50"/>
      <rect id="Rectangle_931" data-name="Rectangle 931" width="259.628" height="11.223" transform="translate(57.699 137.111)" fill="#ffcd50"/>
      <path id="Path_1108" data-name="Path 1108" d="M126.762,565.794l14.425-3.928,1.441-7.859,12.981-1.122,10.819-8.7,100.813-5.8-1.649-3.18H41.782l-6.009,17.266v-29.61H20.385V565.51H15.1v5.615H1.634V580.1H121.214l4.467-5.892Z" transform="translate(-1.634 -431.767)" fill="#ffad4a"/>
      <path id="Path_1109" data-name="Path 1109" d="M211.963,448.827,91.5,433.116l14.215,94.275h126.45Z" transform="translate(-0.283 -433.116)" fill="#ffc599"/>
      <path id="Path_1110" data-name="Path 1110" d="M216.662,448.828,96.2,433.116l14.215,94.275H236.864Z" transform="translate(-0.213 -433.116)" fill="#fff3d9"/>
      <path id="Path_1111" data-name="Path 1111" d="M214.008,450.925,100.674,436.9l13.375,84.2,117.835-1.134Z" transform="translate(-0.145 -433.059)" fill="#91d9e5"/>
      <g id="Group_1421" data-name="Group 1421" transform="translate(100.528 3.836)">
        <path id="Path_1112" data-name="Path 1112" d="M212.417,520.021l18.531-.179-17.875-69.033L162.9,444.6Z" transform="translate(-99.739 -436.78)" fill="#a8e8ef"/>
        <path id="Path_1113" data-name="Path 1113" d="M103.972,437.3l-3.3-.408,13.375,84.2,44.655-.429Z" transform="translate(-100.674 -436.896)" fill="#a8e8ef"/>
      </g>
      <path id="Path_1114" data-name="Path 1114" d="M311.583,530.524l-75.634-7.284-126.659.553,16.975,8.042,185.318,3.928Z" transform="translate(-0.016 -431.762)" fill="#fff3d9"/>
      <path id="Path_1115" data-name="Path 1115" d="M101.78,535.025l.021,1.792,93.106,2.105,83.8-2.994Z" transform="translate(-0.129 -431.585)" fill="#ad6471" opacity="0.6" style="mix-blend-mode: multiply;isolation: isolate"/>
      <path id="Path_1116" data-name="Path 1116" d="M121.965,530.418l-16.46,5.238H311.64v-5.238Z" transform="translate(-0.073 -431.654)" fill="#ffdab8"/>
      <path id="Path_1117" data-name="Path 1117" d="M198.658,530.537,105.5,522.447v13.328h93.153Z" transform="translate(-0.073 -431.774)" fill="#ffc599"/>
      <rect id="Rectangle_932" data-name="Rectangle 932" width="18.396" height="11.319" transform="translate(148.699 108.491)" fill="#ffcd50"/>
      <path id="Path_1118" data-name="Path 1118" d="M212.886,452.327,230.4,519.972l1.483-.015-17.875-69.033L100.674,436.9l.25,1.572Z" transform="translate(-0.145 -433.059)" fill="#52a0b2"/>
      <g id="Group_1423" data-name="Group 1423" transform="translate(111.318 13.245)">
        <path id="Path_1119" data-name="Path 1119" d="M156.32,452.822,111.3,446.165l13.758,69.169,42.717.585Z" transform="translate(-111.303 -446.165)" fill="#fff3d9"/>
        <path id="Path_1120" data-name="Path 1120" d="M155.653,456.9l-42.139-5.849,12.4,62.506,40.182.686Z" transform="translate(-111.27 -446.092)" fill="#443637"/>
        <g id="Group_1422" data-name="Group 1422" transform="translate(7.364 8.851)">
          <path id="Path_1121" data-name="Path 1121" d="M126.676,457.647l-7.774-1.005-.344-1.757,7.78,1.033Z" transform="translate(-118.558 -454.885)" fill="#fff3d9"/>
          <path id="Path_1122" data-name="Path 1122" d="M135.3,458.761l-5.629-.727-.329-1.721,5.639.747Z" transform="translate(-118.396 -454.863)" fill="#fff3d9"/>
          <path id="Path_1123" data-name="Path 1123" d="M142.03,459.631l-5.474-.708-.324-1.694,5.484.724Z" transform="translate(-118.292 -454.85)" fill="#fff3d9"/>
          <path id="Path_1124" data-name="Path 1124" d="M140.839,460.49l-12.156-1.544.331,1.721,12.137,1.5Z" transform="translate(-118.406 -454.824)" fill="#fff3d9"/>
          <path id="Path_1125" data-name="Path 1125" d="M150.548,461.722l-8.191-1.041.314,1.671,8.179,1.012Z" transform="translate(-118.2 -454.798)" fill="#fff3d9"/>
          <path id="Path_1126" data-name="Path 1126" d="M126.272,458.637l-3.83-.484.341,1.743,3.823.473Z" transform="translate(-118.5 -454.836)" fill="#fff3d9"/>
          <path id="Path_1127" data-name="Path 1127" d="M131.248,462.477l-3.536-.422.334,1.721,3.531.415Z" transform="translate(-118.421 -454.777)" fill="#fff3d9"/>
          <path id="Path_1128" data-name="Path 1128" d="M125.946,461.84l-2.851-.346.34,1.744,2.846.335Z" transform="translate(-118.49 -454.786)" fill="#fff3d9"/>
          <path id="Path_1129" data-name="Path 1129" d="M135.833,466.209l-2.076-.236.328,1.7,2.071.229Z" transform="translate(-118.33 -454.718)" fill="#fff3d9"/>
          <path id="Path_1130" data-name="Path 1130" d="M149.535,467.77l-12.653-1.438.32,1.687,12.635,1.395Z" transform="translate(-118.283 -454.713)" fill="#fff3d9"/>
          <path id="Path_1131" data-name="Path 1131" d="M132.726,465.855l-4.182-.475.33,1.718,4.177.465Z" transform="translate(-118.408 -454.727)" fill="#fff3d9"/>
          <path id="Path_1132" data-name="Path 1132" d="M142.254,470.076l-9.538-1.02.327,1.7,9.526.986Z" transform="translate(-118.345 -454.672)" fill="#fff3d9"/>
          <path id="Path_1133" data-name="Path 1133" d="M146.412,470.521l-3.336-.357.314,1.664,3.33.347Z" transform="translate(-118.19 -454.655)" fill="#fff3d9"/>
          <path id="Path_1134" data-name="Path 1134" d="M131.366,468.911l-2.187-.234.331,1.711,2.186.227Z" transform="translate(-118.398 -454.678)" fill="#fff3d9"/>
          <path id="Path_1135" data-name="Path 1135" d="M139.813,472.968l-3.8-.381.324,1.682,3.791.369Z" transform="translate(-118.296 -454.619)" fill="#fff3d9"/>
          <path id="Path_1136" data-name="Path 1136" d="M143.72,473.36l-1.913-.194.314,1.667,1.911.187Z" transform="translate(-118.209 -454.61)" fill="#fff3d9"/>
          <path id="Path_1137" data-name="Path 1137" d="M135.007,472.483l-5.193-.52.332,1.708,5.184.5Z" transform="translate(-118.389 -454.628)" fill="#fff3d9"/>
          <path id="Path_1138" data-name="Path 1138" d="M137.973,475.946l-3.267-.308.325,1.691,3.261.3Z" transform="translate(-118.315 -454.573)" fill="#fff3d9"/>
          <path id="Path_1139" data-name="Path 1139" d="M147.408,476.831l-8.5-.8.32,1.675,8.487.769Z" transform="translate(-118.252 -454.567)" fill="#fff3d9"/>
          <path id="Path_1140" data-name="Path 1140" d="M133.661,475.542l-3.213-.3.332,1.7,3.207.291Z" transform="translate(-118.379 -454.579)" fill="#fff3d9"/>
          <path id="Path_1141" data-name="Path 1141" d="M133.361,478.708l-3.046-.271.332,1.707,3.04.257Z" transform="translate(-118.381 -454.531)" fill="#fff3d9"/>
          <path id="Path_1142" data-name="Path 1142" d="M129.246,478.348l-2.909-.252.337,1.711,2.9.247Z" transform="translate(-118.441 -454.536)" fill="#fff3d9"/>
          <path id="Path_1143" data-name="Path 1143" d="M144.936,482.836l-4.81-.389.317,1.665,4.8.374Z" transform="translate(-118.234 -454.471)" fill="#fff3d9"/>
          <path id="Path_1144" data-name="Path 1144" d="M139.172,482.373l-7.46-.6.328,1.7,7.45.576Z" transform="translate(-118.36 -454.481)" fill="#fff3d9"/>
          <path id="Path_1145" data-name="Path 1145" d="M139.539,485.553l-3.429-.252.321,1.678,3.426.241Z" transform="translate(-118.294 -454.428)" fill="#fff3d9"/>
          <path id="Path_1146" data-name="Path 1146" d="M151,486.405l-9.548-.707.314,1.655,9.538.677Z" transform="translate(-118.214 -454.422)" fill="#fff3d9"/>
          <path id="Path_1147" data-name="Path 1147" d="M134.969,485.215l-2.627-.2.325,1.689,2.626.187Z" transform="translate(-118.351 -454.432)" fill="#fff3d9"/>
          <path id="Path_1148" data-name="Path 1148" d="M148.567,489.316l-10.293-.695.317,1.666,10.283.661Z" transform="translate(-118.262 -454.378)" fill="#fff3d9"/>
          <path id="Path_1149" data-name="Path 1149" d="M137.54,488.574l-4.574-.311.328,1.684,4.563.294Z" transform="translate(-118.342 -454.383)" fill="#fff3d9"/>
          <path id="Path_1150" data-name="Path 1150" d="M138.935,491.825l-2.324-.143.323,1.67,2.32.136Z" transform="translate(-118.287 -454.332)" fill="#fff3d9"/>
          <path id="Path_1151" data-name="Path 1151" d="M145.05,492.194l-4.9-.3.317,1.657,4.894.28Z" transform="translate(-118.234 -454.329)" fill="#fff3d9"/>
          <path id="Path_1152" data-name="Path 1152" d="M135.558,491.618,133.6,491.5l.325,1.684,1.963.109Z" transform="translate(-118.332 -454.335)" fill="#fff3d9"/>
          <path id="Path_1153" data-name="Path 1153" d="M145.875,495.357l-8.556-.466.321,1.668,8.542.437Z" transform="translate(-118.276 -454.284)" fill="#fff3d9"/>
          <path id="Path_1154" data-name="Path 1154" d="M136.436,494.845l-6.9-.377.333,1.694,6.885.351Z" transform="translate(-118.393 -454.29)" fill="#fff3d9"/>
          <path id="Path_1155" data-name="Path 1155" d="M142.926,498.327l-2.1-.1.315,1.649,2.1.1Z" transform="translate(-118.223 -454.233)" fill="#fff3d9"/>
          <path id="Path_1156" data-name="Path 1156" d="M153.39,498.829l-9.18-.439.311,1.639,9.17.409Z" transform="translate(-118.173 -454.231)" fill="#fff3d9"/>
          <path id="Path_1157" data-name="Path 1157" d="M139.1,498.145l-4.447-.211.324,1.671,4.441.2Z" transform="translate(-118.316 -454.238)" fill="#fff3d9"/>
          <path id="Path_1158" data-name="Path 1158" d="M142.846,501.453l-4.118-.169.317,1.658,4.113.155Z" transform="translate(-118.255 -454.188)" fill="#fff3d9"/>
          <path id="Path_1159" data-name="Path 1159" d="M150.766,501.779l-6.79-.28.312,1.641,6.781.258Z" transform="translate(-118.176 -454.184)" fill="#fff3d9"/>
          <path id="Path_1160" data-name="Path 1160" d="M137.6,501.237l-2.321-.094.323,1.668,2.319.09Z" transform="translate(-118.307 -454.19)" fill="#fff3d9"/>
          <path id="Path_1161" data-name="Path 1161" d="M142.22,504.563l-5.515-.189.322,1.661,5.507.172Z" transform="translate(-118.285 -454.141)" fill="#fff3d9"/>
          <path id="Path_1162" data-name="Path 1162" d="M135.778,504.339l-4.343-.151.327,1.679,4.34.137Z" transform="translate(-118.365 -454.144)" fill="#fff3d9"/>
          <path id="Path_1163" data-name="Path 1163" d="M136.656,507.541l-3.377-.094.327,1.671,3.372.083Z" transform="translate(-118.337 -454.095)" fill="#fff3d9"/>
          <path id="Path_1164" data-name="Path 1164" d="M131.843,507.406l-2.973-.084.334,1.688,2.967.074Z" transform="translate(-118.403 -454.097)" fill="#fff3d9"/>
        </g>
      </g>
      <g id="Group_1424" data-name="Group 1424" transform="translate(160.701 17.519)">
        <path id="Path_1165" data-name="Path 1165" d="M187.811,454.5l-27.856-4.12,8.517,42.808,26.432.361Z" transform="translate(-159.955 -450.376)" fill="#fff3d9"/>
      </g>
      <g id="Group_1425" data-name="Group 1425" transform="translate(193.466 23.111)">
        <path id="Path_1166" data-name="Path 1166" d="M210.2,458.536l-17.968-2.652,5.5,27.617,17.05.23Z" transform="translate(-192.235 -455.885)" fill="#fff3d9"/>
      </g>
      <g id="Group_1426" data-name="Group 1426" transform="translate(199.452 55.283)">
        <path id="Path_1167" data-name="Path 1167" d="M216.682,489.537l-18.55-1.956,6.618,27.688,17.049.231Z" transform="translate(-198.132 -487.581)" fill="#fff3d9"/>
      </g>
      <g id="Group_1427" data-name="Group 1427" transform="translate(163.451 20.572)">
        <path id="Path_1168" data-name="Path 1168" d="M178.976,455.793l-16.311-2.409,4.983,25.064,15.477.207Z" transform="translate(-162.665 -453.384)" fill="#ffc599"/>
      </g>
      <g id="Group_1428" data-name="Group 1428" transform="translate(200.865 56.577)">
        <path id="Path_1169" data-name="Path 1169" d="M215.9,490.556l-16.376-1.7,5.845,25.138,15,.2Z" transform="translate(-199.525 -488.856)" fill="#443637"/>
      </g>
      <rect id="Rectangle_933" data-name="Rectangle 933" width="13.797" height="3.648" transform="translate(110.375 123.363)" fill="#ffcd50"/>
      <path id="Path_1170" data-name="Path 1170" d="M116.642,574.316l-17.629-2.049v4.445h16.743Z" transform="translate(-0.17 -431.025)" fill="#ffcd50"/>
      <path id="Path_1171" data-name="Path 1171" d="M78.247,559.668l17.63-2.054v4.447H79.132Z" transform="translate(-0.482 -431.245)" fill="#ffcd50"/>
      <path id="Path_1172" data-name="Path 1172" d="M144.582,546.952,126.953,544.9v4.446H143.7Z" transform="translate(0.25 -431.436)" fill="#ffcd50"/>
      <rect id="Rectangle_934" data-name="Rectangle 934" width="13.067" height="3.649" transform="translate(105.357 133.743)" fill="#ffcd50"/>
      <rect id="Rectangle_935" data-name="Rectangle 935" width="32.832" height="3.645" transform="translate(104.079 130.098)" fill="#ffad4a"/>
      <rect id="Rectangle_936" data-name="Rectangle 936" width="20.053" height="3.024" transform="translate(217.776 142.878)" fill="#ffad4a"/>
      <rect id="Rectangle_937" data-name="Rectangle 937" width="15.968" height="3.024" transform="translate(217.264 126.605)" fill="#ffe592"/>
      <path id="Path_1173" data-name="Path 1173" d="M206.489,551.6l-16.732-.937v3.4l16.732-.217Z" transform="translate(1.194 -431.35)" fill="#ffe592"/>
      <path id="Path_1174" data-name="Path 1174" d="M170.747,567.994l-16.735-.934v3.4l16.735-.219Z" transform="translate(0.656 -431.103)" fill="#ffe592"/>
      <rect id="Rectangle_938" data-name="Rectangle 938" width="22.098" height="3.024" transform="translate(244.348 132.404)" fill="#ffad4a"/>
      <rect id="Rectangle_939" data-name="Rectangle 939" width="14.434" height="3.023" transform="translate(252.013 125.855)" fill="#ffad4a"/>
      <rect id="Rectangle_940" data-name="Rectangle 940" width="14.435" height="3.024" transform="translate(265.811 125.482)" fill="#ffad4a"/>
      <rect id="Rectangle_941" data-name="Rectangle 941" width="14.432" height="3.023" transform="translate(247.799 117.907)" fill="#ffad4a"/>
      <path id="Path_1175" data-name="Path 1175" d="M176.492,555.967l-18.083-1.46-.464,3.63,18.326-.433Z" transform="translate(0.715 -431.292)" fill="#ffad4a"/>
      <path id="Path_1176" data-name="Path 1176" d="M269.306,570.339v-20.2h-11.3l-2.179,22.818h26.605v-2.617Z" transform="translate(2.187 -431.358)" fill="#ffad4a"/>
      <rect id="Rectangle_942" data-name="Rectangle 942" width="6.898" height="15.337" transform="translate(292.797 127.759)" fill="#ffad4a"/>
      <rect id="Rectangle_943" data-name="Rectangle 943" width="20.695" height="13.122" transform="translate(279 135.212)" fill="#ffad4a"/>
      <rect id="Rectangle_944" data-name="Rectangle 944" width="50.844" height="7.886" transform="translate(232.976 140.448)" fill="#ffad4a"/>
      <path id="Path_1177" data-name="Path 1177" d="M283.009,568.548l-16.732-.935v3.4l16.732-.217Z" transform="translate(2.344 -431.095)" fill="#ffcd50"/>
      <path id="Path_1178" data-name="Path 1178" d="M250.037,545.326l-16.735-.934v3.4l16.735-.219Z" transform="translate(1.848 -431.444)" fill="#ffe592"/>
      <path id="Path_1179" data-name="Path 1179" d="M252.106,511.6l-10.753-.936v3.4l10.753-.218Z" transform="translate(1.969 -431.951)" fill="#ffad4a"/>
      <path id="Path_1180" data-name="Path 1180" d="M281.407,518.239l-10.754-.935v3.4l10.754-.221Z" transform="translate(2.409 -431.851)" fill="#ffad4a"/>
      <path id="Path_1181" data-name="Path 1181" d="M277.695,550.58,263,549.646v3.4l14.691-.218Z" transform="translate(2.294 -431.365)" fill="#ffad4a"/>
      <path id="Path_1182" data-name="Path 1182" d="M307.868,574.7l-14.689-.938v3.4l14.689-.219Z" transform="translate(2.748 -431.002)" fill="#ffad4a"/>
      <path id="Path_1183" data-name="Path 1183" d="M306.364,569.313l-14.689-.935v3.4l14.689-.219Z" transform="translate(2.725 -431.083)" fill="#ffcd50"/>
      <path id="Path_1184" data-name="Path 1184" d="M250.974,498.013l-8.965-.936v3.4l8.965-.218Z" transform="translate(1.979 -432.155)" fill="#ffcd50"/>
      <path id="Path_1185" data-name="Path 1185" d="M248.931,505.2l-7.844-.938v3.4l7.844-.221Z" transform="translate(1.965 -432.047)" fill="#ffad4a"/>
      <path id="Path_1186" data-name="Path 1186" d="M249.947,487.794l-7.772,1.472.387,3.374,7.641-2.617Z" transform="translate(1.981 -432.294)" fill="#ffad4a"/>
      <rect id="Rectangle_945" data-name="Rectangle 945" width="7.934" height="3.366" transform="translate(24.128 108.742)" fill="#ffcd50" opacity="0.6"/>
      <rect id="Rectangle_946" data-name="Rectangle 946" width="17.308" height="3.365" transform="translate(47.567 112.671)" fill="#ffcd50" opacity="0.6"/>
      <rect id="Rectangle_947" data-name="Rectangle 947" width="15.144" height="2.945" transform="translate(33.145 135.608)" fill="#ffcd50" opacity="0.6"/>
      <rect id="Rectangle_948" data-name="Rectangle 948" width="15.145" height="2.946" transform="translate(53.698 125.577)" fill="#ffcd50" opacity="0.6"/>
      <path id="Path_1187" data-name="Path 1187" d="M212.428,493.5l-2.569-.184.493,1.74,2.563.166Z" transform="translate(1.496 -432.211)" fill="#fff3d9"/>
      <path id="Path_1188" data-name="Path 1188" d="M209.35,493.288l-3.985-.29.5,1.769,3.976.259Z" transform="translate(1.428 -432.216)" fill="#fff3d9"/>
      <path id="Path_1189" data-name="Path 1189" d="M210.168,496.616l-1.827-.106.5,1.747,1.824.1Z" transform="translate(1.473 -432.164)" fill="#fff3d9"/>
      <path id="Path_1190" data-name="Path 1190" d="M207.732,496.473l-1.4-.083.5,1.764,1.4.072Z" transform="translate(1.443 -432.165)" fill="#fff3d9"/>
      <path id="Path_1191" data-name="Path 1191" d="M215.588,500.153l-5.471-.251.493,1.74,5.458.212Z" transform="translate(1.5 -432.113)" fill="#fff3d9"/>
      <path id="Path_1192" data-name="Path 1192" d="M209.727,499.885l-2.431-.115.5,1.761,2.423.1Z" transform="translate(1.457 -432.115)" fill="#fff3d9"/>
      <path id="Path_1193" data-name="Path 1193" d="M211.091,503.242l-1.232-.042.5,1.74,1.23.036Z" transform="translate(1.496 -432.063)" fill="#fff3d9"/>
      <path id="Path_1194" data-name="Path 1194" d="M214.333,503.345l-2.6-.083.49,1.729,2.593.068Z" transform="translate(1.524 -432.062)" fill="#fff3d9"/>
      <path id="Path_1195" data-name="Path 1195" d="M209.3,503.181l-1.04-.037.5,1.758,1.038.022Z" transform="translate(1.472 -432.064)" fill="#fff3d9"/>
      <path id="Path_1196" data-name="Path 1196" d="M215.383,506.633l-4.526-.089.5,1.737,4.513.061Z" transform="translate(1.511 -432.013)" fill="#fff3d9"/>
      <path id="Path_1197" data-name="Path 1197" d="M210.391,506.533l-3.649-.07.5,1.765,3.637.047Z" transform="translate(1.449 -432.014)" fill="#fff3d9"/>
    </g>
  </g>
</svg>
