<svg xmlns="http://www.w3.org/2000/svg" width="91.049" height="103.594" viewBox="0 0 91.049 103.594"><defs><style>.a{fill:#10d078;}</style></defs><g transform="translate(12.149 42.468)"><g transform="translate(0)"><path class="a" d="M100.112,210A9.122,9.122,0,0,0,91,219.112v24.7a9.112,9.112,0,0,0,18.223,0v-24.7A9.122,9.122,0,0,0,100.112,210Z" transform="translate(-91 -210)"/></g></g><g transform="translate(0 49.024)"><path class="a" d="M37.074,244.924a15.069,15.069,0,0,1,.259-2.558A9.093,9.093,0,0,0,31,251v12.554a9.093,9.093,0,0,0,6.333,8.633,15.068,15.068,0,0,1-.259-2.558Z" transform="translate(-31 -242.366)"/></g><g transform="translate(36.379 42.445)"><path class="a" d="M244.409,210a9.122,9.122,0,0,0-9.112,9.112v24.7a9.122,9.122,0,0,0,9.112,9.112,8.988,8.988,0,0,0,2.61-.427,9.093,9.093,0,0,1-8.685,6.5h-9.671a9.112,9.112,0,1,0,0,6.074h9.671a15.2,15.2,0,0,0,15.186-15.186V219.112A9.122,9.122,0,0,0,244.409,210Z" transform="translate(-211 -210)"/></g><g transform="translate(84.716 49.024)"><path class="a" d="M449.722,242.366a15.071,15.071,0,0,1,.259,2.558v24.7a15.071,15.071,0,0,1-.259,2.558,9.093,9.093,0,0,0,6.333-8.633V251A9.093,9.093,0,0,0,449.722,242.366Z" transform="translate(-449.722 -242.366)"/></g><g transform="translate(0)"><path class="a" d="M76.525,0A45.591,45.591,0,0,0,31,45.558v.078a15.023,15.023,0,0,1,6.209-2.821,39.406,39.406,0,0,1,78.631,0,15.028,15.028,0,0,1,6.209,2.821v-.077A45.591,45.591,0,0,0,76.525,0Z" transform="translate(-31)"/></g></svg>