<svg xmlns="http://www.w3.org/2000/svg" width="95" height="95" viewBox="0 0 95 95"><defs><style>.a{fill:#10d078;}</style></defs><path class="a" d="M91.042,18.061H3.958a4.031,4.031,0,0,1,0-8.061H91.042a4.031,4.031,0,0,1,0,8.061Z" transform="translate(0 29.518)"/><path class="a" d="M20.152,0H12.091A12.106,12.106,0,0,0,0,12.091v8.061a4.03,4.03,0,1,0,8.061,0V12.091a4.034,4.034,0,0,1,4.03-4.03h8.061a4.03,4.03,0,0,0,0-8.061Z"/><path class="a" d="M20.152,34.121H12.091a4.034,4.034,0,0,1-4.03-4.03V22.03A4.03,4.03,0,0,0,0,22.03v8.061A12.106,12.106,0,0,0,12.091,42.182h8.061a4.03,4.03,0,0,0,0-8.061Z" transform="translate(0 52.818)"/><path class="a" d="M30.091,0H22.03a4.03,4.03,0,0,0,0,8.061h8.061a4.034,4.034,0,0,1,4.03,4.03v8.061a4.03,4.03,0,0,0,8.061,0V12.091A12.106,12.106,0,0,0,30.091,0Z" transform="translate(52.818)"/><path class="a" d="M38.152,18a4.029,4.029,0,0,0-4.03,4.03v8.061a4.034,4.034,0,0,1-4.03,4.03H22.03a4.03,4.03,0,0,0,0,8.061h8.061A12.106,12.106,0,0,0,42.182,30.091V22.03A4.029,4.029,0,0,0,38.152,18Z" transform="translate(52.818 52.818)"/><path class="a" d="M62.075,33.227c.085-.875.2-1.741.2-2.628a27.861,27.861,0,0,0-55.719.012,7.735,7.735,0,0,1-.508,2.616Z" transform="translate(17.29 9.091)"/><path class="a" d="M4.85,13.5l-.153.242a4.458,4.458,0,0,0,3.784,6.852h4.284v7.1a7.393,7.393,0,0,0,7.408,7.359,6.607,6.607,0,0,0,2.156-.33l5.046-1.511v7.5A3.024,3.024,0,0,0,30.4,43.727H56.7A3.024,3.024,0,0,0,59.719,40.7V26.175a19.789,19.789,0,0,1,3.692-11.523c.262-.367.447-.77.689-1.149H4.85Z" transform="translate(11.361 39.182)"/></svg>