<svg id="instagram_2_" data-name="instagram (2)" xmlns="http://www.w3.org/2000/svg" width="17.422" height="17.422" viewBox="0 0 17.422 17.422">
  <path id="Path_1337" data-name="Path 1337" d="M12.705,0H4.715A4.721,4.721,0,0,0,0,4.716v7.99a4.721,4.721,0,0,0,4.716,4.716h7.99a4.721,4.721,0,0,0,4.716-4.716V4.716A4.721,4.721,0,0,0,12.705,0Zm-4,13.475a4.764,4.764,0,1,1,4.764-4.764A4.769,4.769,0,0,1,8.71,13.475Zm4.878-8.4A1.408,1.408,0,1,1,15,3.663,1.409,1.409,0,0,1,13.588,5.071Zm0,0" transform="translate(0.001 0)" fill="#7e94ff"/>
  <path id="Path_1338" data-name="Path 1338" d="M149.762,146.02a3.742,3.742,0,1,0,3.742,3.742A3.747,3.747,0,0,0,149.762,146.02Zm0,0" transform="translate(-141.051 -141.051)" fill="#7e94ff"/>
  <path id="Path_1339" data-name="Path 1339" d="M388.379,96.3a.386.386,0,1,0,.386.386A.387.387,0,0,0,388.379,96.3Zm0,0" transform="translate(-374.79 -93.024)" fill="#7e94ff"/>
</svg>
