<svg id="linkedin_1_" data-name="linkedin (1)" xmlns="http://www.w3.org/2000/svg" width="15.455" height="17.349" viewBox="0 0 15.455 17.349">
  <path id="Path_1340" data-name="Path 1340" d="M166.107,152.921a3.794,3.794,0,0,0-2.5-.879,3.835,3.835,0,0,0-1.625.4V152.2a.568.568,0,0,0-.568-.568h-2.978a.568.568,0,0,0-.568.568v11.075a.568.568,0,0,0,.568.568h3.037a.509.509,0,0,0,.509-.509v-6.625a1.039,1.039,0,1,1,2.078,0v6.625a.509.509,0,0,0,.509.509h2.9a.509.509,0,0,0,.509-.509v-6.423A5.18,5.18,0,0,0,166.107,152.921Zm0,0" transform="translate(-152.518 -146.491)" fill="#7e94ff"/>
  <path id="Path_1341" data-name="Path 1341" d="M4.019,151.625H1.094a.6.6,0,0,0-.595.595v11.022a.6.6,0,0,0,.595.594H4.019a.6.6,0,0,0,.594-.594V152.22A.6.6,0,0,0,4.019,151.625Zm0,0" transform="translate(-0.483 -146.487)" fill="#7e94ff"/>
  <path id="Path_1342" data-name="Path 1342" d="M2.074,0A2.074,2.074,0,1,0,4.147,2.074,2.076,2.076,0,0,0,2.074,0Zm0,0" fill="#7e94ff"/>
</svg>
