<svg xmlns="http://www.w3.org/2000/svg" width="86" height="94.719" viewBox="0 0 86 94.719"><defs><style>.a{fill:#10d078;}</style></defs><path class="a" d="M76.339,327.59H9.659A9.673,9.673,0,0,0,0,337.254v14.8a9.673,9.673,0,0,0,9.66,9.664h66.68A9.673,9.673,0,0,0,86,352.056v-14.8A9.673,9.673,0,0,0,76.339,327.59Zm-53.6,18.727-.724.236.448.616a2.775,2.775,0,1,1-4.49,3.263l-.448-.616-.447.616a2.775,2.775,0,1,1-4.49-3.263l.447-.616-.724-.236a2.776,2.776,0,0,1,1.716-5.28l.724.236v-.762a2.775,2.775,0,1,1,5.55,0v.762l.724-.236a2.776,2.776,0,0,1,1.714,5.28Zm16.98,0-.724.236.447.616a2.775,2.775,0,1,1-4.49,3.263l-.447-.616-.447.616a2.775,2.775,0,1,1-4.49-3.263l.447-.616-.724-.236a2.776,2.776,0,0,1,1.715-5.28l.724.236v-.762a2.775,2.775,0,1,1,5.55,0v.762l.724-.236a2.776,2.776,0,0,1,1.715,5.28Zm16.98,0-.724.236.447.616a2.775,2.775,0,1,1-4.49,3.263l-.447-.616-.447.616a2.775,2.775,0,1,1-4.49-3.263l.447-.616-.724-.236a2.776,2.776,0,0,1,1.715-5.28l.724.236v-.762a2.775,2.775,0,1,1,5.55,0v.762l.724-.236a2.776,2.776,0,0,1,1.715,5.28Zm16.98,0-.724.236.447.616a2.775,2.775,0,1,1-4.49,3.263l-.447-.616-.448.616a2.775,2.775,0,1,1-4.49-3.263l.448-.616-.724-.236a2.776,2.776,0,0,1,1.715-5.28l.724.236v-.762a2.775,2.775,0,1,1,5.55,0v.762l.724-.236a2.776,2.776,0,0,1,1.715,5.28Zm0,0" transform="translate(0.001 -267.002)"/><path class="a" d="M190.445,190.012a12.622,12.622,0,0,1-13.763,0,11.113,11.113,0,0,0-4.218,8.7v9.041a27.584,27.584,0,0,0,22.2,0v-9.041A11.115,11.115,0,0,0,190.445,190.012Zm0,0" transform="translate(-140.564 -154.864)"/><path class="a" d="M201.133,108.436a7.109,7.109,0,1,0-7.109-7.109A7.117,7.117,0,0,0,201.133,108.436Zm0,0" transform="translate(-158.133 -76.79)"/><path class="a" d="M94.158,49.643V43.871a16.679,16.679,0,0,1,5.87-12.688,12.653,12.653,0,1,1,21.54,0,16.677,16.677,0,0,1,5.871,12.688v5.773a27.6,27.6,0,1,0-33.281,0Zm0,0" transform="translate(-67.798)"/></svg>