<svg xmlns="http://www.w3.org/2000/svg" width="34.217" height="34.217" viewBox="0 0 34.217 34.217"><defs><style>.a{fill:none;}.b{fill:#ffc400;}</style></defs><path class="a" d="M0,0H34.217V34.217H0Z"/><path class="b" d="M23.96,21.747V14.618c0-4.377-2.338-8.041-6.416-9.01V4.639a2.139,2.139,0,1,0-4.277,0v.969c-4.092.969-6.416,4.619-6.416,9.01v7.129L4,24.6v1.426H26.811V24.6Zm-7.128,0H13.98V18.9h2.851Zm0-5.7H13.98v-5.7h2.851ZM15.406,30.3a2.86,2.86,0,0,0,2.851-2.851h-5.7A2.851,2.851,0,0,0,15.406,30.3Z" transform="translate(1.703 1.064)"/></svg>