<svg id="notification_important-24px" xmlns="http://www.w3.org/2000/svg" width="42" height="42" viewBox="0 0 42 42">
  <path id="Path_7" data-name="Path 7" d="M0,0H42V42H0Z" fill="none"/>
  <path id="Path_8" data-name="Path 8" d="M27.294,25.588V17.037c0-5.25-2.729-9.646-7.487-10.809V5.065a2.5,2.5,0,1,0-4.991,0V6.228C10.04,7.391,7.328,11.769,7.328,17.037v8.551L4,29.009v1.71H30.621v-1.71Zm-8.319,0H15.647v-3.42h3.328Zm0-6.841H15.647V11.906h3.328Zm-1.664,17.1a3.385,3.385,0,0,0,3.328-3.42H13.983A3.374,3.374,0,0,0,17.311,35.849Z" transform="translate(3.689 2.306)" fill="#f83a3a"/>
</svg>
