<svg xmlns="http://www.w3.org/2000/svg" width="46.734" height="42.528" viewBox="0 0 46.734 42.528"><defs><style>.a{fill:#10d078;}</style></defs><path class="a" d="M81.431,335.141a3.34,3.34,0,0,1-3.212-2.5c-.013-.051-.013-.1-.024-.153l-9.152-5.021a1.61,1.61,0,0,0-.814-.219,1.692,1.692,0,0,0-.318.03,1.546,1.546,0,0,0-.415.137,1.641,1.641,0,0,0-.714.669,1.733,1.733,0,0,0-.223.844,1.682,1.682,0,0,0,.826,1.464l15.147,9.2a2.472,2.472,0,0,0,1.324.386H95.561a2.468,2.468,0,0,0,.914-.177l3.051-1.223v-9.088l-2.97-1.806a2.463,2.463,0,0,0-1.28-.36H92.091a5.728,5.728,0,0,0-1.5.2L81,330.135a1.7,1.7,0,0,0-1.224,1.488v.276a1.563,1.563,0,0,0,.048.312,1.666,1.666,0,0,0,1.608,1.243c.1-.009.59-.11.969-.2l8.6-2.338.428,1.63L82.8,334.892a8.018,8.018,0,0,1-1.369.248Zm0,0" transform="translate(-59.54 -297.454)"/><path class="a" d="M400,320h5.061v13.5H400Zm0,0" transform="translate(-358.327 -290.969)"/><path class="a" d="M0,0H5.061V15.184H0ZM0,0"/><path class="a" d="M66.878,13.274a7.607,7.607,0,0,0,3.87,1.262V10.46a6.134,6.134,0,0,1-1.724-.968l-.494-.4L69.593,7.78l.489.4a4.471,4.471,0,0,0,5.686-.084l.59-.506,4.977,4.977a1.692,1.692,0,1,0,2.387-2.4L77.77,4.207l1.192-1.192L81.01,5.062h6.961L84.638,1.729A5.865,5.865,0,0,0,80.463,0H69.858a2.532,2.532,0,0,0-1.131.267l-1.891.946a4.235,4.235,0,0,1-2.04.442L64,1.627V12.654h1.94Zm0,0" transform="translate(-57.251 0)"/><path class="a" d="M144,68.065V82.558h32.055V64H154.261l1.687,1.687h14.2v.844a3.374,3.374,0,0,0,3.374,3.374h.844v6.749h-.844a3.374,3.374,0,0,0-3.374,3.374v.844H149.9v-.844a3.374,3.374,0,0,0-3.374-3.374h-.844V69.9h.844a3.366,3.366,0,0,0,2.709-1.371L147.8,67.095a6.135,6.135,0,0,1-3.8.97Zm0,0" transform="translate(-129.321 -57.363)"/><path class="a" d="M182.725,100.614a3.374,3.374,0,0,1-2.384-.978l-1.273-1.274A5.036,5.036,0,0,1,176,100.148v3.514a5.076,5.076,0,0,1,4.148,4.148h17.011a5.076,5.076,0,0,1,4.148-4.148v-3.514A5.076,5.076,0,0,1,197.159,96h-11.3a3.317,3.317,0,0,1-.276,3.028,4.217,4.217,0,1,1-.479.612,3.4,3.4,0,0,1-2.382.974Zm0,0" transform="translate(-157.947 -86.026)"/><path class="a" d="M277.061,130.531A2.531,2.531,0,1,1,274.531,128,2.531,2.531,0,0,1,277.061,130.531Zm0,0" transform="translate(-243.662 -114.666)"/></svg>