<svg xmlns="http://www.w3.org/2000/svg" width="49.821" height="42.262" viewBox="0 0 49.821 42.262"><defs><style>.a{fill:#10d078;}</style></defs><g transform="translate(0 -38.84)"><g transform="translate(38.776 61.656)"><path class="a" d="M402.347,273.32h-3.853a10.022,10.022,0,0,1,.607,3.445v14.562a4.3,4.3,0,0,1-.247,1.438h6.37a4.32,4.32,0,0,0,4.315-4.315v-7.938A7.2,7.2,0,0,0,402.347,273.32Z" transform="translate(-398.494 -273.32)"/></g><g transform="translate(0 61.657)"><path class="a" d="M10.438,276.766a10.022,10.022,0,0,1,.607-3.445H7.192A7.2,7.2,0,0,0,0,280.513v7.938a4.32,4.32,0,0,0,4.315,4.315h6.37a4.3,4.3,0,0,1-.247-1.438Z" transform="translate(0 -273.321)"/></g><g transform="translate(13.314 57.91)"><g transform="translate(0 0)"><path class="a" d="M152.829,234.815h-8.808a7.2,7.2,0,0,0-7.192,7.192v14.562a1.438,1.438,0,0,0,1.438,1.438h20.315a1.438,1.438,0,0,0,1.438-1.438V242.007A7.2,7.2,0,0,0,152.829,234.815Z" transform="translate(-136.829 -234.815)"/></g></g><g transform="translate(16.261 38.84)"><path class="a" d="M175.763,38.84a8.648,8.648,0,1,0,8.649,8.649A8.659,8.659,0,0,0,175.763,38.84Z" transform="translate(-167.114 -38.84)"/></g><g transform="translate(3.254 46.902)"><g transform="translate(0 0)"><path class="a" d="M39.911,121.689a6.465,6.465,0,1,0,6.468,6.468A6.476,6.476,0,0,0,39.911,121.689Z" transform="translate(-33.443 -121.689)"/></g></g><g transform="translate(33.63 46.902)"><g transform="translate(0 0)"><path class="a" d="M352.075,121.689a6.468,6.468,0,1,0,6.468,6.468A6.476,6.476,0,0,0,352.075,121.689Z" transform="translate(-345.607 -121.689)"/></g></g></g></svg>