<svg xmlns="http://www.w3.org/2000/svg" width="29.417" height="29.417" viewBox="0 0 29.417 29.417">
  <g id="profile_picture" data-name="profile picture" transform="translate(-152.5 -39.083)">
    <path id="Path_115" data-name="Path 115" d="M14.708,0A14.708,14.708,0,1,0,29.417,14.708,14.725,14.725,0,0,0,14.708,0Zm0,4.29a7.048,7.048,0,1,1-7.048,7.048A7.056,7.056,0,0,1,14.708,4.29Zm0,22.675a12.232,12.232,0,0,1-9.794-4.919,23.078,23.078,0,0,1,9.794-2.435A23.08,23.08,0,0,1,24.5,22.046,12.232,12.232,0,0,1,14.708,26.965Z" transform="translate(152.5 39.083)" fill="#fff"/>
  </g>
</svg>
