<svg xmlns="http://www.w3.org/2000/svg" xmlns:xlink="http://www.w3.org/1999/xlink" width="34.311" height="33.658" viewBox="0 0 34.311 33.658"><defs><style>.a{fill:#b4b1b1;}.b{fill:url(#a);}.c{fill:none;stroke:rgba(0,0,0,0.1);stroke-width:1.047px;}.d{fill:#fff;}</style><linearGradient id="a" x1="0.5" x2="0.5" y2="1" gradientUnits="objectBoundingBox"><stop offset="0" stop-color="#fff" stop-opacity="0.502"/><stop offset="1" stop-opacity="0.502"/></linearGradient></defs><g transform="translate(-0.84)"><g transform="translate(1.053)"><ellipse cx="17.048" cy="16.829" rx="17.048" ry="16.829"/><ellipse class="a" cx="17.048" cy="16.829" rx="17.048" ry="16.829" transform="translate(-0.214)"/><ellipse class="b" cx="17.048" cy="16.829" rx="17.048" ry="16.829" transform="translate(-0.214)"/><ellipse class="c" cx="16.48" cy="16.268" rx="16.48" ry="16.268" transform="translate(0.568 0.561)"/></g><path class="d" d="M24.834,8.318h2.957l-6.153,6.015a5.8,5.8,0,0,1-8.072,0L7.41,8.318H10.37l4.675,4.567a3.671,3.671,0,0,0,5.11,0Zm-14.5,16.724H7.373l6.194-6.051a5.8,5.8,0,0,1,8.07,0l6.194,6.051H24.871L20.16,20.435a3.671,3.671,0,0,0-5.11,0Z" transform="translate(0.499 0.657)"/></g></svg>