<svg xmlns="http://www.w3.org/2000/svg" width="177.202" height="146.155" viewBox="0 0 177.202 146.155">
  <g id="Group_6350" data-name="Group 6350" transform="translate(-8539.033 3189)">
    <path id="Path_9192" data-name="Path 9192" d="M179.01,110.753l1.753,6.537,56.124,43.546L136.519,236.371l-54.246-52.21,52.069,55.576,13.975,6.682a1.525,1.525,0,0,0,1.55-.168L251.689,169.7a.9.9,0,0,0,.018-1.421Z" transform="translate(8464.188 -3289.403)" fill="#1f0a28" opacity="0.56"/>
    <path id="Path_9193" data-name="Path 9193" d="M70.169,234.362a7.2,7.2,0,0,0,2.932,2.859.66.66,0,0,1,.209.153c3.068,3.418,46.865,49.748,51.656,54.865a.694.694,0,0,0,.926.078l102.136-77.331a.7.7,0,0,0,.03-1.085l-7.381-6.26a.7.7,0,0,0-.9,0l-94.131,78.795a.7.7,0,0,1-.945-.049l-50.6-52.107a.683.683,0,0,0-.282-.176,6.846,6.846,0,0,1-1.923-.852c-.257-.322-2.964-13.216-3.355-15.084a.69.69,0,0,0-.22-.377l-1.378-2.219a.7.7,0,0,0-1.15.615C66.376,220.238,68.14,231.007,70.169,234.362Z" transform="translate(8473.237 -3342.519)" fill="#1f0a28"/>
    <path id="Path_10372" data-name="Path 10372" d="M200.763,295.573,298.919,221.2l-5.134-4.28-96.325,75.113Z" transform="translate(8400.935 -3347.707)" fill="#1f0a28" opacity="0.56"/>
    <path id="Path_10373" data-name="Path 10373" d="M197.459,265.239v14.719L295.8,206.572V194.929Z" transform="translate(8400.935 -3335.628)" fill="#c4bbbe"/>
    <path id="Path_10374" data-name="Path 10374" d="M128.511,296V278.229L72.345,224.145l-.439,3.175,2.118,13.122a5.176,5.176,0,0,0,1.929,3.259l3.682,2.868Z" transform="translate(8469.882 -3351.672)" fill="#fbf8f0"/>
    <path id="Path_10375" data-name="Path 10375" d="M71.905,242.894c-.257-.322-2.964-13.216-3.355-15.084a.69.69,0,0,0-.22-.377l-1.378-2.219a.7.7,0,0,0-1.15.615c.573,4.051,2.337,14.82,4.366,18.176,0,0,.093.178.273.449A14.974,14.974,0,0,1,72.026,243,.626.626,0,0,1,71.905,242.894Z" transform="translate(8473.237 -3352.162)" fill="#1f0a28" opacity="0.56"/>
    <path id="Path_10376" data-name="Path 10376" d="M224.848,135.956l-97.765,73.868a1.545,1.545,0,0,1-2.033-.15L66.467,150.6a.6.6,0,0,1,.1-.927L160.228,88a1.236,1.236,0,0,1,1.4.03L224.821,133.6A1.467,1.467,0,0,1,224.848,135.956Z" transform="translate(8472.964 -3276.796)" fill="#1f0a28"/>
    <path id="Path_17625" data-name="Path 17625" d="M146.7,226.15l.015.016,5.974,2.728,27.368-14.2-2.038-5.449-30.734,15.78Z" transform="translate(8428.807 -3343.492)" fill="#1f0a28" opacity="0.56"/>
    <ellipse id="Ellipse_260" data-name="Ellipse 260" cx="28.691" cy="25.011" rx="28.691" ry="25.011" transform="translate(8605.059 -3164.81)" fill="#bb5935"/>
    <ellipse id="Ellipse_261" data-name="Ellipse 261" cx="26.712" cy="22.772" rx="26.712" ry="22.772" transform="translate(8606.828 -3164.81)" fill="none" stroke="#bb5935" stroke-miterlimit="10" stroke-width="0.924"/>
    <path id="Path_17626" data-name="Path 17626" d="M279.782,181.45c.084-.15.165-.3.245-.452.091-.17.179-.343.265-.515q.158-.316.306-.636.129-.278.251-.559c.063-.146.126-.292.186-.44q.168-.413.32-.832c.047-.129.09-.26.135-.391q.116-.34.221-.684c.033-.109.069-.216.1-.326.09-.312.171-.628.248-.944q.041-.168.079-.338c.075-.33.144-.662.2-1,.013-.07.022-.14.034-.21q.078-.465.135-.935c.01-.078.021-.156.029-.234q.06-.536.093-1.079c0-.079.009-.159.013-.239.02-.378.033-.757.033-1.14,0-9.284-5.807-17.38-14.423-21.7l.278.5h-2.018l-10.9,26.413s8.109,4.78,15.86,4.2l-.055.046h.034c.38-.052.8.751.949,1.794a4.869,4.869,0,0,1,.046.7,28.828,28.828,0,0,1-19.968,7.653,29.624,29.624,0,0,1-16.472-4.852,29.361,29.361,0,0,0,17.766,5.772,28.938,28.938,0,0,0,19.545-7.257c.477-.037,1.005.968,1.187,2.275a4.485,4.485,0,0,1-.11,2.02,25.624,25.624,0,0,0,4.964-5.9h0Q279.58,181.812,279.782,181.45Zm-.917-16.761c-.005-.092-.013-.183-.019-.274C278.852,164.506,278.859,164.6,278.864,164.688Zm-.085-.963c-.01-.088-.019-.176-.031-.264C278.76,163.549,278.769,163.637,278.78,163.725Zm-.019,3.987,0-.011Zm.088-.915c0-.044.009-.087.012-.13C278.858,166.711,278.852,166.754,278.849,166.8Zm-.53-7.536,0-.007,0,0Z" transform="translate(8379.763 -3310.298)" fill="#1f0a28" opacity="0.56"/>
    <ellipse id="Ellipse_262" data-name="Ellipse 262" cx="12.964" cy="7.082" rx="12.964" ry="7.082" transform="matrix(0.866, -0.5, 0.5, 0.866, 8626.677, -3147.919)" fill="#eb8f1e"/>
    <path id="Path_17627" data-name="Path 17627" d="M253.033,121.607c4.064-2.346,8.313-3.146,11.174-2.365-1.714-2.662-7.078-2.5-12.12.414-4.873,2.813-7.681,7.172-6.557,10C246.443,126.9,249.176,123.834,253.033,121.607Z" transform="translate(8374.672 -3293.028)" fill="#eb8f1e"/>
    <path id="Path_17628" data-name="Path 17628" d="M256.248,128.786c4.03-2.326,8.236-3.166,11.158-2.488a4.39,4.39,0,0,0-.42-3.072c-1.863-3.226-8.158-3.079-14.06.329s-9.177,8.786-7.315,12.012a4.538,4.538,0,0,0,2.8,2.01C249.143,134.618,252.043,131.214,256.248,128.786Z" transform="translate(8374.778 -3294.974)" fill="#eb8f1e"/>
    <path id="Path_17629" data-name="Path 17629" d="M266.95,146.869c5.013-2.894,10.293-3.55,13.166-1.905h0l-5.173-8.82h0a3.963,3.963,0,0,0-.482-1.4c-1.906-3.3-8.349-3.151-14.39.336-5.839,3.371-9.163,8.625-7.659,11.954h0l0,0c.052.114.108.226.171.335.041.071.087.139.133.207l6.014,10.731.076-.048C258.118,154.856,261.444,150.048,266.95,146.869Z" transform="translate(8370.954 -3301.271)" fill="#eb8f1e"/>
    <path id="Path_17630" data-name="Path 17630" d="M237,184.587l-1.118-3.5s-11.842,4.021-12.524,4.47c-.556.366-7.749,4.828-10.388,6.464a22.653,22.653,0,0,0,2.8,7.558,4.278,4.278,0,0,1-.215-1.513,3.585,3.585,0,0,1,.886-2.388Z" transform="translate(8392.416 -3328.028)" fill="#1f0a28" opacity="0.56"/>
    <path id="Path_17631" data-name="Path 17631" d="M201.2,173.322l-4.751-4.75-3.046,1.6c-.486-.455-.927-.659-1.229-.512s-.42.647-.351,1.342l-51.759,27.178,2.853,5.673,51.7-27.084c.5.487.965.711,1.277.559s.426-.679.343-1.408Z" transform="translate(8432.456 -3321.154)" fill="#eb8f1e"/>
    <path id="Path_17632" data-name="Path 17632" d="M142.952,239.9a18.706,18.706,0,0,1-2.762-5.686,18.719,18.719,0,0,1,2.762,5.686Z" transform="translate(8432.396 -3357.198)" fill="#fbb83a"/>
    <ellipse id="Ellipse_263" data-name="Ellipse 263" cx="12.964" cy="8.37" rx="12.964" ry="8.37" transform="matrix(0.866, -0.5, 0.5, 0.866, 8629.259, -3144.165)" fill="#eb8f1e"/>
    <path id="Path_17633" data-name="Path 17633" d="M275.867,154.426c6.269,4.588,10.257,11.467,10.257,19.161,0,13.814-12.845,25.011-28.691,25.011a31.723,31.723,0,0,1-15.144-3.77,31.194,31.194,0,0,0,18.433,5.85c15.846,0,28.691-11.2,28.691-25.011C289.415,166.7,284,158.841,275.867,154.426Z" transform="translate(8376.315 -3313.386)" fill="#1f0a28" opacity="0.56"/>
    <path id="Path_17634" data-name="Path 17634" d="M308.221,231.46l-.44.328C307.943,231.788,308.093,231.664,308.221,231.46Z" transform="translate(8340.351 -3355.689)" fill="#1f0a28"/>
    <path id="Path_17635" data-name="Path 17635" d="M299.309,173.66c-2.365-3.252-8.637-3.283-14.373.028-5.974,3.449-9.1,9.217-6.985,12.883a5.359,5.359,0,0,0,2.75,2.27c3.059.645,7.173-.142,11.06-2.386C297.718,183.015,300.975,177.407,299.309,173.66Z" transform="translate(8357.096 -3322.604)" fill="#1f0a28" opacity="0.56"/>
    <path id="Path_17636" data-name="Path 17636" d="M197.735,180.146a1.457,1.457,0,0,1-1.8.692l-52.124,26.41,1.289,2.892,51.574-27.016c.5.487.965.711,1.277.559s.426-.679.343-1.408l.3-.159A3.545,3.545,0,0,0,197.735,180.146Z" transform="translate(8430.393 -3327.51)" fill="#1f0a28" opacity="0.56"/>
    <path id="Path_17637" data-name="Path 17637" d="M282.588,166.416c4.567-2.637,9.51-3.143,12.723-1.629a4.331,4.331,0,0,0-.537-2.475,4.036,4.036,0,0,0-.885-1.053,16.341,16.341,0,0,0-10.361,2.335c-4.32,2.494-7.159,6.234-7.7,9.628A17.037,17.037,0,0,1,282.588,166.416Z" transform="translate(8357.898 -3317.062)" fill="#1f0a28" opacity="0.56"/>
    <path id="Path_17638" data-name="Path 17638" d="M302.1,145.023l-5.173-8.82h0a3.963,3.963,0,0,0-.482-1.4,5.341,5.341,0,0,0-4.36-2.333s0,.008,0,.013,1.691-.188,3.006,3.457c.789,1.954,4.4,7.99,4.4,7.99s.212.143.471.359a6.632,6.632,0,0,1,2.143.732Z" transform="translate(8348.972 -3301.33)" fill="#1f0a28" opacity="0.56"/>
    <path id="Path_17639" data-name="Path 17639" d="M271.536,123.4c0-.032,0-.062,0-.093,0-.06.006-.12,0-.179l-.012-.009a3.968,3.968,0,0,0-.5-1.842,4.575,4.575,0,0,0-2.886-2.036h0c-.849-1.317-2.593-1.94-4.748-1.882a2.684,2.684,0,0,1,2.233,1.595h0l0,.008a2.993,2.993,0,0,1,1.888,2.962l.016.007a15.766,15.766,0,0,0-7.933,2.644c-4.78,3.019-7.671,7.584-7.085,10.83.819-2.906,3.673-6.2,7.773-8.568,4.03-2.326,8.236-3.166,11.158-2.488a5.484,5.484,0,0,0,.091-.951Z" transform="translate(8370.744 -3293.031)" fill="#1f0a28" opacity="0.56"/>
    <line id="Line_411" data-name="Line 411" x2="37.12" y2="37.514" transform="translate(8548.142 -3108.6)" fill="none" stroke="#c4bbbe" stroke-miterlimit="10" stroke-width="1"/>
    <line id="Line_412" data-name="Line 412" x2="28.344" y2="28.645" transform="translate(8551.454 -3107.518)" fill="none" stroke="#c4bbbe" stroke-miterlimit="10" stroke-width="1"/>
    <line id="Line_413" data-name="Line 413" x2="42.43" y2="42.881" transform="translate(8548.729 -3112.501)" fill="none" stroke="#c4bbbe" stroke-miterlimit="10" stroke-width="1"/>
    <line id="Line_414" data-name="Line 414" x2="37.12" y2="37.514" transform="translate(8548.729 -3115.103)" fill="none" stroke="#c4bbbe" stroke-miterlimit="10" stroke-width="1"/>
    <path id="Path_17640" data-name="Path 17640" d="M73.643,234.116l-1.511-1.524,2.016,12.489a5.176,5.176,0,0,0,1.929,3.259,18.975,18.975,0,0,1-1.412-6.153C74.428,239.426,73.888,235.977,73.643,234.116Z" transform="translate(8469.758 -3356.311)" fill="#ecbd98"/>
    <line id="Line_415" data-name="Line 415" x1="79.752" y2="60.024" transform="translate(8606.828 -3130.034)" fill="none" stroke="#f9f9f9" stroke-miterlimit="10" stroke-width="1"/>
    <line id="Line_416" data-name="Line 416" x1="77.244" y2="58.136" transform="translate(8615.775 -3132.367)" fill="none" stroke="#f9f9f9" stroke-miterlimit="10" stroke-width="1"/>
    <line id="Line_417" data-name="Line 417" x1="81.387" y2="61.254" transform="translate(8602.523 -3123)" fill="none" stroke="#f9f9f9" stroke-miterlimit="10" stroke-width="1"/>
    <line id="Line_418" data-name="Line 418" x1="60.892" y2="45.83" transform="translate(8632.126 -3128.244)" fill="none" stroke="#f9f9f9" stroke-miterlimit="10" stroke-width="1"/>
  </g>
</svg>
