<svg xmlns="http://www.w3.org/2000/svg" width="64.608" height="103.373" viewBox="0 0 64.608 103.373"><defs><style>.a{fill:#10d078;}</style></defs><path class="a" d="M156.149,35.041l-9.826-8.516a19.382,19.382,0,1,0-37.4-7.142q0,.6.036,1.189v.007a.317.317,0,0,0,.519.226l6.484-5.4a.315.315,0,0,0,.1-.141,12.921,12.921,0,0,1,25.167,4.122,12.96,12.96,0,0,1-.246,2.511l-2.053-1.779a16.22,16.22,0,0,0-21.246,0l-1.6,1.383a1.011,1.011,0,0,0-.32,1.006,12.838,12.838,0,0,0,1.3,3.255,12.968,12.968,0,0,0,7.695,6.044.328.328,0,0,0,.406-.247,3.229,3.229,0,0,1,3.235-2.482,3.29,3.29,0,0,1,3.136,3.319v6.279a3.291,3.291,0,0,1-3.074,3.318,3.23,3.23,0,0,1-3.386-3.227h0a.326.326,0,0,0-.268-.32,19.445,19.445,0,0,1-13.357-9.49q-.336-.591-.629-1.2a1.008,1.008,0,0,0-1.57-.328l-8.79,7.618A12.914,12.914,0,0,0,96,44.805V93.681a9.691,9.691,0,0,0,9.691,9.691h45.226a9.691,9.691,0,0,0,9.691-9.691V44.805A12.915,12.915,0,0,0,156.149,35.041ZM110.537,58.147A6.461,6.461,0,1,1,117,64.608,6.468,6.468,0,0,1,110.537,58.147ZM117,87.221a3.231,3.231,0,0,1-2.548-5.214L137.06,52.933a3.23,3.23,0,0,1,5.1,3.967L119.548,85.974A3.225,3.225,0,0,1,117,87.221Zm22.615,0a6.461,6.461,0,1,1,6.461-6.461A6.468,6.468,0,0,1,139.61,87.221Z" transform="translate(-96 0)"/></svg>