<svg xmlns="http://www.w3.org/2000/svg" width="103.373" height="103.373" viewBox="0 0 103.373 103.373"><defs><style>.a{fill:#10d078;}</style></defs><path class="a" d="M39,11a28,28,0,1,0,28,28A28.029,28.029,0,0,0,39,11ZM53,32.144,37.929,49.373a4.3,4.3,0,0,1-3.1,1.469H34.69a4.3,4.3,0,0,1-3.045-1.262L23.03,40.965a4.307,4.307,0,1,1,6.09-6.09l5.358,5.358L46.521,26.467A4.308,4.308,0,1,1,53,32.144Z" transform="translate(36.379 36.379)"/><path class="a" d="M71.844,13.051,37.386.129a2.39,2.39,0,0,0-1.551,0L1.378,13.051A2.158,2.158,0,0,0,0,15.075v27.7C0,82.052,35.793,90.322,36.137,90.408a2.627,2.627,0,0,0,.948,0,29.519,29.519,0,0,0,4.35-1.378,36.045,36.045,0,0,1-2.67-13.654A36.659,36.659,0,0,1,73.222,38.808V15.075a2.158,2.158,0,0,0-1.378-2.024Z" transform="translate(0 0)"/></svg>