<svg xmlns="http://www.w3.org/2000/svg" width="1921.368" height="511.96" viewBox="0 0 1921.368 511.96">
  <path id="Subtraction_6" data-name="Subtraction 6" d="M4278.368,3253.612h-.868V3167.2H2358V2743c59.171,32.674,127.194,63.481,202.179,91.564,75.446,28.256,158.111,53.814,245.7,75.968,44.2,11.179,90.193,21.616,136.7,31.021,47.07,9.518,95.729,18.194,144.624,25.787,49.6,7.7,100.6,14.467,151.558,20.106,51.81,5.732,104.8,10.436,157.507,13.98,41.089,2.762,82.628,4.861,123.464,6.238,40.3,1.359,80.91,2.047,120.709,2.047,117.2,0,231.68-5.892,340.263-17.512,106.257-11.372,206.406-28.171,297.663-49.932Z" transform="translate(-2357.5 -2742.152)" fill="#172b46" stroke="rgba(0,0,0,0)" stroke-miterlimit="10" stroke-width="1"/>
</svg>
