<svg id="telegram_3_" data-name="telegram (3)" xmlns="http://www.w3.org/2000/svg" width="23.054" height="19.505" viewBox="0 0 23.054 19.505">
  <path id="Path_1913" data-name="Path 1913" d="M22.7.534A1.5,1.5,0,0,0,21.511,0a2.333,2.333,0,0,0-.829.165L1.166,7.615C.131,8.01-.009,8.6,0,8.921s.182.9,1.238,1.239l.019.006,2.737.783,13.329-6.81a.675.675,0,0,1,.8,1.064h0l-7.411,7.875-.211.857,2.646,2.131,3.667,2.953.01.008a2.1,2.1,0,0,0,1.275.479A1.789,1.789,0,0,0,19.8,17.92L23,2.131a1.887,1.887,0,0,0-.3-1.6Zm0,0" transform="translate(0)" fill="#7e94ff"/>
  <path id="Path_1914" data-name="Path 1914" d="M124.939,163.465a.674.674,0,0,1,.164-.3L129.965,158l-9.024,4.61,2.049,5.86a2.291,2.291,0,0,0,.506.841l1.442-5.842Zm0,0" transform="translate(-115.496 -150.882)" fill="#7e94ff"/>
  <path id="Path_1915" data-name="Path 1915" d="M205.6,345.19a2.073,2.073,0,0,0,1.385-.6l1.5-1.38-2-1.609Zm0,0" transform="translate(-196.344 -326.223)" fill="#7e94ff"/>
</svg>
