<svg xmlns="http://www.w3.org/2000/svg" width="23.703" height="19.259" viewBox="0 0 23.703 19.259"><defs><style>.a{fill:#10d078;}</style></defs><g transform="translate(0 0)"><path class="a" d="M23.7,50.28a10.131,10.131,0,0,1-2.8.767,4.832,4.832,0,0,0,2.138-2.686,9.711,9.711,0,0,1-3.081,1.176,4.859,4.859,0,0,0-8.406,3.323,5,5,0,0,0,.113,1.108A13.754,13.754,0,0,1,1.65,48.886a4.861,4.861,0,0,0,1.493,6.495,4.8,4.8,0,0,1-2.2-.6v.053A4.882,4.882,0,0,0,4.841,59.61a4.85,4.85,0,0,1-1.274.16,4.3,4.3,0,0,1-.92-.083,4.906,4.906,0,0,0,4.541,3.385,9.764,9.764,0,0,1-6.025,2.073A9.1,9.1,0,0,1,0,65.078a13.68,13.68,0,0,0,7.455,2.181A13.735,13.735,0,0,0,21.285,53.431c0-.215-.007-.422-.018-.628A9.694,9.694,0,0,0,23.7,50.28Z" transform="translate(0 -48)"/></g></svg>