<svg xmlns="http://www.w3.org/2000/svg" width="16.517" height="22.523" viewBox="0 0 16.517 22.523"><defs><style>.a{fill:#fff;}</style></defs><g transform="translate(-68.264 0)"><g transform="translate(68.264 -0.001)"><path class="a" d="M84.667,7.781,76.784.106a.375.375,0,0,0-.524,0L68.378,7.781a.374.374,0,0,0,0,.538L70.519,10.4a.374.374,0,0,0,.524,0l3.6-3.532V22.147a.376.376,0,0,0,.375.375h3a.376.376,0,0,0,.375-.375V6.87L82,10.4a.376.376,0,0,0,.525,0l2.141-2.085a.375.375,0,0,0,0-.538Z" transform="translate(-68.264 0.001)"/></g></g></svg>