<svg xmlns="http://www.w3.org/2000/svg" width="86" height="87.565" viewBox="0 0 86 87.565"><defs><style>.a{fill:#10d078;}</style></defs><g transform="translate(-0.003)"><g transform="translate(0.003 0)"><path class="a" d="M80.07,71.644H66.4a15.923,15.923,0,0,1,0-31.841H80.07a1.971,1.971,0,0,0,1.953-1.99v-5.97a7.884,7.884,0,0,0-7.19-7.9L63.618,3.983A7.739,7.739,0,0,0,58.892.27a7.549,7.549,0,0,0-5.878.8L14.567,23.882H7.814A7.9,7.9,0,0,0,0,31.843V79.6a7.9,7.9,0,0,0,7.811,7.96h66.4a7.9,7.9,0,0,0,7.811-7.96v-5.97A1.971,1.971,0,0,0,80.07,71.644ZM66.04,16.308l4.255,7.574H53.274ZM22.33,23.882,54.98,4.512a3.715,3.715,0,0,1,2.9-.4,3.84,3.84,0,0,1,2.346,1.848l0,.007L30.039,23.882Z" transform="translate(-0.003 0)"/><path class="a" d="M324.541,234.674H310.611a11.941,11.941,0,1,0,0,23.881h13.931a5.977,5.977,0,0,0,5.97-5.97v-11.94A5.977,5.977,0,0,0,324.541,234.674Zm-13.931,15.921a3.98,3.98,0,1,1,3.98-3.98A3.985,3.985,0,0,1,310.611,250.595Z" transform="translate(-244.511 -190.891)"/></g></g></svg>