<svg xmlns="http://www.w3.org/2000/svg" width="97.24" height="81.978" viewBox="0 0 97.24 81.978">
  <g id="add-image" transform="translate(0 -40.179)">
    <path id="Path_2149" data-name="Path 2149" d="M80.67,85.316V48.871h0a8.69,8.69,0,0,0-8.68-8.68c-66.8.063-63.449-.153-65.057.177A8.7,8.7,0,0,0,0,48.871H0V96.907a8.69,8.69,0,0,0,8.68,8.68H60.4A18.469,18.469,0,1,0,80.67,85.316Zm-7.938-41.27a4.89,4.89,0,0,1,4.139,4.825v5.285H3.8V48.871a4.889,4.889,0,0,1,4.139-4.825c.616-.094,64.292-.077,64.795,0ZM3.8,96.907V92.964l7.339-5.811a1.9,1.9,0,0,0-2.358-2.978L3.8,88.119V57.955H76.872V79.017l-2.3-1.468a7.514,7.514,0,0,0-8.453.232L57.53,83.937a5.152,5.152,0,0,1-6.27-.209L37.8,72.646a11.435,11.435,0,0,0-14.288-.136l-3.28,2.6a1.9,1.9,0,1,0,2.358,2.978l3.28-2.6a7.615,7.615,0,0,1,9.516.091L48.845,86.66a8.956,8.956,0,0,0,10.9.364l8.584-6.155a3.732,3.732,0,0,1,4.2-.115l4.345,2.767v1.794A18.467,18.467,0,0,0,60.4,101.789H8.68A4.887,4.887,0,0,1,3.8,96.907Zm74.972,21.451a14.671,14.671,0,1,1,14.671-14.671A14.687,14.687,0,0,1,78.771,118.359Z" transform="translate(0)" fill="#7e94ff"/>
    <path id="Path_2150" data-name="Path 2150" d="M387.95,344.747h-3.6v-3.6a1.9,1.9,0,1,0-3.8,0v3.6h-3.6a1.9,1.9,0,0,0,0,3.8h3.6v3.6a1.9,1.9,0,1,0,3.8,0v-3.6h3.6a1.9,1.9,0,1,0,0-3.8Z" transform="translate(-303.825 -242.271)" fill="#7e94ff"/>
    <path id="Path_2151" data-name="Path 2151" d="M328.9,80.807h5.888a1.9,1.9,0,0,0,0-3.8H328.9a1.9,1.9,0,0,0,0,3.8Z" transform="translate(-264.896 -29.835)" fill="#7e94ff"/>
    <path id="Path_2152" data-name="Path 2152" d="M74.205,246.032h0a1.9,1.9,0,1,0,1.9,1.9A1.9,1.9,0,0,0,74.2,246.032Z" transform="translate(-58.572 -166.757)" fill="#7e94ff"/>
    <path id="Path_2153" data-name="Path 2153" d="M263.025,167.731a7.815,7.815,0,1,0-7.815-7.815A7.824,7.824,0,0,0,263.025,167.731Zm0-11.832a4.017,4.017,0,1,1-4.017,4.017A4.021,4.021,0,0,1,263.025,155.9Z" transform="translate(-206.74 -90.666)" fill="#7e94ff"/>
  </g>
</svg>
