<svg xmlns="http://www.w3.org/2000/svg" width="22.141" height="26" viewBox="0 0 22.141 26">
  <g id="surface1" transform="translate(-0.5 0)">
    <path id="Path_9037" data-name="Path 9037" d="M21.472,17.363a13.117,13.117,0,0,1-3.142,4.894,16.445,16.445,0,0,1-6.14,3.638,1.878,1.878,0,0,1-.6.105h-.022a1.905,1.905,0,0,1-.366-.036,1.983,1.983,0,0,1-.252-.069A16.444,16.444,0,0,1,4.806,22.26a13.093,13.093,0,0,1-3.141-4.893C.4,13.923.468,10.129.526,7.081V7.034c.012-.252.019-.516.023-.808a2.756,2.756,0,0,1,2.595-2.7A10.693,10.693,0,0,0,10.423.459L10.44.443a1.666,1.666,0,0,1,2.261,0l.017.016A10.7,10.7,0,0,0,20,3.526a2.756,2.756,0,0,1,2.595,2.7c0,.294.012.558.023.808v.02C22.673,10.108,22.745,13.909,21.472,17.363Zm0,0" transform="translate(0 0)" fill="#00dd80"/>
    <path id="Path_9038" data-name="Path 9038" d="M228.827,17.366a13.118,13.118,0,0,1-3.142,4.894,16.445,16.445,0,0,1-6.14,3.638,1.878,1.878,0,0,1-.6.105V0a1.668,1.668,0,0,1,1.108.442l.017.016a10.7,10.7,0,0,0,7.278,3.068,2.756,2.756,0,0,1,2.595,2.7c0,.294.012.558.023.808v.02C230.029,10.112,230.1,13.913,228.827,17.366Zm0,0" transform="translate(-207.356 -0.003)" fill="#00aa63"/>
    <path id="Path_9039" data-name="Path 9039" d="M103.854,134.878a6.488,6.488,0,0,1-6.457,6.48h-.023a6.48,6.48,0,1,1,0-12.96H97.4A6.488,6.488,0,0,1,103.854,134.878Zm0,0" transform="translate(-85.804 -121.878)" fill="#fff"/>
    <path id="Path_9040" data-name="Path 9040" d="M225.406,134.878a6.488,6.488,0,0,1-6.457,6.48V128.4A6.488,6.488,0,0,1,225.406,134.878Zm0,0" transform="translate(-207.356 -121.878)" fill="#e1ebf0"/>
    <path id="Path_9041" data-name="Path 9041" d="M160.385,213.282l-2.918,2.919-.631.631a.764.764,0,0,1-1.079,0l-1.356-1.356a.763.763,0,0,1,1.079-1.079l.817.817,3.01-3.01a.763.763,0,0,1,1.079,1.079Zm0,0" transform="translate(-145.874 -201.215)" fill="#b4d2d7"/>
    <path id="Path_9042" data-name="Path 9042" d="M221.867,213.282l-2.918,2.919v-2.158l1.84-1.839a.763.763,0,1,1,1.079,1.079Zm0,0" transform="translate(-207.356 -201.215)" fill="#6fa5aa"/>
  </g>
</svg>
