<svg xmlns="http://www.w3.org/2000/svg" width="17.496" height="17.497" viewBox="0 0 17.496 17.497">
  <g id="correct" transform="translate(-0.008 0)">
    <path id="Path_2253" data-name="Path 2253" d="M23.81,12.237l-2.145-.954-.955-2.146-2.334.244L16.478,8l-1.9,1.377-2.333-.244-.954,2.145-2.146.955.244,2.334-1.377,1.9,1.377,1.9L9.145,20.7l2.145.954.955,2.146,2.334-.244,1.9,1.377,1.9-1.377,2.333.244.954-2.145L23.81,20.7l-.244-2.334,1.377-1.9-1.377-1.9Zm-9.026,7.619-2.4-2.4.8-.8,1.6,1.594,4.789-4.789.8.8Zm0,0" transform="translate(-7.722 -7.721)" fill="#65b6fe"/>
    <g id="Group_1834" data-name="Group 1834" transform="translate(0.008 0)">
      <path id="Path_2254" data-name="Path 2254" d="M17.45,8.583,16.136,6.77l.233-2.226a.282.282,0,0,0-.166-.287l-2.045-.91L13.248,1.3a.284.284,0,0,0-.287-.166l-2.227.233L8.921.054a.282.282,0,0,0-.331,0L6.777,1.368,4.551,1.135a.286.286,0,0,0-.287.166l-.91,2.045-2.045.91a.282.282,0,0,0-.166.287L1.375,6.77.061,8.583a.282.282,0,0,0,0,.331l1.314,1.812-.233,2.227a.282.282,0,0,0,.166.287l2.045.91.91,2.045a.285.285,0,0,0,.287.166l2.226-.233L8.59,17.443a.282.282,0,0,0,.331,0l1.812-1.314,2.227.233a.284.284,0,0,0,.287-.166l.91-2.045,2.045-.91a.282.282,0,0,0,.166-.287l-.233-2.227L17.45,8.914a.282.282,0,0,0,0-.332Zm-1.834,1.9a.282.282,0,0,0-.052.195l.222,2.13-1.957.871a.28.28,0,0,0-.143.143l-.871,1.957-2.131-.223a.282.282,0,0,0-.195.052L8.756,16.866,7.021,15.609a.279.279,0,0,0-.165-.054H6.828L4.7,15.779l-.871-1.957a.282.282,0,0,0-.143-.143l-1.958-.871.222-2.13a.283.283,0,0,0-.052-.195L.638,8.748,1.9,7.014a.283.283,0,0,0,.052-.195l-.222-2.13,1.957-.871a.28.28,0,0,0,.143-.143L4.7,1.718l2.131.223a.285.285,0,0,0,.195-.052L8.756.631,10.49,1.888a.284.284,0,0,0,.195.052l2.131-.223.871,1.957a.282.282,0,0,0,.143.143l1.957.871-.222,2.13a.282.282,0,0,0,.052.195l1.257,1.734Zm0,0" transform="translate(-0.008 0)" fill="#1e81ce"/>
      <path id="Path_2255" data-name="Path 2255" d="M131.726,155.048a.282.282,0,0,0-.4,0l-4.589,4.589-1.4-1.4a.282.282,0,0,0-.4,0l-.8.8a.282.282,0,0,0,0,.4l2.4,2.4a.282.282,0,0,0,.4,0l5.587-5.588a.282.282,0,0,0,0-.4Zm-4.988,6.186-2-2,.4-.4,1.4,1.4a.282.282,0,0,0,.4,0l4.589-4.589.4.4Zm0,0" transform="translate(-119.683 -149.499)" fill="#1e81ce"/>
    </g>
  </g>
</svg>
