<svg id="face-recognition" xmlns="http://www.w3.org/2000/svg" width="107" height="107" viewBox="0 0 107 107">
  <path id="Path_2222" data-name="Path 2222" d="M375.9,280.013H369.32v-13.2H375.9a4.18,4.18,0,0,1,4.18,4.18v4.842A4.18,4.18,0,0,1,375.9,280.013Z" transform="translate(-292.138 -211.052)" fill="#fec5a5"/>
  <path id="Path_2223" data-name="Path 2223" d="M184.049,188.851V213.24a22.606,22.606,0,0,1-22.606,22.606h-6.459a22.606,22.606,0,0,1-22.606-22.606V196.178c5.167-2.136,6.459-6.979,6.243-11.742v-3.361h41.235c.99,0,1.957,2.041,2.883,1.828a14.175,14.175,0,0,1,1.309,5.949Z" transform="translate(-104.714 -143.233)" fill="#ffdec7"/>
  <g id="Group_1717" data-name="Group 1717" transform="translate(0)">
    <g id="Group_1716" data-name="Group 1716">
      <g id="Group_1714" data-name="Group 1714">
        <path id="Path_2224" data-name="Path 2224" d="M19.376,0H1.045A1.045,1.045,0,0,0,0,1.045V19.376H7.149a1.463,1.463,0,0,0,1.463-1.463V10.075a1.463,1.463,0,0,1,1.463-1.463h7.839a1.463,1.463,0,0,0,1.463-1.463Z" transform="translate(0)" fill="#fec970"/>
        <path id="Path_2225" data-name="Path 2225" d="M419.284,0h18.331a1.045,1.045,0,0,1,1.045,1.045V19.376h-7.149a1.463,1.463,0,0,1-1.463-1.463V10.075a1.463,1.463,0,0,0-1.463-1.463h-7.839a1.463,1.463,0,0,1-1.463-1.463Z" transform="translate(-331.66)" fill="#fec970"/>
      </g>
      <g id="Group_1715" data-name="Group 1715" transform="translate(0 87.624)">
        <path id="Path_2226" data-name="Path 2226" d="M19.376,438.66H1.045A1.045,1.045,0,0,1,0,437.615V419.284H7.149a1.463,1.463,0,0,1,1.463,1.463v7.839a1.463,1.463,0,0,0,1.463,1.463h7.839a1.463,1.463,0,0,1,1.463,1.463Z" transform="translate(0 -419.284)" fill="#fec970"/>
        <path id="Path_2227" data-name="Path 2227" d="M419.284,438.66h18.331a1.045,1.045,0,0,0,1.045-1.045V419.284h-7.149a1.463,1.463,0,0,0-1.463,1.463v7.839a1.463,1.463,0,0,1-1.463,1.463h-7.839a1.463,1.463,0,0,0-1.463,1.463Z" transform="translate(-331.66 -419.284)" fill="#fec970"/>
      </g>
    </g>
  </g>
  <path id="Path_2228" data-name="Path 2228" d="M95.351,280.013h6.585v-13.2H95.351a4.18,4.18,0,0,0-4.18,4.18v4.842A4.18,4.18,0,0,0,95.351,280.013Z" transform="translate(-72.118 -211.052)" fill="#ffdec7"/>
  <g id="Group_1718" data-name="Group 1718" transform="translate(44.096 74.833)">
    <path id="Path_2229" data-name="Path 2229" d="M220.406,364.723a12.231,12.231,0,0,1-8.978-3.938A1.615,1.615,0,0,1,213.8,358.6a8.973,8.973,0,0,0,13.2,0,1.615,1.615,0,0,1,2.377,2.187A12.232,12.232,0,0,1,220.406,364.723Z" transform="translate(-211.002 -358.077)" fill="#f37c7b"/>
  </g>
  <g id="Group_1722" data-name="Group 1722" transform="translate(39.47 57.782)">
    <g id="Group_1721" data-name="Group 1721">
      <g id="Group_1719" data-name="Group 1719">
        <path id="Path_2230" data-name="Path 2230" d="M190.482,282.537a1.614,1.614,0,0,1-1.615-1.615V278.1a1.615,1.615,0,1,1,3.229,0v2.819A1.615,1.615,0,0,1,190.482,282.537Z" transform="translate(-188.867 -276.489)" fill="#447d99"/>
      </g>
      <g id="Group_1720" data-name="Group 1720" transform="translate(24.83)">
        <path id="Path_2231" data-name="Path 2231" d="M309.3,282.537a1.614,1.614,0,0,1-1.615-1.615V278.1a1.615,1.615,0,1,1,3.229,0v2.819A1.614,1.614,0,0,1,309.3,282.537Z" transform="translate(-307.681 -276.489)" fill="#447d99"/>
      </g>
    </g>
  </g>
  <path id="Path_2232" data-name="Path 2232" d="M147.907,202.278a12.364,12.364,0,0,0,3.592-7.826h28.357a16.97,16.97,0,0,0,4.075-.493,14.007,14.007,0,0,0-1.193-4.138,12.845,12.845,0,0,1-2.883.325H140.774v3.361a12.411,12.411,0,0,1-8.4,11.742v14.909a22.606,22.606,0,0,0,22.606,22.606h6.459c.726,0,1.445-.034,2.153-.1a22.6,22.6,0,0,1-20.453-22.5V205.249A12.4,12.4,0,0,0,147.907,202.278Z" transform="translate(-104.713 -150.151)" fill="#fec5a5"/>
  <path id="Path_2233" data-name="Path 2233" d="M119.267,68.846A21.321,21.321,0,0,0,99.424,82.364a12.407,12.407,0,0,0-8.253,11.69v11.56a4.6,4.6,0,0,0,4.6,4.6,12.4,12.4,0,0,0,12.4-12.4V94.453h39.082a12.8,12.8,0,1,0,0-25.607H119.267Z" transform="translate(-72.118 -54.458)" fill="#548eb5"/>
  <path id="Path_2234" data-name="Path 2234" d="M130.03,68.846a21.323,21.323,0,0,0-19.843,13.518,12.406,12.406,0,0,0-8.252,11.688v11.561a4.559,4.559,0,0,0,.745,2.506,12.338,12.338,0,0,1-6.9,2.1,4.606,4.606,0,0,1-4.605-4.605V94.052a12.406,12.406,0,0,1,8.252-11.688,21.322,21.322,0,0,1,19.843-13.518H130.03Z" transform="translate(-72.117 -54.458)" fill="#447d99"/>
</svg>
