<svg xmlns="http://www.w3.org/2000/svg" xmlns:xlink="http://www.w3.org/1999/xlink" width="349.37" height="322.461" viewBox="0 0 349.37 322.461">
  <defs>
    <linearGradient id="linear-gradient" x1="-0.898" y1="0.932" x2="-0.675" y2="-0.163" gradientUnits="objectBoundingBox">
      <stop offset="0" stop-color="#09005d"/>
      <stop offset="1" stop-color="#1a0f91"/>
    </linearGradient>
    <linearGradient id="linear-gradient-2" x1="-0.284" y1="-1.658" x2="-1.176" y2="3.408" xlink:href="#linear-gradient"/>
    <linearGradient id="linear-gradient-3" x1="5.381" y1="0.417" x2="6.04" y2="1.226" xlink:href="#linear-gradient"/>
    <linearGradient id="linear-gradient-4" x1="7.783" y1="0.26" x2="9.144" y2="1.995" xlink:href="#linear-gradient"/>
    <linearGradient id="linear-gradient-5" x1="1.61" y1="0.212" x2="1.158" y2="0.899" gradientUnits="objectBoundingBox">
      <stop offset="0" stop-color="#febbba"/>
      <stop offset="1" stop-color="#ff928e"/>
    </linearGradient>
    <linearGradient id="linear-gradient-6" x1="0.755" y1="0.791" x2="1.452" y2="-1.379" xlink:href="#linear-gradient-5"/>
    <linearGradient id="linear-gradient-7" x1="-2.192" y1="1.062" x2="-2.081" y2="0.1" xlink:href="#linear-gradient-5"/>
    <linearGradient id="linear-gradient-8" x1="-0.618" y1="0.82" x2="-0.929" y2="-0.114" xlink:href="#linear-gradient-5"/>
    <linearGradient id="linear-gradient-9" x1="-8.072" y1="2.058" x2="-9.545" y2="-0.895" xlink:href="#linear-gradient-5"/>
    <linearGradient id="linear-gradient-10" x1="3.36" y1="0.5" x2="4.36" y2="0.5" xlink:href="#linear-gradient"/>
    <linearGradient id="linear-gradient-11" x1="2.391" y1="-0.604" x2="1.651" y2="0.973" xlink:href="#linear-gradient"/>
  </defs>
  <g id="Group_10033" data-name="Group 10033" transform="translate(-463.815 -455)">
    <g id="Group_10013" data-name="Group 10013" transform="translate(463.815 544.216)">
      <path id="Path_25879" data-name="Path 25879" d="M465.739,1371.984c5.538-23.636,23.646-42.19,46.7-47.865a63.893,63.893,0,0,1,43.907,4.514,7.44,7.44,0,0,0,10.51-4.971c11.361-45.153,51.347-78.511,98.934-78.511,56.427,0,102.171,46.9,102.171,104.758,0,1.536-.03,3.634-.056,5.647.2,4.327,2.042,6.164,4.792,6.625,22.108,2.359,39.482,21.047,40.447,44.1,1.107,26.465-19.9,48.391-45.736,48.391H528.437C487.529,1454.667,455.5,1415.694,465.739,1371.984Z" transform="translate(-463.814 -1245.151)" fill="#5370ff"/>
      <path id="Path_25880" data-name="Path 25880" d="M614.573,1537.153a57.237,57.237,0,0,1,80.9-38.707,6.643,6.643,0,0,0,9.384-4.438c10.144-40.316,45.846-70.1,88.335-70.1,50.382,0,91.225,41.877,91.225,93.536,0,1.371-.027,3.244-.05,5.042.178,3.863,1.823,5.5,4.279,5.915,19.74,2.106,35.253,18.792,36.114,39.371.988,23.63-17.769,43.207-40.836,43.207H670.553C634.028,1610.979,605.429,1576.18,614.573,1537.153Z" transform="translate(-594.14 -1401.462)" fill="#7e94ff"/>
    </g>
    <g id="Group_10018" data-name="Group 10018" transform="translate(528.898 645.053)">
      <path id="Path_25881" data-name="Path 25881" d="M829.264,2304.979a3.533,3.533,0,0,0,3.525,3.521H1023.4a3.533,3.533,0,0,0,3.525-3.521l1.586-109.537a6.138,6.138,0,0,0-6.464-5.434l-186.283-4.82a8.882,8.882,0,0,0-9.114,9.084Z" transform="translate(-813.801 -2185.185)" fill="url(#linear-gradient)"/>
      <path id="Path_25882" data-name="Path 25882" d="M856.72,2330.688a3.345,3.345,0,0,0,3.335,3.335h182.721a3.345,3.345,0,0,0,3.335-3.335l1.5-99.438c-.176-5.984-5.422-8.135-8.6-8.008l-178.535-4.79a6.242,6.242,0,0,0-6.4,6.388Z" transform="translate(-837.777 -2214.273)" fill="#5370ff"/>
      <g id="Group_10014" data-name="Group 10014" transform="translate(142.018 9.335)">
        <path id="Path_25883" data-name="Path 25883" d="M2364.393,2673.125h0a.489.489,0,0,1-.484-.5l.118-8.064a.489.489,0,0,1,.488-.481h0a.489.489,0,0,1,.484.5l-.118,8.064A.489.489,0,0,1,2364.393,2673.125Z" transform="translate(-2300.052 -2613.284)" fill="#fff"/>
        <path id="Path_25884" data-name="Path 25884" d="M1920.022,2299.606h-.007a.489.489,0,0,1-.481-.5l.453-30.887a5.8,5.8,0,0,0-1.655-4.344,8.162,8.162,0,0,0-5.4-1.844l-57.064-1.53a.488.488,0,0,1-.475-.5.468.468,0,0,1,.5-.475l57.03,1.53a8.973,8.973,0,0,1,6.084,2.114,6.745,6.745,0,0,1,1.957,5.054l-.454,30.9A.489.489,0,0,1,1920.022,2299.606Z" transform="translate(-1855.391 -2259.528)" fill="#fff"/>
      </g>
      <rect id="Rectangle_1820" data-name="Rectangle 1820" width="224.719" height="9.624" rx="4.812" transform="translate(224.719 132.408) rotate(180)" fill="url(#linear-gradient-2)"/>
      <path id="Path_25885" data-name="Path 25885" d="M983.912,2395.312H913.56a4.7,4.7,0,0,1-4.7-4.7v-91.831a4.7,4.7,0,0,1,4.876-4.693l70.352,2.692a4.7,4.7,0,0,1,4.517,4.693v89.139A4.7,4.7,0,0,1,983.912,2395.312Z" transform="translate(-885.696 -2280.413)" fill="#7e94ff"/>
      <g id="Group_10015" data-name="Group 10015" transform="translate(37.288 57.702)">
        <rect id="Rectangle_1821" data-name="Rectangle 1821" width="47.94" height="6.193" rx="3.097" fill="#fff" opacity="0.51"/>
        <rect id="Rectangle_1822" data-name="Rectangle 1822" width="47.94" height="6.193" rx="3.097" transform="translate(0.094 9.89)" fill="#fff" opacity="0.51"/>
        <rect id="Rectangle_1823" data-name="Rectangle 1823" width="47.94" height="6.193" rx="3.097" transform="translate(0.375 19.987)" fill="#fff" opacity="0.51"/>
        <rect id="Rectangle_1824" data-name="Rectangle 1824" width="47.94" height="6.193" rx="3.097" transform="translate(0.469 29.877)" fill="#fff" opacity="0.51"/>
      </g>
      <g id="Group_10017" data-name="Group 10017" transform="translate(118.168 16.817)">
        <rect id="Rectangle_1825" data-name="Rectangle 1825" width="68.923" height="6.193" rx="3.097" transform="translate(0 32.878)" fill="#fff" opacity="0.51"/>
        <rect id="Rectangle_1826" data-name="Rectangle 1826" width="68.923" height="6.193" rx="3.097" transform="translate(0.213 42.775)" fill="#fff" opacity="0.51"/>
        <rect id="Rectangle_1827" data-name="Rectangle 1827" width="40.841" height="6.193" rx="3.097" transform="translate(0.213 52.872)" fill="#fff" opacity="0.51"/>
        <g id="Group_10016" data-name="Group 10016" transform="translate(18.173)" opacity="0.51">
          <path id="Path_25886" data-name="Path 25886" d="M1844.8,2328.912h-1.05a.944.944,0,0,1-.944-.944v-3.588a2.326,2.326,0,0,0-2.326-2.326h-6.505a2.326,2.326,0,0,0-2.326,2.326v3.588a.944.944,0,0,1-.944.944h-1.05a.944.944,0,0,1-.944-.944v-3.588a5.263,5.263,0,0,1,5.263-5.263h6.505a5.263,5.263,0,0,1,5.263,5.263v3.588A.944.944,0,0,1,1844.8,2328.912Z" transform="translate(-1826.382 -2319.116)" fill="#fff"/>
          <path id="Path_25887" data-name="Path 25887" d="M1829.9,2403.874h-17.747a1.969,1.969,0,0,0-1.969,1.969v13.62a1.969,1.969,0,0,0,1.969,1.969H1829.9a1.969,1.969,0,0,0,1.969-1.969v-13.62A1.969,1.969,0,0,0,1829.9,2403.874Zm-6.334,13.164a.729.729,0,0,1-.709.9h-3.66a.729.729,0,0,1-.709-.9l.854-3.555a3.29,3.29,0,1,1,3.37,0Z" transform="translate(-1810.18 -2393.231)" fill="#fff"/>
        </g>
      </g>
      <g id="person-24px" transform="translate(46.288 25.129)">
        <path id="Path_2166" data-name="Path 2166" d="M0,0H29.221V29.221H0Z" fill="none"/>
        <path id="Path_2167" data-name="Path 2167" d="M13.74,13.74A4.87,4.87,0,1,0,8.87,8.87,4.869,4.869,0,0,0,13.74,13.74Zm0,2.435c-3.251,0-9.74,1.631-9.74,4.87V23.48H23.48V21.045C23.48,17.807,16.991,16.175,13.74,16.175Z" transform="translate(0.87 0.87)" fill="#c9d9fc"/>
      </g>
    </g>
    <g id="Group_10027" data-name="Group 10027" transform="translate(597.636 455)">
      <g id="Group_10022" data-name="Group 10022" transform="translate(0 0)">
        <g id="Group_10019" data-name="Group 10019" transform="translate(0 67.899)">
          <path id="Path_25888" data-name="Path 25888" d="M2365.308,1114.55a.423.423,0,0,1-.369-.628q.408-.734.792-1.479a.423.423,0,1,1,.751.388q-.39.755-.8,1.5A.423.423,0,0,1,2365.308,1114.55Z" transform="translate(-2259.997 -1097.59)" fill="#91b3fa"/>
          <path id="Path_25889" data-name="Path 25889" d="M1598.305,1089.518q-.375,0-.749-.005a.423.423,0,0,1,.006-.846h.006c1.094.015,2.2,0,3.289-.053a.429.429,0,0,1,.441.4.423.423,0,0,1-.4.441C1600.037,1089.5,1599.165,1089.518,1598.305,1089.518Zm-6.118-.33-.046,0c-1.1-.12-2.217-.273-3.308-.456a.423.423,0,0,1,.14-.834c1.075.18,2.171.331,3.259.449a.423.423,0,0,1-.045.843Zm14.051-.227a.423.423,0,0,1-.059-.841c1.082-.152,2.173-.339,3.243-.555a.423.423,0,0,1,.167.829c-1.086.219-2.194.408-3.292.563A.414.414,0,0,1,1606.239,1088.961Zm-22.6-1.366a.416.416,0,0,1-.109-.015c-1.071-.286-2.148-.608-3.2-.956a.423.423,0,0,1,.266-.8c1.036.343,2.1.66,3.151.942a.423.423,0,0,1-.108.831Zm31.088-.506a.423.423,0,0,1-.122-.827c1.047-.318,2.1-.67,3.12-1.047a.423.423,0,1,1,.292.793c-1.038.383-2.1.74-3.167,1.062A.424.424,0,0,1,1614.729,1087.089Zm-39.29-2.377a.421.421,0,0,1-.17-.036c-1.016-.448-2.03-.931-3.014-1.436a.423.423,0,1,1,.386-.752c.969.5,1.968.973,2.969,1.415a.423.423,0,0,1-.171.81Zm47.391-.78a.423.423,0,0,1-.184-.8c.983-.474,1.966-.983,2.922-1.515a.423.423,0,1,1,.411.739c-.97.54-1.968,1.057-2.966,1.538A.419.419,0,0,1,1622.831,1083.932Zm-55.048-3.331a.42.42,0,0,1-.228-.067c-.934-.6-1.861-1.233-2.756-1.884a.423.423,0,0,1,.5-.684c.881.642,1.795,1.266,2.715,1.856a.423.423,0,0,1-.229.779Zm62.566-1.039a.423.423,0,0,1-.241-.771c.9-.62,1.792-1.276,2.654-1.948a.423.423,0,1,1,.52.667c-.875.682-1.781,1.347-2.694,1.976A.424.424,0,0,1,1630.348,1079.562Zm-69.5-4.2a.422.422,0,0,1-.281-.106c-.827-.732-1.647-1.5-2.435-2.285a.423.423,0,1,1,.6-.6c.776.772,1.584,1.53,2.4,2.251a.423.423,0,0,1-.28.739Zm76.259-1.269a.423.423,0,0,1-.29-.73c.8-.75,1.579-1.533,2.327-2.326a.423.423,0,1,1,.615.58c-.76.8-1.555,1.6-2.362,2.36A.423.423,0,0,1,1637.111,1074.091Zm-82.312-4.972a.423.423,0,0,1-.325-.152c-.708-.85-1.4-1.734-2.062-2.627a.423.423,0,1,1,.68-.5c.65.88,1.333,1.751,2.031,2.589a.423.423,0,0,1-.324.693Zm88.163-1.456a.418.418,0,0,1-.259-.089.423.423,0,0,1-.074-.593c.673-.865,1.327-1.758,1.944-2.654a.423.423,0,1,1,.7.479c-.626.91-1.29,1.817-1.974,2.694A.422.422,0,0,1,1642.962,1067.662Zm-93.2-5.631a.422.422,0,0,1-.363-.205c-.573-.954-1.123-1.934-1.635-2.913a.423.423,0,1,1,.75-.391c.5.964,1.046,1.929,1.61,2.869a.423.423,0,0,1-.362.64Zm-3.886-7.777a.423.423,0,0,1-.392-.264c-.418-1.03-.81-2.083-1.164-3.13a.423.423,0,1,1,.8-.271c.349,1.031.735,2.068,1.147,3.083a.423.423,0,0,1-.392.582Z" transform="translate(-1542.446 -1043.451)" fill="#91b3fa"/>
          <path id="Path_25890" data-name="Path 25890" d="M1530.344,998.24a.422.422,0,0,1-.411-.326q-.195-.83-.365-1.663a.422.422,0,0,1,.828-.169q.167.821.359,1.639a.423.423,0,0,1-.315.508A.433.433,0,0,1,1530.344,998.24Z" transform="translate(-1529.559 -995.744)" fill="#91b3fa"/>
        </g>
        <g id="Group_10020" data-name="Group 10020" transform="translate(7.529)">
          <path id="Path_25891" data-name="Path 25891" d="M1589.945,656.553a.423.423,0,0,1-.357-.648q.453-.718.928-1.427a.423.423,0,1,1,.7.471q-.469.7-.915,1.406A.422.422,0,0,1,1589.945,656.553Z" transform="translate(-1589.522 -629.267)" fill="#91b3fa"/>
          <path id="Path_25892" data-name="Path 25892" d="M1722.156,496.448a.423.423,0,0,1-.406-.3c-.323-1.1-.685-2.208-1.075-3.288a.423.423,0,0,1,.8-.287c.4,1.1.764,2.218,1.092,3.337a.423.423,0,0,1-.406.542Zm-3.276-8.533a.423.423,0,0,1-.381-.239c-.5-1.037-1.035-2.07-1.595-3.07a.423.423,0,1,1,.738-.413c.568,1.015,1.113,2.063,1.619,3.116a.423.423,0,0,1-.2.564A.419.419,0,0,1,1718.88,487.915Zm-4.617-7.889a.422.422,0,0,1-.347-.18c-.658-.939-1.354-1.872-2.07-2.771a.423.423,0,0,1,.661-.527c.727.914,1.434,1.86,2.1,2.813a.423.423,0,0,1-.346.665Zm-89.962-3.689a.423.423,0,0,1-.325-.693c.742-.893,1.524-1.779,2.324-2.631a.423.423,0,1,1,.617.579c-.789.84-1.559,1.712-2.29,2.593A.423.423,0,0,1,1624.3,476.337Zm84.136-3.354a.422.422,0,0,1-.3-.128c-.8-.821-1.631-1.631-2.482-2.406a.423.423,0,0,1,.57-.625c.864.788,1.711,1.609,2.52,2.443a.423.423,0,0,1-.3.717Zm-77.754-3.188a.423.423,0,0,1-.278-.741c.88-.768,1.793-1.518,2.714-2.23a.423.423,0,1,1,.517.67c-.908.7-1.808,1.44-2.675,2.2A.421.421,0,0,1,1630.685,469.794Zm70.884-2.835a.423.423,0,0,1-.252-.083c-.921-.685-1.876-1.349-2.837-1.975a.423.423,0,0,1,.461-.708c.976.635,1.945,1.31,2.88,2a.423.423,0,0,1-.253.762Zm-63.539-2.609a.423.423,0,0,1-.224-.781c.989-.616,2.011-1.209,3.038-1.764a.423.423,0,1,1,.4.744c-1.012.546-2.019,1.131-2.993,1.737A.419.419,0,0,1,1638.03,464.35Zm55.786-2.226a.416.416,0,0,1-.193-.047c-1.019-.526-2.069-1.026-3.121-1.489a.423.423,0,0,1,.34-.774c1.067.469,2.133.977,3.168,1.511a.423.423,0,0,1-.194.8Zm-47.658-1.96a.423.423,0,0,1-.162-.813c1.074-.446,2.179-.866,3.283-1.247a.423.423,0,1,1,.276.8c-1.088.375-2.177.788-3.234,1.229A.426.426,0,0,1,1646.158,460.165Zm39.224-1.556a.422.422,0,0,1-.13-.021c-1.091-.354-2.209-.678-3.321-.965a.423.423,0,0,1,.211-.819c1.129.291,2.263.62,3.371.98a.423.423,0,0,1-.13.825Zm-30.528-1.256a.423.423,0,0,1-.1-.834c1.137-.268,2.295-.5,3.441-.7a.423.423,0,0,1,.143.833c-1.129.193-2.27.425-3.39.689A.432.432,0,0,1,1654.854,457.353Zm21.637-.853a.417.417,0,0,1-.064-.005c-1.135-.174-2.29-.315-3.434-.419a.423.423,0,1,1,.077-.842c1.16.106,2.333.249,3.485.426a.423.423,0,0,1-.063.841Zm-12.6-.519a.423.423,0,0,1-.029-.844c1.161-.082,2.341-.128,3.508-.138h0a.423.423,0,0,1,0,.845c-1.15.01-2.313.055-3.456.135Z" transform="translate(-1619.565 -455)" fill="#91b3fa"/>
          <path id="Path_25893" data-name="Path 25893" d="M2414.422,824.922a.423.423,0,0,1-.418-.358q-.128-.828-.283-1.653a.423.423,0,1,1,.831-.155q.156.838.287,1.678a.423.423,0,0,1-.353.483A.436.436,0,0,1,2414.422,824.922Z" transform="translate(-2310.224 -776.277)" fill="#91b3fa"/>
        </g>
        <g id="Group_10021" data-name="Group 10021" transform="translate(11.738 13.508)">
          <path id="Path_25894" data-name="Path 25894" d="M1710.581,604.789a.68.68,0,0,0-.406-.676l-7.578-3.292a36,36,0,0,0-3.608-11.088l4.182-7.12a.678.678,0,0,0-.069-.785l-6.442-7.531a.678.678,0,0,0-.765-.19l-7.681,3.029a35.993,35.993,0,0,0-10.4-5.282l-2.079-8a.678.678,0,0,0-.6-.506l-9.88-.77a.679.679,0,0,0-.675.406l-3.292,7.578a36,36,0,0,0-11.088,3.608l-7.12-4.182a.678.678,0,0,0-.785.069l-7.531,6.442a.679.679,0,0,0-.19.765l3.029,7.681a35.993,35.993,0,0,0-5.282,10.4l-8,2.079a.679.679,0,0,0-.506.6l-.77,9.881a.679.679,0,0,0,.406.675l7.578,3.292a35.99,35.99,0,0,0,3.608,11.088l-4.182,7.12a.679.679,0,0,0,.069.785l6.442,7.531a.679.679,0,0,0,.765.19l7.681-3.029a35.987,35.987,0,0,0,10.4,5.282l2.078,8a.678.678,0,0,0,.6.506l9.88.77a.679.679,0,0,0,.676-.406l3.292-7.578a35.991,35.991,0,0,0,11.088-3.608l7.12,4.182a.678.678,0,0,0,.785-.07l7.531-6.442a.679.679,0,0,0,.191-.765l-3.029-7.681a35.991,35.991,0,0,0,5.282-10.4l8-2.079a.679.679,0,0,0,.506-.6Z" transform="translate(-1623.043 -562.58)" fill="#91b3fa"/>
          <path id="Path_25895" data-name="Path 25895" d="M1905.926,854.886a9.461,9.461,0,1,1,1.612-.138A9.555,9.555,0,0,1,1905.926,854.886Zm.037-17.6a8.265,8.265,0,0,0-1.395.119,8.167,8.167,0,1,0,6.095,1.383h0A8.107,8.107,0,0,0,1905.963,837.282Z" transform="translate(-1862.177 -801.68)" fill="#fff" opacity="0.7"/>
          <path id="Path_25896" data-name="Path 25896" d="M1799.022,764.757q-.969,0-1.946-.076a24.551,24.551,0,0,1-22.643-24.434q0-.97.076-1.947a24.548,24.548,0,0,1,43.127-14.05,24.68,24.68,0,0,1,2.959,4.307l-1.115.6a23.418,23.418,0,0,0-2.807-4.086,23.28,23.28,0,0,0-40.9,13.324q-.072.926-.072,1.846a23.283,23.283,0,0,0,45.353,7.375l1.2.4a24.564,24.564,0,0,1-23.235,16.734Z" transform="translate(-1755.424 -696.437)" fill="#fff" opacity="0.7"/>
        </g>
      </g>
      <g id="Group_10026" data-name="Group 10026" transform="translate(99.1 54.046)">
        <g id="Group_10023" data-name="Group 10023" transform="translate(0 34.853)">
          <path id="Path_25897" data-name="Path 25897" d="M2745.042,1225.143a.423.423,0,0,1-.363-.638c.284-.48.555-.97.807-1.457a.423.423,0,0,1,.751.388c-.259.5-.538,1.006-.831,1.5A.422.422,0,0,1,2745.042,1225.143Z" transform="translate(-2691.15 -1215.307)" fill="#91b3fa"/>
          <path id="Path_25898" data-name="Path 25898" d="M2361.514,1234.657h-.034a29.887,29.887,0,0,1-3.423-.471.423.423,0,1,1,.164-.83,28.918,28.918,0,0,0,3.326.458.423.423,0,0,1-.032.844Zm5.529-.09a.423.423,0,0,1-.047-.843,28.873,28.873,0,0,0,3.309-.567.423.423,0,1,1,.192.823,29.712,29.712,0,0,1-3.406.584Zm-14.2-1.958a.431.431,0,0,1-.159-.031,29.619,29.619,0,0,1-3.119-1.487.423.423,0,0,1,.408-.741,28.768,28.768,0,0,0,3.03,1.444.423.423,0,0,1-.159.814Zm22.805-.379a.423.423,0,0,1-.173-.809,28.587,28.587,0,0,0,2.98-1.548.423.423,0,0,1,.434.726,29.409,29.409,0,0,1-3.068,1.594A.418.418,0,0,1,2375.645,1232.23Zm-30.443-4.208a.42.42,0,0,1-.271-.1,29.819,29.819,0,0,1-2.519-2.365.423.423,0,0,1,.614-.582,28.915,28.915,0,0,0,2.447,2.3.423.423,0,0,1-.271.747Zm37.923-.637a.423.423,0,0,1-.281-.738l.249-.224a29.124,29.124,0,0,0,2.125-2.151.423.423,0,1,1,.632.562,29.875,29.875,0,0,1-2.187,2.215l-.255.23A.423.423,0,0,1,2383.125,1227.385Zm-43.817-6.047a.422.422,0,0,1-.356-.195,29.413,29.413,0,0,1-1.69-3.016.423.423,0,0,1,.76-.369,28.622,28.622,0,0,0,1.641,2.929.422.422,0,0,1-.128.584A.418.418,0,0,1,2339.308,1221.338Z" transform="translate(-2334.905 -1210.673)" fill="#91b3fa"/>
          <path id="Path_25899" data-name="Path 25899" d="M2319.6,1165.483a.423.423,0,0,1-.408-.314c-.146-.55-.277-1.111-.391-1.669a.423.423,0,0,1,.828-.168c.111.542.238,1.087.38,1.621a.423.423,0,0,1-.3.517A.433.433,0,0,1,2319.6,1165.483Z" transform="translate(-2318.79 -1162.992)" fill="#91b3fa"/>
        </g>
        <g id="Group_10024" data-name="Group 10024" transform="translate(3.867)">
          <path id="Path_25900" data-name="Path 25900" d="M2350.01,984.463a.423.423,0,0,1-.357-.648c.3-.482.625-.961.956-1.424a.423.423,0,1,1,.688.491c-.321.45-.634.915-.929,1.383A.421.421,0,0,1,2350.01,984.463Z" transform="translate(-2349.588 -970.06)" fill="#91b3fa"/>
          <path id="Path_25901" data-name="Path 25901" d="M2432.753,903.935a.423.423,0,0,1-.389-.258,28.294,28.294,0,0,0-1.466-2.959.423.423,0,0,1,.735-.419,29.38,29.38,0,0,1,1.509,3.048.422.422,0,0,1-.389.588Zm-4.613-7.458a.423.423,0,0,1-.322-.148q-.323-.38-.663-.752c-.516-.565-1.06-1.116-1.618-1.638a.423.423,0,1,1,.578-.618c.574.537,1.134,1.1,1.665,1.686q.349.382.682.774a.423.423,0,0,1-.322.7Zm-42.23-2.168a.423.423,0,0,1-.292-.729q.257-.244.519-.485c.661-.6,1.356-1.182,2.066-1.722a.423.423,0,0,1,.511.673c-.69.525-1.366,1.087-2.008,1.673q-.256.234-.506.473A.422.422,0,0,1,2385.91,894.309Zm35.612-3.585a.422.422,0,0,1-.225-.065,28.628,28.628,0,0,0-2.888-1.6.423.423,0,1,1,.366-.762,29.485,29.485,0,0,1,2.974,1.646.423.423,0,0,1-.226.78Zm-28.439-1.46a.423.423,0,0,1-.189-.8,29.575,29.575,0,0,1,3.128-1.335.423.423,0,0,1,.286.8,28.638,28.638,0,0,0-3.038,1.3A.42.42,0,0,1,2393.083,889.264Zm20.406-2.046a.432.432,0,0,1-.109-.014,28.8,28.8,0,0,0-3.235-.662.423.423,0,0,1-.358-.479.417.417,0,0,1,.479-.357,29.678,29.678,0,0,1,3.331.682.423.423,0,0,1-.108.831Zm-12.053-.618a.423.423,0,0,1-.066-.84,29.76,29.76,0,0,1,3.384-.338.423.423,0,1,1,.035.845,28.9,28.9,0,0,0-3.287.328A.41.41,0,0,1,2401.436,886.6Z" transform="translate(-2380.979 -885.421)" fill="#91b3fa"/>
          <path id="Path_25902" data-name="Path 25902" d="M2772.4,1070.04a.423.423,0,0,1-.417-.357c-.085-.546-.187-1.1-.3-1.637a.423.423,0,1,1,.826-.178c.12.556.225,1.123.313,1.685a.423.423,0,0,1-.353.483A.442.442,0,0,1,2772.4,1070.04Z" transform="translate(-2718.673 -1044.666)" fill="#91b3fa"/>
        </g>
        <g id="Group_10025" data-name="Group 10025" transform="translate(6.235 7.119)">
          <path id="Path_25903" data-name="Path 25903" d="M2413.412,963.8a.349.349,0,0,0-.209-.347l-3.893-1.691a18.5,18.5,0,0,0-1.853-5.7l2.148-3.657a.349.349,0,0,0-.036-.4l-3.309-3.869a.349.349,0,0,0-.393-.1l-3.946,1.556a18.49,18.49,0,0,0-5.34-2.714l-1.068-4.108a.348.348,0,0,0-.31-.26l-5.075-.4a.349.349,0,0,0-.347.209l-1.691,3.893a18.489,18.489,0,0,0-5.7,1.854l-3.657-2.148a.349.349,0,0,0-.4.036l-3.869,3.309a.349.349,0,0,0-.1.393l1.556,3.946a18.487,18.487,0,0,0-2.713,5.34l-4.108,1.068a.349.349,0,0,0-.26.31l-.4,5.076a.349.349,0,0,0,.209.347l3.893,1.691a18.489,18.489,0,0,0,1.854,5.7l-2.148,3.657a.349.349,0,0,0,.036.4l3.309,3.869a.349.349,0,0,0,.393.1l3.946-1.556a18.481,18.481,0,0,0,5.34,2.713l1.068,4.108a.349.349,0,0,0,.31.26l5.076.4a.348.348,0,0,0,.347-.209l1.691-3.893a18.486,18.486,0,0,0,5.7-1.854l3.657,2.148a.349.349,0,0,0,.4-.036l3.868-3.309a.349.349,0,0,0,.1-.393l-1.556-3.946a18.507,18.507,0,0,0,2.714-5.34l4.107-1.068a.349.349,0,0,0,.26-.31Z" transform="translate(-2368.446 -942.12)" fill="#91b3fa"/>
          <path id="Path_25904" data-name="Path 25904" d="M2511.612,1090.43a5.172,5.172,0,1,1,.88-.075A5.2,5.2,0,0,1,2511.612,1090.43Zm.016-9.041a3.883,3.883,0,1,0,2.24.713h0A3.863,3.863,0,0,0,2511.628,1081.389Z" transform="translate(-2489.139 -1062.79)" fill="#fff" opacity="0.7"/>
          <path id="Path_25905" data-name="Path 25905" d="M2456.743,1044.177q-.51,0-1.025-.04a12.918,12.918,0,1,1,10.82-21.276l.108.128a13.019,13.019,0,0,1,1.331,1.927l0,.008.017.03.03.053.016.029.05.092-1.116.6a11.765,11.765,0,0,0-1.4-2.045h0a11.647,11.647,0,1,0,2.192,11.283l1.2.4a12.927,12.927,0,0,1-12.227,8.806Z" transform="translate(-2434.347 -1008.773)" fill="#fff" opacity="0.7"/>
        </g>
      </g>
    </g>
    <g id="Group_10030" data-name="Group 10030" transform="translate(631.896 578.889)">
      <g id="Group_10028" data-name="Group 10028">
        <path id="Path_25906" data-name="Path 25906" d="M1880.194,1397.375a5.009,5.009,0,0,1,3.874-1.333c15.215,1.368,43.6-5.961,62.156-24.944,1.288-1.318,3.636-.573,5.113.53,20.634,15.422,54.837,18.615,66.71,19.268a5.009,5.009,0,0,1,4.7,4.487c10.8,104.288-57.1,142.078-71.186,148.749a5.022,5.022,0,0,1-4.8-.277c-70.187-43.719-67.185-100.574-68.156-142.7A5.016,5.016,0,0,1,1880.194,1397.375Z" transform="translate(-1878.608 -1370.396)" fill="#10d078"/>
        <path id="Path_25907" data-name="Path 25907" d="M2002.229,1599.555a1.674,1.674,0,0,1-.9-.262c-26.908-17.2-44.446-37.766-53.615-62.868-8.19-22.419-8.59-45.249-8.944-65.39l-.048-2.685a1.644,1.644,0,0,1,.474-1.19,1.662,1.662,0,0,1,1.194-.5h0c16.664,0,41.677-7.358,60.021-23.8a1.662,1.662,0,0,1,2.029-.146c20.157,13.375,48.909,17.269,64.254,18.4a1.656,1.656,0,0,1,1.532,1.514c3.567,40.692-4.9,75.1-25.156,102.272a120.745,120.745,0,0,1-40.085,34.47h0A1.658,1.658,0,0,1,2002.229,1599.555Zm.445-.79.156.3-.156-.3a120.026,120.026,0,0,0,39.849-34.27c20.156-27.033,28.575-61.285,25.023-101.8a.976.976,0,0,0-.9-.892c-15.412-1.136-44.3-5.051-64.582-18.512a.979.979,0,0,0-1.2.086c-18.479,16.559-43.683,23.971-60.463,23.971h0a.992.992,0,0,0-.721.3.963.963,0,0,0-.278.7l.048,2.686c.353,20.088.752,42.856,8.9,65.168,9.116,24.956,26.564,45.408,53.342,62.526A.985.985,0,0,0,2002.674,1598.765Z" transform="translate(-1931.173 -1433.393)" fill="#fff" opacity="0.61"/>
      </g>
      <g id="Group_10029" data-name="Group 10029" transform="translate(39.919 36.732)">
        <path id="Path_25908" data-name="Path 25908" d="M2301.171,1692.544H2298a2.854,2.854,0,0,1-2.854-2.854v-10.849a7.032,7.032,0,0,0-7.031-7.031h-19.667a7.031,7.031,0,0,0-7.031,7.031v10.849a2.854,2.854,0,0,1-2.854,2.854h-3.174a2.854,2.854,0,0,1-2.854-2.854v-10.849a15.913,15.913,0,0,1,15.913-15.913h19.667a15.912,15.912,0,0,1,15.913,15.913v10.849A2.854,2.854,0,0,1,2301.171,1692.544Z" transform="translate(-2245.5 -1662.929)" fill="#fff" opacity="0.61"/>
        <path id="Path_25909" data-name="Path 25909" d="M2256.125,1919.172h-53.653a5.953,5.953,0,0,0-5.953,5.953V1966.3a5.953,5.953,0,0,0,5.953,5.953h53.653a5.953,5.953,0,0,0,5.953-5.953v-41.176A5.953,5.953,0,0,0,2256.125,1919.172Zm-19.15,39.8a2.205,2.205,0,0,1-2.144,2.721h-11.064a2.205,2.205,0,0,1-2.145-2.721l2.582-10.746a9.945,9.945,0,1,1,10.189,0Z" transform="translate(-2196.519 -1886.997)" fill="#fff" opacity="0.61"/>
      </g>
    </g>
    <g id="Group_10032" data-name="Group 10032" transform="translate(465.389 553.39)">
      <path id="Path_25910" data-name="Path 25910" d="M686.986,1811.972s4.345.23,4.878,9.17c0,0-10.076,9.033-23.688,11.183-1.022.162,1.429-6.975,1.8-7.942C671.727,1819.783,677.247,1816.821,686.986,1811.972Z" transform="translate(-643.874 -1716.973)" fill="url(#linear-gradient-3)"/>
      <path id="Path_25911" data-name="Path 25911" d="M782.635,1489.952h-9.17s-28.145-31.084-46.6-34.22c0,0-12.85,16.4.684,47.05a4.473,4.473,0,0,0,6.405,2.11,3.667,3.667,0,0,0,1.463-1.745l-1.088-26.168s24.008,21,28.181,25.05S787.89,1503.611,782.635,1489.952Z" transform="translate(-690.584 -1405.464)" fill="#2f419b"/>
      <path id="Path_25912" data-name="Path 25912" d="M502.647,2190.692a34.474,34.474,0,0,1,18.8-8.229l2.989,1.828a32.575,32.575,0,0,1-5.388,5.781c-3.2,1.859-8.142,4.377-12.239,4.922C502.83,2195.525,502.242,2193.118,502.647,2190.692Z" transform="translate(-499.25 -2040.943)" fill="url(#linear-gradient-4)"/>
      <path id="Path_25913" data-name="Path 25913" d="M657.059,1878.732c2.367.766,3.409,4.12,9.416,1.9a53.176,53.176,0,0,0,12.355-6.509c.05.432.091.884.12,1.366,0,0-10.625,10.106-24.236,12.256a1.355,1.355,0,0,1-1.463-1.825A34.182,34.182,0,0,1,657.059,1878.732Z" transform="translate(-630.959 -1771.322)" fill="#91b3fa"/>
      <path id="Path_25914" data-name="Path 25914" d="M476.853,2246.563a31.728,31.728,0,0,1,2.895-2.875c-.4,2.427.183,4.833,4.166,4.3,4.1-.546,9.039-3.063,12.239-4.922-4.011,3.421-10.114,7.052-17.817,6.839A2.02,2.02,0,0,1,476.853,2246.563Z" transform="translate(-476.351 -2093.938)" fill="#91b3fa"/>
      <path id="Path_25915" data-name="Path 25915" d="M705.647,1781.1l-42.942.465s-24.523,20.289-28.971,51.228c0,0-.738,2.276,3.694,2.665a85.128,85.128,0,0,0,24.494-26.8c11.854-20.992,35.338-11.543,35.338-11.543,11.282,2.49,20.262,1.564,26.834-8.549Z" transform="translate(-613.931 -1689.974)" fill="#2f419b"/>
      <path id="Path_25916" data-name="Path 25916" d="M939.417,1505.6s-4.623,23.168-27.274,32.333l-8.057-.949-1.9,3.031,18.9.6a51.691,51.691,0,0,0,24.714-23.834C946.081,1516.212,950.795,1506.48,939.417,1505.6Z" transform="translate(-848.715 -1449.075)" fill="url(#linear-gradient-5)"/>
      <path id="Path_25917" data-name="Path 25917" d="M1173.982,1385.007s5.257-14.29,6.387-28.175a60.707,60.707,0,0,0-6.25-4.731,1.738,1.738,0,0,1-.679-2.254c1.767-3.661,12.455-18.037,13.256-18.237,4.352-1.086,22.2-9.572,34.767,7.621,5.395,7.378-1.07,30.092-25.543,53.615C1188.045,1394.129,1180.683,1391.86,1173.982,1385.007Z" transform="translate(-1085.757 -1294.264)" fill="#e8505b"/>
      <path id="Path_25918" data-name="Path 25918" d="M990.683,1578.635s-14.605,17.294-33.279,19.822c0,0-4.826-4.4-8.414-2.829s-8.509,8.5-8.509,8.5h23.976s22.67-.8,34-14.546C997.545,1584.775,994.815,1581.9,990.683,1578.635Z" transform="translate(-882.202 -1512.935)" fill="url(#linear-gradient-6)"/>
      <path id="Path_25919" data-name="Path 25919" d="M1337.035,1256.236l3.2,10.658a1.171,1.171,0,0,1-.455,1.305,11.906,11.906,0,0,1-11.076,1.113,1.738,1.738,0,0,1-1.118-1.493l-.758-9.285Z" transform="translate(-1220.034 -1231.019)" fill="url(#linear-gradient-7)"/>
      <g id="Group_10031" data-name="Group 10031" transform="translate(91.311)">
        <path id="Path_25920" data-name="Path 25920" d="M1259.117,1136.759s1.571,11.049,5.815,14.446,12.513.839,15.306-7.49l-5.565-14.242Z" transform="translate(-1252.14 -1120.173)" fill="url(#linear-gradient-8)"/>
        <path id="Path_25921" data-name="Path 25921" d="M1226.709,1073.921a.547.547,0,0,1-.711-.438,14.284,14.284,0,0,0-1.31-4.413s.4-1.45-3.663.74-10.179,5.406-13.777,3.491c-3.508-1.868-7.061-11.266,2.209-9.525a.547.547,0,0,0,.651-.573c-.114-1.545.039-5.1,3.638-6.239,3.368-1.068,5.211.453,5.971,1.37a.544.544,0,0,0,.851-.014c1.009-1.317,3.749-4.12,7.782-2.343,3.322,1.464,3.839,3.51,3.784,4.785a.545.545,0,0,0,.777.52c1.017-.469,2.654-.712,4.221,1.252,2.167,2.715-.93,5.07-1.859,5.688a.547.547,0,0,0-.248.452c-.009,1.412-.229,7.572-3.316,11.047a.552.552,0,0,1-.917-.158l-2.377-5.664a.549.549,0,0,0-.675-.31Z" transform="translate(-1203.548 -1055.404)" fill="#7a4e46"/>
        <path id="Path_25922" data-name="Path 25922" d="M1387.6,1181.551s1.452-5.912,3.656-3.993-.575,6.145-3.1,6.95Z" transform="translate(-1364.493 -1161.885)" fill="url(#linear-gradient-9)"/>
      </g>
      <path id="Path_25923" data-name="Path 25923" d="M735.815,1517.242l-10.765-35.9a3.671,3.671,0,0,0-3.266-2.608l-14.535-.995a2.062,2.062,0,0,0-2.086,2.74l12.035,34.285a3.018,3.018,0,0,0,2.544,2l14.313,1.589Z" transform="translate(-676.329 -1424.703)" fill="url(#linear-gradient-10)"/>
      <path id="Path_25924" data-name="Path 25924" d="M788.137,1576.458c.8,1.622,2.192,2.573,3.1,2.123s.993-2.13.19-3.752-2.192-2.573-3.1-2.123S787.334,1574.836,788.137,1576.458Z" transform="translate(-748.506 -1507.653)" fill="#91b3fa"/>
      <path id="Path_25925" data-name="Path 25925" d="M926.567,1771.463l.07,0,30.5-1.542a1.367,1.367,0,1,0-.138-2.73l-30.5,1.542a1.367,1.367,0,0,0,.068,2.732Z" transform="translate(-868.841 -1677.811)" fill="url(#linear-gradient-11)"/>
      <path id="Path_25926" data-name="Path 25926" d="M1228.356,1448.1a.211.211,0,0,1-.211-.21c-.021-6.438,2.456-14.958,2.481-15.044a.211.211,0,0,1,.406.119c-.025.085-2.485,8.547-2.464,14.923a.211.211,0,0,1-.211.212Z" transform="translate(-1133.745 -1385.315)" fill="#c9000f"/>
      <path id="Path_25927" data-name="Path 25927" d="M1338.816,1477.685a.211.211,0,0,1-.166-.342c.067-.085,6.7-8.511,8.964-14.261a.211.211,0,0,1,.393.155c-2.292,5.807-8.959,14.283-9.026,14.367A.211.211,0,0,1,1338.816,1477.685Z" transform="translate(-1230.335 -1411.774)" fill="#c9000f"/>
      <path id="Path_25928" data-name="Path 25928" d="M1406.454,1571.183l-1.206-1.705a.211.211,0,0,1,.345-.245l1.008,1.426c9.406-4.124,15.229-15.376,15.287-15.49a.211.211,0,0,1,.376.192c-.059.116-6.014,11.627-15.654,15.755Z" transform="translate(-1288.577 -1492.315)" fill="#c9000f"/>
    </g>
  </g>
</svg>
