<svg xmlns="http://www.w3.org/2000/svg" width="40" height="40" viewBox="0 0 40 40">
  <g id="Group_6191" data-name="Group 6191" transform="translate(-1465 -162)">
    <circle id="Ellipse_199" data-name="Ellipse 199" cx="20" cy="20" r="20" transform="translate(1465 162)" fill="#10d078"/>
    <g id="checkmark" transform="translate(1470 167)">
      <path id="Path_2183" data-name="Path 2183" d="M15,0A15,15,0,1,0,30,15,14.992,14.992,0,0,0,15,0Zm9.364,24.364a13.257,13.257,0,0,1-18.727,0h0a13.242,13.242,0,1,1,18.727,0Z" transform="translate(0)" fill="#fff"/>
      <path id="Path_2184" data-name="Path 2184" d="M107.016,128.355a3.515,3.515,0,0,0-4.99.018l-5.473,5.552-2.15-2.15a3.516,3.516,0,1,0-4.972,4.972c3.562,3.562,2.543,2.545,4.6,4.6a3.627,3.627,0,0,0,5.122,0c1.96-1.96,7.884-8.034,7.884-8.034A3.525,3.525,0,0,0,107.016,128.355Zm-1.234,3.72c-6.618,6.715-7.875,8.025-7.875,8.025a1.867,1.867,0,0,1-2.637,0l-4.6-4.6a1.758,1.758,0,1,1,2.486-2.486l2.776,2.776a.879.879,0,0,0,1.247,0l6.094-6.182a1.758,1.758,0,0,1,2.5,2.468Z" transform="translate(-83.224 -119.864)" fill="#fff"/>
    </g>
  </g>
</svg>
