<svg id="loader" xmlns="http://www.w3.org/2000/svg" width="16.601" height="16.601" viewBox="0 0 16.601 16.601">
  <path id="Path_2240" data-name="Path 2240" d="M210.443.155l-.733,2.774a5.479,5.479,0,0,0-1.694,0L207.272.155a8.27,8.27,0,0,1,3.183,0Z" transform="translate(-200.551 0)" fill="#10d078"/>
  <path id="Path_2241" data-name="Path 2241" d="M91.762,16.636A5.335,5.335,0,0,0,90.3,17.5l-2.021-2.044a8.217,8.217,0,0,1,2.753-1.591Z" transform="translate(-85.414 -13.411)" fill="#10d078"/>
  <path id="Path_2242" data-name="Path 2242" d="M17.141,90.3a5.335,5.335,0,0,0-.859,1.465l-2.776-.744a8.219,8.219,0,0,1,1.6-2.742Z" transform="translate(-13.068 -85.414)" fill="#10d078"/>
  <path id="Path_2243" data-name="Path 2243" d="M2.862,208.852a5.494,5.494,0,0,0,.066.859l-2.774.744a8.27,8.27,0,0,1,0-3.183l2.774.721A5.5,5.5,0,0,0,2.862,208.852Z" transform="translate(0 -200.551)" fill="#10d078"/>
  <path id="Path_2244" data-name="Path 2244" d="M17.484,317.329l-2.032,2.021A8.217,8.217,0,0,1,13.86,316.6l2.776-.744A5.338,5.338,0,0,0,17.484,317.329Z" transform="translate(-13.411 -305.611)" fill="#10d078"/>
  <path id="Path_2245" data-name="Path 2245" d="M91.762,387.231l-.744,2.776a8.22,8.22,0,0,1-2.742-1.591l2.032-2.032A5.341,5.341,0,0,0,91.762,387.231Z" transform="translate(-85.414 -373.856)" fill="#10d078"/>
  <path id="Path_2246" data-name="Path 2246" d="M210.1,424.468a8.271,8.271,0,0,1-3.183,0l.733-2.773a5.481,5.481,0,0,0,1.694,0Z" transform="translate(-200.209 -408.021)" fill="#10d078"/>
  <path id="Path_2247" data-name="Path 2247" d="M319.349,388.074a8.217,8.217,0,0,1-2.753,1.591l-.744-2.776a5.336,5.336,0,0,0,1.465-.859Z" transform="translate(-305.61 -373.513)" fill="#10d078"/>
  <path id="Path_2248" data-name="Path 2248" d="M390.008,316.607a8.22,8.22,0,0,1-1.591,2.742l-2.032-2.032a5.336,5.336,0,0,0,.859-1.465Z" transform="translate(-373.856 -305.61)" fill="#10d078"/>
  <path id="Path_2249" data-name="Path 2249" d="M424.622,208.851a8.1,8.1,0,0,1-.155,1.591l-2.773-.733a5.481,5.481,0,0,0,0-1.694l2.773-.744A8.117,8.117,0,0,1,424.622,208.851Z" transform="translate(-408.021 -200.55)" fill="#10d078"/>
  <path id="Path_2250" data-name="Path 2250" d="M389.665,90.676l-2.776.744a5.336,5.336,0,0,0-.859-1.465l2.032-2.032A8.221,8.221,0,0,1,389.665,90.676Z" transform="translate(-373.513 -85.072)" fill="#10d078"/>
  <path id="Path_2251" data-name="Path 2251" d="M319.349,15.109l-2.032,2.032a5.335,5.335,0,0,0-1.465-.859l.744-2.776A8.225,8.225,0,0,1,319.349,15.109Z" transform="translate(-305.61 -13.068)" fill="#10d078"/>
</svg>
