<svg xmlns="http://www.w3.org/2000/svg" width="82.034" height="82.043" viewBox="0 0 82.034 82.043">
  <g id="open-email" transform="translate(0 0.001)">
    <path id="Path_2173" data-name="Path 2173" d="M82.037,185.266v44.48a7.878,7.878,0,0,1-7.877,7.876H7.879A7.874,7.874,0,0,1,0,229.746v-44.48Zm0,0" transform="translate(-0.003 -155.58)" fill="#fec970"/>
    <path id="Path_2174" data-name="Path 2174" d="M82.034,29.686,50.5,3.431a14.823,14.823,0,0,0-18.97,0L0,29.686H0l9.293,7.738L31.532,55.94a14.819,14.819,0,0,0,18.97,0l22.24-18.516,9.293-7.738" fill="#fba028"/>
    <path id="Path_2175" data-name="Path 2175" d="M121.447,35.283V59.406L99.207,77.922a14.819,14.819,0,0,1-18.97,0L58,59.406V35.283a9.108,9.108,0,0,1,9.109-9.107H112.34a9.107,9.107,0,0,1,9.107,9.107Zm0,0" transform="translate(-48.706 -21.982)" fill="#bfdadd"/>
    <path id="Path_2176" data-name="Path 2176" d="M121.447,35.283v18.6L99.207,72.4a14.82,14.82,0,0,1-18.97,0L58,53.881v-18.6a9.108,9.108,0,0,1,9.109-9.107H112.34a9.107,9.107,0,0,1,9.107,9.107Zm0,0" transform="translate(-48.706 -21.982)" fill="#e4f5f7"/>
    <path id="Path_2177" data-name="Path 2177" d="M352.726,379.582a1.251,1.251,0,0,1-.8-.29L331.9,362.622a1.256,1.256,0,1,1,1.607-1.93l20.021,16.669a1.256,1.256,0,0,1-.8,2.221Zm0,0" transform="translate(-278.338 -302.651)" fill="#fba028"/>
    <path id="Path_2178" data-name="Path 2178" d="M28.435,215.583,11.981,229.637a3.522,3.522,0,0,0,1.684,6.149c4.725.821,10.247,1.743,11.731,1.836H7.88A7.874,7.874,0,0,1,0,229.747V185.265H5.949v30.321a7.287,7.287,0,0,0,11.954,5.5l8.965-7.465a1.257,1.257,0,0,1,1.793.193,1.29,1.29,0,0,1-.226,1.771Zm0,0" transform="translate(-0.004 -155.579)" fill="#fba028"/>
    <g id="Group_1699" data-name="Group 1699" transform="translate(21.346 18.942)">
      <path id="Path_2179" data-name="Path 2179" d="M171.3,211.741H134.47a1.256,1.256,0,0,1,0-2.511H171.3a1.256,1.256,0,1,1,0,2.511Zm0,0" transform="translate(-133.214 -194.646)" fill="#4b5051"/>
      <path id="Path_2180" data-name="Path 2180" d="M171.3,257.253H134.47a1.256,1.256,0,0,1,0-2.511H171.3a1.256,1.256,0,0,1,0,2.511Zm0,0" transform="translate(-133.214 -232.865)" fill="#4b5051"/>
      <path id="Path_2181" data-name="Path 2181" d="M171.3,120.726H134.47a1.256,1.256,0,0,1,0-2.511H171.3a1.256,1.256,0,1,1,0,2.511Zm0,0" transform="translate(-133.214 -118.215)" fill="#4b5051"/>
      <path id="Path_2182" data-name="Path 2182" d="M171.3,166.234H134.47a1.256,1.256,0,0,1,0-2.511H171.3a1.256,1.256,0,1,1,0,2.511Zm0,0" transform="translate(-133.214 -156.431)" fill="#4b5051"/>
    </g>
    <circle id="Ellipse_205" data-name="Ellipse 205" cx="11.5" cy="11.5" r="11.5" transform="translate(55.041 23.041)" fill="#f83a3a"/>
    <text id="_1" data-name="1" transform="translate(71.041 40.041)" fill="#fff" font-size="16" font-family="IRANSans"><tspan x="-9.683" y="0">1</tspan></text>
  </g>
</svg>
