<svg xmlns="http://www.w3.org/2000/svg" width="103" height="102.999" viewBox="0 0 103 102.999">
  <g id="surface1" transform="translate(0 -0.301)">
    <path id="Path_2198" data-name="Path 2198" d="M467.682,80.156,449.105,61.543v74.586h24.862V95.268A21.313,21.313,0,0,0,467.682,80.156Zm0,0" transform="translate(-370.967 -50.587)" fill="#ffb782"/>
    <path id="Path_2199" data-name="Path 2199" d="M14.52,71.957.476,35.5a7.1,7.1,0,0,1,4.076-9.181L70.839.785A7.1,7.1,0,0,1,80.02,4.86L94.064,41.319A7.1,7.1,0,0,1,89.988,50.5L23.7,76.033A7.106,7.106,0,0,1,14.52,71.957Zm0,0" transform="translate(0 -0.006)" fill="#de4c3c"/>
    <path id="Path_2200" data-name="Path 2200" d="M111.675,101.961,32.2,132.769l5.292,13.738,79.483-30.793Zm0,0" transform="translate(-26.594 -83.973)" fill="#7a4930"/>
    <path id="Path_2201" data-name="Path 2201" d="M0,46.473V7.4A7.1,7.1,0,0,1,7.107.3H78.141a7.1,7.1,0,0,1,7.1,7.1V46.473a7.1,7.1,0,0,1-7.1,7.1H7.107A7.1,7.1,0,0,1,0,46.473Zm0,0" transform="translate(-0.004)" fill="#4398d1"/>
    <path id="Path_2202" data-name="Path 2202" d="M160.343.3H152.8L99.52,53.577h60.823a7.1,7.1,0,0,0,7.1-7.1V7.4A7.1,7.1,0,0,0,160.343.3Zm0,0" transform="translate(-82.205)" fill="#3e8cc7"/>
    <path id="Path_2203" data-name="Path 2203" d="M40.832,163.609h7.1v3.552h-7.1Zm0,0" transform="translate(-33.728 -134.895)" fill="#5eb3d1"/>
    <path id="Path_2204" data-name="Path 2204" d="M40.832,224.852h7.1V228.4h-7.1Zm0,0" transform="translate(-33.728 -185.482)" fill="#5eb3d1"/>
    <path id="Path_2205" data-name="Path 2205" d="M224.555,224.852h7.1V228.4h-7.1Zm0,0" transform="translate(-185.486 -185.482)" fill="#5eb3d1"/>
    <path id="Path_2206" data-name="Path 2206" d="M102.074,163.609h7.1v3.552h-7.1Zm0,0" transform="translate(-84.315 -134.895)" fill="#5eb3d1"/>
    <path id="Path_2207" data-name="Path 2207" d="M163.313,163.609h7.1v3.552h-7.1Zm0,0" transform="translate(-134.899 -134.895)" fill="#5eb3d1"/>
    <path id="Path_2208" data-name="Path 2208" d="M224.555,163.609h7.1v3.552h-7.1Zm0,0" transform="translate(-185.486 -134.895)" fill="#5eb3d1"/>
    <path id="Path_2209" data-name="Path 2209" d="M418.484,41.129h3.552v5.328h-3.552Zm0,0" transform="translate(-345.674 -33.725)" fill="#5eb3d1"/>
    <path id="Path_2210" data-name="Path 2210" d="M377.656,41.129h3.552v5.328h-3.552Zm0,0" transform="translate(-311.949 -33.725)" fill="#5eb3d1"/>
    <path id="Path_2211" data-name="Path 2211" d="M336.828,41.129h3.552v5.328h-3.552Zm0,0" transform="translate(-278.225 -33.725)" fill="#5eb3d1"/>
    <path id="Path_2212" data-name="Path 2212" d="M296,41.129h3.551v5.328H296Zm0,0" transform="translate(-244.504 -33.725)" fill="#5eb3d1"/>
    <path id="Path_2213" data-name="Path 2213" d="M408.277,490.23h31.965v17.758H408.277Zm0,0" transform="translate(-337.243 -404.688)" fill="#10d078"/>
    <path id="Path_2214" data-name="Path 2214" d="M315.973,174.029a7.7,7.7,0,0,0-11.117,10.646l14.553,15.876a23.95,23.95,0,0,0,.485,24.572l1.291,2.065h23.086V202.327Zm0,0" transform="translate(-250.151 -141.647)" fill="#ffb782"/>
    <path id="Path_2215" data-name="Path 2215" d="M438.9,520.852h3.552V524.4H438.9Zm0,0" transform="translate(-362.536 -429.982)" fill="#0c9757"/>
    <path id="Path_2216" data-name="Path 2216" d="M40.832,52.494V43.97a2.841,2.841,0,0,1,2.842-2.842H52.2a2.84,2.84,0,0,1,2.841,2.842v8.524A2.84,2.84,0,0,1,52.2,55.336H43.674A2.841,2.841,0,0,1,40.832,52.494Zm0,0" transform="translate(-33.728 -33.725)" fill="#fec970"/>
    <path id="Path_2217" data-name="Path 2217" d="M40.832,71.75H46.16V75.3H40.832Zm0,0" transform="translate(-33.728 -59.018)" fill="#fd7b2f"/>
    <path id="Path_2218" data-name="Path 2218" d="M91.867,71.75h5.327V75.3H91.867Zm0,0" transform="translate(-75.884 -59.018)" fill="#fd7b2f"/>
    <path id="Path_2219" data-name="Path 2219" d="M488.707,296.853a1.772,1.772,0,0,1-1.255-.521l-7.1-7.1a1.776,1.776,0,0,1,2.511-2.511l7.1,7.1a1.776,1.776,0,0,1-1.256,3.032Zm0,0" transform="translate(-396.363 -236.173)" fill="#f2a46f"/>
  </g>
</svg>
