<svg xmlns="http://www.w3.org/2000/svg" width="123.244" height="142.199" viewBox="0 0 123.244 142.199">
  <g id="Group_1582" data-name="Group 1582" transform="translate(-4.569 0)">
    <g id="Group_1579" data-name="Group 1579" transform="translate(0 83.92) rotate(-30)">
      <g id="Group_1578" data-name="Group 1578" transform="translate(0 0)">
        <g id="Group_1571" data-name="Group 1571" transform="translate(3.356 3.325)">
          <path id="Path_1904" data-name="Path 1904" d="M26.118,45.452h.675l.092-.668c.179-1.317.352-2.466.5-3.479.71-4.726,1-6.683-.482-9.017a19.221,19.221,0,0,0-5.54-5.233c-2.141-1.525-4.161-2.965-5.594-5.456a5.875,5.875,0,0,1,.16-6.706c1.739-2.174,5.025-2.774,8.791-1.609a28.731,28.731,0,0,1,4.893,2.032c3.506,1.783,3.918,1.146,7.856-4.957.408-.633.859-1.332,1.36-2.1l.373-.574-.525-.44C30.44.34,20.331-1.79,11.647,1.549,5.264,4,.963,8.962.142,14.815-.789,21.456,2.89,28.272,10.5,34.007c4.746,3.579,4.55,5.887,4.407,7.573a2.924,2.924,0,0,0,.5,2.427C16.429,45.115,18.931,45.452,26.118,45.452Zm-4.992-34.3a7.908,7.908,0,0,0-6.4,2.774,7.389,7.389,0,0,0-.294,8.442c1.6,2.784,3.857,4.391,6.038,5.945a17.736,17.736,0,0,1,5.132,4.8c1.176,1.846.926,3.51.258,7.958-.128.843-.267,1.78-.416,2.829-4.088-.012-8.17-.155-8.894-.944-.182-.2-.16-.565-.1-1.25.154-1.812.412-4.845-5.017-8.939C4.289,27.391.823,21.09,1.673,15.029,2.414,9.742,6.351,5.241,12.2,2.992,20.172-.073,29.456,1.8,37.16,8q-.531.819-.986,1.525c-1.865,2.891-2.893,4.484-3.621,4.981-.441.3-.768.181-2.235-.565a30.127,30.127,0,0,0-5.136-2.131A13.787,13.787,0,0,0,21.126,11.155Z" transform="translate(0 0)" fill="#10d078"/>
        </g>
        <g id="Group_1572" data-name="Group 1572" transform="translate(17.306 56.917)">
          <path id="Path_1905" data-name="Path 1905" d="M7.8,15.1c3.856,0,7.76-2.6,7.76-7.562S11.659,0,7.8,0C3.925,0,0,2.59,0,7.541S3.925,15.1,7.8,15.1Zm0-13.557c2.992,0,6.214,1.876,6.214,5.995S10.8,13.557,7.8,13.557c-3.013,0-6.257-1.883-6.257-6.016S4.79,1.546,7.8,1.546Z" fill="#10d078"/>
        </g>
        <g id="Group_1573" data-name="Group 1573" transform="translate(12.065 27.134)">
          <path id="Path_1906" data-name="Path 1906" d="M17.41,24.981H21l.487-3.554c.175-1.278.342-2.394.489-3.381.751-4.989,1.2-7.97-.958-11.358A22.172,22.172,0,0,0,14.6.529L13.86,0l-.9,1.254.744.533a20.92,20.92,0,0,1,6.013,5.73c1.846,2.9,1.476,5.356.741,10.248-.156,1.044-.325,2.168-.5,3.452l-.3,2.218H17.41c-7.17,0-10.425-.281-12.027-2.025a4.584,4.584,0,0,1-.97-3.792c.137-1.613-.03-3.162-3.469-5.815L0,13.029c3.051,2.354,2.961,3.424,2.873,4.458a6.064,6.064,0,0,0,1.371,4.97C6.214,24.6,9.406,24.981,17.41,24.981Z" fill="#10d078"/>
        </g>
        <g id="Group_1574" data-name="Group 1574" transform="translate(19.952 18.675)">
          <path id="Path_1907" data-name="Path 1907" d="M.165,4.018l1.49-.41a2.923,2.923,0,0,1-.109-.767,1.964,1.964,0,0,1,.252-1,1.889,1.889,0,0,1,.541-.588L1.439,0A3.435,3.435,0,0,0,.46,1.07,3.492,3.492,0,0,0,0,2.842,4.416,4.416,0,0,0,.165,4.018Z" transform="translate(0 0)" fill="#10d078"/>
        </g>
        <g id="Group_1575" data-name="Group 1575" transform="translate(21.441 0)">
          <path id="Path_1908" data-name="Path 1908" d="M14.033,22.869c3.4,0,4.893-2.31,8.159-7.372l3.341-5.146-2.792-2.34C15.915,2.294,7.968-.492,0,.071L.109,1.613C7.681,1.082,15.233,3.738,21.748,9.2l1.743,1.46-2.6,4c-3.13,4.85-4.3,6.664-6.861,6.664A7.27,7.27,0,0,1,10.72,20.24a26.809,26.809,0,0,0-4.61-1.918,11.433,11.433,0,0,0-2.2-.463L3.749,19.4a9.824,9.824,0,0,1,1.9.4,25.46,25.46,0,0,1,4.368,1.819A8.661,8.661,0,0,0,14.033,22.869Z" transform="translate(0)" fill="#10d078"/>
        </g>
        <g id="Group_1576" data-name="Group 1576" transform="translate(0 16.193)">
          <path id="Path_1909" data-name="Path 1909" d="M2.672,13.734l1.35-.754A18.3,18.3,0,0,1,1.546,4.015,16.2,16.2,0,0,1,1.967.349L.459,0A17.847,17.847,0,0,0,0,4.015,19.821,19.821,0,0,0,2.672,13.734Z" fill="#10d078"/>
        </g>
        <g id="Group_1577" data-name="Group 1577" transform="translate(13.967 53.579)">
          <path id="Path_1910" data-name="Path 1910" d="M11.142,21.779c5.515,0,11.1-3.744,11.1-10.9S16.656,0,11.142,0C5.74,0,0,3.813,0,10.879A10.807,10.807,0,0,0,1.537,16.6l1.32-.805a9.281,9.281,0,0,1-1.31-4.912c0-6.062,4.944-9.333,9.6-9.333,4.747,0,9.552,3.206,9.552,9.333s-4.8,9.354-9.552,9.354Z" fill="#10d078"/>
        </g>
      </g>
    </g>
    <g id="Group_1581" data-name="Group 1581" transform="translate(33.66 0)">
      <g id="Group_1578-2" data-name="Group 1578" transform="translate(0 0)">
        <g id="Group_1571-2" data-name="Group 1571" transform="translate(2.404 2.382)">
          <path id="Path_1904-2" data-name="Path 1904" d="M18.71,32.56h.483l.066-.478c.128-.944.252-1.767.361-2.492.508-3.386.719-4.787-.345-6.459a13.769,13.769,0,0,0-3.969-3.748A12.447,12.447,0,0,1,11.3,15.473a4.208,4.208,0,0,1,.115-4.8c1.245-1.557,3.6-1.987,6.3-1.152a20.581,20.581,0,0,1,3.505,1.456c2.511,1.277,2.806.821,5.627-3.551.292-.454.615-.954.974-1.5l.267-.411-.376-.315C21.806.244,14.564-1.282,8.344,1.11,3.771,2.867.69,6.42.1,10.613c-.667,4.757,1.969,9.64,7.421,13.748,3.4,2.564,3.259,4.217,3.157,5.425a2.1,2.1,0,0,0,.361,1.738C11.769,32.318,13.561,32.56,18.71,32.56ZM15.134,7.991a5.665,5.665,0,0,0-4.585,1.987,5.293,5.293,0,0,0-.21,6.048,13.517,13.517,0,0,0,4.325,4.258,12.705,12.705,0,0,1,3.676,3.441c.842,1.322.663,2.515.185,5.7-.091.6-.192,1.275-.3,2.027-2.928-.009-5.853-.111-6.372-.676-.131-.142-.115-.4-.073-.9.11-1.3.3-3.471-3.594-6.4C3.072,19.621.59,15.108,1.2,10.766,1.73,6.978,4.549,3.754,8.741,2.144c5.709-2.2,12.36-.853,17.879,3.586q-.38.586-.707,1.093c-1.336,2.071-2.073,3.212-2.594,3.568-.316.216-.55.13-1.6-.4a21.582,21.582,0,0,0-3.679-1.527A9.876,9.876,0,0,0,15.134,7.991Z" transform="translate(0 0)" fill="#10d078"/>
        </g>
        <g id="Group_1572-2" data-name="Group 1572" transform="translate(12.397 40.773)">
          <path id="Path_1905-2" data-name="Path 1905" d="M5.59,10.819A5.319,5.319,0,0,0,11.148,5.4,5.313,5.313,0,0,0,5.59,0,5.329,5.329,0,0,0,0,5.4,5.336,5.336,0,0,0,5.59,10.819Zm0-9.711A4.2,4.2,0,0,1,10.041,5.4,4.205,4.205,0,0,1,5.59,9.711,4.222,4.222,0,0,1,1.108,5.4,4.216,4.216,0,0,1,5.59,1.108Z" transform="translate(0 0)" fill="#10d078"/>
        </g>
        <g id="Group_1573-2" data-name="Group 1573" transform="translate(8.643 19.438)">
          <path id="Path_1906-2" data-name="Path 1906" d="M12.472,17.9h2.57l.349-2.546c.125-.915.245-1.715.351-2.422.538-3.574.858-5.709-.686-8.136a15.883,15.883,0,0,0-4.6-4.412L9.928,0,9.28.9l.533.382A14.986,14.986,0,0,1,14.12,5.385c1.322,2.078,1.058,3.837.531,7.341-.112.748-.233,1.553-.358,2.473l-.217,1.589h-1.6c-5.136,0-7.468-.2-8.615-1.45a3.284,3.284,0,0,1-.695-2.716c.1-1.155-.022-2.265-2.485-4.165L0,9.333c2.186,1.686,2.121,2.453,2.058,3.194a4.344,4.344,0,0,0,.982,3.56C4.451,17.622,6.738,17.9,12.472,17.9Z" fill="#10d078"/>
        </g>
        <g id="Group_1574-2" data-name="Group 1574" transform="translate(14.293 13.378)">
          <path id="Path_1907-2" data-name="Path 1907" d="M.118,2.878l1.068-.293a2.094,2.094,0,0,1-.078-.549,1.407,1.407,0,0,1,.181-.714A1.354,1.354,0,0,1,1.676.9L1.031,0a2.461,2.461,0,0,0-.7.766A2.5,2.5,0,0,0,0,2.036,3.163,3.163,0,0,0,.118,2.878Z" fill="#10d078"/>
        </g>
        <g id="Group_1575-2" data-name="Group 1575" transform="translate(15.36 0)">
          <path id="Path_1908-2" data-name="Path 1908" d="M10.052,16.383c2.438,0,3.505-1.655,5.845-5.281l2.393-3.686-2-1.676A22.8,22.8,0,0,0,0,.051l.078,1.1a21.7,21.7,0,0,1,15.5,5.432l1.249,1.046L14.967,10.5c-2.242,3.474-3.081,4.774-4.915,4.774A5.208,5.208,0,0,1,7.679,14.5a19.2,19.2,0,0,0-3.3-1.374A8.191,8.191,0,0,0,2.8,12.794l-.112,1.1a7.038,7.038,0,0,1,1.363.288,18.239,18.239,0,0,1,3.129,1.3A6.2,6.2,0,0,0,10.052,16.383Z" transform="translate(0)" fill="#10d078"/>
        </g>
        <g id="Group_1576-2" data-name="Group 1576" transform="translate(0 11.6)">
          <path id="Path_1909-2" data-name="Path 1909" d="M1.914,9.838l.967-.54A13.11,13.11,0,0,1,1.108,2.876,11.608,11.608,0,0,1,1.409.25L.329,0A12.785,12.785,0,0,0,0,2.876,14.2,14.2,0,0,0,1.914,9.838Z" transform="translate(0 0)" fill="#10d078"/>
        </g>
        <g id="Group_1577-2" data-name="Group 1577" transform="translate(10.005 38.382)">
          <path id="Path_1910-2" data-name="Path 1910" d="M7.981,15.6c3.951,0,7.95-2.682,7.95-7.808S11.932,0,7.981,0A7.732,7.732,0,0,0,0,7.793a7.742,7.742,0,0,0,1.1,4.1l.945-.577a6.649,6.649,0,0,1-.939-3.519A6.647,6.647,0,0,1,7.981,1.108a6.555,6.555,0,0,1,6.842,6.686,6.562,6.562,0,0,1-6.842,6.7Z" transform="translate(0 0)" fill="#10d078"/>
        </g>
      </g>
    </g>
    <g id="Group_1580" data-name="Group 1580" transform="matrix(-0.966, -0.259, 0.259, -0.966, 112.411, 101.673)">
      <g id="Group_1578-3" data-name="Group 1578" transform="translate(0 0)">
        <g id="Group_1571-3" data-name="Group 1571" transform="translate(3.356 26.581)">
          <path id="Path_1904-3" data-name="Path 1904" d="M26.118,0h.675l.092.668c.179,1.317.352,2.466.5,3.479.71,4.726,1,6.683-.482,9.017a19.221,19.221,0,0,1-5.54,5.233c-2.141,1.525-4.161,2.965-5.594,5.456a5.875,5.875,0,0,0,.16,6.706c1.739,2.174,5.025,2.774,8.791,1.609a28.732,28.732,0,0,0,4.893-2.032c3.506-1.783,3.918-1.146,7.856,4.957.408.633.859,1.332,1.36,2.1l.373.574-.525.44c-8.242,6.906-18.351,9.036-27.034,5.7C5.264,41.449.963,36.489.142,30.637-.789,24,2.89,17.18,10.5,11.445c4.746-3.579,4.55-5.887,4.407-7.573a2.924,2.924,0,0,1,.5-2.427C16.429.337,18.931,0,26.118,0ZM21.126,34.3a7.908,7.908,0,0,1-6.4-2.774,7.389,7.389,0,0,1-.294-8.442c1.6-2.784,3.857-4.391,6.038-5.945a17.736,17.736,0,0,0,5.132-4.8c1.176-1.846.926-3.51.258-7.958-.128-.843-.267-1.78-.416-2.829-4.088.012-8.17.155-8.894.944-.182.2-.16.565-.1,1.25.154,1.812.412,4.845-5.017,8.939C4.289,18.061.823,24.362,1.673,30.423,2.414,35.71,6.351,40.211,12.2,42.459c7.97,3.065,17.254,1.19,24.958-5.005q-.531-.819-.986-1.525c-1.865-2.891-2.893-4.484-3.621-4.981-.441-.3-.768-.181-2.235.565a30.127,30.127,0,0,1-5.136,2.131A13.787,13.787,0,0,1,21.126,34.3Z" transform="translate(0 0)" fill="#10d078"/>
        </g>
        <g id="Group_1572-3" data-name="Group 1572" transform="translate(17.306 3.338)">
          <path id="Path_1905-3" data-name="Path 1905" d="M7.8,0c3.856,0,7.76,2.6,7.76,7.562S11.659,15.1,7.8,15.1C3.925,15.1,0,12.512,0,7.562S3.925,0,7.8,0Zm0,13.557c2.992,0,6.214-1.876,6.214-5.995S10.8,1.546,7.8,1.546c-3.013,0-6.257,1.883-6.257,6.016S4.79,13.557,7.8,13.557Z" transform="translate(0 0)" fill="#10d078"/>
        </g>
        <g id="Group_1573-3" data-name="Group 1573" transform="translate(12.065 23.243)">
          <path id="Path_1906-3" data-name="Path 1906" d="M17.41,0H21l.487,3.554c.175,1.278.342,2.394.489,3.381.751,4.989,1.2,7.97-.958,11.358A22.172,22.172,0,0,1,14.6,24.452l-.738.529-.9-1.254.744-.533a20.92,20.92,0,0,0,6.013-5.73c1.846-2.9,1.476-5.356.741-10.248-.156-1.044-.325-2.168-.5-3.452l-.3-2.218H17.41c-7.17,0-10.425.281-12.027,2.025a4.584,4.584,0,0,0-.97,3.792c.137,1.613-.03,3.162-3.469,5.815L0,11.953C3.051,9.6,2.961,8.529,2.873,7.494a6.064,6.064,0,0,1,1.371-4.97C6.214.381,9.406,0,17.41,0Z" transform="translate(0 0)" fill="#10d078"/>
        </g>
        <g id="Group_1574-3" data-name="Group 1574" transform="translate(19.952 52.665)">
          <path id="Path_1907-3" data-name="Path 1907" d="M.165,0l1.49.41a2.923,2.923,0,0,0-.109.767,1.964,1.964,0,0,0,.252,1,1.889,1.889,0,0,0,.541.588l-.9,1.257A3.435,3.435,0,0,1,.46,2.948,3.492,3.492,0,0,1,0,1.177,4.416,4.416,0,0,1,.165,0Z" transform="translate(0 0)" fill="#10d078"/>
        </g>
        <g id="Group_1575-3" data-name="Group 1575" transform="translate(21.441 52.489)">
          <path id="Path_1908-3" data-name="Path 1908" d="M14.033,0c3.4,0,4.893,2.31,8.159,7.372l3.341,5.146-2.792,2.34C15.915,20.576,7.968,23.361,0,22.8l.109-1.542c7.572.532,15.124-2.124,21.639-7.583l1.743-1.46-2.6-4c-3.13-4.85-4.3-6.664-6.861-6.664A7.27,7.27,0,0,0,10.72,2.629a26.809,26.809,0,0,1-4.61,1.918,11.433,11.433,0,0,1-2.2.463L3.749,3.472a9.825,9.825,0,0,0,1.9-.4,25.461,25.461,0,0,0,4.368-1.819A8.661,8.661,0,0,1,14.033,0Z" transform="translate(0 0)" fill="#10d078"/>
        </g>
        <g id="Group_1576-3" data-name="Group 1576" transform="translate(0 45.431)">
          <path id="Path_1909-3" data-name="Path 1909" d="M2.672,0l1.35.754A18.3,18.3,0,0,0,1.546,9.719a16.2,16.2,0,0,0,.421,3.666l-1.507.349A17.847,17.847,0,0,1,0,9.719,19.821,19.821,0,0,1,2.672,0Z" transform="translate(0 0)" fill="#10d078"/>
        </g>
        <g id="Group_1577-3" data-name="Group 1577" transform="translate(13.967 0)">
          <path id="Path_1910-3" data-name="Path 1910" d="M11.142,0c5.515,0,11.1,3.744,11.1,10.9s-5.583,10.879-11.1,10.879C5.74,21.779,0,17.966,0,10.9A10.807,10.807,0,0,1,1.537,5.182l1.32.806A9.281,9.281,0,0,0,1.546,10.9c0,6.062,4.944,9.333,9.6,9.333,4.747,0,9.552-3.206,9.552-9.333s-4.8-9.354-9.552-9.354Z" transform="translate(0)" fill="#10d078"/>
        </g>
      </g>
    </g>
  </g>
</svg>
