<svg id="Group_1564" data-name="Group 1564" xmlns="http://www.w3.org/2000/svg" width="188.71" height="220.686" viewBox="0 0 188.71 220.686">
  <ellipse id="Ellipse_194" data-name="Ellipse 194" cx="90.255" cy="15.631" rx="90.255" ry="15.631" transform="translate(8.201 189.424)" fill="#181c1f"/>
  <g id="Group_1554" data-name="Group 1554" transform="translate(42.226 48.247)">
    <g id="Layer_3" data-name="Layer 3" transform="translate(0 27.047)">
      <path id="Path_1866" data-name="Path 1866" d="M3140.536,1010.72l-28.881,22.962-49.588,2.85-36.276-25.813V941.674h114.745Z" transform="translate(-3024.715 -904.589)" fill="#c0902e"/>
      <path id="Path_1867" data-name="Path 1867" d="M3011.522,1019.548c19.465,35.942,101.534,33.572,115.759-1.074,2.49,12.633-2.5,21.654-12.48,28.423-23.074,15.656-67.031,15.8-90.212.373C3015.063,1040.927,3009.287,1032.752,3011.522,1019.548Z" transform="translate(-3011.042 -975.789)" fill="#e3ae59"/>
      <path id="Path_1868" data-name="Path 1868" d="M3011.522,1272.73c19.465,35.942,101.534,33.572,115.759-1.074,2.49,12.634-2.5,21.654-12.48,28.423-23.074,15.656-67.031,15.8-90.212.373C3015.063,1294.11,3009.287,1285.934,3011.522,1272.73Z" transform="translate(-3011.042 -1210.508)" fill="#e3ae59"/>
      <path id="Path_1869" data-name="Path 1869" d="M3012.554,1782.664c13.514,20.741,34.951,24.865,57.3,24.753,22.769-.114,44.747-4.053,57.933-26.458,2,11.579-2.136,20.452-11.593,27.22-23.36,16.72-69.228,16.862-92.645.2C3013.031,1800.9,3009.292,1791.8,3012.554,1782.664Z" transform="translate(-3011.385 -1682.672)" fill="#e3ae59"/>
      <path id="Path_1870" data-name="Path 1870" d="M3011.522,1525.912c19.465,35.942,101.534,33.572,115.759-1.074,2.49,12.634-2.5,21.654-12.48,28.423-23.074,15.656-67.031,15.8-90.212.372C3015.063,1547.292,3009.287,1539.116,3011.522,1525.912Z" transform="translate(-3011.042 -1445.227)" fill="#e3ae59"/>
      <ellipse id="Ellipse_189" data-name="Ellipse 189" cx="58.435" cy="32.317" rx="58.435" ry="32.317" transform="translate(0.027)" fill="#fbca47"/>
      <path id="Path_1871" data-name="Path 1871" d="M3425.608,661.633a7.983,7.983,0,0,0-4.586,1.754,10.5,10.5,0,0,0-1.017,1.2c-.025.03-.061.06-.13.127-.12-.1-.206-.178-.3-.252-1.3-1.068-3.244-1.622-5.829-1.708a22.622,22.622,0,0,0-4.529.267,10.981,10.981,0,0,0-4.91,1.986,11.3,11.3,0,0,0-2.97,3.376c-.279.459-.274.459-1.155.459-1.549,0-3.121.044-4.647.043l-1.544,3.13h5.587c-.05.292-.161.351-.241.562-.213.57-.432,1.108-.631,1.7-.072.212-.226.25-.6.249-1.8,0-3.469-.022-5.4-.022l-1.857,3.71h6.431l-2.966,7.657h7.875c.232-.8.443-1.618.713-2.355.521-1.424,2.161-2.307,4.3-2.307q14.793,0,29.585-.023c1.95,0,3.056.675,3.42,1.945.247.862.481,1.645.75,2.739h8.772l-3.06-7.657h5.659l-1.853-3.708c-1.692,0-3.085,0-4.6,0-.216,0-.5.132-.591-.076-.354-.847-.729-1.756-1.042-2.413h4.942l-1.547-3.134c-.653,0-1.341-.02-1.984-.018-.736,0-1.506-.021-2.235-.006-.4.008-.577-.059-.71-.273a27.78,27.78,0,0,0-1.844-2.806,9.741,9.741,0,0,0-3.755-2.831,16.982,16.982,0,0,0-5.113-1.266A28.99,28.99,0,0,0,3425.608,661.633Zm-19.729,12.529c.4-1.226.681-2.4,1.152-3.525a4.99,4.99,0,0,1,2.429-2.552,8.944,8.944,0,0,1,6.2-.426,3.436,3.436,0,0,1,2.076,1.783,9.436,9.436,0,0,1,.413,4.763c-.02.225-.228.232-.521.232q-2.846,0-5.691,0c-1.862,0-3.723,0-5.586,0C3405.995,674.438,3405.8,674.405,3405.879,674.162Zm26.37-7.73a5.644,5.644,0,0,1,2.688,1.595,9.036,9.036,0,0,1,2.022,3.583c.314.936.54,1.866.841,3.106h-.63c-4.074,0-8.148-.147-12.222-.134-.542,0-.7-.154-.7-.455,0-1.325-.091-2.627-.045-3.835a4.127,4.127,0,0,1,1.426-3.006C3426.913,666.125,3429.8,665.756,3432.249,666.432Z" transform="translate(-3363.156 -644.827)" fill="#fff"/>
      <path id="Path_1872" data-name="Path 1872" d="M3196.965,581.7c-12.87,0-24.978-2.461-34.095-6.929a32.543,32.543,0,0,1-10.439-7.6,13.535,13.535,0,0,1,0-19.015,32.542,32.542,0,0,1,10.439-7.6c9.117-4.468,21.225-6.929,34.095-6.929s24.978,2.461,34.095,6.929a32.543,32.543,0,0,1,10.439,7.6,13.535,13.535,0,0,1,0,19.015,32.544,32.544,0,0,1-10.439,7.6C3221.943,579.241,3209.834,581.7,3196.965,581.7Zm0-46.909c-12.7,0-24.624,2.419-33.586,6.811-8.83,4.328-13.693,10.033-13.693,16.065s4.863,11.738,13.693,16.065c8.962,4.392,20.889,6.811,33.586,6.811s24.624-2.419,33.585-6.811c8.83-4.328,13.693-10.033,13.693-16.065s-4.863-11.738-13.693-16.065C3221.589,537.212,3209.662,534.793,3196.965,534.793Z" transform="translate(-3138.503 -526.306)" fill="#fff"/>
    </g>
    <g id="Layer_4" data-name="Layer 4" transform="translate(40.686 0)">
      <path id="Path_1873" data-name="Path 1873" d="M3945.022,862.307a4.4,4.4,0,0,0-.727-2.014l.044-.09-.2-.151a17.3,17.3,0,0,0-5.072-4.562,69.061,69.061,0,0,0-5.937-3.793c-4-2.846-13.186-8.1-13.186-8.1H3886.42s-7.931,5.257-11.927,8.1a69.023,69.023,0,0,0-5.938,3.793,17.324,17.324,0,0,0-5.072,4.562l-.2.151.043.09a4.4,4.4,0,0,0-.727,2.014c-1.255,3.323,4.21,13.663,4.21,13.663l14.42,32.975c8.751,1.329,9.376-1.978,9.376-1.978-.221-1.883-2.312-13.835-2.312-13.835a59.257,59.257,0,0,0-10.233-22.294,1.468,1.468,0,0,1,.683-2.22c1.708-.643,3.5-1.336,5.255-2.045a102.334,102.334,0,0,0,14.2-6.849l11.276.035c0,.047.047.075.143.085a103.314,103.314,0,0,0,14,6.729c1.838.743,3.718,1.469,5.5,2.137a1.287,1.287,0,0,1,.619,1.917c-2.167,3.264-6.641,9.7-9.68,22.3,0,0-2.428,12-2.65,13.886,0,0,.23,3.465,8.982,2.136l14.419-32.975S3946.278,865.63,3945.022,862.307Z" transform="translate(-3862.416 -782.65)" fill="#65584c"/>
      <path id="Path_1874" data-name="Path 1874" d="M4516.75,1581.729s-.307,5.667,1,8.639l-10.375-1.038a9.9,9.9,0,0,0-.008-7.6Z" transform="translate(-4451.685 -1457.057)" fill="#eed3b6"/>
      <path id="Path_1875" data-name="Path 1875" d="M4060.03,1571.085s.307,5.667-1,8.639l10.376-1.038a9.9,9.9,0,0,1,.007-7.6Z" transform="translate(-4042.054 -1447.332)" fill="#eed3b6"/>
      <path id="Path_1876" data-name="Path 1876" d="M3909.431,1646.116a4.086,4.086,0,0,1-1.8-.524c-.308.291-.687.633-1.116,1.008a.528.528,0,0,1-.058.051c-.291.251-.61.52-.951.8-.012.011-.023.016-.035.028-.128.106-.262.212-.4.323a.869.869,0,0,0-.087.068c-.3.234-.608.474-.933.708l-.208.15c-.122.09-.249.179-.377.268-.093.067-.185.134-.283.2-.266.184-.538.373-.821.545-.133.1-.278.184-.416.273a24.344,24.344,0,0,1-3.479,1.839c-.212.093-.426.186-.65.268-4.293,1.647-4.674,4.041-4.541,5.265a2.887,2.887,0,0,0,.191.8,10.1,10.1,0,0,0,4,.941c8.31.181,21.275-4.291,21.275-4.291s.928-1.109.615-3.662c-.015-.121-.031-.241-.051-.367-.026-.172-1.215-5-1.676-6.378a44.146,44.146,0,0,1-5.851,1.522c-.276.057-.527.1-.756.129-.155.02-.3.034-.441.048a4.616,4.616,0,0,1-.732.01h-.022l-.086,0a.052.052,0,0,0-.028-.007Z" transform="translate(-3890.591 -1514.345)" fill="#262626"/>
      <path id="Path_1877" data-name="Path 1877" d="M3897.332,1750.793a11.169,11.169,0,0,1-4.056-.9,3.765,3.765,0,0,0,0,.725,2.869,2.869,0,0,0,.191.8,10.192,10.192,0,0,0,4.017.943c8.307.177,21.275-4.295,21.275-4.295a3.54,3.54,0,0,0,.594-1.595C3915.981,1747.571,3904.882,1750.955,3897.332,1750.793Z" transform="translate(-3890.598 -1607.582)" fill="#3a3a3a"/>
      <path id="Path_1878" data-name="Path 1878" d="M4500.808,1656.761a4.081,4.081,0,0,0,1.8-.524c.309.291.687.633,1.117,1.008a.426.426,0,0,0,.058.051c.291.251.609.52.951.8.012.011.023.016.034.028.129.106.262.212.4.324a.8.8,0,0,1,.086.068c.3.234.609.474.934.708l.208.151c.122.089.249.178.376.267.093.067.186.134.284.2.266.184.538.373.821.545.132.1.277.184.416.273a24.356,24.356,0,0,0,3.479,1.839c.213.093.426.186.65.268,4.292,1.646,4.673,4.041,4.541,5.265a2.852,2.852,0,0,1-.192.8,10.094,10.094,0,0,1-4,.941c-8.31.18-21.275-4.292-21.275-4.292s-.929-1.109-.615-3.661c.015-.121.03-.241.05-.367.026-.172,1.215-5,1.676-6.379a44.187,44.187,0,0,0,5.852,1.523c.276.057.527.1.757.129.154.02.3.034.44.048a4.652,4.652,0,0,0,.732.01h.109a.049.049,0,0,1,.028-.007Z" transform="translate(-4436.559 -1524.071)" fill="#262626"/>
      <path id="Path_1879" data-name="Path 1879" d="M4513.7,1761.437a11.169,11.169,0,0,0,4.057-.9,3.71,3.71,0,0,1,0,.725,2.893,2.893,0,0,1-.192.8,10.189,10.189,0,0,1-4.017.942c-8.307.177-21.274-4.3-21.274-4.3a3.543,3.543,0,0,1-.594-1.595C4495.048,1758.215,4506.147,1761.6,4513.7,1761.437Z" transform="translate(-4437.343 -1617.307)" fill="#3a3a3a"/>
      <rect id="Rectangle_971" data-name="Rectangle 971" width="13.95" height="5.234" rx="2.617" transform="translate(15.321 121.049)" fill="#51443a"/>
      <rect id="Rectangle_972" data-name="Rectangle 972" width="13.95" height="5.234" rx="2.617" transform="translate(67.671 126.437) rotate(180)" fill="#51443a"/>
      <path id="Path_1880" data-name="Path 1880" d="M4162.616,145.721l-7.641-2.821c-5.722-1.883-4.49-5.174-4.49-5.174h-11.856s1.232,3.292-4.49,5.174l-7.64,2.823,18.059,2.174Z" transform="translate(-4103.699 -137.726)" fill="#dcb89c"/>
      <path id="Path_1881" data-name="Path 1881" d="M4214.9,181.762l.038,0,3.342,17.252.023.12,2.7,13.955.949,22.572h5.868l1.351-21.733,2.855-14.741,3.343-17.275a8.541,8.541,0,0,0-2.572-.912s.646,4.661-6.681,4.849c-8.234.211-8.339-4.849-8.339-4.849a16.832,16.832,0,0,0-2.919.762l.04,0Z" transform="translate(-4184.427 -177.264)" fill="#e8d4db"/>
      <path id="Path_1882" data-name="Path 1882" d="M3993.925,222.32l-4.787-18.163c-3.072-12.263-19.921-15.6-19.921-15.6l-10.145,52.122-9.817-52.261s-17.178,3.476-20.249,15.739l-4.787,18.163a23.415,23.415,0,0,0-.2,8.8,13.2,13.2,0,0,0,2.494,5.9l3.894,5.182,8.241-1.8-5-8.524a21.267,21.267,0,0,1,.733-5.476l4.26-10.29,1.661,16.447.729,12.425h36.069l.729-12.425,1.661-16.447,4.26,10.29a21.281,21.281,0,0,1,.732,5.476l-5,8.524,8.241,1.8,3.894-5.182a13.2,13.2,0,0,0,2.494-5.9A23.422,23.422,0,0,0,3993.925,222.32Z" transform="translate(-3918.423 -184.042)" fill="#705a62"/>
      <rect id="Rectangle_973" data-name="Rectangle 973" width="65.054" height="40.935" rx="5" transform="translate(8.87 22.397)" fill="#f3f3f3"/>
      <g id="Group_1553" data-name="Group 1553" transform="translate(9.393 23.472)">
        <g id="Group_1552" data-name="Group 1552">
          <path id="Path_1883" data-name="Path 1883" d="M3971.211,448.165a2.935,2.935,0,0,0,2.447,1.333h59.2a2.923,2.923,0,0,0,2.9-2.953V411.466a2.886,2.886,0,0,0-.671-1.877Z" transform="translate(-3971.211 -409.589)" fill="#dddddc"/>
        </g>
      </g>
      <rect id="Rectangle_974" data-name="Rectangle 974" width="65.745" height="3.695" rx="1.848" transform="translate(8.557 63.21)" fill="silver"/>
    </g>
  </g>
  <g id="Group_1557" data-name="Group 1557" transform="translate(107.808)">
    <path id="Path_1843" data-name="Path 1843" d="M655.48,189.661c-1.806-3.325-5.4-3.053-5.963-.59-.528,2.292,5.2,8.916,6.529,7.66C657.464,195.383,656.225,191.032,655.48,189.661Z" transform="translate(-648.908 -154.609)" fill="#ffdeb3"/>
    <path id="Path_1844" data-name="Path 1844" d="M656.631,192.02c-1.214-2.235-3.631-2.053-4.009-.4-.355,1.541,3.5,5.994,4.389,5.15C657.964,195.867,657.132,192.942,656.631,192.02Z" transform="translate(-650.086 -155.806)" fill="#f9ad8f"/>
    <path id="Path_1845" data-name="Path 1845" d="M685.585,188.612c.836-3.405,4.3-3.555,5.626-1.087s-2.673,10.306-4.38,8.753S685.233,190.045,685.585,188.612Z" transform="translate(-662.467 -154.098)" fill="#ffdeb3"/>
    <path id="Path_1846" data-name="Path 1846" d="M686.313,190.734c.557-2.269,2.864-2.368,3.75-.724s-1.784,6.867-2.922,5.831S686.079,191.689,686.313,190.734Z" transform="translate(-662.768 -155.249)" fill="#f9ad8f"/>
    <path id="Path_1847" data-name="Path 1847" d="M653.985,179.455c-.686-15.073-9.766-24.721-2.829-29.418,0,0-3.066-6.778,3.351-7.323,0,0,2.211-7.467,7.694-2.631,0,0,3.107-6.778,6.092-4.943s.319,6.233.319,6.233,2.856-3.65,4.871-2.212S672.3,144.8,672.3,144.8s2.13-3.729,4.192-1.863-1.933,9.91-1.437,16.225c.422,5.424-1.19,10.691.067,19.336C668.652,183.251,653.985,179.455,653.985,179.455Z" transform="translate(-648.559 -134.825)" fill="#7a4e46"/>
    <path id="Path_1848" data-name="Path 1848" d="M675.057,168.242a15.378,15.378,0,0,1-.014-1.962c-2.834,1.345-4.458-7.485-10.947-7.409-9.428.111-11.344,6.821-15.041,2.679-2.308,5.261,4.35,14.157,4.934,26.988,0,0,14.668,3.8,21.134-.961C673.866,178.933,675.479,173.666,675.057,168.242Z" transform="translate(-648.564 -143.909)" fill="#633933"/>
    <path id="Path_1849" data-name="Path 1849" d="M658.075,173.935c.107,7.04.207,11.39.255,13.018.139,4.584,4.352,8.384,9.832,8.384,5.217,0,10.054-4.675,9.942-8.384-.043-1.44-1.07-6.969-1.566-13.018-.384-4.677-1.226-17.576-9.553-17.576C658.884,156.359,657.96,166.475,658.075,173.935Z" transform="translate(-652.151 -142.96)" fill="#ffdeb3"/>
    <path id="Path_1850" data-name="Path 1850" d="M674.791,157.451c-.04-1.346-2.991-2.438-6.591-2.438s-6.486,1.092-6.445,2.438,2.992,2.438,6.592,2.438S674.831,158.8,674.791,157.451Z" transform="translate(-653.544 -142.452)" fill="#7a4e46"/>
    <path id="Path_1851" data-name="Path 1851" d="M661.7,182.4c-.982,0-1.2-1.7-.681-2.217s4.784-1.551,5.337-1.034,0,2.512-.228,2.586S662.16,182.4,661.7,182.4Z" transform="translate(-653.163 -151.518)" fill="#7a4e46"/>
    <path id="Path_1852" data-name="Path 1852" d="M679.881,182.643c.861,0,.955-1.7.47-2.217s-4.275-1.552-4.728-1.035.142,2.511.347,2.587S679.479,182.643,679.881,182.643Z" transform="translate(-658.721 -151.608)" fill="#7a4e46"/>
    <path id="Path_1853" data-name="Path 1853" d="M666.477,205.159h8.895a4.153,4.153,0,0,1-4.253,3.915A4.22,4.22,0,0,1,666.477,205.159Z" transform="translate(-655.328 -161.396)" fill="#4f322f"/>
    <path id="Path_1854" data-name="Path 1854" d="M674.517,207.25a4.259,4.259,0,0,0,.651-1.885h-7.821a4.155,4.155,0,0,0,.668,1.885Z" transform="translate(-655.657 -161.474)" fill="#fff7e9"/>
    <path id="Path_1855" data-name="Path 1855" d="M669.237,194.824a5.455,5.455,0,0,0,5.171-.167l-2.01-9.421-2.066.111Z" transform="translate(-656.371 -153.869)" fill="#f9ad8f"/>
    <path id="Path_1856" data-name="Path 1856" d="M669.689,194.1a4.08,4.08,0,0,0,4.422-.221l-1.625-9.975-2.067.111Z" transform="translate(-656.542 -153.365)" fill="#ffdeb3"/>
    <path id="Path_1857" data-name="Path 1857" d="M680.513,188.373c-.03-.995-.543-1.8-1.147-1.8s-1.069.806-1.039,1.8.545,1.8,1.147,1.8S680.543,189.368,680.513,188.373Z" transform="translate(-659.805 -154.374)" fill="#56453e"/>
    <path id="Path_1858" data-name="Path 1858" d="M665.632,188.373c-.03-.995-.544-1.8-1.147-1.8s-1.069.806-1.039,1.8.545,1.8,1.147,1.8S665.663,189.368,665.632,188.373Z" transform="translate(-654.182 -154.374)" fill="#56453e"/>
    <path id="Path_1859" data-name="Path 1859" d="M674.274,213.321c-.007-.245-.5-.111-1.211-.111s-1.384-.134-1.377.111.594.444,1.307.444S674.282,213.565,674.274,213.321Z" transform="translate(-657.296 -164.424)" fill="#f9ad8f"/>
  </g>
  <g id="Group_1563" data-name="Group 1563" transform="translate(0 130.743)">
    <ellipse id="Ellipse_193" data-name="Ellipse 193" cx="42.194" cy="42.194" rx="42.194" ry="42.194" fill="#fbca47"/>
    <path id="Path_1902" data-name="Path 1902" d="M799.376,3181.577a33.455,33.455,0,1,1,13.063-2.637A33.348,33.348,0,0,1,799.376,3181.577Zm0-66.417a32.856,32.856,0,1,0,32.856,32.856A32.894,32.894,0,0,0,799.376,3115.16Z" transform="translate(-757.182 -3105.823)" fill="#fff"/>
    <path id="Path_1903" data-name="Path 1903" d="M1083.828,3345.876a6.759,6.759,0,0,0-3.757-4.48,24.232,24.232,0,0,0-2.418-.923c-.06-.023-.117-.054-.248-.116.2-.114.348-.2.494-.283a6.783,6.783,0,0,0,3.489-5.65,9.678,9.678,0,0,0-.562-4.268,7.287,7.287,0,0,0-3.987-4,19.1,19.1,0,0,0-6.075-1.5c-.765-.084-.765-.031-.765-.776,0-1.31,0-2.807,0-3.882h-4.659v4.364c-.4,0-.655,0-.959,0-.812.011-1.634.014-2.446.043-.286.01-.372-.045-.37-.328.006-1.375.01-2.779.01-4.08h-4.6v4.523H1049v5.02c.622.01,1.458.008,2.192.05a2.333,2.333,0,0,1,2.352,2.505q0,10.114,0,20.228a1.722,1.722,0,0,1-1.946,1.979c-.868,0-1.8,0-2.6,0v5.668h7.972v3.845h4.593c0-1.131,0-2.281,0-3.433,0-.164-.043-.376.237-.376,1.16,0,2.408.011,3.539.011v3.8h4.665c0-.565,0-1.062-.006-1.606,0-.623.016-1.234-.008-1.856-.013-.342.088-.451.444-.489,1.653-.18,3.318-.3,4.946-.621a11.915,11.915,0,0,0,5.6-2.514,8.635,8.635,0,0,0,2.735-4.593A12.587,12.587,0,0,0,1083.828,3345.876Zm-21.8-16c1.7.053,3.412.019,5.109.153a7.136,7.136,0,0,1,4.137,1.491,4.127,4.127,0,0,1,.731,5.279,5.206,5.206,0,0,1-2.98,1.909,25.4,25.4,0,0,1-7.053.584c-.3-.005-.314-.164-.314-.387,0-1.448,0-2.9,0-4.346,0-1.422,0-2.844,0-4.265C1061.653,3330.024,1061.7,3329.868,1062.027,3329.878Zm12.15,21.5a5.051,5.051,0,0,1-2.807,2.016,17.193,17.193,0,0,1-5.468.907c-1.378.041-2.767.008-4.181.008v-.481c0-3.112-.023-6.224-.041-9.336,0-.415.1-.53.505-.52,1.851.048,3.7.023,5.548.108a10.584,10.584,0,0,1,4.954,1.37A4.266,4.266,0,0,1,1074.177,3351.383Z" transform="translate(-1024.356 -3299.745)" fill="#fff"/>
  </g>
</svg>
