<svg xmlns="http://www.w3.org/2000/svg" xmlns:xlink="http://www.w3.org/1999/xlink" width="28" height="32" viewBox="0 0 28 32">
  <defs>
    <clipPath id="clip-path">
      <path id="Polygon_7" data-name="Polygon 7" d="M21.679,0a4,4,0,0,1,3.473,2.015l5.714,10a4,4,0,0,1,0,3.969l-5.714,10A4,4,0,0,1,21.679,28H10.321a4,4,0,0,1-3.473-2.015l-5.714-10a4,4,0,0,1,0-3.969l5.714-10A4,4,0,0,1,10.321,0Z" transform="translate(1544.853 499) rotate(90)" fill="#b4b1b1"/>
    </clipPath>
  </defs>
  <g id="BIG_IRT" data-name="BIG IRT" transform="translate(-1516.853 -499)">
    <g id="Mask_Group_16" data-name="Mask Group 16" clip-path="url(#clip-path)">
      <g id="iran_1_" data-name="iran (1)" transform="translate(1513.853 498)">
        <rect id="Rectangle_1691" data-name="Rectangle 1691" width="34" height="11.341" transform="translate(0 11.33)" fill="#f5f5f5"/>
        <path id="Path_17665" data-name="Path 17665" d="M26.563,0H7.438A7.437,7.437,0,0,0,0,7.438v3.9H34v-3.9A7.437,7.437,0,0,0,26.563,0Z" fill="#73af00"/>
        <path id="Path_17666" data-name="Path 17666" d="M0,345.121a7.437,7.437,0,0,0,7.438,7.438H26.563A7.437,7.437,0,0,0,34,345.121v-3.9H0Z" transform="translate(0 -318.559)" fill="#ff4b55"/>
        <g id="Group_6947" data-name="Group 6947" transform="translate(0 9.251)">
          <path id="Path_17667" data-name="Path 17667" d="M.609,139.468v-.015a.141.141,0,0,0-.141-.141H0v.3H.468A.141.141,0,0,0,.609,139.468Z" transform="translate(0 -139.312)" fill="#f5f5f5"/>
          <path id="Path_17668" data-name="Path 17668" d="M.609,140.648v-.008a.141.141,0,0,0-.141-.141h-.3a.141.141,0,0,1-.141-.141v-.015a.141.141,0,0,1,.141-.141H.754a.141.141,0,0,1,.141.141v.305a.141.141,0,0,0,.141.141H2.21a.141.141,0,0,0,.141-.141v-1.2a.141.141,0,0,0-.141-.141H2.2a.141.141,0,0,0-.141.141v.907a.141.141,0,0,1-.141.141H1.909a.141.141,0,0,1-.141-.141v-.907a.141.141,0,0,0-.141-.141h0a.141.141,0,0,0-.141.141v.907a.141.141,0,0,1-.141.141H1.329a.141.141,0,0,1-.141-.141v-.907a.141.141,0,0,0-.141-.141H1.036a.141.141,0,0,0-.141.141v.313a.141.141,0,0,1-.141.141H0v.884H.468A.141.141,0,0,0,.609,140.648Z" transform="translate(0 -139.311)" fill="#f5f5f5"/>
          <path id="Path_17669" data-name="Path 17669" d="M85.913,139.311H85.9a.141.141,0,0,0-.141.141v.907a.141.141,0,0,1-.141.141h0a.141.141,0,0,1-.141-.141v-.907a.141.141,0,0,0-.141-.141h-.012a.141.141,0,0,0-.141.141v.907a.141.141,0,0,1-.141.141h-.012a.141.141,0,0,1-.141-.141v-.907a.141.141,0,0,0-.141-.141h-.008a.141.141,0,0,0-.141.141v.313a.141.141,0,0,1-.141.141h-.877a.141.141,0,0,0-.141.141v.6a.141.141,0,0,0,.141.141h.591a.141.141,0,0,0,.141-.141v-.008a.141.141,0,0,0-.141-.141h-.3a.141.141,0,0,1-.141-.141v-.015a.141.141,0,0,1,.141-.141h.587a.141.141,0,0,1,.141.141v.305a.141.141,0,0,0,.141.141h1.17a.141.141,0,0,0,.141-.141v-1.2A.141.141,0,0,0,85.913,139.311Z" transform="translate(-77.902 -139.311)" fill="#f5f5f5"/>
          <path id="Path_17670" data-name="Path 17670" d="M48.639,157.5a.141.141,0,0,0,.141-.141v-.008a.141.141,0,0,0-.141-.141h-.008a.141.141,0,0,0-.141.141v.008a.141.141,0,0,0,.141.141Z" transform="translate(-45.27 -156.019)" fill="#f5f5f5"/>
          <path id="Path_17671" data-name="Path 17671" d="M39.907,139.609H43.4a.141.141,0,0,0,.141-.141v-.015a.141.141,0,0,0-.141-.141H39.907a.141.141,0,0,0-.141.141v.015A.141.141,0,0,0,39.907,139.609Z" transform="translate(-37.125 -139.312)" fill="#f5f5f5"/>
          <path id="Path_17672" data-name="Path 17672" d="M42.236,148.258h-.587a.141.141,0,0,0-.141.141v.015a.141.141,0,0,0,.141.141h.3a.141.141,0,0,1,.141.141v.015a.141.141,0,0,1-.141.141h-.591a.141.141,0,0,1-.141-.141V148.4a.141.141,0,0,0-.141-.141H39.907a.141.141,0,0,0-.141.141v.6a.141.141,0,0,0,.141.141h.008a.141.141,0,0,0,.141-.141V148.7a.141.141,0,0,1,.141-.141h.587a.141.141,0,0,1,.141.141V149a.141.141,0,0,0,.141.141h1.17a.141.141,0,0,0,.141-.141v-.6A.141.141,0,0,0,42.236,148.258Z" transform="translate(-37.125 -147.664)" fill="#f5f5f5"/>
          <path id="Path_17673" data-name="Path 17673" d="M135.995,157.5a.141.141,0,0,0,.141-.141v-.008a.141.141,0,0,0-.141-.141h-.008a.141.141,0,0,0-.141.141v.008a.141.141,0,0,0,.141.141Z" transform="translate(-126.825 -156.019)" fill="#f5f5f5"/>
          <path id="Path_17674" data-name="Path 17674" d="M127.262,139.609h3.488a.141.141,0,0,0,.141-.141v-.015a.141.141,0,0,0-.141-.141h-3.488a.141.141,0,0,0-.141.141v.015A.141.141,0,0,0,127.262,139.609Z" transform="translate(-118.679 -139.312)" fill="#f5f5f5"/>
          <path id="Path_17675" data-name="Path 17675" d="M173.216,139.311h-.008a.141.141,0,0,0-.141.141v.907a.141.141,0,0,1-.141.141h-.008a.141.141,0,0,1-.141-.141v-.907a.141.141,0,0,0-.141-.141h-.012a.141.141,0,0,0-.141.141v.907a.141.141,0,0,1-.141.141h0a.141.141,0,0,1-.141-.141v-.907a.141.141,0,0,0-.141-.141h-.008a.141.141,0,0,0-.141.141v.313a.141.141,0,0,1-.141.141h-.884a.141.141,0,0,0-.141.141v.6a.141.141,0,0,0,.141.141h.591a.141.141,0,0,0,.141-.141v-.008a.141.141,0,0,0-.141-.141h-.3a.141.141,0,0,1-.141-.141v-.015a.141.141,0,0,1,.141-.141h.591a.141.141,0,0,1,.141.141v.305a.141.141,0,0,0,.141.141h1.167a.141.141,0,0,0,.141-.141v-1.2A.141.141,0,0,0,173.216,139.311Z" transform="translate(-159.404 -139.311)" fill="#f5f5f5"/>
          <path id="Path_17676" data-name="Path 17676" d="M129.592,148.258H129a.141.141,0,0,0-.141.141v.015a.141.141,0,0,0,.141.141h.3a.141.141,0,0,1,.141.141v.015a.141.141,0,0,1-.141.141h-.587a.141.141,0,0,1-.141-.141V148.4a.141.141,0,0,0-.141-.141h-1.167a.141.141,0,0,0-.141.141v.6a.141.141,0,0,0,.141.141h.008a.141.141,0,0,0,.141-.141V148.7a.141.141,0,0,1,.141-.141h.587a.141.141,0,0,1,.141.141V149a.141.141,0,0,0,.141.141h1.17a.141.141,0,0,0,.141-.141v-.6A.141.141,0,0,0,129.592,148.258Z" transform="translate(-118.68 -147.664)" fill="#f5f5f5"/>
          <path id="Path_17677" data-name="Path 17677" d="M260.622,139.311h-.008a.141.141,0,0,0-.141.141v.907a.141.141,0,0,1-.141.141h-.008a.141.141,0,0,1-.141-.141v-.907a.141.141,0,0,0-.141-.141h-.008a.141.141,0,0,0-.141.141v.907a.141.141,0,0,1-.141.141h-.008a.141.141,0,0,1-.141-.141v-.907a.141.141,0,0,0-.141-.141h-.008a.141.141,0,0,0-.141.141v.313a.141.141,0,0,1-.141.141h-.881a.141.141,0,0,0-.141.141v.6a.141.141,0,0,0,.141.141h.591a.141.141,0,0,0,.141-.141v-.008a.141.141,0,0,0-.141-.141h-.3a.141.141,0,0,1-.141-.141v-.015a.141.141,0,0,1,.141-.141h.591a.141.141,0,0,1,.141.141v.305a.141.141,0,0,0,.141.141h1.167a.141.141,0,0,0,.141-.141v-1.2A.141.141,0,0,0,260.622,139.311Z" transform="translate(-241.009 -139.311)" fill="#f5f5f5"/>
          <path id="Path_17678" data-name="Path 17678" d="M216.944,148.258h-.591a.141.141,0,0,0-.141.141v.015a.141.141,0,0,0,.141.141h.3a.141.141,0,0,1,.141.141v.015a.141.141,0,0,1-.141.141h-.587a.141.141,0,0,1-.141-.141V148.4a.141.141,0,0,0-.141-.141h-1.17a.141.141,0,0,0-.141.141v.6a.141.141,0,0,0,.141.141h.008a.141.141,0,0,0,.141-.141V148.7a.141.141,0,0,1,.141-.141h.587a.141.141,0,0,1,.141.141V149a.141.141,0,0,0,.141.141h1.17a.141.141,0,0,0,.141-.141v-.6A.141.141,0,0,0,216.944,148.258Z" transform="translate(-200.232 -147.664)" fill="#f5f5f5"/>
          <path id="Path_17679" data-name="Path 17679" d="M214.615,139.609h3.492a.141.141,0,0,0,.141-.141v-.015a.141.141,0,0,0-.141-.141h-3.492a.141.141,0,0,0-.141.141v.015A.141.141,0,0,0,214.615,139.609Z" transform="translate(-200.232 -139.312)" fill="#f5f5f5"/>
          <path id="Path_17680" data-name="Path 17680" d="M223.4,157.5a.141.141,0,0,0,.141-.141v-.008a.141.141,0,0,0-.141-.141h0a.141.141,0,0,0-.141.141v.008a.141.141,0,0,0,.141.141Z" transform="translate(-208.43 -156.019)" fill="#f5f5f5"/>
          <path id="Path_17681" data-name="Path 17681" d="M304.3,148.258h-.587a.141.141,0,0,0-.141.141v.015a.141.141,0,0,0,.141.141h.294a.141.141,0,0,1,.141.141v.015a.141.141,0,0,1-.141.141h-.584a.141.141,0,0,1-.141-.141V148.4a.141.141,0,0,0-.141-.141h-1.17a.141.141,0,0,0-.141.141v.6a.141.141,0,0,0,.141.141h.008a.141.141,0,0,0,.141-.141V148.7a.141.141,0,0,1,.141-.141h.587a.141.141,0,0,1,.141.141V149a.141.141,0,0,0,.141.141h1.17a.141.141,0,0,0,.141-.141v-.6A.141.141,0,0,0,304.3,148.258Z" transform="translate(-281.787 -147.664)" fill="#f5f5f5"/>
          <path id="Path_17682" data-name="Path 17682" d="M348.03,139.311h-.008a.141.141,0,0,0-.141.141v.907a.141.141,0,0,1-.141.141h-.008a.141.141,0,0,1-.141-.141v-.907a.141.141,0,0,0-.141-.141h-.008a.141.141,0,0,0-.141.141v.907a.141.141,0,0,1-.141.141h-.008a.141.141,0,0,1-.141-.141v-.907a.141.141,0,0,0-.141-.141h-.008a.141.141,0,0,0-.141.141v.313a.141.141,0,0,1-.141.141H345.7a.141.141,0,0,0-.141.141v.6a.141.141,0,0,0,.141.141h.587a.141.141,0,0,0,.141-.141v-.008a.141.141,0,0,0-.141-.141h-.3a.141.141,0,0,1-.141-.141v-.015a.141.141,0,0,1,.141-.141h.591a.141.141,0,0,1,.141.141v.305a.141.141,0,0,0,.141.141h1.167a.141.141,0,0,0,.141-.141v-1.2A.141.141,0,0,0,348.03,139.311Z" transform="translate(-322.616 -139.311)" fill="#f5f5f5"/>
          <path id="Path_17683" data-name="Path 17683" d="M310.757,157.5a.141.141,0,0,0,.141-.141v-.008a.141.141,0,0,0-.141-.141h0a.141.141,0,0,0-.141.141v.008a.141.141,0,0,0,.141.141Z" transform="translate(-289.985 -156.019)" fill="#f5f5f5"/>
          <path id="Path_17684" data-name="Path 17684" d="M301.971,139.609h3.492a.141.141,0,0,0,.141-.141v-.015a.141.141,0,0,0-.141-.141h-3.492a.141.141,0,0,0-.141.141v.015A.141.141,0,0,0,301.971,139.609Z" transform="translate(-281.787 -139.312)" fill="#f5f5f5"/>
          <path id="Path_17685" data-name="Path 17685" d="M398.063,157.5a.141.141,0,0,0,.141-.141v-.008a.141.141,0,0,0-.141-.141h-.012a.141.141,0,0,0-.141.141v.008a.141.141,0,0,0,.141.141Z" transform="translate(-371.486 -156.019)" fill="#f5f5f5"/>
          <path id="Path_17686" data-name="Path 17686" d="M389.326,139.609h3.492a.141.141,0,0,0,.141-.141v-.015a.141.141,0,0,0-.141-.141h-3.492a.141.141,0,0,0-.141.141v.015A.141.141,0,0,0,389.326,139.609Z" transform="translate(-363.341 -139.312)" fill="#f5f5f5"/>
          <path id="Path_17687" data-name="Path 17687" d="M435.387,139.311h0a.141.141,0,0,0-.141.141v.907a.141.141,0,0,1-.141.141h-.012a.141.141,0,0,1-.141-.141v-.907a.141.141,0,0,0-.141-.141H434.8a.141.141,0,0,0-.141.141v.907a.141.141,0,0,1-.141.141h-.008a.141.141,0,0,1-.141-.141v-.907a.141.141,0,0,0-.141-.141h-.008a.141.141,0,0,0-.141.141v.313a.141.141,0,0,1-.141.141h-.877a.141.141,0,0,0-.141.141v.6a.141.141,0,0,0,.141.141h.587a.141.141,0,0,0,.141-.141v-.008a.141.141,0,0,0-.141-.141h-.294a.141.141,0,0,1-.141-.141v-.015a.141.141,0,0,1,.141-.141h.584a.141.141,0,0,1,.141.141v.305a.141.141,0,0,0,.141.141h1.167a.141.141,0,0,0,.141-.141v-1.2A.141.141,0,0,0,435.387,139.311Z" transform="translate(-404.172 -139.311)" fill="#f5f5f5"/>
          <path id="Path_17688" data-name="Path 17688" d="M391.656,148.258h-.587a.141.141,0,0,0-.141.141v.015a.141.141,0,0,0,.141.141h.3a.141.141,0,0,1,.141.141v.015a.141.141,0,0,1-.141.141h-.595a.141.141,0,0,1-.141-.141V148.4a.141.141,0,0,0-.141-.141h-1.167a.141.141,0,0,0-.141.141v.6a.141.141,0,0,0,.141.141h.008a.141.141,0,0,0,.141-.141V148.7a.141.141,0,0,1,.141-.141h.591a.141.141,0,0,1,.141.141V149a.141.141,0,0,0,.141.141h1.167A.141.141,0,0,0,391.8,149v-.6A.141.141,0,0,0,391.656,148.258Z" transform="translate(-363.342 -147.664)" fill="#f5f5f5"/>
          <path id="Path_17689" data-name="Path 17689" d="M478.338,148.4v.015a.141.141,0,0,0,.141.141h.3a.141.141,0,0,1,.141.141v.015a.141.141,0,0,1-.141.141h-.591a.141.141,0,0,1-.141-.141V148.4a.141.141,0,0,0-.141-.141h-1.167a.141.141,0,0,0-.141.141v.6a.141.141,0,0,0,.141.141h0a.141.141,0,0,0,.141-.141V148.7a.141.141,0,0,1,.141-.141h.587a.141.141,0,0,1,.141.141V149a.141.141,0,0,0,.141.141h1.055v-.884h-.468A.141.141,0,0,0,478.338,148.4Z" transform="translate(-444.947 -147.665)" fill="#f5f5f5"/>
          <path id="Path_17690" data-name="Path 17690" d="M476.6,139.452v.015a.141.141,0,0,0,.141.141h2.21v-.3h-2.21A.141.141,0,0,0,476.6,139.452Z" transform="translate(-444.946 -139.311)" fill="#f5f5f5"/>
          <path id="Path_17691" data-name="Path 17691" d="M485.461,157.5h.008a.141.141,0,0,0,.141-.141v-.008a.141.141,0,0,0-.141-.141h-.008a.141.141,0,0,0-.141.141v.008A.141.141,0,0,0,485.461,157.5Z" transform="translate(-453.092 -156.019)" fill="#f5f5f5"/>
          <path id="Path_17692" data-name="Path 17692" d="M2.351,166.608V166.3a.141.141,0,0,0-.141-.141H0v.594H2.21A.141.141,0,0,0,2.351,166.608Z" transform="translate(0 -164.372)" fill="#f5f5f5"/>
          <path id="Path_17693" data-name="Path 17693" d="M42.236,166.156H39.907a.141.141,0,0,0-.141.141v.313a.141.141,0,0,0,.141.141h2.329a.141.141,0,0,0,.141-.141V166.3A.141.141,0,0,0,42.236,166.156Z" transform="translate(-37.125 -164.373)" fill="#f5f5f5"/>
          <path id="Path_17694" data-name="Path 17694" d="M85.913,166.156H83.584a.141.141,0,0,0-.141.141v.313a.141.141,0,0,0,.141.141h2.329a.141.141,0,0,0,.141-.141V166.3A.141.141,0,0,0,85.913,166.156Z" transform="translate(-77.902 -164.373)" fill="#f5f5f5"/>
          <path id="Path_17695" data-name="Path 17695" d="M129.591,166.156h-2.329a.141.141,0,0,0-.141.141v.313a.141.141,0,0,0,.141.141h2.329a.141.141,0,0,0,.141-.141V166.3A.141.141,0,0,0,129.591,166.156Z" transform="translate(-118.679 -164.373)" fill="#f5f5f5"/>
          <path id="Path_17696" data-name="Path 17696" d="M173.216,166.156h-2.333a.141.141,0,0,0-.141.141v.313a.141.141,0,0,0,.141.141h2.333a.141.141,0,0,0,.141-.141V166.3A.141.141,0,0,0,173.216,166.156Z" transform="translate(-159.404 -164.373)" fill="#f5f5f5"/>
          <path id="Path_17697" data-name="Path 17697" d="M216.944,166.156h-2.329a.141.141,0,0,0-.141.141v.313a.141.141,0,0,0,.141.141h2.329a.141.141,0,0,0,.141-.141V166.3A.141.141,0,0,0,216.944,166.156Z" transform="translate(-200.232 -164.373)" fill="#f5f5f5"/>
          <path id="Path_17698" data-name="Path 17698" d="M260.622,166.156h-2.329a.141.141,0,0,0-.141.141v.313a.141.141,0,0,0,.141.141h2.329a.141.141,0,0,0,.141-.141V166.3A.141.141,0,0,0,260.622,166.156Z" transform="translate(-241.009 -164.373)" fill="#f5f5f5"/>
          <path id="Path_17699" data-name="Path 17699" d="M348.031,166.156h-2.325a.141.141,0,0,0-.141.141v.313a.141.141,0,0,0,.141.141h2.325a.141.141,0,0,0,.141-.141V166.3A.141.141,0,0,0,348.031,166.156Z" transform="translate(-322.617 -164.373)" fill="#f5f5f5"/>
          <path id="Path_17700" data-name="Path 17700" d="M304.3,166.156H301.97a.141.141,0,0,0-.141.141v.313a.141.141,0,0,0,.141.141H304.3a.141.141,0,0,0,.141-.141V166.3A.141.141,0,0,0,304.3,166.156Z" transform="translate(-281.786 -164.373)" fill="#f5f5f5"/>
          <path id="Path_17701" data-name="Path 17701" d="M391.655,166.156h-2.329a.141.141,0,0,0-.141.141v.313a.141.141,0,0,0,.141.141h2.329a.141.141,0,0,0,.141-.141V166.3A.141.141,0,0,0,391.655,166.156Z" transform="translate(-363.341 -164.373)" fill="#f5f5f5"/>
          <path id="Path_17702" data-name="Path 17702" d="M435.386,166.156h-2.325a.141.141,0,0,0-.141.141v.313a.141.141,0,0,0,.141.141h2.325a.141.141,0,0,0,.141-.141V166.3A.141.141,0,0,0,435.386,166.156Z" transform="translate(-404.171 -164.373)" fill="#f5f5f5"/>
          <path id="Path_17703" data-name="Path 17703" d="M476.6,166.3v.313a.141.141,0,0,0,.141.141h2.21v-.594h-2.21A.141.141,0,0,0,476.6,166.3Z" transform="translate(-444.946 -164.373)" fill="#f5f5f5"/>
          <path id="Path_17704" data-name="Path 17704" d="M478.341,350.57v.008a.141.141,0,0,0,.141.141h.3a.141.141,0,0,1,.141.141v.015a.141.141,0,0,1-.141.141H478.2a.141.141,0,0,1-.141-.141v-.305a.141.141,0,0,0-.141-.141H476.74a.141.141,0,0,0-.141.141v1.2a.141.141,0,0,0,.141.141h.008a.141.141,0,0,0,.141-.141v-.907a.141.141,0,0,1,.141-.141h.012a.141.141,0,0,1,.141.141v.907a.141.141,0,0,0,.141.141h0a.141.141,0,0,0,.141-.141v-.907a.141.141,0,0,1,.141-.141h.012a.141.141,0,0,1,.141.141v.907a.141.141,0,0,0,.141.141h.012a.141.141,0,0,0,.141-.141v-.312a.141.141,0,0,1,.141-.141h.754v-.884h-.468A.141.141,0,0,0,478.341,350.57Z" transform="translate(-444.95 -336.409)" fill="#f5f5f5"/>
          <path id="Path_17705" data-name="Path 17705" d="M502.827,368.354v.015a.141.141,0,0,0,.141.141h.468v-.3h-.468A.141.141,0,0,0,502.827,368.354Z" transform="translate(-469.436 -353.012)" fill="#f5f5f5"/>
          <path id="Path_17706" data-name="Path 17706" d="M459.3,350.719a.141.141,0,0,0,.141-.141v-.008a.141.141,0,0,0-.141-.141h-.008a.141.141,0,0,0-.141.141v.008a.141.141,0,0,0,.141.141Z" transform="translate(-428.659 -336.409)" fill="#f5f5f5"/>
          <path id="Path_17707" data-name="Path 17707" d="M391.854,351.172v-.6a.141.141,0,0,0-.141-.141h-.591a.141.141,0,0,0-.141.141v.008a.141.141,0,0,0,.141.141h.3a.141.141,0,0,1,.141.141v.015a.141.141,0,0,1-.141.141h-.587a.141.141,0,0,1-.141-.141v-.305a.141.141,0,0,0-.141-.141h-1.17a.141.141,0,0,0-.141.141v1.2a.141.141,0,0,0,.141.141h.008a.141.141,0,0,0,.141-.141v-.907a.141.141,0,0,1,.141-.141h0a.141.141,0,0,1,.141.141v.907a.141.141,0,0,0,.141.141h.012a.141.141,0,0,0,.141-.141v-.907a.141.141,0,0,1,.141-.141h.012a.141.141,0,0,1,.141.141v.907a.141.141,0,0,0,.141.141h.008a.141.141,0,0,0,.141-.141v-.313a.141.141,0,0,1,.141-.141h.877A.141.141,0,0,0,391.854,351.172Z" transform="translate(-363.395 -336.409)" fill="#f5f5f5"/>
          <path id="Path_17708" data-name="Path 17708" d="M419.045,368.213h-3.492a.141.141,0,0,0-.141.141v.015a.141.141,0,0,0,.141.141h3.492a.141.141,0,0,0,.141-.141v-.015A.141.141,0,0,0,419.045,368.213Z" transform="translate(-387.827 -353.012)" fill="#f5f5f5"/>
          <path id="Path_17709" data-name="Path 17709" d="M435.391,350.429h-.008a.141.141,0,0,0-.141.141v.305a.141.141,0,0,1-.141.141h-.587a.141.141,0,0,1-.141-.141v-.305a.141.141,0,0,0-.141-.141h-1.17a.141.141,0,0,0-.141.141v.6a.141.141,0,0,0,.141.141h.587a.141.141,0,0,0,.141-.141v-.015a.141.141,0,0,0-.141-.141h-.3a.141.141,0,0,1-.141-.141v-.015a.141.141,0,0,1,.141-.141h.591a.141.141,0,0,1,.141.141v.313a.141.141,0,0,0,.141.141h1.167a.141.141,0,0,0,.141-.141v-.6A.141.141,0,0,0,435.391,350.429Z" transform="translate(-404.172 -336.409)" fill="#f5f5f5"/>
          <path id="Path_17710" data-name="Path 17710" d="M304.5,351.172v-.6a.141.141,0,0,0-.141-.141h-.591a.141.141,0,0,0-.141.141v.008a.141.141,0,0,0,.141.141h.3a.141.141,0,0,1,.141.141v.015a.141.141,0,0,1-.141.141h-.591a.141.141,0,0,1-.141-.141v-.305a.141.141,0,0,0-.141-.141h-1.167a.141.141,0,0,0-.141.141v1.2a.141.141,0,0,0,.141.141h.008a.141.141,0,0,0,.141-.141v-.907a.141.141,0,0,1,.141-.141h.008a.141.141,0,0,1,.141.141v.907a.141.141,0,0,0,.141.141h.012a.141.141,0,0,0,.141-.141v-.907a.141.141,0,0,1,.141-.141h0a.141.141,0,0,1,.141.141v.907a.141.141,0,0,0,.141.141h.008a.141.141,0,0,0,.141-.141v-.313a.141.141,0,0,1,.141-.141h.884A.141.141,0,0,0,304.5,351.172Z" transform="translate(-281.84 -336.409)" fill="#f5f5f5"/>
          <path id="Path_17711" data-name="Path 17711" d="M331.745,368.213h-3.488a.141.141,0,0,0-.141.141v.015a.141.141,0,0,0,.141.141h3.488a.141.141,0,0,0,.141-.141v-.015A.141.141,0,0,0,331.745,368.213Z" transform="translate(-306.327 -353.012)" fill="#f5f5f5"/>
          <path id="Path_17712" data-name="Path 17712" d="M371.942,350.719a.141.141,0,0,0,.141-.141v-.008a.141.141,0,0,0-.141-.141h-.008a.141.141,0,0,0-.141.141v.008a.141.141,0,0,0,.141.141Z" transform="translate(-347.104 -336.409)" fill="#f5f5f5"/>
          <path id="Path_17713" data-name="Path 17713" d="M348.035,350.429h-.008a.141.141,0,0,0-.141.141v.305a.141.141,0,0,1-.141.141h-.587a.141.141,0,0,1-.141-.141v-.305a.141.141,0,0,0-.141-.141h-1.17a.141.141,0,0,0-.141.141v.6a.141.141,0,0,0,.141.141h.591a.141.141,0,0,0,.141-.141v-.015a.141.141,0,0,0-.141-.141H346a.141.141,0,0,1-.141-.141v-.015a.141.141,0,0,1,.141-.141h.587a.141.141,0,0,1,.141.141v.313a.141.141,0,0,0,.141.141h1.167a.141.141,0,0,0,.141-.141v-.6A.141.141,0,0,0,348.035,350.429Z" transform="translate(-322.617 -336.409)" fill="#f5f5f5"/>
          <path id="Path_17714" data-name="Path 17714" d="M217.142,351.172v-.6a.141.141,0,0,0-.141-.141h-.591a.141.141,0,0,0-.141.141v.008a.141.141,0,0,0,.141.141h.3a.141.141,0,0,1,.141.141v.015a.141.141,0,0,1-.141.141h-.591a.141.141,0,0,1-.141-.141v-.305a.141.141,0,0,0-.141-.141h-1.167a.141.141,0,0,0-.141.141v1.2a.141.141,0,0,0,.141.141h.008a.141.141,0,0,0,.141-.141v-.907a.141.141,0,0,1,.141-.141h.008a.141.141,0,0,1,.141.141v.907a.141.141,0,0,0,.141.141h.008a.141.141,0,0,0,.141-.141v-.907a.141.141,0,0,1,.141-.141h.008a.141.141,0,0,1,.141.141v.907a.141.141,0,0,0,.141.141h.008a.141.141,0,0,0,.141-.141v-.313a.141.141,0,0,1,.141-.141H217A.141.141,0,0,0,217.142,351.172Z" transform="translate(-200.285 -336.409)" fill="#f5f5f5"/>
          <path id="Path_17715" data-name="Path 17715" d="M284.583,350.719a.141.141,0,0,0,.141-.141v-.008a.141.141,0,0,0-.141-.141h0a.141.141,0,0,0-.141.141v.008a.141.141,0,0,0,.141.141Z" transform="translate(-265.55 -336.409)" fill="#f5f5f5"/>
          <path id="Path_17716" data-name="Path 17716" d="M260.679,350.429h-.008a.141.141,0,0,0-.141.141v.305a.141.141,0,0,1-.141.141H259.8a.141.141,0,0,1-.141-.141v-.305a.141.141,0,0,0-.141-.141h-1.17a.141.141,0,0,0-.141.141v.6a.141.141,0,0,0,.141.141h.591a.141.141,0,0,0,.141-.141v-.015a.141.141,0,0,0-.141-.141h-.3a.141.141,0,0,1-.141-.141v-.015a.141.141,0,0,1,.141-.141h.587a.141.141,0,0,1,.141.141v.313a.141.141,0,0,0,.141.141h1.17a.141.141,0,0,0,.141-.141v-.6A.141.141,0,0,0,260.679,350.429Z" transform="translate(-241.062 -336.409)" fill="#f5f5f5"/>
          <path id="Path_17717" data-name="Path 17717" d="M244.337,368.213h-3.492a.141.141,0,0,0-.141.141v.015a.141.141,0,0,0,.141.141h3.492a.141.141,0,0,0,.141-.141v-.015A.141.141,0,0,0,244.337,368.213Z" transform="translate(-224.721 -353.012)" fill="#f5f5f5"/>
          <path id="Path_17718" data-name="Path 17718" d="M173.322,350.429h-.008a.141.141,0,0,0-.141.141v.305a.141.141,0,0,1-.141.141h-.587a.141.141,0,0,1-.141-.141v-.305a.141.141,0,0,0-.141-.141h-1.17a.141.141,0,0,0-.141.141v.6a.141.141,0,0,0,.141.141h.587a.141.141,0,0,0,.141-.141v-.015a.141.141,0,0,0-.141-.141h-.294a.141.141,0,0,1-.141-.141v-.015a.141.141,0,0,1,.141-.141h.584a.141.141,0,0,1,.141.141v.313a.141.141,0,0,0,.141.141h1.17a.141.141,0,0,0,.141-.141v-.6A.141.141,0,0,0,173.322,350.429Z" transform="translate(-159.506 -336.409)" fill="#f5f5f5"/>
          <path id="Path_17719" data-name="Path 17719" d="M197.227,350.719a.141.141,0,0,0,.141-.141v-.008a.141.141,0,0,0-.141-.141h0a.141.141,0,0,0-.141.141v.008a.141.141,0,0,0,.141.141Z" transform="translate(-183.995 -336.409)" fill="#f5f5f5"/>
          <path id="Path_17720" data-name="Path 17720" d="M156.981,368.213H153.49a.141.141,0,0,0-.141.141v.015a.141.141,0,0,0,.141.141h3.492a.141.141,0,0,0,.141-.141v-.015A.141.141,0,0,0,156.981,368.213Z" transform="translate(-143.166 -353.012)" fill="#f5f5f5"/>
          <path id="Path_17721" data-name="Path 17721" d="M129.783,351.172v-.6a.141.141,0,0,0-.141-.141h-.587a.141.141,0,0,0-.141.141v.008a.141.141,0,0,0,.141.141h.3a.141.141,0,0,1,.141.141v.015a.141.141,0,0,1-.141.141h-.591a.141.141,0,0,1-.141-.141v-.305a.141.141,0,0,0-.141-.141h-1.167a.141.141,0,0,0-.141.141v1.2a.141.141,0,0,0,.141.141h.008a.141.141,0,0,0,.141-.141v-.907a.141.141,0,0,1,.141-.141h.008a.141.141,0,0,1,.141.141v.907a.141.141,0,0,0,.141.141h.008a.141.141,0,0,0,.141-.141v-.907a.141.141,0,0,1,.141-.141h.008a.141.141,0,0,1,.141.141v.907a.141.141,0,0,0,.141.141h.008a.141.141,0,0,0,.141-.141v-.313a.141.141,0,0,1,.141-.141h.877A.141.141,0,0,0,129.783,351.172Z" transform="translate(-118.731 -336.409)" fill="#f5f5f5"/>
          <path id="Path_17722" data-name="Path 17722" d="M109.825,350.719a.141.141,0,0,0,.141-.141v-.008a.141.141,0,0,0-.141-.141h-.012a.141.141,0,0,0-.141.141v.008a.141.141,0,0,0,.141.141Z" transform="translate(-102.389 -336.409)" fill="#f5f5f5"/>
          <path id="Path_17723" data-name="Path 17723" d="M85.968,350.429H85.96a.141.141,0,0,0-.141.141v.305a.141.141,0,0,1-.141.141h-.591a.141.141,0,0,1-.141-.141v-.305a.141.141,0,0,0-.141-.141H83.639a.141.141,0,0,0-.141.141v.6a.141.141,0,0,0,.141.141h.587a.141.141,0,0,0,.141-.141v-.015a.141.141,0,0,0-.141-.141h-.3a.141.141,0,0,1-.141-.141v-.015a.141.141,0,0,1,.141-.141h.595a.141.141,0,0,1,.141.141v.313a.141.141,0,0,0,.141.141h1.167a.141.141,0,0,0,.141-.141v-.6A.141.141,0,0,0,85.968,350.429Z" transform="translate(-77.953 -336.409)" fill="#f5f5f5"/>
          <path id="Path_17724" data-name="Path 17724" d="M42.43,351.172v-.6a.141.141,0,0,0-.141-.141H41.7a.141.141,0,0,0-.141.141v.008a.141.141,0,0,0,.141.141H42a.141.141,0,0,1,.141.141v.015a.141.141,0,0,1-.141.141h-.584a.141.141,0,0,1-.141-.141v-.305a.141.141,0,0,0-.141-.141H39.964a.141.141,0,0,0-.141.141v1.2a.141.141,0,0,0,.141.141h0a.141.141,0,0,0,.141-.141v-.907a.141.141,0,0,1,.141-.141h.012a.141.141,0,0,1,.141.141v.907a.141.141,0,0,0,.141.141h.008a.141.141,0,0,0,.141-.141v-.907a.141.141,0,0,1,.141-.141h.008a.141.141,0,0,1,.141.141v.907a.141.141,0,0,0,.141.141h.008a.141.141,0,0,0,.141-.141v-.313a.141.141,0,0,1,.141-.141h.877A.141.141,0,0,0,42.43,351.172Z" transform="translate(-37.179 -336.409)" fill="#f5f5f5"/>
          <path id="Path_17725" data-name="Path 17725" d="M69.626,368.213H66.135a.141.141,0,0,0-.141.141v.015a.141.141,0,0,0,.141.141h3.492a.141.141,0,0,0,.141-.141v-.015A.141.141,0,0,0,69.626,368.213Z" transform="translate(-61.612 -353.012)" fill="#f5f5f5"/>
          <path id="Path_17726" data-name="Path 17726" d="M.609,351.173v-.015a.141.141,0,0,0-.141-.141h-.3a.141.141,0,0,1-.141-.141v-.015a.141.141,0,0,1,.141-.141H.762a.141.141,0,0,1,.141.141v.313a.141.141,0,0,0,.141.141H2.21a.141.141,0,0,0,.141-.141v-.6a.141.141,0,0,0-.141-.141h0a.141.141,0,0,0-.141.141v.305a.141.141,0,0,1-.141.141H1.337a.141.141,0,0,1-.141-.141v-.305a.141.141,0,0,0-.141-.141H0v.884H.468A.141.141,0,0,0,.609,351.173Z" transform="translate(0 -336.41)" fill="#f5f5f5"/>
          <path id="Path_17727" data-name="Path 17727" d="M2.351,368.37v-.015a.141.141,0,0,0-.141-.141H0v.3H2.21A.141.141,0,0,0,2.351,368.37Z" transform="translate(0 -353.013)" fill="#f5f5f5"/>
          <path id="Path_17728" data-name="Path 17728" d="M22.465,350.429h-.008a.141.141,0,0,0-.141.141v.008a.141.141,0,0,0,.141.141h.008a.141.141,0,0,0,.141-.141v-.008A.141.141,0,0,0,22.465,350.429Z" transform="translate(-20.834 -336.409)" fill="#f5f5f5"/>
          <path id="Path_17729" data-name="Path 17729" d="M476.6,337.038v.313a.141.141,0,0,0,.141.141h2.21V336.9h-2.21A.141.141,0,0,0,476.6,337.038Z" transform="translate(-444.949 -323.776)" fill="#f5f5f5"/>
          <path id="Path_17730" data-name="Path 17730" d="M389.384,337.491h2.329a.141.141,0,0,0,.141-.141v-.312a.141.141,0,0,0-.141-.141h-2.329a.141.141,0,0,0-.141.141v.313A.141.141,0,0,0,389.384,337.491Z" transform="translate(-363.395 -323.776)" fill="#f5f5f5"/>
          <path id="Path_17731" data-name="Path 17731" d="M435.39,336.9h-2.329a.141.141,0,0,0-.141.141v.313a.141.141,0,0,0,.141.141h2.329a.141.141,0,0,0,.141-.141v-.312A.141.141,0,0,0,435.39,336.9Z" transform="translate(-404.171 -323.776)" fill="#f5f5f5"/>
          <path id="Path_17732" data-name="Path 17732" d="M348.035,336.9h-2.329a.141.141,0,0,0-.141.141v.313a.141.141,0,0,0,.141.141h2.329a.141.141,0,0,0,.141-.141v-.312A.141.141,0,0,0,348.035,336.9Z" transform="translate(-322.617 -323.776)" fill="#f5f5f5"/>
          <path id="Path_17733" data-name="Path 17733" d="M302.028,337.491h2.333a.141.141,0,0,0,.141-.141v-.312a.141.141,0,0,0-.141-.141h-2.333a.141.141,0,0,0-.141.141v.313A.141.141,0,0,0,302.028,337.491Z" transform="translate(-281.84 -323.776)" fill="#f5f5f5"/>
          <path id="Path_17734" data-name="Path 17734" d="M214.672,337.491H217a.141.141,0,0,0,.141-.141v-.312A.141.141,0,0,0,217,336.9h-2.329a.141.141,0,0,0-.141.141v.313A.141.141,0,0,0,214.672,337.491Z" transform="translate(-200.285 -323.776)" fill="#f5f5f5"/>
          <path id="Path_17735" data-name="Path 17735" d="M260.679,336.9H258.35a.141.141,0,0,0-.141.141v.313a.141.141,0,0,0,.141.141h2.329a.141.141,0,0,0,.141-.141v-.312A.141.141,0,0,0,260.679,336.9Z" transform="translate(-241.062 -323.776)" fill="#f5f5f5"/>
          <path id="Path_17736" data-name="Path 17736" d="M173.323,336.9h-2.329a.141.141,0,0,0-.141.141v.313a.141.141,0,0,0,.141.141h2.329a.141.141,0,0,0,.141-.141v-.312A.141.141,0,0,0,173.323,336.9Z" transform="translate(-159.507 -323.776)" fill="#f5f5f5"/>
          <path id="Path_17737" data-name="Path 17737" d="M127.317,337.491h2.325a.141.141,0,0,0,.141-.141v-.312a.141.141,0,0,0-.141-.141h-2.325a.141.141,0,0,0-.141.141v.313A.141.141,0,0,0,127.317,337.491Z" transform="translate(-118.731 -323.776)" fill="#f5f5f5"/>
          <path id="Path_17738" data-name="Path 17738" d="M85.968,336.9H83.639a.141.141,0,0,0-.141.141v.313a.141.141,0,0,0,.141.141h2.329a.141.141,0,0,0,.141-.141v-.312A.141.141,0,0,0,85.968,336.9Z" transform="translate(-77.953 -323.776)" fill="#f5f5f5"/>
          <path id="Path_17739" data-name="Path 17739" d="M39.964,337.491h2.325a.141.141,0,0,0,.141-.141v-.312a.141.141,0,0,0-.141-.141H39.964a.141.141,0,0,0-.141.141v.313A.141.141,0,0,0,39.964,337.491Z" transform="translate(-37.179 -323.776)" fill="#f5f5f5"/>
          <path id="Path_17740" data-name="Path 17740" d="M2.351,337.35v-.312a.141.141,0,0,0-.141-.141H0v.594H2.21A.141.141,0,0,0,2.351,337.35Z" transform="translate(0 -323.776)" fill="#f5f5f5"/>
        </g>
        <g id="Group_6948" data-name="Group 6948" transform="translate(12.861 12.953)">
          <path id="Path_17741" data-name="Path 17741" d="M240.953,195.788a2.573,2.573,0,0,1,1.428-.15.6.6,0,0,0,.164-.582.692.692,0,0,1-.957.227c-.017-.011-.039-.022-.053-.033a.7.7,0,0,1-.976-.139.611.611,0,0,0-.036-.056A.6.6,0,0,0,240.953,195.788Z" transform="translate(-237.393 -195.056)" fill="#ff4b55"/>
          <path id="Path_17742" data-name="Path 17742" d="M218.831,215.99a3.781,3.781,0,0,0,.813-6.069.045.045,0,0,0-.069.058,4.113,4.113,0,0,1-1.032,5.423l.081-5.192a.229.229,0,0,0-.085-.182l-.276-.223a.229.229,0,0,0-.289,0l-.272.222a.229.229,0,0,0-.084.181l.079,5.2a4.119,4.119,0,0,1-1.035-5.426.045.045,0,0,0-.069-.057,3.781,3.781,0,0,0,.813,6.069,4.189,4.189,0,0,1-1.478.234.045.045,0,0,0-.013.089,3.761,3.761,0,0,0,1.92.069l.243.472a.045.045,0,0,0,.08,0l.245-.472a3.768,3.768,0,0,0,1.92-.069.045.045,0,0,0-.013-.089A4.208,4.208,0,0,1,218.831,215.99Z" transform="translate(-213.98 -208.778)" fill="#ff4b55"/>
          <path id="Path_17743" data-name="Path 17743" d="M286.677,209.6a3.218,3.218,0,0,0-1.77-1.518.046.046,0,0,0-.045.078,4.1,4.1,0,0,1,.711,5.584c-.067.089-.139.183-.208.261A3.245,3.245,0,0,0,286.677,209.6Z" transform="translate(-278.791 -207.21)" fill="#ff4b55"/>
          <path id="Path_17744" data-name="Path 17744" d="M195.164,213.741a4.1,4.1,0,0,1,.708-5.584.046.046,0,0,0-.046-.078,3.252,3.252,0,0,0-.452,5.922A2.409,2.409,0,0,1,195.164,213.741Z" transform="translate(-193.665 -207.212)" fill="#ff4b55"/>
        </g>
      </g>
    </g>
  </g>
</svg>
