<svg xmlns="http://www.w3.org/2000/svg" width="20" height="18" viewBox="0 0 20 18">
  <g id="SMALL_ADA" data-name="SMALL ADA" transform="translate(2639 -787)">
    <path id="Path_17650" data-name="Path 17650" d="M14.755,6.054a.553.553,0,0,1,.737.716.573.573,0,0,1-.906.174.548.548,0,0,1,.169-.891Zm-4.689.492a.432.432,0,1,1-.052.8A.428.428,0,0,1,10.066,6.546Zm9.6.8a.424.424,0,0,1-.082-.81.477.477,0,0,1,.639.414A.48.48,0,0,1,19.669,7.35ZM11.133,8.489a.671.671,0,1,1-.1,1.091A.653.653,0,0,1,11.133,8.489Zm6.758.29a.679.679,0,1,1,.776.94.693.693,0,0,1-.776-.94Zm-3.7.912A.832.832,0,0,1,15,8.918a.891.891,0,0,1,.695.439.77.77,0,0,1-.373,1.061,1.09,1.09,0,0,1-.6.05.844.844,0,0,1-.535-.777Zm-6.973.621a.556.556,0,0,1,.8.627.571.571,0,0,1-.887.285.544.544,0,0,1,.091-.912Zm14.973,0a.551.551,0,1,1,.061.937.539.539,0,0,1-.061-.937Zm-6.039.766a1.375,1.375,0,0,1,1.561.531,1.306,1.306,0,0,1-.461,1.86,1.373,1.373,0,0,1-1.937-.683,1.31,1.31,0,0,1,.837-1.709Zm-3.323.066a1.381,1.381,0,0,1,1.775.578,1.3,1.3,0,0,1-.557,1.77,1.375,1.375,0,0,1-1.848-.567,1.312,1.312,0,0,1,.629-1.781ZM9.5,12.249a.845.845,0,0,1,.814-.677.887.887,0,0,1,.791.772.832.832,0,0,1-.789.8A.78.78,0,0,1,9.5,12.249Zm9.825-.591A.787.787,0,1,1,19.268,13a.771.771,0,0,1,.059-1.344Zm-7.85,2.077a1.377,1.377,0,0,1,1.531.631,1.293,1.293,0,0,1-.3,1.637,1.38,1.38,0,0,1-2.1-.432,1.317,1.317,0,0,1,.87-1.837Zm6.3,0a1.383,1.383,0,0,1,1.533.556,1.3,1.3,0,0,1-.387,1.8,1.384,1.384,0,0,1-1.943-.467,1.317,1.317,0,0,1,.8-1.887Zm-10.042.654a.675.675,0,0,1,.855.84.683.683,0,0,1-1.093.279.659.659,0,0,1,.238-1.119Zm13.615.7a.756.756,0,0,1,.717-.787.71.71,0,0,1,.651.689.678.678,0,0,1-.986.583A.9.9,0,0,1,21.352,15.091ZM5.267,14.627a.435.435,0,0,1,.607.453.442.442,0,0,1-.783.2.431.431,0,0,1,.176-.657Zm19.054-.008a.441.441,0,0,1,.639.2.429.429,0,1,1-.639-.2ZM13.119,16.4a1.325,1.325,0,1,1,.051,2.577,1.31,1.31,0,0,1-.051-2.577Zm3.149,0a1.324,1.324,0,1,1,.1,2.577,1.318,1.318,0,0,1-1.094-1.606,1.344,1.344,0,0,1,.99-.973Zm-6.072.491a.788.788,0,0,1,.856,1.03.809.809,0,0,1-1.352.25A.78.78,0,0,1,10.2,16.885Zm9.236.024a.785.785,0,1,1-.15,1.383.774.774,0,0,1,.15-1.383Zm2.581,2.521a.543.543,0,0,1,.564-.757.687.687,0,0,1,.469.28c.026.21.071.46-.108.621a.563.563,0,0,1-.925-.144Zm-14.8-.659a.561.561,0,0,1,.835.549.571.571,0,0,1-.86.382A.542.542,0,0,1,7.216,18.772Zm7.452.8a.784.784,0,1,1-.148,1.376A.775.775,0,0,1,14.668,19.567Zm-3.451.784a.674.674,0,0,1,.946.616.661.661,0,0,1-.746.641.748.748,0,0,1-.623-.545.734.734,0,0,1,.423-.711Zm6.991.007a.671.671,0,1,1-.08,1.108A.658.658,0,0,1,18.208,20.358Zm1.216,2.927a.463.463,0,0,1,.346-.689c.252.05.518.234.465.517a.45.45,0,0,1-.81.173Zm-9.651-.246a.487.487,0,0,1,.534-.389.427.427,0,0,1,.166.788A.474.474,0,0,1,9.773,23.039Zm4.657.258a.558.558,0,0,1,.808-.318.625.625,0,0,1,.3.468q-.039.139-.073.279a.637.637,0,0,1-.471.27.544.544,0,0,1-.563-.7Z" transform="translate(-2644 781)" fill="#fff"/>
  </g>
</svg>
