<svg xmlns="http://www.w3.org/2000/svg" width="16.887" height="14.618" viewBox="0 0 16.887 14.618">
  <g id="SMALL_XLM" data-name="SMALL XLM" transform="translate(0.5 0.588)">
    <path id="Path_2003" data-name="Path 2003" d="M13.645,1.748l-1.913.975L2.494,7.428a5.5,5.5,0,0,1,8.139-5.516l1.095-.558.163-.083a6.722,6.722,0,0,0-10.67,5.44q0,.257.019.512A1.223,1.223,0,0,1,.577,8.4L0,8.7v1.373l1.7-.866h0l.55-.281.542-.276h0l9.738-4.962,1.094-.557,2.262-1.153V.6Z" transform="translate(0 0.011)" fill="#fff" stroke="#fff" stroke-width="1"/>
    <path id="Path_2004" data-name="Path 2004" d="M15.887,50,3.346,56.385l-1.094.559L0,58.091v1.372l2.236-1.139,1.913-.975L13.4,52.638a5.609,5.609,0,0,1,.047.723,5.5,5.5,0,0,1-8.194,4.8l-.067.036-1.187.6a6.722,6.722,0,0,0,10.67-5.437c0-.173-.007-.345-.019-.516a1.223,1.223,0,0,1,.663-1.182l.578-.294Z" transform="translate(0 -46.639)" fill="#fff" stroke="#fff" stroke-width="1"/>
  </g>
</svg>
