<svg xmlns="http://www.w3.org/2000/svg" width="14.5" height="17.059" viewBox="0 0 14.5 17.059">
  <g id="SMALL_TRX" data-name="SMALL TRX" transform="translate(2636 -878)">
    <path id="Path_17653" data-name="Path 17653" d="M22.283,11.492c-.682-.484-1.411-1-2.124-1.511-.016-.012-.032-.024-.051-.036a.955.955,0,0,0-.28-.16l-.009,0q-2.861-.7-5.722-1.411l-5.1-1.26-.134-.036a1.3,1.3,0,0,0-.52-.068.359.359,0,0,0-.145.056l-.048.04a.589.589,0,0,0-.134.216L8,7.351v.183l.009.028c1.075,3.058,2.178,6.16,3.243,9.162.82,2.311,1.672,4.7,2.5,7.056a.418.418,0,0,0,.379.28h.039a.443.443,0,0,0,.394-.22l3.122-4.617q1.14-1.685,2.282-3.373l.934-1.383c.512-.759,1.041-1.543,1.565-2.306l.027-.039v-.049a.61.61,0,0,0-.213-.58m-3.657,1.684c-.734.387-1.482.787-2.235,1.183l1.317-1.431c.548-.6,1.119-1.22,1.679-1.827l.012-.012a1.776,1.776,0,0,1,.17-.188c.043-.043.09-.088.134-.14.292.2.587.412.871.616q.307.221.627.444-1.292.669-2.574,1.355m-1.883-.192c-.564.619-1.147,1.255-1.726,1.882q-1.686-2.075-3.382-4.141L10.116,8.873l0,0c-.114-.131-.225-.276-.335-.411-.071-.092-.146-.18-.221-.272.457.119.919.232,1.372.339.4.1.812.2,1.218.3l6.862,1.691c-.761.824-1.526,1.659-2.266,2.467m-1.983,7.791c.043-.42.091-.851.131-1.275.036-.34.071-.687.107-1.019.055-.532.114-1.083.162-1.623l.011-.1c.039-.345.078-.7.1-1.056a1.177,1.177,0,0,1,.142-.068,1.688,1.688,0,0,0,.177-.087q1.365-.728,2.735-1.447c.911-.479,1.845-.976,2.771-1.467q-1.261,1.852-2.511,3.71c-.705,1.042-1.43,2.118-2.152,3.177-.283.424-.579.856-.859,1.271-.316.464-.639.939-.954,1.416.039-.48.086-.964.137-1.436M9.266,9.129c-.051-.144-.107-.292-.154-.432,1.064,1.3,2.136,2.614,3.181,3.885.54.659,1.08,1.315,1.62,1.979.107.124.213.256.316.384.134.164.268.336.414.5-.048.411-.087.827-.131,1.227-.027.28-.055.56-.086.844v0c-.012.179-.036.36-.055.536l-.09.8,0,.027c-.071.808-.158,1.623-.241,2.415-.035.328-.067.664-.1,1-.02-.06-.043-.12-.063-.177q-.09-.244-.173-.491l-.422-1.187L9.265,9.129" transform="translate(-2644 871)" fill="#fff"/>
  </g>
</svg>
