<svg xmlns="http://www.w3.org/2000/svg" width="13.928" height="20.708" viewBox="0 0 13.928 20.708">
  <g id="SMALL_EOS" data-name="SMALL EOS" transform="translate(2635.963 -920.4)">
    <path id="eos" d="M34.915,16.038v-.016L32.784,6.281a.322.322,0,0,0-.064-.128L28.314.128a.32.32,0,0,0-.513,0L23.4,6.152a.322.322,0,0,0-.064.128L21.2,16.022v.144c0,.016.016.048.016.064a.285.285,0,0,0,.112.128h.016l6.537,4.1a.323.323,0,0,0,.176.048.365.365,0,0,0,.176-.048l6.537-4.1h.016a.432.432,0,0,0,.112-.128.1.1,0,0,0,.016-.064.176.176,0,0,0,0-.128Zm-1.073-1.955L31.6,10.126l.817-2.564ZM28.378,1.3l3.733,5.111-.945,2.98L28.378,4.454Zm-.32,3.893,2.852,5.015-1.762,5.56H26.984l-1.762-5.56ZM27.737,1.3V4.454L24.949,9.373,24,6.409ZM23.7,7.578l.817,2.564L22.273,14.1,23.7,7.578Zm1.089,3.4,1.522,4.807H22.065Zm-2.163,5.431h3.893l.961,3.044Zm5.431,2.74-.865-2.74h1.746Zm.577.3.961-3.044h3.893l-4.855,3.044Zm1.17-3.685,1.522-4.807,2.724,4.807Z" transform="translate(-2657.063 920.5)" fill="#fff" stroke="#fff" stroke-width="0.2"/>
  </g>
</svg>
