<svg xmlns="http://www.w3.org/2000/svg" width="83.043" height="62.563" viewBox="0 0 83.043 62.563">
  <g id="Group_6938" data-name="Group 6938" transform="translate(-50.211 -283.912)">
    <g id="Group_6934" data-name="Group 6934" transform="translate(89.776 283.913)">
      <path id="Path_17644" data-name="Path 17644" d="M122.143,350.548h.2a5.518,5.518,0,0,0,5.05-3.295l-1.21-.683a4.143,4.143,0,0,1-3.84,2.6h-.2Z" transform="translate(-122.143 -312.108)" fill="#fff"/>
      <path id="Path_17645" data-name="Path 17645" d="M160.634,292.438a33.6,33.6,0,0,1,2.931,2.537,34.695,34.695,0,0,1-7.361,54.649h2.632a36.043,36.043,0,0,0,2.714-58.289Z" transform="translate(-137.469 -287.252)" fill="#fff"/>
      <path id="Path_17646" data-name="Path 17646" d="M122.143,348.276h.216a9.025,9.025,0,0,0,8.17-12.848l-1.262.564a7.64,7.64,0,0,1-6.908,10.906h-.216Z" transform="translate(-122.143 -307.094)" fill="#fff"/>
      <path id="Path_17647" data-name="Path 17647" d="M122.143,352.416h.216a11.836,11.836,0,0,0,11.62-14.016l-1.377.15a10.449,10.449,0,0,1-10.244,12.49h-.216Z" transform="translate(-122.143 -308.43)" fill="#fff"/>
      <path id="Path_17648" data-name="Path 17648" d="M134.389,331.69a13.17,13.17,0,0,1-11.9,18.807h-.341v1.379h.341a14.558,14.558,0,0,0,13.172-20.741Z" transform="translate(-122.143 -305.161)" fill="#fff"/>
      <path id="Path_17649" data-name="Path 17649" d="M122.143,351.659h.329a17.319,17.319,0,0,0,14.275-27.124l-1.13.784a15.943,15.943,0,0,1-13.144,24.962h-.329Z" transform="translate(-122.143 -302.192)" fill="#fff"/>
      <path id="Path_17650" data-name="Path 17650" d="M122.144,348.235q.337.012.678.012a19.88,19.88,0,0,0,9.569-37.3l-.673,1.2a18.5,18.5,0,0,1-8.895,34.727q-.341,0-.678-.012Z" transform="translate(-122.143 -296.076)" fill="#fff"/>
      <path id="Path_17651" data-name="Path 17651" d="M126.551,303.361a21.254,21.254,0,0,1-3.6,42.2q-.4,0-.8-.015v1.38q.4.014.8.014a22.632,22.632,0,0,0,3.9-44.925Z" transform="translate(-122.143 -292.058)" fill="#fff"/>
      <path id="Path_17652" data-name="Path 17652" d="M122.924,297.536a24.084,24.084,0,0,1,0,48.168q-.391,0-.781-.012v1.379q.389.012.781.012a25.463,25.463,0,1,0,.256-50.925h-1.037v1.391q.389-.012.781-.012" transform="translate(-122.143 -289.422)" fill="#fff"/>
      <path id="Path_17653" data-name="Path 17653" d="M123.192,292.9a26.675,26.675,0,1,1,.331,53.348H122.21v1.371h1.376a28.046,28.046,0,1,0-.394-56.09h-.982v1.389m.982-.018" transform="translate(-122.173 -287.341)" fill="#fff"/>
      <path id="Path_17654" data-name="Path 17654" d="M124.135,287.916a29.423,29.423,0,1,1-.784,58.841q-.6,0-1.206-.026v.735s5.5.025,7.492.025a30.807,30.807,0,0,0-5.439-60.953Z" transform="translate(-122.143 -285.094)" fill="#fff"/>
      <path id="Path_17655" data-name="Path 17655" d="M140.175,285.25a32.044,32.044,0,0,1,4,60.409q-.792.335-1.6.626l3.614-.025a33.417,33.417,0,0,0-5.691-62.347" transform="translate(-130.257 -283.913)" fill="#fff"/>
      <path id="Path_17656" data-name="Path 17656" d="M182.5,390.379a45.9,45.9,0,0,0,6.015-7.78l-1.19-.69a44.247,44.247,0,0,1-6.729,8.471Z" transform="translate(-148.444 -328.007)" fill="#fff"/>
      <path id="Path_17657" data-name="Path 17657" d="M187.293,342.486v.024a40.256,40.256,0,0,1-11.829,28.161q-1.016,1.016-2.091,1.951h2.058a41.654,41.654,0,0,0,13.241-30.142v.007Z" transform="translate(-145.194 -310.25)" fill="#fff"/>
      <path id="Path_17658" data-name="Path 17658" d="M167.52,358.929a38.664,38.664,0,0,0,10.747-46.916l-1.224.635q.361.757.688,1.532a37.669,37.669,0,0,1,0,29.226,40.205,40.205,0,0,1-12.446,15.523Z" transform="translate(-141.555 -296.557)" fill="#fff"/>
    </g>
    <g id="Group_6937" data-name="Group 6937" transform="translate(50.211 313.429)">
      <g id="Group_6935" data-name="Group 6935">
        <path id="Path_17659" data-name="Path 17659" d="M53.079,344.944l5.511,13.763,5.522-13.763h2.88v16.869h-2.22v-6.568l.2-7.1-5.533,13.666h-1.7l-5.533-13.622.227,7.054v6.568H50.211V344.944Z" transform="translate(-50.211 -344.707)" fill="#fff"/>
        <path id="Path_17660" data-name="Path 17660" d="M86.231,358.781a7.429,7.429,0,0,1,.723-3.317,5.384,5.384,0,0,1,2.017-2.271,5.5,5.5,0,0,1,2.944-.8,5.289,5.289,0,0,1,4.147,1.774,6.835,6.835,0,0,1,1.58,4.719v.151a7.461,7.461,0,0,1-.7,3.279,5.3,5.3,0,0,1-2.006,2.265,5.575,5.575,0,0,1-3,.809,5.27,5.27,0,0,1-4.126-1.768,6.781,6.781,0,0,1-1.58-4.692Zm2.157.259a5.361,5.361,0,0,0,.965,3.344,3.278,3.278,0,0,0,5.182-.017,5.864,5.864,0,0,0,.96-3.586,5.378,5.378,0,0,0-.976-3.344,3.11,3.11,0,0,0-2.6-1.284,3.067,3.067,0,0,0-2.556,1.267,5.853,5.853,0,0,0-.975,3.62Z" transform="translate(-66.419 -348.06)" fill="#fff"/>
        <path id="Path_17661" data-name="Path 17661" d="M112.14,349.086v13.978q0,3.614-3.279,3.613a4.076,4.076,0,0,1-1.316-.2v-1.715a4.021,4.021,0,0,0,.971.1,1.465,1.465,0,0,0,1.1-.388,1.913,1.913,0,0,0,.377-1.348v-14.04Zm-2.372-3.333a1.278,1.278,0,0,1,.323-.874,1.171,1.171,0,0,1,.927-.366,1.228,1.228,0,0,1,.955.361,1.269,1.269,0,0,1,.329.885,1.209,1.209,0,0,1-.329.868,1.257,1.257,0,0,1-.955.345,1.2,1.2,0,0,1-.938-.345,1.25,1.25,0,0,1-.312-.874Z" transform="translate(-76.01 -344.513)" fill="#fff"/>
      </g>
      <g id="Group_6936" data-name="Group 6936" transform="translate(0 24.891)">
        <path id="Path_17662" data-name="Path 17662" d="M53.748,386.782H51.263v1.861H54.17v.84H50.211V383.43h3.928v.848H51.263v1.671h2.485Z" transform="translate(-50.211 -383.099)" fill="#fff"/>
        <path id="Path_17663" data-name="Path 17663" d="M60.08,387.738l.855-1.478h1.122l-1.373,2.214,1.42,2.283H60.99l-.9-1.536-.894,1.536h-1.12l1.424-2.283-1.374-2.214h1.115Z" transform="translate(-53.75 -384.372)" fill="#fff"/>
        <path id="Path_17664" data-name="Path 17664" d="M68.259,389.963a.913.913,0,0,0,.628-.221.748.748,0,0,0,.266-.545H70.1a1.48,1.48,0,0,1-.261.785,1.722,1.722,0,0,1-.666.575,2,2,0,0,1-.908.21,1.921,1.921,0,0,1-1.494-.609,2.423,2.423,0,0,1-.553-1.689v-.1a2.39,2.39,0,0,1,.547-1.646,1.9,1.9,0,0,1,1.5-.618,1.85,1.85,0,0,1,1.31.469A1.669,1.669,0,0,1,70.1,387.8h-.952a.919.919,0,0,0-.263-.633.852.852,0,0,0-.63-.249.888.888,0,0,0-.757.354,1.809,1.809,0,0,0-.268,1.077v.163a1.848,1.848,0,0,0,.27,1.088A.888.888,0,0,0,68.259,389.963Z" transform="translate(-57.416 -384.302)" fill="#fff"/>
        <path id="Path_17665" data-name="Path 17665" d="M75.654,385.2a1.583,1.583,0,0,1,1.25-.573q1.439,0,1.459,1.645v2.937h-1.01v-2.9a.888.888,0,0,0-.2-.658.822.822,0,0,0-.592-.193.971.971,0,0,0-.905.542v3.212h-1.01v-6.385h1.01Z" transform="translate(-61.205 -382.827)" fill="#fff"/>
        <path id="Path_17666" data-name="Path 17666" d="M85.831,390.687a1.566,1.566,0,0,1-.116-.417,1.707,1.707,0,0,1-2.285.114A1.232,1.232,0,0,1,83,389.43a1.279,1.279,0,0,1,.535-1.1,2.579,2.579,0,0,1,1.524-.385h.623v-.294a.707.707,0,0,0-.794-.77.89.89,0,0,0-.565.172.535.535,0,0,0-.22.439H83.1a1.118,1.118,0,0,1,.246-.693,1.651,1.651,0,0,1,.667-.5,2.33,2.33,0,0,1,.941-.184,1.887,1.887,0,0,1,1.261.4,1.426,1.426,0,0,1,.484,1.117v2.028a2.32,2.32,0,0,0,.17.971v.07Zm-1.111-.727a1.151,1.151,0,0,0,.565-.146.985.985,0,0,0,.4-.392v-.848h-.546a1.487,1.487,0,0,0-.844.2.634.634,0,0,0-.282.556.588.588,0,0,0,.193.462.746.746,0,0,0,.514.168Z" transform="translate(-64.966 -384.302)" fill="#fff"/>
        <path id="Path_17667" data-name="Path 17667" d="M92.559,386.19l.028.518a1.62,1.62,0,0,1,1.312-.6q1.4,0,1.428,1.609v2.972h-1.01v-2.914a.934.934,0,0,0-.184-.635.781.781,0,0,0-.606-.2.971.971,0,0,0-.909.553v3.2h-1.01v-4.5Z" transform="translate(-68.838 -384.302)" fill="#fff"/>
        <path id="Path_17668" data-name="Path 17668" d="M99.923,388.4a2.626,2.626,0,0,1,.493-1.672,1.577,1.577,0,0,1,1.306-.627,1.483,1.483,0,0,1,1.211.538l.046-.453h.91v4.361a1.812,1.812,0,0,1-.552,1.395,2.1,2.1,0,0,1-1.484.513,2.4,2.4,0,0,1-.967-.207,1.751,1.751,0,0,1-.72-.54l.48-.607a1.439,1.439,0,0,0,1.145.553,1.125,1.125,0,0,0,.8-.271,1.041,1.041,0,0,0,.292-.8v-.3a1.491,1.491,0,0,1-1.164.483,1.578,1.578,0,0,1-1.291-.627A2.714,2.714,0,0,1,99.923,388.4Zm1.006.089a1.81,1.81,0,0,0,.276,1.066.89.89,0,0,0,.768.389.969.969,0,0,0,.905-.526V387.44a.957.957,0,0,0-.9-.51.893.893,0,0,0-.776.4,2.028,2.028,0,0,0-.273,1.168Z" transform="translate(-72.58 -384.302)" fill="#fff"/>
        <path id="Path_17669" data-name="Path 17669" d="M110.858,390.768a2.1,2.1,0,0,1-1.56-.6,2.193,2.193,0,0,1-.6-1.61v-.123a2.713,2.713,0,0,1,.259-1.2,1.98,1.98,0,0,1,.73-.827,1.929,1.929,0,0,1,1.051-.3,1.767,1.767,0,0,1,1.419.586,2.478,2.478,0,0,1,.5,1.658v.41H109.72a1.351,1.351,0,0,0,.373.881,1.123,1.123,0,0,0,.823.323,1.369,1.369,0,0,0,1.13-.561l.545.518a1.794,1.794,0,0,1-.721.627,2.277,2.277,0,0,1-1.012.218Zm-.124-3.85a.848.848,0,0,0-.669.29,1.5,1.5,0,0,0-.325.809h1.923v-.074a1.235,1.235,0,0,0-.271-.766.846.846,0,0,0-.659-.259Z" transform="translate(-76.53 -384.302)" fill="#fff"/>
      </g>
    </g>
  </g>
</svg>
