<svg id="friends_active-24px" data-name="friends active-24px" xmlns="http://www.w3.org/2000/svg" width="24" height="24" viewBox="0 0 24 24">
  <path id="Path_1002" data-name="Path 1002" d="M0,0H24V24H0Z" fill="none"/>
  <path id="Path_1003" data-name="Path 1003" d="M9.35,12.35A3.675,3.675,0,1,0,5.675,8.675,3.679,3.679,0,0,0,9.35,12.35Zm0-5.25A1.575,1.575,0,1,1,7.775,8.675,1.573,1.573,0,0,1,9.35,7.1Zm0,7.088C6.893,14.188,2,15.416,2,17.862v.788A1.053,1.053,0,0,0,3.05,19.7h12.6a1.053,1.053,0,0,0,1.05-1.05v-.788C16.7,15.416,11.807,14.188,9.35,14.188ZM4.457,17.6A10.124,10.124,0,0,1,9.35,16.287,10.124,10.124,0,0,1,14.243,17.6ZM16.742,14.25A4.4,4.4,0,0,1,18.8,17.862V19.7h3.15A1.053,1.053,0,0,0,23,18.65v-.788C23,15.741,19.325,14.534,16.742,14.25Zm-1.092-1.9a3.675,3.675,0,0,0,0-7.35,3.618,3.618,0,0,0-1.575.367,5.734,5.734,0,0,1,0,6.615A3.618,3.618,0,0,0,15.65,12.35Z" transform="translate(-0.5 -0.35)" fill="#7e94ff"/>
</svg>
